<svg xmlns="http://www.w3.org/2000/svg" viewBox="0 0 262.75 227.85"><defs><style>.cls-1{fill:#edc158;}.cls-2{fill:#f59f2e;}.cls-3{fill:#efb79c;}.cls-4{fill:#3c2838;}.cls-5{fill:#8b3031;}.cls-6{fill:#ffc3a6;}.cls-7{fill:#dda990;}.cls-8{fill:#db8780;}.cls-9{fill:#372533;}.cls-10{fill:#4b1d19;}.cls-11{fill:#c69881;}.cls-12{fill:#6a1d18;}.cls-13{fill:#621b1a;}.cls-14{fill:#e4d6bd;}.cls-15{fill:#8088ad;}.cls-16{fill:#e2ad93;}.cls-17{fill:#72abad;}.cls-18{fill:#669a9c;}.cls-19{fill:#50787a;}.cls-20{fill:#694d50;}.cls-21{fill:#573f42;}</style></defs><g id="Camada_2" data-name="Camada 2"><g id="OBJECTS"><path class="cls-1" d="M149.21,84.68a75.89,75.89,0,0,0-9,.58,117.42,117.42,0,0,0-13.81,2.53c-3.7.88-7.58,1.95-12.21,3.36a45.6,45.6,0,0,0-9.65,4.17,30.22,30.22,0,0,0-4.57,3.2,13.8,13.8,0,0,0-3.17,3.74,8,8,0,0,0-.89,2.66,5.86,5.86,0,0,0,.27,2.67c.61,1.88,2,3.54,4.39,5.22a6.54,6.54,0,0,0,1.78,2.34,18.52,18.52,0,0,0,4.41,2.73,41.87,41.87,0,0,0,5.19,2c1.47.47,3,.91,4.68,1.31a52.26,52.26,0,0,0,5.33,1,50.75,50.75,0,0,0,6.79.44h.71a67.36,67.36,0,0,0,15.41-2.07,74.54,74.54,0,0,0,14.48-5.25,40.59,40.59,0,0,0,11.51-7.75,22.72,22.72,0,0,0,2.1-2.45,15.11,15.11,0,0,0,1.55-2.61,10.51,10.51,0,0,0,.84-2.69,8.55,8.55,0,0,0,0-2.72,9.61,9.61,0,0,0-3-5.25,21.4,21.4,0,0,0-5.74-3.79,36.74,36.74,0,0,0-12.53-3.17c-1.57-.14-3.23-.22-4.92-.22Z"/><path class="cls-2" d="M138.41,89c-1.56.08-3.1.23-4.65.41-1.32.15-2.64.35-4,.56-2.17.36-4.34.76-6.49,1.24a48.77,48.77,0,0,0-8,2.43,21.25,21.25,0,0,0-6.58,4,.24.24,0,0,0,0,.33.25.25,0,0,0,.34,0l.27-.24h0a17.94,17.94,0,0,1,3.75-2.45l-.06,0A36.69,36.69,0,0,1,122,92.33l-.1,0c1.7-.34,3.41-.62,5.14-.86.8-.11,1.61-.2,2.41-.29s1.74-.19,2.6-.26c1.18-.1,2.36-.19,3.54-.24s2.37-.09,3.55-.1c2.36,0,4.73.05,7.09.2l-.26,0c1.8.12,3.6.27,5.39.46l2.59.31,2.68.37a.91.91,0,0,0,.68-.13.92.92,0,0,0-.33-1.65c-.71-.11-1.42-.25-2.13-.36s-1.58-.23-2.37-.33c-1.55-.19-3.1-.34-4.65-.44-1.72-.11-3.44-.17-5.16-.17-1.41,0-2.81,0-4.21.11Z"/><path class="cls-3" d="M86.48,53.77h0a4.65,4.65,0,0,0-2.17.55,3.8,3.8,0,0,0-1.4,1.39,5.31,5.31,0,0,0-.63,1.9,9.44,9.44,0,0,0-.07,2.27,16.64,16.64,0,0,0,1.09,4.65,12.22,12.22,0,0,0,2,3.59,7.23,7.23,0,0,0,.75.72,6.88,6.88,0,0,0,1.5,1,3.07,3.07,0,0,0,1.36.36h.2a2.21,2.21,0,0,0,.65-.14,2.88,2.88,0,0,0,.67-.41,2.3,2.3,0,0,0,.63-1,3.92,3.92,0,0,0,.2-1.3A12.58,12.58,0,0,0,91,64.91l0-.18L90.8,64c-.14-.8-.28-1.61-.45-2.4A24.33,24.33,0,0,0,89,57.13a8.75,8.75,0,0,0-.79-1.46,5.33,5.33,0,0,0-1-1.1.74.74,0,0,0-.69-.8Z"/><path class="cls-4" d="M86.54,58.33a2,2,0,0,0-1.75,1.19,4.74,4.74,0,0,0-.38,2.33,8.79,8.79,0,0,0,.47,2.44,5.75,5.75,0,0,0,.44,1,3,3,0,0,0,.66.8,2.05,2.05,0,0,0,1.83.64,1.7,1.7,0,0,0,1.07-1.29A5.68,5.68,0,0,0,89,63.49a9.17,9.17,0,0,0-.44-2.08,3,3,0,0,0-1.47-1.89h0a.73.73,0,0,0,.19-.48.71.71,0,0,0-.21-.5.66.66,0,0,0-.46-.21Z"/><path class="cls-5" d="M85.1,37.4l-.28,0a2.44,2.44,0,0,0-1.15.4,2.78,2.78,0,0,0-.59.55.32.32,0,0,0-.14,0,.73.73,0,0,0-.72.72c0,.61,0,1.22,0,1.84,0,.91-.06,1.83-.07,2.75a41.27,41.27,0,0,0,.29,5.74,15.15,15.15,0,0,0,1.5,5.22,6.37,6.37,0,0,0,1.44,1.82,5.54,5.54,0,0,0,1,.67,3.4,3.4,0,0,0,1,.37l.4,0a1.92,1.92,0,0,0,.55-.08,1.86,1.86,0,0,0,.78-.51,3.46,3.46,0,0,0,.72-1.71,17.77,17.77,0,0,0,0-4.55l-.06-.58c0-.44-.08-.88-.11-1.32s0-1.06-.05-1.6v-.68c0-1.13-.08-2.06-.16-2.92a14.43,14.43,0,0,0-.53-2.88,5.48,5.48,0,0,0-.93-1.84,4.87,4.87,0,0,0-.8-.72,4.27,4.27,0,0,0-1.23-.6,3.11,3.11,0,0,0-.81-.12Z"/><path class="cls-6" d="M128.27,80.25H128a10.53,10.53,0,0,0-3.45.81,19.28,19.28,0,0,0-3.32,1.72,27.69,27.69,0,0,0-2.71,1.94.75.75,0,0,0-.15,1,.53.53,0,0,0,0,.25,17,17,0,0,1,.58,3.67s0,.06,0,.06,0,0,0,0h0a22.89,22.89,0,0,1-.64,5.56,37.59,37.59,0,0,1-3.63,9,.68.68,0,0,0,0,.54.77.77,0,0,0,.11.71,14.41,14.41,0,0,0,8,5.34,16.72,16.72,0,0,0,4.46.62,13.91,13.91,0,0,0,5.31-1,11.24,11.24,0,0,0,2.1-1.17,9.75,9.75,0,0,0,1.79-1.61,10.17,10.17,0,0,0,1.4-2.08,11.62,11.62,0,0,0,.94-2.67.66.66,0,0,0-.16-.53.74.74,0,0,0-.46-.26,17,17,0,0,1-2.25-2.9l0,0a28.49,28.49,0,0,1-2.89-6.55,32.34,32.34,0,0,1-1.37-7.95,24.37,24.37,0,0,1,.1-3.11.68.68,0,0,0-.16-.52.66.66,0,0,0-.48-.26h-.06a.49.49,0,0,0-.2,0,4.59,4.59,0,0,0-1.2-.47,6.19,6.19,0,0,0-1.45-.17Z"/><path class="cls-7" d="M128,80.23a10.88,10.88,0,0,0-3.46.82,19.4,19.4,0,0,0-3.32,1.73,25.29,25.29,0,0,0-2.71,1.94.74.74,0,0,0-.15,1,.46.46,0,0,0,0,.26,16.85,16.85,0,0,1,.58,3.66l0,.11a19.6,19.6,0,0,1-.08,2,20.16,20.16,0,0,0,3.3-.16h0A23.47,23.47,0,0,0,128,90L128,90a20.09,20.09,0,0,0,4.05-2.2,28.81,28.81,0,0,1-.28-3,22.77,22.77,0,0,1,.1-3.11.77.77,0,0,0-.16-.54.78.78,0,0,0-.5-.27.75.75,0,0,0-.27,0,4.47,4.47,0,0,0-1.19-.47,6.19,6.19,0,0,0-1.45-.17Z"/><path class="cls-6" d="M114.85,15.8h-1.16c-4,.08-8.08.56-12,1l-3,.35a37.09,37.09,0,0,0-6.47,1.12c-.43.12-.85.26-1.26.41A10.64,10.64,0,0,0,87.22,21a9.88,9.88,0,0,0-2.65,5.47,33.59,33.59,0,0,0-.37,4.19,32.12,32.12,0,0,0,.09,4.21,168.47,168.47,0,0,0,3.76,30.57A48.47,48.47,0,0,0,92.63,79a23.16,23.16,0,0,0,4.12,5.46,20.83,20.83,0,0,0,6,4,24.37,24.37,0,0,0,6.83,1.92,30.49,30.49,0,0,0,3.82.24,31.21,31.21,0,0,0,3.18-.16,38.07,38.07,0,0,0,13.52-4.08,37.33,37.33,0,0,0,5.79-3.66,46.13,46.13,0,0,0,5.38-4.87A31,31,0,0,0,145.61,72a23,23,0,0,0,2.49-6.29,9.88,9.88,0,0,0,5.1-1.81A9.28,9.28,0,0,0,155.77,61a10.83,10.83,0,0,0,1.28-3.58,13.6,13.6,0,0,0,.13-3.87,13.11,13.11,0,0,0-1-3.71,10.42,10.42,0,0,0-2-3.09,7.74,7.74,0,0,0-5.79-2.57,8.39,8.39,0,0,0-1,.06,11.77,11.77,0,0,0-2.18.53l-.18.07-.18.06c-.49.19-.83.34-1.13.49l-.4.22a58,58,0,0,0,.21-6.44c-.17-5.34-1.23-9.53-3.26-12.79a17.22,17.22,0,0,0-4.54-4.89,21,21,0,0,0-3.24-2,30.38,30.38,0,0,0-3.86-1.54,42.35,42.35,0,0,0-7.63-1.76,48.33,48.33,0,0,0-6.22-.38Z"/><path class="cls-3" d="M113.69,15.78c-4,.09-8,.56-11.81,1h-.1l-.17,0c-1.06.13-2,.24-2.91.33a39.72,39.72,0,0,0-6.48,1.13c-.42.13-.84.26-1.25.42A10.37,10.37,0,0,0,87.21,21a9.86,9.86,0,0,0-2.66,5.48,34.7,34.7,0,0,0-.37,4.19,32.28,32.28,0,0,0,.09,4.21q.11,3.75.4,7.57l.72,0a24.12,24.12,0,0,0,2.55-.06h-.07a19.3,19.3,0,0,0,4.84-1l-.06,0a17.08,17.08,0,0,0,2.16-.92,19.17,19.17,0,0,0,1.91-1.13l0,0a18.34,18.34,0,0,0,2-1.55,21.73,21.73,0,0,0,1.79-1.8h0l0,0h0a25.54,25.54,0,0,0,2.39-3.29.23.23,0,0,1,.2-.11h.06l0,0a.24.24,0,0,1,.12,0,.23.23,0,0,1,.2.11,19,19,0,0,0,1.61,2.37h0a19,19,0,0,0,1.71,1.87,21.69,21.69,0,0,0,1.87,1.58h0a21.06,21.06,0,0,0,2.14,1.38,24.3,24.3,0,0,0,2.31,1.1,18.87,18.87,0,0,0,4.5,1.17h0a17.67,17.67,0,0,0,4.42,0H122a10.53,10.53,0,0,0,2.64-.71h0a7.06,7.06,0,0,0,.67-.35c.17-.11.34-.22.5-.34a4.38,4.38,0,0,0,.39-.36l.18-.19a1.49,1.49,0,0,1,0-.21.23.23,0,0,1,.23-.24.27.27,0,0,1,.17.06v0a.28.28,0,0,1,.13,0A.26.26,0,0,1,127,40a.19.19,0,0,1,0,.18l-.12.17c0,.29.07.57.11.86a.13.13,0,0,0,0-.06,38.57,38.57,0,0,0,.87,4.25,33.12,33.12,0,0,0,1.56,4.56v0h0a17.8,17.8,0,0,0,2.27,3.92h0a9.27,9.27,0,0,0,1.7,1.67l0,0a6.49,6.49,0,0,0,1.46.81,5,5,0,0,0,1.27.32h0a6.4,6.4,0,0,0,1.45,0h-.06a8.29,8.29,0,0,0,1.88-.56h0a10.76,10.76,0,0,0,1.17-.61.24.24,0,0,1,.33.08,23,23,0,0,1,1.8,4.94,17.73,17.73,0,0,1,.41,6.2,16.24,16.24,0,0,1-.57,2.84,18,18,0,0,1-1,2.68,24.74,24.74,0,0,1-7.92,9,38.7,38.7,0,0,1-5.7,3.41,39.15,39.15,0,0,1-5.41,2.22,40.89,40.89,0,0,1-5.35,1.3,41.82,41.82,0,0,1-5.78.61,35.6,35.6,0,0,1-5.84-.28,25.37,25.37,0,0,1-5-1.19,20.27,20.27,0,0,0,2.22,1.15,24.21,24.21,0,0,0,6.84,1.93,31.65,31.65,0,0,0,3.82.25c1,0,2.09-.06,3.18-.17a38.22,38.22,0,0,0,13.53-4.09,36.56,36.56,0,0,0,5.79-3.65,47.82,47.82,0,0,0,5.39-4.88A31,31,0,0,0,145.63,72a22.7,22.7,0,0,0,2.48-6.29,9.76,9.76,0,0,0,5.1-1.8A9.08,9.08,0,0,0,155.78,61a10.89,10.89,0,0,0,1.3-3.6,13.87,13.87,0,0,0,.12-3.86,13.25,13.25,0,0,0-1-3.72,10.63,10.63,0,0,0-2-3.09,7.84,7.84,0,0,0-3-2,7.7,7.7,0,0,0-2.82-.53,8.55,8.55,0,0,0-1,.06,10.7,10.7,0,0,0-2.18.54l-.18.06-.19.07c-.48.19-.83.34-1.12.49l-.4.22a51,51,0,0,0,.23-6.43c-.16-5.35-1.23-9.54-3.26-12.8a17.42,17.42,0,0,0-4.54-4.9,21.36,21.36,0,0,0-3.25-2,28.15,28.15,0,0,0-3.86-1.54,41.63,41.63,0,0,0-7.63-1.77,48.46,48.46,0,0,0-6.23-.39ZM105,35v0Zm3.56,3.45,0,0,0,0Zm9,3.68h0Zm21.84,13.9h0Z"/><polygon class="cls-3" points="124.67 41.41 124.66 41.41 124.67 41.41 124.67 41.41 124.67 41.41"/><polygon class="cls-3" points="124.66 41.42 124.66 41.41 124.66 41.42 124.66 41.42 124.66 41.42"/><path class="cls-3" d="M136.09,56.63h0Z"/><polygon class="cls-3" points="124.64 41.42 124.64 41.42 124.64 41.42 124.64 41.42 124.64 41.42"/><path class="cls-8" d="M116.2,73.09c-.76.45-1.55.85-2.29,1.34a5.91,5.91,0,0,0-1,.83,3.72,3.72,0,0,0-.72,1.11.64.64,0,0,0,0,.49,4.1,4.1,0,0,0-.53,1,.7.7,0,0,0,0,.6.61.61,0,0,0,0,.13l-.16,0a.78.78,0,0,0-.36.4.75.75,0,0,0,0,.55.68.68,0,0,0,.4.36,4,4,0,0,0,1.09.14,4.2,4.2,0,0,0,1.22-.19,6.59,6.59,0,0,0,2.3-1.24,7.79,7.79,0,0,0,1.71-2,5.78,5.78,0,0,0,.84-2.27.69.69,0,0,0-.31-.64.68.68,0,0,0-.71-.06,3.68,3.68,0,0,0-.39.24l0-.1a.53.53,0,0,0-.11-.15.54.54,0,0,0-.07-.27.74.74,0,0,0-.65-.41.6.6,0,0,0-.29.08Z"/><path class="cls-8" d="M118,73.33a.68.68,0,0,0-.36.4A7.35,7.35,0,0,1,117,75.3a7.23,7.23,0,0,1-.94,1.39,6.81,6.81,0,0,1-1.08.93,6.71,6.71,0,0,1-1,.49.71.71,0,0,0,.07,1.31.75.75,0,0,0,.55,0,7.36,7.36,0,0,0,4.31-5.18.8.8,0,0,0,0-.55.78.78,0,0,0-.4-.36,1,1,0,0,0-.24,0,.82.82,0,0,0-.31.07Zm-.94,2,0,.06,0-.06Z"/><path class="cls-9" d="M120.89,52.2a.73.73,0,0,0-.49.88c.07.3.13.6.17.9a9.81,9.81,0,0,1,0,2.48,6.45,6.45,0,0,1-.33,1.31,4,4,0,0,1-.43.75,3.66,3.66,0,0,1-.44.44,4.85,4.85,0,0,1-.49.29,4.64,4.64,0,0,1-.64.17,3.62,3.62,0,0,1-.57,0,4.42,4.42,0,0,1-.52-.14,3.55,3.55,0,0,1-.53-.32,4.86,4.86,0,0,1-.68-.68A7.27,7.27,0,0,1,115.2,57a9.94,9.94,0,0,1-.63-2.27,7.4,7.4,0,0,1,0-.94.71.71,0,1,0-1.42,0,8.89,8.89,0,0,0,.3,2.29,9.69,9.69,0,0,0,.94,2.37A5.7,5.7,0,0,0,116,60.25a3.42,3.42,0,0,0,2.28.59,3.86,3.86,0,0,0,2.33-1.06,4.76,4.76,0,0,0,1.19-2.12,8.54,8.54,0,0,0,.29-2.51,11.26,11.26,0,0,0-.31-2.45.72.72,0,0,0-.7-.52l-.18,0Zm-.28,4.15s0,.07,0,.11,0-.07,0-.11Z"/><path class="cls-9" d="M97.86,54.3a.72.72,0,0,0-.5.88,10.23,10.23,0,0,1,.3,1.44,11.6,11.6,0,0,1,0,2.76,5.93,5.93,0,0,1-.3,1.19,3.6,3.6,0,0,1-.31.54,2.47,2.47,0,0,1-.28.28l-.27.17a3.25,3.25,0,0,1-.42.11h-.38l-.3-.08c-.13-.07-.26-.14-.38-.22a4.16,4.16,0,0,1-.46-.48A6.53,6.53,0,0,1,94,59.74,14.61,14.61,0,0,1,93,56.05a.7.7,0,0,0-.33-.42.71.71,0,0,0-1,.25.76.76,0,0,0-.07.55,14.44,14.44,0,0,0,1.2,4.28,6.21,6.21,0,0,0,.6,1,6.12,6.12,0,0,0,.41.48,3,3,0,0,0,.47.39,2.76,2.76,0,0,0,1,.46,3.14,3.14,0,0,0,1.26,0,2.54,2.54,0,0,0,1-.41,3.27,3.27,0,0,0,.84-.86,4.15,4.15,0,0,0,.49-1.07,7.83,7.83,0,0,0,.26-1.26,11,11,0,0,0,0-2.5,11.75,11.75,0,0,0-.39-2.13.73.73,0,0,0-.69-.52.55.55,0,0,0-.18,0Zm-.13,4.94s0,.09,0,.13,0-.09,0-.13Zm-3.82.38a.14.14,0,0,1,0,.06l0-.06Z"/><path class="cls-10" d="M116.05,68.73a3.32,3.32,0,0,0-.74.09,3.55,3.55,0,0,0-.94.42,8,8,0,0,0-1.56,1.43l-.2.22c-.35.37-.7.76-1.08,1.11a9.11,9.11,0,0,1-2.1.5l-.48.08a4.81,4.81,0,0,0-2.34.9,3.71,3.71,0,0,0-.86,1,2.71,2.71,0,0,0-.06,2.55,4,4,0,0,0,.81,1.12,6.92,6.92,0,0,0,1,.86,8.12,8.12,0,0,0,1.29.73,8.3,8.3,0,0,0,1.16.44,6.91,6.91,0,0,0,1.62.28h.32a8.47,8.47,0,0,0,1.31-.12,7,7,0,0,0,1.68-.53,8.12,8.12,0,0,0,2.77-2,7.22,7.22,0,0,0,1.31-2,8.36,8.36,0,0,0,.53-2.11,4.78,4.78,0,0,0-1.16-4,3.51,3.51,0,0,0-2-.92l-.34,0Zm.55,5.44h0a3.1,3.1,0,0,1,.86,0,3.41,3.41,0,0,1,.73.2l.12.06.12,0c-.1.34-.2.68-.32,1a7.06,7.06,0,0,1-.78,1.33,8.33,8.33,0,0,1-1.25,1.27l-.07.07h0a9.74,9.74,0,0,1-1.57.88,7.36,7.36,0,0,1-1.64.46c-.25,0-.51,0-.76.06a5,5,0,0,1,0-.67,4.8,4.8,0,0,1,.32-1.13,6.36,6.36,0,0,1,.81-1.4,7.37,7.37,0,0,1,1.14-1.16,6.08,6.08,0,0,1,1.19-.72,5.15,5.15,0,0,1,1-.29h0Z"/><path class="cls-11" d="M104.41,50.07c.27,3.19.6,6.38.71,9.58a3.69,3.69,0,0,0-2.65-.18,2.82,2.82,0,0,0-1.31,1,3.73,3.73,0,0,0-.59,1.37,6.5,6.5,0,0,0,.29,3.49,7.28,7.28,0,0,0,.86,1.69,8.94,8.94,0,0,0,.62.76,6.51,6.51,0,0,0,.79.69,5.57,5.57,0,0,0,4.05,1,.86.86,0,0,0,.51-.21.7.7,0,0,0,.2-.5.74.74,0,0,0-.2-.51.69.69,0,0,0-.51-.2,5.87,5.87,0,0,1-1.39,0,4.84,4.84,0,0,1-1.05-.3,4.3,4.3,0,0,1-.85-.5,5.26,5.26,0,0,1-.85-.85,6.27,6.27,0,0,1-.7-1.2,6.75,6.75,0,0,1-.43-1.52,5.4,5.4,0,0,1,0-1.27,2.54,2.54,0,0,1,.45-1.19,1.54,1.54,0,0,1,.26-.25,1.28,1.28,0,0,1,.25-.15,1.61,1.61,0,0,1,.36-.1,2.62,2.62,0,0,1,.56,0,5.47,5.47,0,0,1,.9.26c.28.13.55.27.82.42a.72.72,0,0,0,1.07-.61c-.06-3.59-.44-7.16-.74-10.74a.78.78,0,0,0-.21-.5.71.71,0,0,0-1.21.5Zm-.74,10.65h0Zm-1.53.85,0,.06,0-.06Zm-.24,2a.2.2,0,0,0,0,.07v-.07Zm0,.12v0Zm.38,1.38,0,0,0,0Zm2.51,2.69.07,0-.07,0Zm1,.27h0Z"/><path class="cls-12" d="M93.14,43.94a9.09,9.09,0,0,0-2.27,1.13,7.48,7.48,0,0,0-1.27,1.15,6.61,6.61,0,0,0-.71,1c-.25.39-.46.79-.67,1.19-.36.72-.52,1.45-.8,2.17-.14.37.29.68.83.68a1.31,1.31,0,0,0,1.24-.65,1.54,1.54,0,0,0,.08-.19,5.77,5.77,0,0,1,.71-.91,10,10,0,0,1,1.31-1.07q.41-.23.84-.42c.75-.29,1.52-.53,2.31-.76a13.08,13.08,0,0,0,1.42-.46c.36-.14.71-.28,1-.44a2.91,2.91,0,0,0,1-.8,1,1,0,0,0-.12-1.44A2.41,2.41,0,0,0,97,43.62a10.54,10.54,0,0,0-1.13-.11,6.27,6.27,0,0,0-1.42.11,10,10,0,0,0-1.28.32Z"/><path class="cls-12" d="M116.51,40a11.28,11.28,0,0,1,2.94.58,9.49,9.49,0,0,1,1.9.88,8.46,8.46,0,0,1,1.25.89c.46.35.88.72,1.29,1.1.74.67,1.27,1.41,1.92,2.12.32.35,0,.8-.54,1a1.73,1.73,0,0,1-1.63-.36l-.17-.17a8,8,0,0,0-1.2-.79,15,15,0,0,0-1.91-.79,10,10,0,0,0-1.09-.21c-.93-.1-1.86-.14-2.8-.17a16.23,16.23,0,0,1-1.72-.09c-.45,0-.89-.1-1.33-.18a4.1,4.1,0,0,1-1.41-.58,1.67,1.67,0,0,1-.65-.77,1,1,0,0,1,.07-.82,1.92,1.92,0,0,1,.89-.87c.36-.16.74-.31,1.13-.44A6.77,6.77,0,0,1,115,40a10.88,10.88,0,0,1,1.51,0Z"/><path class="cls-5" d="M77.6,5.32A10.27,10.27,0,0,0,71,7.79a8.27,8.27,0,0,0-1.7,2,9.56,9.56,0,0,0-1.25,5,12.58,12.58,0,0,0,.62,3.7A13.82,13.82,0,0,0,70.31,22a13.13,13.13,0,0,0,2.48,2.86c.12.11.25.21.38.31a5.82,5.82,0,0,0-1.89.81,5.43,5.43,0,0,0-1,.88,4.57,4.57,0,0,0-.41.57,5.21,5.21,0,0,0-.35.71,5.63,5.63,0,0,0-.33,1.44,6.56,6.56,0,0,0,.1,1.74,8.3,8.3,0,0,0,2.57,4.62,14.44,14.44,0,0,0,4.86,2.9,22.11,22.11,0,0,0,5.56,1.27,17.92,17.92,0,0,0,2,.11h.59a18.56,18.56,0,0,0,3.22-.43,16.89,16.89,0,0,0,6-2.64,27.34,27.34,0,0,0,4.76-4.3c1.13-1.25,2.22-2.58,3.26-3.87.56-.68,1.12-1.37,1.69-2.05A12.12,12.12,0,0,0,105.46,31a12.33,12.33,0,0,0,3.65,3.57,17.92,17.92,0,0,0,4.76,2.11,29.68,29.68,0,0,0,5.36,1,42.7,42.7,0,0,0,4.65.23c1.37,0,2.83,0,4.45-.16a18.62,18.62,0,0,0,.42,3.22,28.47,28.47,0,0,0,1.43,4.81,22.15,22.15,0,0,0,2.3,4.44,9.75,9.75,0,0,0,3,3,5.26,5.26,0,0,0,1.47.55,4.64,4.64,0,0,0,1.66,0,4.45,4.45,0,0,0,1.58-.62,7.45,7.45,0,0,0,1.57-1.3,13.32,13.32,0,0,0,1.57-2,15.41,15.41,0,0,0,1.52-3.07,17.67,17.67,0,0,0,1.06-5.56.81.81,0,0,0,.19-.48,26.18,26.18,0,0,0-.23-6.09,33.35,33.35,0,0,0-1.61-6.42,30.75,30.75,0,0,0-2.88-6,19.69,19.69,0,0,0-4-4.65,17.94,17.94,0,0,0-2.77-1.86,26.55,26.55,0,0,0-3.32-1.54,30.84,30.84,0,0,0-7-1.75,63.88,63.88,0,0,0-9.25-.55c-1.49,0-3,0-4.46.05l-1.12,0c-1.17,0-2.34,0-3.52,0a67.21,67.21,0,0,1-8.83-.48H97a33.51,33.51,0,0,1-8-2.15c-.79-.33-1.61-.74-2.41-1.12l-1-.5a35,35,0,0,0-3.76-1.58A14,14,0,0,0,78,5.32Z"/><path class="cls-13" d="M93.54,11.4a.81.81,0,0,0-.47.27.67.67,0,0,0-.14.53.7.7,0,0,0,.26.46.67.67,0,0,0,.54.15,13.4,13.4,0,0,1,3.16-.39,19.51,19.51,0,0,1,4.86.73l-.19-.05a26.34,26.34,0,0,1,4.73,1.84.72.72,0,0,0,.94-.37.73.73,0,0,0-.38-.94,26.32,26.32,0,0,0-6.49-2.26A16.9,16.9,0,0,0,96.89,11a14,14,0,0,0-3.35.4Z"/><path class="cls-13" d="M93.83,11.13a.72.72,0,0,0-.61.8.73.73,0,0,0,.27.47.76.76,0,0,0,.53.14c1.19-.06,2.37-.16,3.55-.17q.66,0,1.32.06a.73.73,0,0,0,.8-.61.72.72,0,0,0-.61-.8c-.5,0-1-.06-1.49-.06-1.26,0-2.51.11-3.76.17Z"/><path class="cls-13" d="M96.13,11c.62.22,1.23.45,1.84.69a53.92,53.92,0,0,1,12.42,6.63,38.22,38.22,0,0,1,5.28,4.64A34.78,34.78,0,0,1,118,25.72c.75,1,1.44,2,2.09,3a.24.24,0,0,1,0,.29.26.26,0,0,1-.29,0l-.43-.22a5.48,5.48,0,0,0-1.1-.37,2.92,2.92,0,0,0-.59,0,1.53,1.53,0,0,0-.36.07,1.37,1.37,0,0,0-.32.16,1.3,1.3,0,0,0-.22.19,1.61,1.61,0,0,0-.17.28,1.35,1.35,0,0,0-.11.34,2.63,2.63,0,0,0,0,.48,3.46,3.46,0,0,0,.13.64,3.81,3.81,0,0,0,.42.86l0,0a6,6,0,0,0,.79.88,6.27,6.27,0,0,0,.59.42,7.19,7.19,0,0,0,.67.37h0a9.84,9.84,0,0,0,2.13.63c.72.13,1.44.2,2.16.27s1.42.13,2.13.23a12,12,0,0,1,2,.41,6.48,6.48,0,0,1,1.74.83,5,5,0,0,1,.78.66,5.57,5.57,0,0,1,.62.76,7.4,7.4,0,0,1,1,2.33,14.19,14.19,0,0,1,.3,1.58c.07.48.12,1,.18,1.46s.13,1,.22,1.45a11.35,11.35,0,0,0,.36,1.42v0A11.9,11.9,0,0,0,134,47.72h0a15.29,15.29,0,0,0,1.13,1.42,15.83,15.83,0,0,0,1.31,1.28h0l0,0h0a16.13,16.13,0,0,0,1.59,1.16,14.14,14.14,0,0,0,1.62.89l.87.37a8.69,8.69,0,0,0,1.22-1.06,14.2,14.2,0,0,0,1.57-2.05,16.27,16.27,0,0,0,1.52-3.07A17.91,17.91,0,0,0,146,41.12a.68.68,0,0,0,.18-.48,25.71,25.71,0,0,0-.22-6.1,33.72,33.72,0,0,0-1.61-6.42,31.07,31.07,0,0,0-2.89-6,19.75,19.75,0,0,0-4-4.66,18.86,18.86,0,0,0-2.78-1.85,25,25,0,0,0-3.33-1.55,31.65,31.65,0,0,0-7-1.75,64.37,64.37,0,0,0-9.26-.54c-1.48,0-3,0-4.45,0l-1.12,0c-1.17,0-2.35,0-3.52,0-1.37,0-2.61,0-3.77-.07-.61-.18-1.24-.33-1.87-.46l-.9-.16a.63.63,0,0,0-.39-.19q-.72-.06-1.5-.06c-.48,0-1,0-1.45,0Zm21.7,21.37h0ZM134,47.72h0Z"/><path class="cls-14" d="M117,31.49v0l0,0,0,0Z"/><polygon class="cls-14" points="119.08 33.14 119.08 33.14 119.08 33.14 119.08 33.14 119.08 33.14 119.08 33.14"/><polygon class="cls-14" points="119.09 33.14 119.09 33.14 119.08 33.14 119.09 33.14 119.09 33.14 119.09 33.14"/><polygon class="cls-14" points="119.11 33.15 119.1 33.15 119.1 33.15 119.1 33.15 119.11 33.15 119.11 33.15 119.11 33.15"/><path class="cls-14" d="M136.51,50.45h0Z"/><path class="cls-13" d="M99.87,25.41a.84.84,0,0,0-.54.38A20.59,20.59,0,0,1,97,29.3l.06-.07-.08.1-.08.09.06-.08a18.4,18.4,0,0,1-3.28,2.95,21.14,21.14,0,0,1-4.51,2.32h0l-.11,0-.06,0h0a21.35,21.35,0,0,1-5.19,1.11H84a20.42,20.42,0,0,1-5.18-.15h.1a17.4,17.4,0,0,1-4.34-1.37l0,0a13.66,13.66,0,0,1-1.41-.77.28.28,0,0,0-.37.08.27.27,0,0,0,.08.36,18.55,18.55,0,0,0,5.32,2.28,27.61,27.61,0,0,0,2.88.55,17.1,17.1,0,0,0,3,.13,21,21,0,0,0,5.88-1,22.06,22.06,0,0,0,2.82-1.12,19.32,19.32,0,0,0,2.62-1.57,17.13,17.13,0,0,0,3.21-2.92,15.17,15.17,0,0,0,1.26-1.72,13.76,13.76,0,0,0,1-2,1,1,0,0,0,0-.46.89.89,0,0,0-.85-.68l-.19,0ZM89,34.65h0l.07,0-.1,0Zm-14.39-.38h0Zm22.28-4.93h0l0,0,0,0Z"/><path class="cls-13" d="M95.94,24.83a.42.42,0,0,0-.28.18,7.46,7.46,0,0,1-.85,1.3l.06-.07a6,6,0,0,1-.61.62,5,5,0,0,1-.62.49,7.66,7.66,0,0,1-1.64.83,6.13,6.13,0,0,1-1.2.27.23.23,0,0,0-.18.28.23.23,0,0,0,.28.18,8,8,0,0,0,1.67-.34,7.13,7.13,0,0,0,1.5-.72,7,7,0,0,0,1.86-1.65,4.85,4.85,0,0,0,.47-.71.47.47,0,0,0,.06-.33.44.44,0,0,0-.19-.27.4.4,0,0,0-.24-.07Z"/><path class="cls-13" d="M77.48,7.72a.24.24,0,0,0-.25.22.25.25,0,0,0,.23.25,9.77,9.77,0,0,1,2,.15h-.07a17.78,17.78,0,0,1,4.31,1.5l-.08,0c1.45.69,2.88,1.45,4.33,2.13q1,.49,2.1.9a20.94,20.94,0,0,0,2.34.69c.81.2,1.63.35,2.45.47a15.49,15.49,0,0,0,2.64.19A13.43,13.43,0,0,0,100,13.9a10.29,10.29,0,0,0,2.53-.89.7.7,0,0,0,.3-.94.73.73,0,0,0-.41-.34.75.75,0,0,0-.53,0l-.82.34a13.38,13.38,0,0,1-1.53.44c-.49.11-1,.18-1.46.24l-1.14.06c-.45,0-.89,0-1.33,0a19.27,19.27,0,0,1-2.51-.28c-.67-.13-1.34-.25-2-.43a18.85,18.85,0,0,1-2-.67c-1.31-.52-2.58-1.13-3.87-1.7a34.34,34.34,0,0,0-3.92-1.49,12.23,12.23,0,0,0-3.44-.54ZM101,12.14h0Zm-3,.66h0Z"/><path class="cls-13" d="M107.8,15.06a3.68,3.68,0,0,1-.39.3,6.1,6.1,0,0,1-1.08.55,7.59,7.59,0,0,1-1.49.31h0a12.93,12.93,0,0,1-2.41-.06.6.6,0,0,0,0,1.2,13.68,13.68,0,0,0,3.26,0,7.27,7.27,0,0,0,1.65-.42,4.93,4.93,0,0,0,1.45-.89.69.69,0,0,0,0-1,.67.67,0,0,0-.51-.22.73.73,0,0,0-.46.17Zm-.3.25,0,0,0,0Zm-2.68.91h0Z"/><path class="cls-6" d="M29.56,75.65a4.82,4.82,0,0,0-.65,0,4.93,4.93,0,0,0-.9.18,6.82,6.82,0,0,0-.88.36,6.25,6.25,0,0,0-1.55,1.17,7.88,7.88,0,0,0-.7.83.64.64,0,0,0-.44-.17.72.72,0,0,0-.51.22.7.7,0,0,0-.21.5A23.4,23.4,0,0,0,25,86.38a19.3,19.3,0,0,0,1.65,3.5,15.84,15.84,0,0,0,2.36,3,7.67,7.67,0,0,0,5.32,2.42,5.92,5.92,0,0,0,4.45-2.1,7.77,7.77,0,0,0,1.7-5.35A10.23,10.23,0,0,0,40,85a14.68,14.68,0,0,0-1.11-2.41,18,18,0,0,0-1.64-2.35,15.73,15.73,0,0,0-2-2,9.72,9.72,0,0,0-4.66-2.42,5.83,5.83,0,0,0-1-.09Z"/><path class="cls-4" d="M30.48,87,16.85,72,39.53,51.39l13.63,15L30.48,87Z"/><path class="cls-1" d="M27.72,74.5a2.12,2.12,0,0,0-.44.06l-.28.07-.14.05-.19.08-.3.17-.17.12-.06,0-.23.21-.06.06h0l-.05,0-.11.15-.06.08a2.88,2.88,0,0,0-.22.38.25.25,0,0,0,0,.07l-.09.23s0,0,0,0-.05.18-.07.27a2.7,2.7,0,0,0-.06.41h0v.27h0a.45.45,0,0,0,0,.11.89.89,0,0,0,0,.22c0,.11,0,.22.07.33s0,0,0,0a3.65,3.65,0,0,0,.14.35v0l0,0,.13.23h0a3.15,3.15,0,0,0,.22.29,3.07,3.07,0,0,0,.25.26,2.34,2.34,0,0,0,.31.24l.22.13-.05,0a3.3,3.3,0,0,0,.43.19l.37.1h-.05a3.22,3.22,0,0,0,.69.06,2.12,2.12,0,0,0,.43-.06,1.38,1.38,0,0,0,.29-.08l-.05,0a3,3,0,0,0,.38-.15l.3-.17a1.83,1.83,0,0,0,.31-.24,1.88,1.88,0,0,0,.25-.24h0l.22-.29.1-.18a2.48,2.48,0,0,0,.17-.37,3.57,3.57,0,0,0,.1-.35,2,2,0,0,0,.06-.42,2.09,2.09,0,0,0,0-.25h0v0h0v0h0c0-.11,0-.23,0-.35l-.09-.36v0h0v0h0a2,2,0,0,0-.14-.34l-.18-.32-.23-.3-.21-.2a2.6,2.6,0,0,0-.33-.25L29,74.78h0l-.33-.14-.3-.08a3.66,3.66,0,0,0-.57,0Z"/><polygon class="cls-15" points="29.02 74.77 29.03 74.77 29.02 74.77 29.02 74.77 29.02 74.77 29.02 74.77"/><polygon class="cls-15" points="29.07 74.79 29.06 74.79 29.07 74.79 29.07 74.79 29.07 74.79"/><path class="cls-15" d="M30.4,76.35Z"/><polygon class="cls-15" points="30.4 76.35 30.41 76.36 30.4 76.35 30.4 76.35 30.4 76.35 30.4 76.35"/><path class="cls-15" d="M30.22,78.47v0s0,0,0,0Z"/><path class="cls-15" d="M29.88,79h0l0,0,0,0Z"/><path class="cls-1" d="M29.3,64l.22.24a0,0,0,0,0,0,0l4.86,5.54c.61.7,1.22,1.39,1.82,2.09l2.33,2.64,0,0v0l.84.95,9.93-8.72-1.27-1.45h0v0L39.23,55.24,29.3,64Z"/><path class="cls-6" d="M255.1,32.39h0a3.13,3.13,0,0,0-1.44,0,3.63,3.63,0,0,0-1.48.64,7,7,0,0,0-1.26,1.22,13.48,13.48,0,0,0-1.12,1.62c-.42.68-.8,1.38-1.11,2s-.7,1.36-1,2-.68,1.37-1,2l0,.05a1.43,1.43,0,0,0,0-.29,5.84,5.84,0,0,0-.26-2.39,4.84,4.84,0,0,0-.51-1,5.22,5.22,0,0,0-.83-.93,3.88,3.88,0,0,0-1.47-.93,2.12,2.12,0,0,0-1.41,0,2.51,2.51,0,0,0-1,.85,5.7,5.7,0,0,0-.7,1.34,13.57,13.57,0,0,0-.64,2.48,21.74,21.74,0,0,0-.31,2.45c-.06.67-.09,1.34-.12,2,0,.39,0,.79-.06,1.18a27.12,27.12,0,0,1-.59,4.66.13.13,0,0,1,0,.05h0v0h0a15.85,15.85,0,0,1-1.37,3.43c-.24.42-.5.83-.77,1.23a.58.58,0,0,0,.12.8.61.61,0,0,0,.18.09.55.55,0,0,0,.62-.21c.18-.25.34-.51.5-.77a7.94,7.94,0,0,0,1.85,3.3,6.38,6.38,0,0,0,1.76,1.25,4.8,4.8,0,0,0,.9.34,6.86,6.86,0,0,0,1.08.23,8.72,8.72,0,0,0,2.16,0,11.39,11.39,0,0,0,2.23-.51,17,17,0,0,0,4.29-2.14c.77-.52,1.56-1.12,2.5-1.89s1.69-1.47,2.51-2.28a25.69,25.69,0,0,0,4.13-5.21,8.76,8.76,0,0,0,1-2.34,3.43,3.43,0,0,0,0-1.82,1.82,1.82,0,0,0-.31-.58,1.73,1.73,0,0,0-.6-.49,1.58,1.58,0,0,0-.29-.12l-.35-.07a3.15,3.15,0,0,0-.8,0l-.38.08a21.44,21.44,0,0,0,1.54-2.3,11.76,11.76,0,0,0,1.49-3.59,3.86,3.86,0,0,0,0-1.51,2.34,2.34,0,0,0-.74-1.3,2.29,2.29,0,0,0-.61-.38,1.3,1.3,0,0,0-.25-.1,2.11,2.11,0,0,0-.45-.08,2.64,2.64,0,0,0-1.4.33,5.68,5.68,0,0,0-1.32,1,14.34,14.34,0,0,0-1.3,1.41l-.37.48a10.24,10.24,0,0,0,.37-2,3.88,3.88,0,0,0-.53-2.64,1.86,1.86,0,0,0-1-.71Z"/><path class="cls-16" d="M256,38c-.12.29-.24.59-.37.88a24.76,24.76,0,0,1-3.26,5.52l0,0,0,.05,0,0v0l-.22.27A.36.36,0,0,0,252,45a.34.34,0,0,0,.09.24.36.36,0,0,0,.25.11.34.34,0,0,0,.24-.09c.41-.5.79-1,1.15-1.56a19.34,19.34,0,0,0,1-1.78,39.11,39.11,0,0,0,1.65-3.75.21.21,0,0,0-.14-.26h-.06a.23.23,0,0,0-.2.16Zm-.37.89v0Zm-3.28,5.54h0v0l0,0Z"/><path class="cls-16" d="M258.83,44.09a8,8,0,0,1-.57.82.18.18,0,0,0,.05-.07,12.42,12.42,0,0,1-1.37,1.44c-.49.45-1,.89-1.44,1.38a.37.37,0,0,0,.51.54c.64-.57,1.26-1.16,1.84-1.79a11.7,11.7,0,0,0,1.52-2,.32.32,0,0,0-.1-.44.34.34,0,0,0-.17-.05.33.33,0,0,0-.27.15Z"/><path class="cls-16" d="M249.73,49.23a8.22,8.22,0,0,1-.37,1.09,7.69,7.69,0,0,1-1,1.59,5.44,5.44,0,0,1-.89.84l.08-.06a4.11,4.11,0,0,1-.8.43,3.68,3.68,0,0,1-.73.17h-.16a.61.61,0,1,0,.13,1.2,5.16,5.16,0,0,0,.78-.28,3.64,3.64,0,0,0,.75-.47,6,6,0,0,0,1.21-1.26,9,9,0,0,0,1.39-3.14.22.22,0,0,0-.16-.28H250a.23.23,0,0,0-.22.17Zm-3.59,4.06h0Zm-.09,0h0Z"/><path class="cls-6" d="M41.77,70a4,4,0,0,0-.7.06,3.6,3.6,0,0,0-1.62.82,5.62,5.62,0,0,0-1.21,1.46A12.28,12.28,0,0,0,37,75.21a23.58,23.58,0,0,0-.71,3.18,26.76,26.76,0,0,0-.29,3,12.81,12.81,0,0,0,0,1.69.69.69,0,0,0-.1.59,9,9,0,0,0,1.33,2.79,7.64,7.64,0,0,0,2.25,2.19,4.13,4.13,0,0,0,1.28.51,3.08,3.08,0,0,0,.68.07,4,4,0,0,0,.83-.09,3.47,3.47,0,0,0,1.32-.7,2.85,2.85,0,0,0,.68-.73,3.61,3.61,0,0,0,.27-.56,6.58,6.58,0,0,0,.28-.81,15.83,15.83,0,0,0,.4-1.9,38.11,38.11,0,0,0,.46-5,31.29,31.29,0,0,0-.17-4.89,12.81,12.81,0,0,0-.37-2,4.3,4.3,0,0,0-.62-1.4,2.35,2.35,0,0,0-.55-.54,2.17,2.17,0,0,0-.33-.19,5.08,5.08,0,0,0-.67-.28A3.37,3.37,0,0,0,41.77,70Z"/><path class="cls-7" d="M37.68,72.82c-.36,1-.72,2-1,3a24.42,24.42,0,0,0-.75,3.26,17.66,17.66,0,0,0-.21,3.08,12.79,12.79,0,0,0,.14,1.53,9.61,9.61,0,0,0,.39,1.75.4.4,0,0,0,.73.1.42.42,0,0,0,0-.31c-.05-.3-.12-.59-.18-.89s-.12-.65-.16-1v-.06a17.92,17.92,0,0,1-.13-2.2,19.39,19.39,0,0,1,.17-2.41.43.43,0,0,1,0,0,28.24,28.24,0,0,1,1.47-5.84.23.23,0,0,0-.17-.28h-.06a.26.26,0,0,0-.23.17Zm-1,10.55v0s0,0,0-.06v0Zm0-4.64v0Z"/><path class="cls-17" d="M236.73,52.1H237l-.27-.05a.08.08,0,0,1,0,.05Z"/><path class="cls-1" d="M233.88,52.71c-.68,0-1.36.06-2,0-.52.09-1,.2-1.53.31-.87.26-1.74.53-2.6.82l-.91.31c-.49.19-1,.41-1.43.63l0,0,.84-.35.09,0a.24.24,0,0,1,.09.46,19.5,19.5,0,0,0-2.4,1.14l0,0c-.54.3-1.06.62-1.58.94-1.16,1-2.2,1.91-3.05,2.71s-1.88,1.82-2.81,2.74L215,64c-.71.69-1.43,1.36-2.16,2l-1.25,1.16-1.84,1.7c-1.92,1.78-4,3.68-6,5.53a145.26,145.26,0,0,1-13.86,11.2l-.12.08A65.47,65.47,0,0,1,182,90.2a84.5,84.5,0,0,1-8.44,3.57c-4.33,1.56-8.74,2.81-12.11,3.73l-1.78.47-.59.16c-1.11.3-2.23.59-3.33.9-1.68.47-3.31,1-5.4,1.62l-1.85.59c-2.77.87-6.22,2-9.54,2.85a64.57,64.57,0,0,1-11.71,2.22c-1,.07-1.84.11-2.66.11a26.27,26.27,0,0,1-4.72-.4c-1.38-.28-2.74-.68-4-1.07-.84-.25-1.63-.48-2.43-.69a22.13,22.13,0,0,0-3.19-.62,11.27,11.27,0,0,0-1.29-.07,12.6,12.6,0,0,0-2.17.2,1.34,1.34,0,0,0-.35-.06.8.8,0,0,0-.63.33l-.1.13-.09.14c-.59,0-1.21.07-1.83.14a33.49,33.49,0,0,0-6.9,1.65c-2.49.84-5,1.88-7.34,2.89-2,.86-4.12,1.75-6.22,2.5-1.2.43-2.38.81-3.53,1.13a26.08,26.08,0,0,1-6.62.94h0a16.73,16.73,0,0,1-3.87-.54l-.1,0h0a15.45,15.45,0,0,1-2.86-1.26,15.74,15.74,0,0,1-2.87-2.27,25.26,25.26,0,0,1-3.8-5.25c-.9-1.61-1.69-3.26-2.6-5.24l-.74-1.64-.51-1.14c-.46-1-.89-2-1.4-2.85a16.62,16.62,0,0,0-4-4.92,10.38,10.38,0,0,0-5.56-2.3c-.31,0-.63-.05-.95-.05a14.13,14.13,0,0,0-5.22,1.14,15.46,15.46,0,0,0-4.05,2.41A16.4,16.4,0,0,0,29.72,97a27.43,27.43,0,0,0-1.3,9.52,44.44,44.44,0,0,0,1.48,10.07,52.89,52.89,0,0,0,3.44,9.46A34.52,34.52,0,0,0,38,133.38c.56.66,1.16,1.26,1.67,1.77a31.87,31.87,0,0,0,2.72,2.37,40.45,40.45,0,0,0,6.2,4,51.33,51.33,0,0,0,14.09,5,52.05,52.05,0,0,0,7.18,1c1.09.07,2.23.1,3.39.1.94,0,1.92,0,2.92-.06a65.6,65.6,0,0,0,11-1.41l0,.1,0,.12c-1.38,5-2.65,10.11-3.78,15.32a327.6,327.6,0,0,0-5.14,33.92l0,.47c-.42,4-.86,8-.13,12A15.69,15.69,0,0,0,80,213.49a16.12,16.12,0,0,0,1.83,2.38,21.16,21.16,0,0,0,2.54,2.25,39.83,39.83,0,0,0,10.13,5.54,60.27,60.27,0,0,0,11.93,3.14,82.07,82.07,0,0,0,12.81,1h.46a93.94,93.94,0,0,0,12.15-.82,81.2,81.2,0,0,0,11.54-2.38c1.86-.54,3.71-1.16,5.51-1.86a29.1,29.1,0,0,0,5.86-3,14,14,0,0,0,4.25-4.24,16.06,16.06,0,0,0,1.91-5,31.6,31.6,0,0,0,.67-5.88,62.08,62.08,0,0,0-.19-6.39c-.17-2.29-.41-4.53-.7-7-.21-1.94-.44-4-.6-5.94a69.58,69.58,0,0,1,1-17.22l-.07.17a67.34,67.34,0,0,1,2-7.53,56.17,56.17,0,0,1,2.8-7l-.11.15a64.69,64.69,0,0,1,3.8-6.6,60.63,60.63,0,0,1,4.52-6l0-.1h0a83.25,83.25,0,0,1,15.38-13.55c1.68-1.15,3.4-2.27,5.27-3.42,1.41-.87,2.87-1.71,4.29-2.53l.26-.15,1.18-.68c4.37-2.51,8.33-5,12.1-7.49a117.55,117.55,0,0,0,21.75-18.28A79.54,79.54,0,0,0,242.81,84c.56-.9,1.13-1.86,1.74-3s1-1.91,1.39-2.68a25.34,25.34,0,0,0,1.59-4.51,24.61,24.61,0,0,0,.57-9.65A15,15,0,0,0,244.33,56a13,13,0,0,0-5.52-3.4c-1,0-2,0-3.05,0-.62.08-1.25.14-1.88.17Z"/><path class="cls-17" d="M230.1,53.13h0Z"/><polygon class="cls-17" points="230.1 53.13 230.1 53.13 230.1 53.13 230.1 53.13 230.1 53.13"/><path class="cls-18" d="M78.21,146.67l-.37,0h0c-.67.05-1.34.07-2,.07s-1.38,0-2.07-.08a.24.24,0,0,0-.25.22.25.25,0,0,0,.22.25c.76.05,1.51.08,2.26.08s1.54,0,2.31-.1a.24.24,0,0,0,.15-.11.27.27,0,0,0,0-.18.29.29,0,0,0-.1-.15.31.31,0,0,0-.13,0Z"/><path class="cls-18" d="M72.11,147a.25.25,0,0,0,.06.17.27.27,0,0,0,.17.08,25.85,25.85,0,0,0,7,.05.22.22,0,0,0,.18-.27.25.25,0,0,0-.1-.16.27.27,0,0,0-.18,0c-.4.05-.81.09-1.22.12h0c-.93.07-1.87.09-2.8.07a24.43,24.43,0,0,1-2.82-.26h0a.26.26,0,0,0-.22.23ZM78,147h0Z"/><path class="cls-18" d="M72.32,147.05a.24.24,0,0,0-.12.14.26.26,0,0,0,.16.32,14.77,14.77,0,0,0,1.75.26c.64.06,1.28.07,1.91.07s1.22,0,1.82-.09,1.37-.12,2-.24a.24.24,0,0,0,.19-.29.21.21,0,0,0-.11-.16.28.28,0,0,0-.18,0l-1,.11-1.21.11h.07c-.81.06-1.63.09-2.44.07a14.78,14.78,0,0,1-2.4-.23h0l-.31-.06h-.08a.23.23,0,0,0-.11,0Z"/><path class="cls-18" d="M81.76,146.68a25.78,25.78,0,0,1-3,.39h0c-1.91.14-3.83.13-5.74.1a.24.24,0,0,0-.25.23.23.23,0,0,0,.22.24c1.51,0,3,0,4.53,0a31.91,31.91,0,0,0,4.37-.47.25.25,0,0,0,.19-.28.24.24,0,0,0-.24-.19Z"/><path class="cls-18" d="M83.92,146.39c-1.4.2-2.78.48-4.19.6h0l-.83,0c-.36,0-.72,0-1.08-.05a.24.24,0,1,0,0,.47c.24,0,.48,0,.72,0a8.81,8.81,0,0,0,.89,0c.48,0,1-.08,1.45-.14,1.06-.13,2.1-.34,3.15-.49a.23.23,0,0,0,.18-.28.22.22,0,0,0-.23-.18Z"/><path class="cls-18" d="M85.21,146.11c-.87.22-1.75.41-2.63.56s-1.78.27-2.67.36a.24.24,0,0,0-.15.11.2.2,0,0,0,0,.17.23.23,0,0,0,.1.15.22.22,0,0,0,.18,0c.89-.09,1.78-.2,2.66-.35s1.77-.35,2.64-.57a.24.24,0,0,0,.18-.28.25.25,0,0,0-.23-.19Z"/><path class="cls-18" d="M84.83,146.34c-.35.08-.7.14-1,.2s-.71.1-1.06.13h.06a12.23,12.23,0,0,1-1.6,0,.24.24,0,0,0-.25.23.23.23,0,0,0,.22.24c.3,0,.6,0,.89,0s.64,0,.95,0a12.54,12.54,0,0,0,1.93-.32.25.25,0,0,0,.19-.28.26.26,0,0,0-.24-.19Z"/><path class="cls-18" d="M246.07,77a26.52,26.52,0,0,1-2.15,4.42h0c-1,1.74-2.2,3.4-3.37,5a.26.26,0,0,0,0,.36.26.26,0,0,0,.36,0c1.1-1.51,2.17-3,3.14-4.65.46-.75.89-1.52,1.28-2.31a21,21,0,0,0,1.13-2.63.23.23,0,0,0-.12-.31l-.09,0a.25.25,0,0,0-.23.15Z"/><path class="cls-18" d="M245,79.6q-.59,1.23-1.26,2.4a.05.05,0,0,1,0,0c-.55.92-1.14,1.81-1.77,2.68s-1.39,1.77-2.12,2.63a.26.26,0,0,0,0,.37.27.27,0,0,0,.37,0,29.17,29.17,0,0,0,2.91-3.75,32.83,32.83,0,0,0,2.26-4.06.24.24,0,0,0-.13-.32l-.09,0a.25.25,0,0,0-.23.15ZM243.72,82v0Z"/><path class="cls-2" d="M28.4,106.52a44,44,0,0,0,1.49,10.07,51.42,51.42,0,0,0,3.44,9.47,34.61,34.61,0,0,0,4.61,7.34c.55.64,1.12,1.23,1.67,1.76a33.75,33.75,0,0,0,2.71,2.38,41.5,41.5,0,0,0,6.21,4,51.74,51.74,0,0,0,14.1,5,53.4,53.4,0,0,0,7.18.94c1.16.07,2.3.11,3.39.11s1.93,0,2.92-.07a66.76,66.76,0,0,0,10.25-1.25,7.31,7.31,0,0,0-.7-.43,8.59,8.59,0,0,0-.87-.4,10.77,10.77,0,0,0-1.76-.52c-.55-.12-1.11-.2-1.66-.27h0s0,0,0,0,0,0,0,0c-1.06-.11-2.11-.17-3.17-.24l-1.57-.13c-.55-.06-1.09-.13-1.64-.21a55.86,55.86,0,0,1-20.2-7c-1-.55-1.91-1.13-2.83-1.74s-1.79-1.23-2.65-1.87a61.75,61.75,0,0,1-5.21-4.34A64.52,64.52,0,0,1,39.13,124a55,55,0,0,1-4.26-5.68,43.68,43.68,0,0,1-3.39-6.19,33.91,33.91,0,0,1-2.16-6.42,28.14,28.14,0,0,1-.63-4.39,33.07,33.07,0,0,0-.29,5.2Z"/><path class="cls-2" d="M241.26,55a16.83,16.83,0,0,1,.34,2.83,19.85,19.85,0,0,1-.06,2.56,31.33,31.33,0,0,1-1,5.68A41.09,41.09,0,0,1,238.86,71a40.26,40.26,0,0,1-2.64,5.3,47.35,47.35,0,0,1-3.73,5.35A63,63,0,0,1,228,86.58q-2.34,2.31-4.85,4.43t-5.39,4.25c-3.68,2.73-7.48,5.29-11.31,7.8-3.63,2.39-7.3,4.73-10.87,7.21-2,1.36-3.92,2.76-5.85,4.17s-4,2.94-5.89,4.46-3.81,3-5.65,4.64-3.63,3.22-5.37,4.9l.05,0a96.13,96.13,0,0,0-8,8.74q-1.83,2.27-3.5,4.65t-3.18,4.94l0,0c-.76,1.29-1.49,2.6-2.17,3.92s-1.31,2.62-1.89,4c-.69,1.58-1.33,3.19-1.9,4.81s-1,3-1.42,4.53a.14.14,0,0,0,0-.06c-.71,2.58-1.29,5.2-1.74,7.84s-.75,5-1,7.59-.41,5.34-.51,8-.13,5.17-.13,7.75V195c0,2.95,0,5.9,0,8.84a.24.24,0,0,1-.05.18.18.18,0,0,1-.15.08.23.23,0,0,1-.27-.2c-.12-1.55-.27-3.1-.47-4.65a48.92,48.92,0,0,0-1.1-5.87h0a18.9,18.9,0,0,0-1.62-4.32s0,0,0,0l0,0h0a7.57,7.57,0,0,0-.49-.76c-.18-.24-.36-.47-.56-.69l0,.05a3.39,3.39,0,0,0-.44-.41,3.61,3.61,0,0,0-.43-.3,3.16,3.16,0,0,0-.68-.29h.07a3.29,3.29,0,0,0-.43-.09l-.33,0a2.82,2.82,0,0,0-.41,0l-.48.1.06,0a3.66,3.66,0,0,0-.63.23l-.48.23h0l-.05,0,0,0a9.2,9.2,0,0,0-1,.66c-.3.24-.58.49-.86.75a5.9,5.9,0,0,0-.66.75c-.16.22-.31.44-.45.67a11.89,11.89,0,0,0-.77,1.61c-.23.6-.43,1.22-.6,1.84a.14.14,0,0,1,0-.06,50.73,50.73,0,0,0-1.16,6c-.14.91-.27,1.81-.44,2.71s-.4,1.89-.63,2.83c-.55,2.28-1.16,4.55-1.9,6.77a48.85,48.85,0,0,1-2.75,6.7,36.09,36.09,0,0,1-3.75,6c-.73.92-1.5,1.83-2.31,2.69l-.88.92a94.12,94.12,0,0,0,11.31-.82,79,79,0,0,0,11.54-2.39c1.8-.51,3.66-1.13,5.51-1.85a29.19,29.19,0,0,0,5.87-2.95,14,14,0,0,0,4.26-4.25,16.32,16.32,0,0,0,1.91-5,32.15,32.15,0,0,0,.67-5.88,59.34,59.34,0,0,0-.19-6.4c-.16-2.25-.4-4.41-.69-7l0-.38c-.2-1.85-.41-3.7-.56-5.55a66.24,66.24,0,0,1-.08-8.27,67.51,67.51,0,0,1,1-8.95l-.11.17c.58-2.68,1.25-5.22,2-7.53a56.76,56.76,0,0,1,2.81-7l-.15.13a73.86,73.86,0,0,1,3.84-6.58,58.49,58.49,0,0,1,4.51-6l0-.11a83.84,83.84,0,0,1,15.38-13.53c1.7-1.17,3.42-2.29,5.27-3.42,1.45-.9,3-1.8,4.27-2.52l.28-.17,1.18-.67c4.42-2.55,8.38-5,12.1-7.49a117.6,117.6,0,0,0,21.76-18.29A79.07,79.07,0,0,0,242.82,84c.55-.87,1.12-1.84,1.75-3s1-1.93,1.39-2.68a26.58,26.58,0,0,0,1.59-4.52,24.84,24.84,0,0,0,.58-9.66A15.06,15.06,0,0,0,244.35,56a12.62,12.62,0,0,0-3.59-2.63,14.39,14.39,0,0,1,.5,1.7Z"/><path class="cls-2" d="M96.29,124.09q-2,3.73-3.74,7.58t-3.3,7.86A161.27,161.27,0,0,0,84,155.85c-1.46,5.48-2.64,11-3.61,16.63-1,5.4-2,10.8-2.68,16.25a71.3,71.3,0,0,0-.57,13.06,43.32,43.32,0,0,0,.84,6.3c.21,1,.47,1.94.77,2.9a1,1,0,0,0,0,.16l.36.78c.31.65.63,1.28,1,1.91l.27.39a.29.29,0,0,0,.12-.36,22.34,22.34,0,0,1-1.08-3.17v0a38.83,38.83,0,0,1-1-5.47,48.78,48.78,0,0,1-.31-5.8,75.54,75.54,0,0,1,.54-8.37c.31-2.8.75-5.58,1.23-8.36s1-5.36,1.47-8c.24-1.34.47-2.68.72-4s.52-2.77.8-4.15q.75-3.76,1.62-7.51c.6-2.55,1.23-5.11,1.93-7.64a.57.57,0,0,1,0,.14,134.24,134.24,0,0,1,10.34-27.22.23.23,0,0,0-.12-.31l-.09,0a.26.26,0,0,0-.22.14Z"/><path class="cls-19" d="M79.49,210.79s0,0,0-.07,0,.05,0,.07Z"/><path class="cls-2" d="M234.37,52.19a19.59,19.59,0,0,0-6.69,1.58,29.85,29.85,0,0,0-6.12,3.53,59.37,59.37,0,0,0-5.62,4.78c-1.11,1.05-2.19,2.13-3.27,3.21L209,69c-2.47,2.47-5,4.91-7.56,7.25,0,0,0,0,0,0A94.19,94.19,0,0,1,193,83.09c-1.43,1-2.91,2-4.43,2.91s-3,1.68-4.47,2.46h0c-3.34,1.72-6.75,3.31-10,5.15a53.78,53.78,0,0,0-4.78,3,35,35,0,0,0-4.33,3.54.41.41,0,0,0,0,.5.41.41,0,0,0,.57.1q1.53-1.33,3.18-2.55c1.14-.83,2.32-1.59,3.52-2.33,2.38-1.44,4.84-2.74,7.31-4l-.11.06c2.32-1.2,4.67-2.36,7-3.6a78.7,78.7,0,0,0,6.94-4.17,101.09,101.09,0,0,0,12.91-10.82c2.16-2.08,4.27-4.2,6.39-6.32,1.93-1.93,3.87-3.87,5.88-5.7h0l0,0,0,0h0s0,0,0,0h0a40.11,40.11,0,0,1,8.3-6l-.11.05a21.76,21.76,0,0,1,4.94-1.84h.05a18.67,18.67,0,0,1,4.47-.42h.06a19.31,19.31,0,0,1,4.66.83h0c.16,0,.31.1.47.15a.44.44,0,0,0,.3,0,.36.36,0,0,0,.22-.2.4.4,0,0,0,0-.22l-.57-.3-.87-.3c-.5-.15-1-.28-1.52-.38l0,0-.76-.18-.21,0a18.48,18.48,0,0,0-2.68-.19l-.91,0Zm-15.81,9h0l0,0,0,0Z"/><polygon class="cls-19" points="218.5 61.26 218.49 61.27 218.5 61.26 218.5 61.26 218.5 61.26"/><path class="cls-19" d="M201.42,76.25h0Z"/><polygon class="cls-19" points="236.2 53 236.21 53 236.2 53 236.2 53 236.2 53"/><path class="cls-19" d="M231.74,53.42h0Z"/><path class="cls-19" d="M218.46,61.3h0l0,0,0,0Z"/><path class="cls-19" d="M201.46,76.21l0,0,0,0Z"/><path class="cls-19" d="M201.43,76.24l0,0,0,0Z"/><path class="cls-19" d="M184.06,88.46l0,0,0,0Z"/><path class="cls-2" d="M248.16,69.17a.23.23,0,0,0-.21.25c0,.35,0,.7,0,1h0a23.7,23.7,0,0,1-.3,2.64,24.41,24.41,0,0,1-.67,2.68s0,0,0,0a30,30,0,0,1-1.62,4,38.19,38.19,0,0,1-2.21,3.89h0l0,0,0,0h0a59.63,59.63,0,0,1-6.06,7.64c-2.15,2.35-4.45,4.55-6.81,6.68l.1-.1A175.46,175.46,0,0,1,210,113.64c-1.88,1.26-3.8,2.48-5.72,3.68s-3.83,2.32-5.74,3.49c-3.7,2.27-7.34,4.64-10.84,7.21a96.77,96.77,0,0,0-9.89,8.3,56.8,56.8,0,0,0-4.25,4.53,59.43,59.43,0,0,0-12.67,26.83,63.86,63.86,0,0,0-1,9.14c-.14,3.58,0,7.16.17,10.73s.49,6.91.72,10.36a73.06,73.06,0,0,1,.2,7.4,27.66,27.66,0,0,1-1.09,7.12.11.11,0,0,1,0-.05,17.59,17.59,0,0,1-.69,1.83,14,14,0,0,1-.91,1.71,14.39,14.39,0,0,1-1.71,2.1.24.24,0,0,0,0,.32.26.26,0,0,0,.36.06c.22-.18.44-.38.65-.58a9.37,9.37,0,0,0,.79-.88,11.83,11.83,0,0,0,1.14-1.71,16.08,16.08,0,0,0,1.59-4.24,27.2,27.2,0,0,0,.61-4.76c.08-1.56.06-3.13,0-4.69s-.16-3-.27-4.47c-.14-2.23-.32-4.46-.48-6.69a124.48,124.48,0,0,1-.36-13.24h0v-.09h0c.07-1.4.16-2.81.31-4.21.12-1.21.3-2.41.51-3.6a58.59,58.59,0,0,1,1.76-7.17,59.75,59.75,0,0,1,6.64-14.15l-.08.13c.74-1.15,1.52-2.27,2.33-3.38s1.78-2.29,2.73-3.4a70.72,70.72,0,0,1,6.36-6.48l-.07.06a102.37,102.37,0,0,1,10.23-8c3.6-2.48,7.31-4.77,11-7s7.69-4.82,11.41-7.4,7.34-5.3,10.85-8.16c2.81-2.29,5.54-4.68,8.15-7.21a80,80,0,0,0,7.62-8.42c1.11-1.43,2.16-2.93,3.14-4.47a38.44,38.44,0,0,0,2.68-5,27.74,27.74,0,0,0,1.62-4.78,20.9,20.9,0,0,0,.54-5.05.23.23,0,0,0-.24-.21ZM163.26,162s0,0,0,.06V162ZM161,205.32v0ZM160,212.38l0,0,0,0Zm.7-35.27v0Zm82.47-93.4v0l0,0,0,0Zm3.86-8v0Z"/><path class="cls-2" d="M102.25,104a23.54,23.54,0,0,0-3.1.7c-2,.56-3.88,1.32-5.81,2-3.52,1.25-6.9,2.88-10.4,4.2a42.54,42.54,0,0,1-4.27,1.39,26.27,26.27,0,0,1-4.42.81h.07a22.83,22.83,0,0,1-3.79,0,.23.23,0,0,0-.24.23.22.22,0,0,0,.22.24,23.62,23.62,0,0,0,2.66.06,25.89,25.89,0,0,0,2.64-.24,34.22,34.22,0,0,0,5.3-1.22c1.68-.52,3.32-1.13,5-1.76s3.36-1.33,5.06-2h0c1-.36,1.94-.71,2.92-1l3.31-1.14a31.65,31.65,0,0,1,6.77-1.62c.33,0,.67-.05,1-.06a.41.41,0,0,0,.28-.11.38.38,0,0,0-.25-.67l-.58,0a17.83,17.83,0,0,0-2.31.18Zm-11,4.44-.06,0,.06,0Zm-8.31,2.49h0Z"/><path class="cls-2" d="M31.32,93.78a30.36,30.36,0,0,0-2.39,7.67,35.08,35.08,0,0,0-.39,8.06,47.29,47.29,0,0,0,3.86,15.6,33.63,33.63,0,0,0,8.22,11.42,41.65,41.65,0,0,0,11.92,7.54,51.2,51.2,0,0,0,6.93,2.31,66.27,66.27,0,0,0,7.92,1.52,55.65,55.65,0,0,0,8.26.46,41.15,41.15,0,0,0,7.9-.91c1.2-.27,2.38-.6,3.56-.94a.24.24,0,0,0,.18-.28A.23.23,0,0,0,87,146c-.72.22-1.44.43-2.17.61s-1.33.29-2,.41a38.38,38.38,0,0,1-4.13.47h.08a58.76,58.76,0,0,1-14.91-1.11l.11,0a67.87,67.87,0,0,1-7-1.78,44.92,44.92,0,0,1-6-2.37,42.19,42.19,0,0,1-8.88-5.78,37.53,37.53,0,0,1-3.33-3.22,33.82,33.82,0,0,1-3-3.78l.07.1a32.48,32.48,0,0,1-2.41-4.21c-.38-.8-.72-1.62-1.05-2.44s-.7-1.81-1-2.74l0,.1a46.38,46.38,0,0,1-1.52-5.51,41.56,41.56,0,0,1-.8-5.76v0a35.4,35.4,0,0,1,0-4.37,31.45,31.45,0,0,1,.55-4.33v.07a30.74,30.74,0,0,1,.86-3.3,28.33,28.33,0,0,1,1.26-3.2.23.23,0,0,0-.14-.3l-.08,0a.25.25,0,0,0-.22.16ZM51,142.29h0ZM29.1,109v0Z"/><path class="cls-19" d="M239.1,52.89a.28.28,0,0,0,.19.34l.76.27a15.14,15.14,0,0,1,1.46.71,11.23,11.23,0,0,1,1.26.81,12,12,0,0,1,1.14,1,11.33,11.33,0,0,1,1,1.11A14.89,14.89,0,0,1,246,58.77a16,16,0,0,1,.89,1.87h0a17.86,17.86,0,0,1,.82,2.57.25.25,0,0,0,.29.17.24.24,0,0,0,.17-.29c-.13-.55-.28-1.09-.45-1.63a15.82,15.82,0,0,0-.61-1.67,14.77,14.77,0,0,0-1.73-3.08A11.43,11.43,0,0,0,243,54.27a8.37,8.37,0,0,0-3.51-1.57h-.07a.27.27,0,0,0-.27.2Zm5.8,4.27,0,0,0,0Z"/><path class="cls-1" d="M159.52,93.06a54.6,54.6,0,0,0-8.45,1.31,106.82,106.82,0,0,0-16,5.39c-1.45.58-2.9,1.18-4.35,1.78l-1.49.62c-1,.39-1.92.79-2.88,1.17a24.41,24.41,0,0,1-2.68.91,8.17,8.17,0,0,1-1.78.25,7.64,7.64,0,0,1-1.86-.28c-.91-.25-1.81-.58-2.68-.9l-.67-.25a27.1,27.1,0,0,0-3.87-1.07,19.94,19.94,0,0,0-3.68-.35h-.51a10.93,10.93,0,0,0-3.9.8.51.51,0,0,0-.16.09.61.61,0,0,0-.33.21.74.74,0,0,0,.08,1,70.38,70.38,0,0,0,11.19,8.8,22.3,22.3,0,0,0,6.38,2.72,10.87,10.87,0,0,0,2.46.29,9.2,9.2,0,0,0,1-.06,13.86,13.86,0,0,0,3.72-1,40,40,0,0,0,6-3.19l.68-.41,1.94-1.14,1.45-.85c1.24-.74,2.46-1.49,3.67-2.25l2.05-1.29q2.63-1.65,5.26-3.26c2.51-1.51,4.88-2.83,7.22-4a34.26,34.26,0,0,1,8.22-3.09h.1l.59-.1c.42-.12.85-.22,1.28-.31l1.67-.31a.67.67,0,0,0,.08-.37.75.75,0,0,0-.1-.32c-.78-.1-1.55-.21-2.31-.35l-.16,0-.52-.09c-.72-.09-1.45-.16-2.17-.19-.5,0-1,0-1.49,0-.94,0-1.92,0-3,.12Z"/><path class="cls-2" d="M155.15,93a35,35,0,0,0-4.09.29,32.54,32.54,0,0,0-4,.77c-5.37,1.36-10.28,4-15.26,6.28-1.05.49-2.1,1-3.17,1.41a28,28,0,0,1-3,1.15h0a12.33,12.33,0,0,1-2.76.39h0a15.57,15.57,0,0,1-3.85-.49c-2.71-.7-5.27-1.85-7.92-2.72a21.84,21.84,0,0,0-4.14-1,13.61,13.61,0,0,0-4.32.13.23.23,0,0,0-.2.27.24.24,0,0,0,.27.2,11.34,11.34,0,0,1,2.1-.22h-.07a14.42,14.42,0,0,1,3.59.45,39.1,39.1,0,0,1,5.92,2.23c1,.43,1.94.85,2.93,1.22a22.23,22.23,0,0,0,3,.91,12.25,12.25,0,0,0,3.07.34,12,12,0,0,0,1.58-.11,12.87,12.87,0,0,0,1.74-.39c.59-.18,1.17-.41,1.75-.63l2-.8c1.28-.53,2.53-1.08,3.79-1.64a104,104,0,0,1,14-5.61l-.12,0a39.11,39.11,0,0,1,4.16-.94,29.89,29.89,0,0,1,4.12-.37h.08a21.56,21.56,0,0,1,5.31.58c.43.11.85.24,1.27.39a.44.44,0,0,0,.55-.24.43.43,0,0,0-.24-.54A21.15,21.15,0,0,0,155.23,93Zm6.3,1.73.08,0-.08,0Zm-35.72,8.12-.13,0,.13,0Zm-2.93.43h0Zm33.38-9.1Z"/><path class="cls-2" d="M174,93.59c-.68.07-1.35.17-2,.28s-1.47.23-2.2.37c-1.4.27-2.8.6-4.18,1a75.26,75.26,0,0,0-8.27,2.69c-1.34.52-2.67,1.09-4,1.68s-2.45,1.15-3.65,1.79a66,66,0,0,0-6.27,4,121.86,121.86,0,0,1-10.32,6.82h0c-1.15.62-2.32,1.2-3.52,1.7a26.49,26.49,0,0,1-3.87,1.26h0c-.47.1-.93.2-1.4.28a.25.25,0,0,0-.22.26.24.24,0,0,0,.26.21,28.16,28.16,0,0,0,3.38-.81,34.42,34.42,0,0,0,3.43-1.28,52.78,52.78,0,0,0,6.33-3.4c2.08-1.28,4.11-2.66,6.15-4s4.12-2.65,6.27-3.83l0,0c1.48-.8,3-1.53,4.54-2.22s3.29-1.4,5-2a90.57,90.57,0,0,1,10.31-3.11l-.06,0c.7-.16,1.41-.33,2.12-.48s1.56-.31,2.34-.47a.42.42,0,0,0,.24-.12.37.37,0,0,0,.07-.25.35.35,0,0,0-.34-.31Zm-40.82,18.5h0Zm-7.48,3h0Zm43.84-19.86h0Z"/><path class="cls-2" d="M100.24,101.68a.31.31,0,0,0-.14.18.29.29,0,0,0,.2.36,8.49,8.49,0,0,1,1.7.5h0l0,0h0a13.39,13.39,0,0,1,2.79,1.73h0c1.36,1.08,2.6,2.31,3.88,3.48.57.52,1.15,1,1.77,1.5.85.65,1.73,1.25,2.62,1.84a36.37,36.37,0,0,0,5.56,3,23.2,23.2,0,0,0,2.9,1,12.56,12.56,0,0,0,3.12.44.25.25,0,0,0,.24-.23.24.24,0,0,0-.24-.24q-.6,0-1.2-.09h.06a18,18,0,0,1-4.4-1.36h0a38.62,38.62,0,0,1-4.56-2.37q-1.11-.67-2.19-1.41t-1.86-1.35c-.8-.64-1.56-1.34-2.32-2s-1.59-1.48-2.43-2.18a11.72,11.72,0,0,0-5.32-2.83h-.09a.31.31,0,0,0-.13,0Zm19,12.19,0,0,0,0ZM102,102.74h0l0,0Z"/><path class="cls-4" d="M86.1,66.4a53.45,53.45,0,0,0,2.67,16.49,97.32,97.32,0,0,0,6.72,15.77c1.29,2.48,2.66,4.92,4.07,7.33s2.8,4.7,4.35,7a92.32,92.32,0,0,0,10.36,12.56c1.8,1.84,3.68,3.6,5.62,5.29a.71.71,0,0,0,1-1A98.79,98.79,0,0,1,108,116.2a.76.76,0,0,1,.11.14c-1.53-2-3-4-4.35-6.16s-2.63-4.29-3.88-6.48a127.87,127.87,0,0,1-7.13-14.12s0,.11.07.17a67.57,67.57,0,0,1-4.9-16.91h0v0l0-.16v0a45.83,45.83,0,0,1-.38-6.3.72.72,0,0,0-.71-.71.71.71,0,0,0-.71.71Zm1.82,6.42v0s0-.09,0-.14l0,.12Z"/><path class="cls-4" d="M145.76,54.91a.74.74,0,0,0-.2.5c-.19,2.36-.44,4.7-.75,7v0a.88.88,0,0,0,0,.17h0a166,166,0,0,1-8.73,34.11q-2,5.48-4.27,10.85c0-.06.05-.11.07-.17-1.65,3.91-3.38,7.8-5.28,11.6s-4,7.51-6.24,11.12a.72.72,0,0,0,.26,1,.72.72,0,0,0,1-.25,138.3,138.3,0,0,0,8.18-15.16c1.24-2.66,2.41-5.35,3.55-8s2.23-5.45,3.27-8.21a170.67,170.67,0,0,0,9.27-34.17q.75-4.89,1.14-9.83a.72.72,0,0,0-.71-.71.75.75,0,0,0-.51.21Zm-1,7.69h0v-.14a.77.77,0,0,1,0,.15Z"/><path class="cls-4" d="M22.78,78.79a88.7,88.7,0,0,0-18.54,33A92.57,92.57,0,0,0,.38,130.82a81.94,81.94,0,0,0,.41,19.23A68.76,68.76,0,0,0,6,168.27a60.45,60.45,0,0,0,4.53,8.38c.88,1.36,1.82,2.7,2.83,4a31.39,31.39,0,0,0,3.57,3.81,20,20,0,0,0,8.9,4.87,13.49,13.49,0,0,0,8.36-.83,12.72,12.72,0,0,0,1.7,1.11,20.59,20.59,0,0,0,3.44,1.5,36.8,36.8,0,0,0,6.79,1.59,61.75,61.75,0,0,0,16.24.16A75.63,75.63,0,0,0,78.76,189a78.65,78.65,0,0,0,15.4-7.44A70.43,70.43,0,0,0,107.27,171a56.06,56.06,0,0,0,9.58-13.15,47.06,47.06,0,0,0,3.08-7.41,43.7,43.7,0,0,0,1.49-20.29.72.72,0,0,0-.33-.43.71.71,0,0,0-.55-.07.73.73,0,0,0-.5.87c0,.3.1.59.14.89v0l0,.12v-.05a43.69,43.69,0,0,1,0,11.31A44.6,44.6,0,0,1,117.12,154c0-.06,0-.12.07-.17A51.68,51.68,0,0,1,110.56,165a64,64,0,0,1-11.39,11.28A77.24,77.24,0,0,1,82.46,186l.07,0a76.52,76.52,0,0,1-19.25,5.31l.19,0a62.16,62.16,0,0,1-16.52.11,35.37,35.37,0,0,1-8.83-2.25l.17.07a16,16,0,0,1-2.74-1.46,14.59,14.59,0,0,0,1.31-.91,13.91,13.91,0,0,0,1.71-1.55,8.21,8.21,0,0,0,2.1-3.64,4.7,4.7,0,0,0,.07-1.94,5,5,0,0,0-.86-2.07,4.39,4.39,0,0,0-1.44-1.34,3.52,3.52,0,0,0-1.83-.41,5.43,5.43,0,0,0-3.4,1.64A7.83,7.83,0,0,0,32,179.06a7.3,7.3,0,0,0-.69,5.57A7.16,7.16,0,0,0,33,187.44a13.51,13.51,0,0,1-2.63.66,13.5,13.5,0,0,1-3.3,0,15.46,15.46,0,0,1-3.46-1,20.94,20.94,0,0,1-4.39-2.61l.11.09a30.1,30.1,0,0,1-5.23-5.29A56.31,56.31,0,0,1,10,173.15a62.92,62.92,0,0,1-3.24-6.53l0,.06a69,69,0,0,1-4.7-17.4,83.12,83.12,0,0,1,.08-21.89v0l0-.08h0a93.41,93.41,0,0,1,6.49-23.6,1.11,1.11,0,0,0-.07.16A87.88,87.88,0,0,1,19.86,84.48q1.88-2.43,3.93-4.69a.71.71,0,0,0,0-1,.69.69,0,0,0-.51-.21.67.67,0,0,0-.5.21ZM37,177.31a2.64,2.64,0,0,1,.55.15,4.39,4.39,0,0,1,.47.27,4.76,4.76,0,0,1,.55.55,6.35,6.35,0,0,1,.53.91,4.61,4.61,0,0,1,.22.83,4,4,0,0,1,0,.91,5.56,5.56,0,0,1-.34,1.19,8.43,8.43,0,0,1-.92,1.52A12.41,12.41,0,0,1,36,185.7a14.7,14.7,0,0,1-1.65,1.09,8,8,0,0,1-.79-.85,7,7,0,0,1-.72-1.21,6.24,6.24,0,0,1-.36-1.28,7,7,0,0,1,0-1.52,7.84,7.84,0,0,1,.41-1.53,6.88,6.88,0,0,1,.73-1.23,6.62,6.62,0,0,1,1-1,5.71,5.71,0,0,1,1-.59,4,4,0,0,1,.84-.23,3.62,3.62,0,0,1,.57,0Zm-4.26,7.26,0,.12a.61.61,0,0,1,0-.12Zm49.58,1.48.1,0-.1,0ZM6.78,166.62s0-.07,0-.11,0,.07,0,.11ZM120.19,131.5v-.1s0,.06,0,.1Zm-118-4.15v0Z"/><path class="cls-4" d="M121,133.36a2.15,2.15,0,0,0,1.63-2.48c-.1-1.29-1-2.29-2-2.22a2.13,2.13,0,0,0-1.62,2.48c.09,1.29,1,2.29,2,2.22Z"/><path class="cls-20" d="M129.82,0a28.71,28.71,0,0,0-5.53.7,46.68,46.68,0,0,0-5.44,1.74c-1.69.62-3.44,1.26-5.21,1.72a22,22,0,0,1-3.38.59h-.12l-1.85.17a49.53,49.53,0,0,0-7.12,1,13.06,13.06,0,0,0-4.1,1.64,7,7,0,0,0-1.5,1.28,5.8,5.8,0,0,0-.86,1.38h0l-.09.2c-.07.18-.14.37-.2.56a24.74,24.74,0,0,1,3.31.33c.63.1,1.27.22,1.89.37h.07l-.1,0A30.56,30.56,0,0,1,106.75,14c1.21.54,2.5,1.16,4.17,2,1.36.7,2.78,1.41,4.14,2.18a56.77,56.77,0,0,1,14,11,72.42,72.42,0,0,1,5.38,6.51l-.09-.17A67.94,67.94,0,0,1,142.88,51l0-.18a50.14,50.14,0,0,1,3,12.35,31.38,31.38,0,0,1-.08,7.69l0,.1c0,.28-.12.61-.19.92a.82.82,0,0,0,.09.6.91.91,0,0,0,.27.31,1.09,1.09,0,0,0,.48.16h0a2.22,2.22,0,0,0,.61-.1l.12,0c.47-.12,1-.27,1.56-.48a24.08,24.08,0,0,0,3.1-1.42c.81-.45,1.67-1,2.7-1.67a19.67,19.67,0,0,0,2.5-1.88,12.4,12.4,0,0,0,1.63-1.84,17,17,0,0,0,1.18-2l.48-1c.19-.37.37-.75.57-1.11a16.27,16.27,0,0,1,1.34-2.21,20.43,20.43,0,0,1,3.51-3.13l1.33-1a14.74,14.74,0,0,0,2.38-2.35,8.73,8.73,0,0,0,.89-1.32A15.86,15.86,0,0,0,171,50a23.63,23.63,0,0,0,1.57-6.44,37.38,37.38,0,0,0,.14-7.15,44.22,44.22,0,0,0-1-7,24.09,24.09,0,0,0-2.26-6.35A19.2,19.2,0,0,0,165,17.8c-1.41-1.2-3-2.26-4.45-3.3l-1.45-1c-1.51-1.07-3-2.21-4.46-3.31a75.76,75.76,0,0,0-9.09-6.25A33,33,0,0,0,137.84.87,28.51,28.51,0,0,0,130.78,0Z"/><path class="cls-21" d="M164.82,19c0,.54,0,1.07,0,1.6a12.83,12.83,0,0,1-.22,1.36,7.42,7.42,0,0,1-1.08,2.54c-.14.19-.29.39-.45.57a6.38,6.38,0,0,1-.52.52,8.3,8.3,0,0,1-1.16.89,4.7,4.7,0,0,1-1.19.53,3.57,3.57,0,0,1-1,.15,4.17,4.17,0,0,1-1.06-.15,6.37,6.37,0,0,1-.94-.38,12.16,12.16,0,0,1-1.9-1.28c-.64-.5-1.27-1-1.94-1.51l0,0a9.8,9.8,0,0,0-1.86-1.06,5.79,5.79,0,0,0-1.21-.3,6.27,6.27,0,0,0-1.56,0,2.7,2.7,0,0,0-.63.19,2.14,2.14,0,0,0-.38.23h0a2.73,2.73,0,0,0-.23.25l0,0,0,0,0,0,0,0a2.32,2.32,0,0,0-.22.41,4.28,4.28,0,0,0-.17.79v.05a11.73,11.73,0,0,0,0,1.19c0,.31,0,.61,0,.92a7,7,0,0,1-.09.8,3.06,3.06,0,0,1-.24.78,1.92,1.92,0,0,1-.42.6,2.3,2.3,0,0,1-.72.47,2.69,2.69,0,0,1-.45.16l-.46.09a2.35,2.35,0,0,1-1.19-.26A7.93,7.93,0,0,1,142,28.4c-.53-.38-1-.79-1.54-1.21-1-.86-2-1.77-3.12-2.56l.05,0a7.28,7.28,0,0,0-1.5-.88,2.65,2.65,0,0,0-.57-.15,1.16,1.16,0,0,0-.32,0l-.19.05h0l-.16.1h0a2.09,2.09,0,0,0-.2.22,1.79,1.79,0,0,0-.2.39,5.48,5.48,0,0,0-.25,1.12h0v0c0,.4-.05.8-.05,1.19s0,.48,0,.71,0,.36.07.53a10.88,10.88,0,0,0,.83,2.49v0h0a51.06,51.06,0,0,0,3.48,5.77q.45.7.87,1.41c.24.39.46.79.66,1.19.59,1.21,1.15,2.44,1.68,3.68a53.35,53.35,0,0,1,2.87,8.31c.33,1.36.6,2.73.82,4.11s.43,2.85.57,4.28a68.63,68.63,0,0,1,0,13.52h0a1,1,0,0,0,.48.17,2.61,2.61,0,0,0,.6-.09l.14,0c.48-.12,1-.27,1.57-.48a22.94,22.94,0,0,0,3.1-1.43c.8-.43,1.66-1,2.7-1.66A21.84,21.84,0,0,0,157,67.39a13,13,0,0,0,1.62-1.84,15.56,15.56,0,0,0,1.18-2l.48-.94.08-.17c.17-.31.33-.63.49-1a15.91,15.91,0,0,1,1.35-2.2,19.82,19.82,0,0,1,3.48-3.12l.2-.15c.39-.3.78-.59,1.15-.9a14.81,14.81,0,0,0,2.39-2.34,10.74,10.74,0,0,0,.89-1.34c.29-.53.53-1.08.71-1.5a23.6,23.6,0,0,0,1.57-6.46,37.31,37.31,0,0,0,.14-7.14,44.18,44.18,0,0,0-1-7A23.65,23.65,0,0,0,169.44,23,19.2,19.2,0,0,0,165,17.78l-.28-.23a13.94,13.94,0,0,1,.11,1.45Z"/><path class="cls-21" d="M134.63,23.84s0,0,0,0h0l0,0Z"/><polygon class="cls-21" points="145.4 28.79 145.4 28.79 145.4 28.78 145.4 28.79 145.4 28.79 145.4 28.79"/><path class="cls-21" d="M110.17,7.34c.83.27,1.65.56,2.46.88s1.7.73,2.53,1.13l-.09,0c1,.46,1.89,1,2.81,1.5.46.27.92.54,1.36.83s1,.66,1.45,1c.94.62,1.85,1.29,2.73,2s1.77,1.42,2.63,2.16L126,16.7c3.69,3.2,7.15,6.67,10.54,10.18s6.73,7.19,10,10.88c1.56,1.77,3.12,3.55,4.7,5.3a1.26,1.26,0,0,0,1.76.1,1.2,1.2,0,0,0,.42-.85,1.31,1.31,0,0,0-.31-.91c-3-3.77-6-7.49-9.19-11.11-1.64-1.87-3.31-3.71-5-5.49s-3.69-3.58-5.66-5.24a61.06,61.06,0,0,0-5.29-4c-.89-.6-1.79-1.2-2.71-1.77l-1.39-.83c-.5-.3-1-.6-1.52-.87s-.94-.53-1.42-.78l-1.44-.71c-1-.49-2-1-3-1.42a63.18,63.18,0,0,0-6.09-2.34l-.1,0a.29.29,0,0,0-.08.56Z"/><path class="cls-21" d="M102.88,9.11a53.57,53.57,0,0,1,7.74,2.94h0A72.88,72.88,0,0,1,117.75,16c1.15.72,2.27,1.49,3.37,2.29s2.11,1.54,3.11,2.38l.72.61,0,0,1.06.9,2,1.77c.67.62,1.34,1.23,2,1.86,1.31,1.26,2.61,2.54,3.87,3.85s2.5,2.65,3.7,4,2.33,2.77,3.53,4.14a1,1,0,0,0,1.78-.62c0-.08,0-.17,0-.26a1.09,1.09,0,0,0-.24-.48c-.73-1-1.53-2-2.33-3s-1.64-1.93-2.48-2.87q-2.55-2.82-5.34-5.4c-1-.88-2-1.74-3-2.57s-2-1.56-3-2.31c-.49-.36-1-.7-1.49-1l-1.62-1.11c-1.05-.7-2.11-1.38-3.19-2A66.52,66.52,0,0,0,103,8.66H103a.24.24,0,0,0-.07.46ZM126,22.18l.06.06-.06-.06Z"/><path class="cls-21" d="M136.69,5.35a.25.25,0,0,0,.16.32,24.25,24.25,0,0,1,3.79,1.49l-.06,0A37.18,37.18,0,0,1,146,10.5c.85.63,1.67,1.3,2.5,2s1.64,1.33,2.47,2,1.65,1.31,2.49,2,1.72,1.22,2.61,1.78A24.8,24.8,0,0,0,161.93,21a17.88,17.88,0,0,0,1.92.46,13,13,0,0,0,2.07.27.78.78,0,0,0,.3-1.51c-.72-.15-1.45-.29-2.16-.47s-1.38-.37-2.06-.59a31.49,31.49,0,0,1-3.72-1.51,45.29,45.29,0,0,1-5.14-3.07c-.83-.56-1.66-1.14-2.49-1.73s-1.71-1.23-2.58-1.83a57.42,57.42,0,0,0-5.24-3.35A28.76,28.76,0,0,0,137,5.2l-.09,0a.27.27,0,0,0-.24.17Z"/><path class="cls-21" d="M157.81,21.81a.43.43,0,0,0,.12.57,21.34,21.34,0,0,1,3.12,2.23h0a24.26,24.26,0,0,1,2.21,2.21,26.08,26.08,0,0,1,2,2.65l0,0,0,.05,0,0h0l.08.13a1,1,0,0,0,.31.21.75.75,0,0,0,.57-.05.7.7,0,0,0,.36-.41.65.65,0,0,0,0-.39.84.84,0,0,0-.17-.34,19.19,19.19,0,0,0-1.65-1.94,27.29,27.29,0,0,0-2-1.9c-.7-.59-1.43-1.16-2.18-1.69a25.77,25.77,0,0,0-2.29-1.43.53.53,0,0,0-.23-.06.4.4,0,0,0-.34.17Zm7.49,7.7h0l0,0,0,0Z"/></g></g></svg>