<svg xmlns="http://www.w3.org/2000/svg" viewBox="0 0 698.42 1137.54"><defs><style>.cls-1{fill:#f59f2e;}.cls-2{fill:#1e1e1e;}.cls-3{fill:#353535;}.cls-4{fill:#ffb27d;}.cls-5{fill:#ed975d;}.cls-6{fill:#fcc34e;}.cls-7{fill:#8b3031;}.cls-8{fill:#fff;}.cls-9{fill:#2c150f;}</style></defs><g id="Camada_2" data-name="Camada 2"><g id="_лой_1" data-name="‘лой_1"><path class="cls-1" d="M336.29,186.3s-95.65,9.5-124.43,2.42-100-64-100-64L91.88,139.5s52.71,98.33,91.39,112.42S327,267.46,327,267.46Z"/><path class="cls-2" d="M682.78,1047.83s18.91,17.68,15.15,30.17-20.93,20.74-23.32,36-11.68,23.57-20,23.53l-39.74-.18s-6.08-10.78,8.75-14,20.5-21.1,19.65-37.78,1.56-38.89,1.56-38.89l31.52-7.27Z"/><path class="cls-2" d="M449.65,1092.4s4.25,40.07-4.11,44.2l-107.5-.49s-.13-12.72,17-15.42,47.29-12.76,52.48-35.42S449.65,1092.4,449.65,1092.4Z"/><path class="cls-3" d="M362.13,526.31s5.32,70.22,11.55,154.63c8.47,114.66,18.65,255.51,19.6,282.18,1.63,46.33,8.72,120.45,8.72,120.45s17.51,17.68,52.74,10.42c0,0,31.85-105.62,41.31-217.48.15-1.83.3-3.68.44-5.53,8.85-113.87,22.89-353.69,22.89-353.69Z"/><path class="cls-2" d="M362.13,526.31s5.32,70.22,11.55,154.63L496.05,876.51c.15-1.83.3-3.68.44-5.53,8.85-113.87,22.89-353.69,22.89-353.69Z"/><path class="cls-3" d="M387.79,534.76S488.06,789.44,554.21,909.21,641,1062.42,641,1062.42s38.27-15.11,41.79-25.52c0,0-24.46-230.76-68.86-287.18C588.88,717.83,559.66,622.36,558.42,589s-8.58-99.37-8.58-99.37Z"/><path class="cls-4" d="M399.76,151.71s-91.72,47.62-81,34.51c3.42-4.19.21-19-1.86-24-1-2.39-1.9-4.67-2.74-6.82a245.66,245.66,0,0,1-8.36-24.45l23.74-31.42,16.1-21.31a120.62,120.62,0,0,0,7.93,24.27C370.24,139.28,399.76,151.71,399.76,151.71Z"/><path class="cls-5" d="M353.59,102.48s-5.74,36.36-39.41,52.91a245.66,245.66,0,0,1-8.36-24.45l23.74-31.42C344.94,99.45,353.59,102.48,353.59,102.48Z"/><path class="cls-6" d="M565.08,538.73c-29.24,32.46-220.23,56.68-214.93,32.32a270.3,270.3,0,0,0,6.09-48.56c.2-5.34.26-11,.15-17a362.76,362.76,0,0,0-11-80.64A448,448,0,0,0,331,378.21c-1.42-3.85-2.89-7.73-4.45-11.67a378.31,378.31,0,0,1-18.38-60.87c-8.16-38.66-8.86-74.73.52-97.1.05-.11,9.14-23.7,9.18-23.82,40.94-13,56.64-51.92,56.64-51.92S502.46,168.11,554.2,353.27C554.2,353.27,590.5,510.47,565.08,538.73Z"/><path class="cls-1" d="M427.58,264.19S415,371.54,345.37,424.82A448,448,0,0,0,331,378.21c7.55-25.39,16.16-46.19,23.86-55.07C386.15,287,427.58,264.19,427.58,264.19Z"/><path class="cls-4" d="M289,138.54s66.28-3.2,63.65-44.44S356.84,24.66,314.41,25,264.77,41.52,262.3,55.5,271.73,138.31,289,138.54Z"/><path class="cls-7" d="M383.7,29.51c.68-.67,2.16-1.14,5.37-1.05a12.9,12.9,0,0,0-5.83-2.2c-.3-4.56-2-12.74-9.49-15.31a9.73,9.73,0,0,1,4.07,7.4C369.72,8.39,351.3.1,298.41,0c-69.71-.14-50.58,46.77-42.06,52.87s32.3-6.76,48.89-4S323,76.32,328.39,80.15,332,77.85,340,75s7.62,10.07,4.72,18.28,6.72,20.14,6.72,20.14L363,102.61c11.6-10.77,25.69-59.26,21.71-70.17C384.4,31.47,384.05,30.5,383.7,29.51Z"/><path class="cls-8" d="M299.48,114s-2.15,5.83-4.86,7-11.62,1.89-13.35.73-4.67-5.61-4.67-5.61S290.82,112.22,299.48,114Z"/><rect class="cls-3" x="234.02" y="227.61" width="19.28" height="283.95" transform="translate(1.65 -1.08) rotate(0.26)"/><path class="cls-3" d="M376.9,1134.45c1.87.21,3.51-.21,3.12-3.2L290.26,495.56l-12.89,8.05,96.16,627.89A3.47,3.47,0,0,0,376.9,1134.45Z"/><rect class="cls-3" x="202.44" y="495.36" width="87.62" height="16.21" transform="translate(2.26 -1.1) rotate(0.26)"/><path class="cls-3" d="M332.7,822.91l-4.71.5a8.41,8.41,0,0,1-9.27-7.34l-1.35-12.39a8.32,8.32,0,0,1,7.47-9.09l4.71-.49a8.41,8.41,0,0,1,9.27,7.34l1.35,12.38A8.31,8.31,0,0,1,332.7,822.91Z"/><path class="cls-3" d="M110.42,1133.25c-1.86.2-3.51-.24-3.08-3.22l95.47-634.87,12.81,8.17-101.8,627A3.47,3.47,0,0,1,110.42,1133.25Z"/><path class="cls-3" d="M157.46,822.05l4.68.53a8.36,8.36,0,0,0,9.29-7.21l1.45-12.31a8.28,8.28,0,0,0-7.35-9.11l-4.69-.53a8.36,8.36,0,0,0-9.28,7.21l-1.46,12.31A8.28,8.28,0,0,0,157.46,822.05Z"/><path class="cls-3" d="M259.72,232.41l-33.63-.15a3.86,3.86,0,0,1-3.83-3.86l.07-14.56,41.31.19-.06,14.55A3.86,3.86,0,0,1,259.72,232.41Z"/><rect class="cls-3" x="210.09" y="194.38" width="65.1" height="20.66" transform="translate(484.35 410.52) rotate(-179.74)"/><rect class="cls-3" x="229.73" y="168.44" width="26.03" height="27.56" transform="translate(484.66 365.53) rotate(-179.74)"/><rect class="cls-2" x="0.18" y="67.89" width="15.15" height="81.49" transform="translate(0.49 -0.03) rotate(0.26)"/><rect class="cls-3" x="15.33" y="69.39" width="65.7" height="77.9" transform="translate(0.49 -0.22) rotate(0.26)"/><rect class="cls-3" x="80.91" y="71.49" width="65.7" height="74.3" transform="translate(0.49 -0.51) rotate(0.26)"/><rect class="cls-3" x="146.61" y="81.8" width="65.7" height="54.27" transform="translate(0.49 -0.81) rotate(0.26)"/><rect class="cls-2" x="193.86" y="58.77" width="81.01" height="109.98" transform="translate(0.51 -1.05) rotate(0.26)"/><rect class="cls-3" x="275.02" y="68.86" width="7.49" height="26.76" transform="translate(0.37 -1.25) rotate(0.26)"/><rect class="cls-3" x="278.76" y="67.12" width="7.49" height="30.29" transform="translate(0.37 -1.27) rotate(0.26)"/><rect class="cls-3" x="228.06" y="44.78" width="14.33" height="14" transform="translate(0.24 -1.06) rotate(0.26)"/><rect class="cls-3" x="208.66" y="30.87" width="52.08" height="15.21" transform="translate(0.18 -1.06) rotate(0.26)"/><path class="cls-4" d="M254,189.87s-9.37-35.31-12.52-40.43-20.68-19.59-22.31-19-2.4,2.07-.93,5.39S226.59,149,225,149s-23.6-27.25-29.89-24.37-8.91,25.52-2.27,40,37.54,33.54,39,35.81C244.13,219.57,254,189.87,254,189.87Z"/><path class="cls-6" d="M254.89,187.61s-26.89,9.85-24.26,26c1,6,55,185.76,86.82,187.89S451,257.34,444.19,216.58s-53.37-59.84-70.3-51S338.3,293.34,331.35,291.32,254.89,187.61,254.89,187.61Z"/><path class="cls-4" d="M61.7,58.65S40.28,74,48.7,78s26.44,4,34.6-3.89S77.11,55.74,61.7,58.65Z"/><path class="cls-9" d="M292.69,86.19c.53-4.55,3-7,6.44-7.11s5.75,2.28,6.5,7.09c-1.81-2.29-3.55-4-6.24-4.23C296.48,81.72,294.7,83.52,292.69,86.19Z"/></g></g></svg>