<svg xmlns="http://www.w3.org/2000/svg" viewBox="0 0 366.39 409.13"><defs><style>.cls-1{isolation:isolate;}.cls-2{fill:#525372;}.cls-3{fill:#676868;}.cls-11,.cls-4{fill:#353535;}.cls-5{fill:#313357;}.cls-6{fill:#3c3d5f;}.cls-7{fill:#1e1e1e;opacity:0.3;mix-blend-mode:overlay;}.cls-17,.cls-8{fill:#e0e0e6;}.cls-11,.cls-12,.cls-13,.cls-15,.cls-16,.cls-21,.cls-23,.cls-8{mix-blend-mode:multiply;}.cls-9{fill:#505170;}.cls-10,.cls-23{fill:#fbc24f;}.cls-12,.cls-24{fill:#d6d6dd;}.cls-13{fill:#afa49e;}.cls-14{fill:#feab96;}.cls-15{fill:#dadae1;}.cls-18{fill:#c84545;}.cls-19{fill:#fff;}.cls-20{fill:#d57070;}.cls-21{fill:#bdbec9;}.cls-22{fill:#c1c2cd;}.cls-25{fill:#fec4b5;}.cls-26{fill:#feb6a4;}</style></defs><g class="cls-1"><g id="Camada_2" data-name="Camada 2"><g id="OBJECTS"><path class="cls-2" d="M269.93,145.45c-10.49-27.9-24-35.56-26.67-51.21-3.48-20.76,3.94-21.52,8.79-35.77s2.22-29.7-15.66-45.16C224,2.58,206.51-.28,190.6,0s-34.39,2.57-46.8,13.3c-17.88,15.45-20.51,30.91-15.66,45.15s12.27,15,8.79,35.77c-2.62,15.65-16.18,23.31-26.67,51.21-16.06,42.74-9.7,110.63-9.7,110.63l89.54-.86,89.53.86S286,188.19,269.93,145.45Z"/><path class="cls-3" d="M269.93,145.45c-10.49-27.9-24-35.56-26.67-51.21-3.48-20.76,3.94-21.52,8.79-35.77s2.22-29.7-15.66-45.16C224,2.58,206.51-.28,190.6,0s-34.39,2.57-46.8,13.3c-17.88,15.45-20.51,30.91-15.66,45.15s12.27,15,8.79,35.77c-2.62,15.65-16.18,23.31-26.67,51.21-16.06,42.74-9.7,110.63-9.7,110.63l89.54-.86,89.53.86S286,188.19,269.93,145.45Z"/><path class="cls-4" d="M181.11,6h18a31.33,31.33,0,0,1,31.33,31.33V260.62a0,0,0,0,1,0,0H149.79a0,0,0,0,1,0,0V37.37A31.33,31.33,0,0,1,181.11,6Z"/><path class="cls-5" d="M259.88,226.21a24.83,24.83,0,0,0-2,10.37c.14,8.89,1.75,20.61,1.75,20.61l6.47.8s-1.21-12.52-.95-17.78A45.53,45.53,0,0,1,267.56,229Z"/><path class="cls-6" d="M258.87,229s28.22,29,33.47,33.07,18.79,1,19.2-4.25-14.15-21.41-23.24-29.29-16.88-9-22.42-7.28C261.63,222.57,259.75,224.86,258.87,229Z"/><path class="cls-5" d="M121.11,226.21a24.83,24.83,0,0,1,2,10.37c-.14,8.89-1.76,20.61-1.76,20.61l-6.46.8s1.21-12.52.94-17.78A45.75,45.75,0,0,0,113.43,229Z"/><path class="cls-6" d="M122.12,229S93.9,258,88.64,262s-18.79,1-19.19-4.25,14.14-21.41,23.23-29.29,16.89-9,22.43-7.28C119.35,222.57,121.24,224.86,122.12,229Z"/><path class="cls-7" d="M242.63,89.67a54.36,54.36,0,0,0,.63,15.06c2.63,15.66,16.18,21.37,26.67,49.27,8.6,22.89,10.77,51.52,10.93,73.17.17-23.56-1.59-56.88-10.93-81.72-10.49-27.9-24-35.56-26.67-51.21C243,92.59,242.78,91.08,242.63,89.67Z"/><path class="cls-7" d="M143.8,16.73c12.41-10.72,31-13,46.8-13.29S224,6,236.39,16.73c12.15,10.5,17.25,21,17.76,31.11.56-11.16-4.24-22.84-17.76-34.53C224,2.58,206.51-.28,190.6,0s-34.39,2.57-46.8,13.3C130.29,25,125.49,36.68,126,47.84,126.55,37.73,131.66,27.23,143.8,16.73Z"/><path class="cls-7" d="M110.26,154c10.49-27.9,24-33.61,26.67-49.27a54,54,0,0,0,.63-15.06c-.15,1.41-.35,2.92-.63,4.57-2.62,15.65-16.18,23.31-26.67,51.21-9.33,24.84-11.09,58.16-10.93,81.72C99.49,205.52,101.66,176.89,110.26,154Z"/><path class="cls-4" d="M185.15,254.88l-64.86.91a8.72,8.72,0,0,0-6.36,2.43c-2.73,2.72-26.37,26.36-30.61,31.52s-7,10-6.37,12.42,3.94,3.64,6.67,3.34,122.75-.91,122.75-.91H319.11s41.52,1.21,44.25-.61,4.24-4.55,1.81-8.49-13.63-17.27-24.54-27-13.34-11.82-20.31-12.73S185.15,254.88,185.15,254.88Z"/><path class="cls-4" d="M366.38,298.93a7.25,7.25,0,0,0-1.21-3.44c-2.42-3.94-13.63-17.27-24.54-27s-13.34-11.82-20.31-12.73-135.17-.91-135.17-.91l-64.86.91a8.72,8.72,0,0,0-6.36,2.43c-2.73,2.72-26.37,26.36-30.61,31.52a37.84,37.84,0,0,0-5.78,8.89c15.46,0,89.65.18,90.74,0s4-3,4-3l91.53.2s4,3.23,5.25,3.23S353.84,300.27,366.38,298.93Z"/><path class="cls-8" d="M168.82,289.4l-6.1,4.78s4.41,4.83,5.73,4.43,5-3.62,5-3.62Z"/><path class="cls-8" d="M77.54,298.63c15.46,0,89.65.18,90.74,0a2.63,2.63,0,0,0,.8-.35,69,69,0,0,0-5.51-4.84l-82.89-.26A29.16,29.16,0,0,0,77.54,298.63Z"/><path class="cls-8" d="M265.8,289.4l7,4.18s-2.93,5.08-3.07,5.15.2.45-.74.29a14.09,14.09,0,0,1-3.84-2.14,9.73,9.73,0,0,1-1.55-1.28l.88-4.45Z"/><path class="cls-8" d="M363.15,292.65l-91,.52L269,299h.1c1.14,0,84.74,1.24,97.28-.1a7.25,7.25,0,0,0-1.21-3.44C364.75,294.81,364.06,293.83,363.15,292.65Z"/><polygon class="cls-8" points="172.72 295.6 263.85 295.8 265.8 289.4 168.82 289.4 172.72 295.6"/><polygon class="cls-3" points="232.71 275.15 245.56 275.16 245.45 266.22 233.53 266.22 232.71 275.15"/><polygon class="cls-3" points="217.88 266.22 205.91 266.22 203.23 275.11 215.99 275.13 217.88 266.22"/><polygon class="cls-3" points="247.02 275.16 260.81 275.18 259.68 266.22 246.92 266.22 247.02 275.16"/><polygon class="cls-3" points="246.9 264.76 259.5 264.76 258.87 259.83 246.84 259.83 246.9 264.76"/><polygon class="cls-3" points="233.66 264.76 245.43 264.76 245.38 259.83 234.11 259.83 233.66 264.76"/><polygon class="cls-3" points="232.64 259.83 220.73 259.83 219.69 264.76 232.19 264.76 232.64 259.83"/><polygon class="cls-3" points="321.41 275.25 334.2 275.26 326.48 266.22 314.7 266.22 321.41 275.25"/><polygon class="cls-3" points="232.05 266.22 219.38 266.22 217.49 275.13 231.24 275.14 232.05 266.22"/><polygon class="cls-3" points="189.26 275.1 201.71 275.11 204.38 266.22 192.26 266.22 189.26 275.1"/><polygon class="cls-3" points="206.35 264.76 218.19 264.76 219.24 259.83 207.83 259.83 206.35 264.76"/><polygon class="cls-3" points="291.83 275.21 287.34 266.22 274.79 266.22 277.51 275.2 291.83 275.21"/><polygon class="cls-3" points="302.34 266.22 307.65 275.23 319.58 275.24 312.88 266.22 302.34 266.22"/><polygon class="cls-3" points="260.97 264.76 272.81 264.76 271.31 259.83 260.35 259.83 260.97 264.76"/><polygon class="cls-3" points="305.94 275.23 300.64 266.22 288.98 266.22 293.47 275.21 305.94 275.23"/><polygon class="cls-3" points="274.34 264.76 286.61 264.76 284.14 259.83 272.85 259.83 274.34 264.76"/><polygon class="cls-3" points="288.24 264.76 299.78 264.76 296.87 259.83 285.78 259.83 288.24 264.76"/><polygon class="cls-3" points="298.57 259.83 301.48 264.76 311.79 264.76 308.13 259.83 298.57 259.83"/><polygon class="cls-3" points="261.16 266.22 262.29 275.18 275.98 275.19 273.25 266.22 261.16 266.22"/><polygon class="cls-3" points="320.67 276.71 308.51 276.7 312.43 283.34 325.6 283.34 320.67 276.71"/><polygon class="cls-3" points="261 276.64 247.04 276.63 247.12 283.34 261.85 283.34 261 276.64"/><polygon class="cls-3" points="306.81 276.69 294.2 276.68 297.53 283.34 310.72 283.34 306.81 276.69"/><polygon class="cls-3" points="276.42 276.66 262.48 276.64 263.32 283.34 278.44 283.34 276.42 276.66"/><polygon class="cls-3" points="292.57 276.68 277.95 276.66 279.98 283.34 295.89 283.34 292.57 276.68"/><polygon class="cls-3" points="172.88 276.55 161.13 276.53 157.77 283.34 170.26 283.34 172.88 276.55"/><polygon class="cls-3" points="335.45 276.73 322.5 276.71 327.42 283.34 341.1 283.34 335.45 276.73"/><polygon class="cls-3" points="177.42 264.76 179.32 259.83 169.36 259.83 166.93 264.76 177.42 264.76"/><polygon class="cls-3" points="313.62 264.76 325.23 264.76 321.03 259.83 309.96 259.83 313.62 264.76"/><polygon class="cls-3" points="231.1 276.61 217.18 276.59 215.75 283.34 230.49 283.34 231.1 276.61"/><polygon class="cls-3" points="175.01 275.08 187.72 275.1 190.71 266.22 178.43 266.22 175.01 275.08"/><polygon class="cls-3" points="245.57 276.63 232.57 276.61 231.96 283.34 245.65 283.34 245.57 276.63"/><polygon class="cls-3" points="178.99 264.76 191.21 264.76 192.87 259.83 180.89 259.83 178.99 264.76"/><polygon class="cls-3" points="184.93 283.34 187.22 276.56 174.45 276.55 171.83 283.34 184.93 283.34"/><polygon class="cls-3" points="161.85 275.07 173.44 275.08 176.86 266.22 166.21 266.22 161.85 275.07"/><polygon class="cls-3" points="192.75 264.76 204.82 264.76 206.3 259.83 194.42 259.83 192.75 264.76"/><polygon class="cls-3" points="215.68 276.59 202.79 276.58 200.76 283.34 214.25 283.34 215.68 276.59"/><polygon class="cls-3" points="201.26 276.58 188.77 276.56 186.48 283.34 199.23 283.34 201.26 276.58"/><polygon class="cls-3" points="115.27 277.27 119.51 271.76 111.48 271.76 106.72 277.27 115.27 277.27"/><polygon class="cls-3" points="112.54 270.54 120.45 270.54 124.03 265.9 116.54 265.9 112.54 270.54"/><polygon class="cls-3" points="121.99 270.54 132.38 270.54 135.19 265.9 125.57 265.9 121.99 270.54"/><polygon class="cls-3" points="149.57 260.04 140.17 260.04 137.36 264.68 146.88 264.68 149.57 260.04"/><polygon class="cls-3" points="148.29 264.68 156.19 264.68 158.99 260.04 150.98 260.04 148.29 264.68"/><polygon class="cls-3" points="133.81 270.54 143.48 270.54 146.17 265.9 136.62 265.9 133.81 270.54"/><polygon class="cls-3" points="126.51 264.68 135.93 264.68 138.75 260.04 130.09 260.04 126.51 264.68"/><polygon class="cls-3" points="116.81 277.27 128.31 277.27 131.65 271.76 121.05 271.76 116.81 277.27"/><polygon class="cls-3" points="114.32 278.49 105.67 278.49 101.6 283.2 110.75 283.13 114.32 278.49"/><polygon class="cls-3" points="124.97 264.68 128.54 260.04 121.61 260.04 117.6 264.68 124.97 264.68"/><polygon class="cls-3" points="140.28 278.49 137.72 282.93 145.25 282.87 147.88 278.49 140.28 278.49"/><polygon class="cls-3" points="124.82 283.02 127.56 278.49 115.86 278.49 112.3 283.12 124.82 283.02"/><polygon class="cls-3" points="147.58 265.9 144.89 270.54 152.67 270.54 155.46 265.9 147.58 265.9"/><polygon class="cls-3" points="138.87 278.49 128.99 278.49 126.25 283.01 136.3 282.94 138.87 278.49"/><polygon class="cls-3" points="142.78 271.76 133.07 271.76 129.73 277.27 139.58 277.27 142.78 271.76"/><polygon class="cls-3" points="151.93 271.76 144.19 271.76 140.99 277.27 148.61 277.27 151.93 271.76"/><path class="cls-5" d="M328.55,302.83s.51-2.62,2.73-2.52,2.22,1.31,2.22,1.31l1,2.19a2.68,2.68,0,0,1-1.28,3.59,3.41,3.41,0,0,1-2.89.08C328.85,306.47,328.55,302.83,328.55,302.83Z"/><path class="cls-9" d="M335.38,308.66a10.18,10.18,0,0,0-2.62-4.39c-.56-.61-1.82,0-1.47.85,1.1,2.62,2.19,5.74,1,8.51s-3.86,4.64-6.35,6.09c-6.81,4-14.79,6-22.34,8.11-21.45,5.88-43.52,9.15-65.57,11.78-11,1.31-22,2.45-33.05,3.65-10.56,1.16-21.22,2.09-31.62,4.3-9.87,2.1-19.71,5.41-28.2,10.95a61.29,61.29,0,0,0-12.48,11.09,92.12,92.12,0,0,0-15.22,24.8h2.4a93.43,93.43,0,0,1,12.39-20.47,63.5,63.5,0,0,1,12.58-12.09c7.71-5.43,16.8-8.76,25.91-10.94,10.49-2.51,21.29-3.48,32-4.65,11.15-1.22,22.32-2.36,33.47-3.65,22.1-2.58,44.21-5.72,65.76-11.39,8-2.11,16.35-4.28,23.75-8.1C331.08,320.34,337.16,315.47,335.38,308.66Z"/><path class="cls-10" d="M145,224.63c1,10,0,22.11-1,31.45h105.5a297.31,297.31,0,0,0,3.45-30.58c.76-13.34-2.23-82.46-4.45-84.64s-10.3-6.13-21-7.22-28.09-4.6-40.21-3.94-27.88,2.41-36.57,5.69A86.29,86.29,0,0,0,136.73,142c-3.23,2,3.84,47.68,3.84,47.68S143.2,205.38,145,224.63Z"/><path class="cls-4" d="M231.69,38.59c-.6-9.09-6.67-21.42-17.58-25.46-8.14-3-19.78-3.11-25.15-3-5.38-.15-17-.06-25.16,3-10.91,4-17,16.37-17.57,25.46s-1.42,26.06-1.42,26.06l6.47,1.42s.14-14.14.4-22.43c.2-6.47,3.09-14.9,7.88-20,8.39-8.94,22.29-7.3,33.35-7,8.56.27,19,.34,25.45,7,4.88,5,7.68,13.53,7.88,20,.26,8.29.4,22.43.4,22.43l6.47-1.42S232.3,47.68,231.69,38.59Z"/><path class="cls-11" d="M231.69,38.59c-.6-9.09-6.67-21.42-17.58-25.46-8.14-3-19.78-3.11-25.15-3-5.38-.15-17-.06-25.16,3-10.91,4-17,16.37-17.57,25.46s-1.42,26.06-1.42,26.06l6.47,1.42s.14-14.14.4-22.43c.2-6.47,3.09-14.9,7.88-20,8.39-8.94,22.29-7.3,33.35-7,8.56.27,19,.34,25.45,7,4.88,5,7.68,13.53,7.88,20,.26,8.29.4,22.43.4,22.43l6.47-1.42S232.3,47.68,231.69,38.59Z"/><path class="cls-10" d="M138.42,65.24s-5.95.85-7,2.7c-1.62,2.82-2.43,20.6-.14,26.4s5.39,6.73,7.95,6.87a17.35,17.35,0,0,0,3.23,0S136,76.83,138.42,65.24Z"/><path class="cls-4" d="M154.18,64.84s-.2-5.26-8.28-5.26S138,62,136.6,65.44,133.37,80,135,89.49s4.44,16.57,10.5,17.58,11.12-2.63,12.33-5.46-1.82-12.53-2.43-21S154.18,64.84,154.18,64.84Z"/><path class="cls-10" d="M149.08,107.14a12.31,12.31,0,0,0,3.35-.88c-.15-.17-.3-.34-.44-.52a28.69,28.69,0,0,1-2.77-4.36,43.7,43.7,0,0,1-3.66-9.91,59,59,0,0,1-1.13-22,68.25,68.25,0,0,1,2.22-9.91l-.75,0c-.42,0-.81,0-1.19,0-3,6.28-4,13.58-3.81,20.42A52.78,52.78,0,0,0,146,101.92,33.16,33.16,0,0,0,149.08,107.14Z"/><path class="cls-12" d="M157.82,101.61c.6-1.39.16-4.45-.5-8.21a26.12,26.12,0,0,1-7.45,4.3c-5.66,2.16-12.79-.13-13.33-1.34a36.8,36.8,0,0,1-1.22-5.12,20.1,20.1,0,0,1-3.09,0,9.14,9.14,0,0,1-1.81-.43,17.53,17.53,0,0,0,.86,3.53c2.05,5.18,4.75,6.48,7.12,6.79,1.69,3.26,4,5.41,7.09,5.94C151.56,108.08,156.61,104.44,157.82,101.61Z"/><path class="cls-10" d="M237.44,65.24s5.94.85,7,2.7c1.62,2.82,2.42,20.6.13,26.4s-5.38,6.73-7.94,6.87a17.52,17.52,0,0,1-3.24,0S239.86,76.83,237.44,65.24Z"/><path class="cls-4" d="M221.68,64.84s.2-5.26,8.28-5.26,7.88,2.43,9.29,5.86,3.24,14.55,1.62,24-4.44,16.57-10.51,17.58-11.11-2.63-12.32-5.46,1.82-12.53,2.42-21S221.68,64.84,221.68,64.84Z"/><path class="cls-10" d="M226.77,107.14a12.34,12.34,0,0,1-3.34-.88c.15-.17.3-.34.44-.52a28.63,28.63,0,0,0,2.76-4.36,43.73,43.73,0,0,0,3.67-9.91,59.26,59.26,0,0,0,1.13-22,69.6,69.6,0,0,0-2.22-9.91l.75,0c.42,0,.81,0,1.18,0,3,6.28,4,13.58,3.82,20.42a52.78,52.78,0,0,1-5.11,21.89A32.49,32.49,0,0,1,226.77,107.14Z"/><path class="cls-12" d="M218,101.61c-.6-1.39-.17-4.45.5-8.21A26,26,0,0,0,226,97.7c5.65,2.16,12.79-.13,13.33-1.34a36.4,36.4,0,0,0,1.21-5.12,20.26,20.26,0,0,0,3.1,0,9.14,9.14,0,0,0,1.81-.43,16.83,16.83,0,0,1-.87,3.53c-2,5.18-4.74,6.48-7.12,6.79-1.68,3.26-3.95,5.41-7.09,5.94C224.3,108.08,219.25,104.44,218,101.61Z"/><path class="cls-13" d="M177.34,131.11s-9.19,1.11-10.61,7,5.06,10.61,17.58,11.42,25-.41,28.79-5.06,3.44-7.17.81-10S203.81,131,200.17,131,177.34,131.11,177.34,131.11Z"/><path class="cls-14" d="M174.11,122.22s1.41,9.9,1,11.72S167,138.18,167,141s4.64,10.71,26.67,9.5,21.62-8.69,21.62-11.12-2.43-3.84-5.86-4.85a40.27,40.27,0,0,0-4.85-1.21s-1.62-8.08-.81-11.72S174.11,122.22,174.11,122.22Z"/><path class="cls-15" d="M179.59,132a17,17,0,0,0,7.54,1.85,24.11,24.11,0,0,0,7.72-1.26,31.2,31.2,0,0,0,9-4.65,22.38,22.38,0,0,1,0-6.35c.81-3.63-29.7.61-29.7.61s.53,3.7.85,7A37.55,37.55,0,0,0,179.59,132Z"/><g class="cls-16"><path class="cls-17" d="M165.33,134.26c-3.83,3.16-4.06,10.87,1.08,13,.33.14.71-.27.59-.59-.74-1.93-2.32-3.2-2.66-5.35a9,9,0,0,1,1.68-6.51c.31-.43-.33-.82-.69-.53Z"/></g><g class="cls-16"><path class="cls-17" d="M167.67,149.47c.41.52,1.21,1.49,2,1.15a.33.33,0,0,0,.17-.29c0-.37-.26-.55-.52-.78a7.41,7.41,0,0,1-.83-.85c-.44-.55-1.2.23-.77.77Z"/></g><g class="cls-16"><path class="cls-17" d="M174.28,153.16a23,23,0,0,0,4.64,1.61c1.35.29,3,.76,4.37.27.26-.09.38-.49.09-.63-1.28-.61-2.78-.48-4.16-.73a35.29,35.29,0,0,1-4.65-1.21c-.4-.13-.68.51-.29.69Z"/></g><g class="cls-16"><path class="cls-17" d="M186.36,155.82a3.11,3.11,0,0,0,1.43-.41.27.27,0,0,0-.07-.49,3.34,3.34,0,0,0-1.6,0c-.56.08-.33.95.24.86Z"/></g><g class="cls-16"><path class="cls-17" d="M191,155.54a35.4,35.4,0,0,0,16.77-1.63c3.68-1.28,8.42-3,9.63-7.07a.55.55,0,0,0-1-.43c-4.88,7.5-17.24,8.61-25.32,8.53-.33,0-.43.55-.08.6Z"/></g><g class="cls-16"><path class="cls-17" d="M219.2,144.62c.2-.62.57-1.47.07-2a.36.36,0,0,0-.36-.09c-.7.27-.78,1.16-.9,1.8a.62.62,0,0,0,1.19.33Z"/></g><g class="cls-16"><path class="cls-17" d="M219.57,141.58c.59-2.29-.09-6.66-2.95-7.14-.21,0-.49.14-.4.4.39,1,1.17,1.74,1.63,2.72a7.32,7.32,0,0,1,.58,3.86c-.06.66,1,.78,1.14.16Z"/></g><path class="cls-14" d="M180.79,29c-10.92.68-20.45,8.63-25.38,18.4s-5.87,21.08-5.33,32c.78,15.89,5.28,32.83,18,43.35,6.87,5.67,16.21,8.67,25.06,6.94,6-1.18,11.57-4.8,16.07-8.84a44.86,44.86,0,0,0,10.6-14.62c7.95-17.12,9.73-39.07,2.57-56.76a47.4,47.4,0,0,0-8.73-14.08,24.9,24.9,0,0,0-6-5,25.91,25.91,0,0,0-9.45-2.84,49.13,49.13,0,0,0-20.49,1.69"/><path class="cls-18" d="M169.6,103.39s2.15,15.35,20.61,12.52c19.13-2.93,17-19.39,17-19.39A101.2,101.2,0,0,1,185.49,102C173.5,103.66,169.6,103.39,169.6,103.39Z"/><path class="cls-19" d="M174.53,104.72a6.27,6.27,0,0,0,3,1.7,18.55,18.55,0,0,0,7.64.09,53.1,53.1,0,0,0,8.33-2.07,59.09,59.09,0,0,0,6.65-2.6,13.61,13.61,0,0,0,3.79-2.38,8.18,8.18,0,0,0,1.7-2.36A103,103,0,0,1,185.49,102c-5.54.75-9.35,1.09-11.85,1.24A5,5,0,0,0,174.53,104.72Z"/><path class="cls-20" d="M199.77,106.81a12.37,12.37,0,0,0-10.64,2.72,12.91,12.91,0,0,0-4,6.72,27.59,27.59,0,0,0,5.12-.34c7.22-1.1,11.41-4.14,13.82-7.49A14.56,14.56,0,0,0,199.77,106.81Z"/><path class="cls-12" d="M190.64,96.13c-1.56.13-3,.72-4.63.8a12.13,12.13,0,0,1-4.53-.38c-1.09-.39-2.42-1.26-1.35-2.66a4.6,4.6,0,0,1,1.68-1.24,6.09,6.09,0,0,1,4.57-.31.66.66,0,0,0,.83-.63c0-3.62,0-7.23-.05-10.84a.41.41,0,0,0-.82,0c-.14,3.33-.31,6.65-.42,10a6.86,6.86,0,0,0-4.91.77c-1.39.82-3.28,2.6-2.07,4.29s3.44,2,5.29,2,5.12.18,6.61-1.32A.29.29,0,0,0,190.64,96.13Z"/><path class="cls-4" d="M157,44.76l-1,.38a29.12,29.12,0,0,0-5.32,26.71l5.77-11.08A29.93,29.93,0,0,0,158,57.69,15.38,15.38,0,0,0,157,44.76Z"/><path class="cls-5" d="M219.56,44.76l1,.38a29.12,29.12,0,0,1,5.32,26.71l-5.77-11.08a29.93,29.93,0,0,1-1.47-3.08A15.42,15.42,0,0,1,219.56,44.76Z"/><path class="cls-4" d="M227.65,74.94c-.13-6.47-.13-15.22-6.6-17-5.61-1.52-11.89-1.41-17.65-1.65-6.12-.26-12.24-.38-18.36-.32q-8,.09-15.92.53c-4.36.24-9,.29-13.26,1.44-6.47,1.75-6.71,10.5-6.85,17s1.32,15,8.19,15.22,20.07-2,26.81-2.15l1.75,0v0a2.92,2.92,0,0,1,.63,0c.82,0,1.5,0,2.06,0s1.25,0,2.07,0a2.92,2.92,0,0,1,.63,0v0l1.75,0c6.73.13,19.93,2.42,26.8,2.15S227.79,81.41,227.65,74.94Z"/><path class="cls-10" d="M218.5,87.25c-3.66,0-8.84-.58-13.84-1.14-4.44-.5-8.63-1-11.7-1l-1.77,0-2.5,0h-.47l-2.51,0-1.76,0c-3.07.06-7.26.53-11.7,1-5,.56-10.18,1.14-13.85,1.14-.38,0-.74,0-1.08,0-1.28,0-2.91-.49-4.12-3.46A23,23,0,0,1,151.94,75c.14-6.58.61-13.1,4.68-14.2a50.4,50.4,0,0,1,10.58-1.24l2.09-.11c5.29-.29,10.6-.47,15.78-.52l3.18,0c4.82,0,9.74.11,15,.33,1.07,0,2.17.08,3.23.11,4.68.15,9.52.29,13.77,1.45,3.86,1,4.29,6.81,4.43,13.68V75a24,24,0,0,1-1.15,8.82c-1.13,2.91-2.64,3.36-4,3.41-.34,0-.7,0-1.09,0Z"/><path class="cls-4" d="M218.5,86.52c-3.62,0-8.77-.58-13.76-1.14-4.45-.5-8.66-1-11.77-1l-1.76,0-1.79,0v0l-1,0-1,0v0l-1.79,0-1.76,0c-3.11.07-7.32.54-11.78,1-5,.56-10.13,1.14-13.76,1.14l-1.05,0c-1.13,0-2.43-.43-3.48-3a22.43,22.43,0,0,1-1.2-8.47c.14-6.31.56-12.55,4.14-13.52a50.66,50.66,0,0,1,10.42-1.21l2.1-.1c5.28-.3,10.58-.47,15.74-.53h3.18c4.81,0,9.72.1,15,.33l3.23.11c4.64.14,9.44.28,13.61,1.41,3.37.92,3.76,6.43,3.89,13V75a23.53,23.53,0,0,1-1.1,8.53c-1,2.52-2.18,2.91-3.33,3Z"/><path class="cls-12" d="M159.66,68a63.76,63.76,0,0,1,6.84-7.65c-1,.05-2.08.1-3.11.18-.65.73-1.3,1.46-1.93,2.21-2.89,3.42-5.81,6.81-8.73,10.21L152.67,75c0,.65,0,1.28,0,1.9C155,73.93,157.3,70.93,159.66,68Z"/><path class="cls-12" d="M167.09,85.86C173.21,77,179.3,68.1,186,59.66h-.92c-4.08.05-8.24.17-12.41.36-1.26,1.55-2.5,3.11-3.74,4.68-5,6.44-9.82,13.06-14.64,19.66a3.37,3.37,0,0,0,3.07,2.14l1.05,0c2.38,0,5.42-.25,8.63-.58Z"/><path class="cls-12" d="M187.49,84.28v0l1,0,1,0v0h.51c4.73-8,9.3-16.18,13.92-24.29l-.6,0-2.75-.11c-1.1,1.51-2.14,3.05-3.14,4.62-1.72,2.68-3.33,5.42-4.91,8.18-1.71,3-3.49,5.87-5.26,8.79-.58,1-1.15,1.9-1.72,2.86h.23Z"/><path class="cls-12" d="M216.87,73.43c1.69-3.48,3.64-6.84,5.3-10.33a3.58,3.58,0,0,0-2.08-1.6,48.23,48.23,0,0,0-10.2-1.3q-1.2,1.95-2.31,3.94c-1.49,2.63-2.91,5.3-4.42,7.92s-3.2,5.49-4.73,8.26q-1.16,2.09-2.26,4.19c2.56.19,5.51.53,8.57.87,2,.23,4.07.46,6,.65Q213.81,79.73,216.87,73.43Z"/><path class="cls-10" d="M185.56,62.21a1,1,0,1,1-1-1A1,1,0,0,1,185.56,62.21Z"/><path class="cls-10" d="M189.34,62.21a1,1,0,1,1-1-1A1,1,0,0,1,189.34,62.21Z"/><path class="cls-10" d="M193.13,62.21a1,1,0,1,1-1-1A1,1,0,0,1,193.13,62.21Z"/><path class="cls-4" d="M219,35a31.2,31.2,0,0,0-6.91-8.74,18.54,18.54,0,0,0-9.83-4,30.76,30.76,0,0,0-8,.23c-5.82-3.2-13.45-3.45-19.61-1.44C168.87,23,162.73,27.29,160,33c-6.44-1-11.95,5.69-12.81,11.67a15.27,15.27,0,0,0,2.34,10.31A138.81,138.81,0,0,0,158,66.44a.4.4,0,0,0,.68,0,29.66,29.66,0,0,0,3.14-11.36c.07-1,.11-2,.09-3a26.94,26.94,0,0,0,12.19,6.56c2.82.67,6.69,1.06,8.32-2a3.83,3.83,0,0,0-.25-3.76L182,52.7c1.8,1.36,3.65,2.65,5.52,3.87a23.86,23.86,0,0,0,5.24,2.7c1.33.46,3.24,1.07,4.61.43,3-1.44.66-6.73-.45-8.69l-.37-.63,0,0a64.31,64.31,0,0,0,12.05,8.19,20.48,20.48,0,0,0,6.42,2.08c1.82.22,4.43.21,6-.87s-.25-2.87-1-3.81l-.53-.64a51.33,51.33,0,0,0,6.8,3.06.4.4,0,0,0,.51-.38C226.38,49.75,223.13,42.12,219,35Z"/><path class="cls-21" d="M177.41,47.6s3.5,4.17,3.91,4.44a10.49,10.49,0,0,1,1,1.3c-.06-.14-.13-.27-.2-.4L182,52.7c1.8,1.36,3.65,2.65,5.52,3.87a23.86,23.86,0,0,0,5.24,2.7c1.33.46,3.24,1.07,4.61.43a2.87,2.87,0,0,0,1.48-3,32.65,32.65,0,0,1-4.36-.05C188.32,56.22,177.41,47.6,177.41,47.6Z"/><path class="cls-21" d="M158.67,66.44a29.34,29.34,0,0,0,1.8-4.39,35.82,35.82,0,0,1-8.92-8.8,34.32,34.32,0,0,1-4.13-9.66c-.08.34-.14.69-.19,1a15.27,15.27,0,0,0,2.34,10.31A138.81,138.81,0,0,0,158,66.44.4.4,0,0,0,158.67,66.44Z"/><path class="cls-21" d="M182,57.28a27.07,27.07,0,0,1-7.06-.79c-7.94-1.75-14.14-9.43-14.14-9.43s.67,2.56,1.06,5a26.94,26.94,0,0,0,12.19,6.56C176.71,59.29,180.25,59.67,182,57.28Z"/><path class="cls-21" d="M226.84,58c-.06-1-.15-2-.28-2.91-4.72-.1-13.05-5.37-13.05-5.37l3.77,4.31,2.59,1.71-.34-.42a51.33,51.33,0,0,0,6.8,3.06A.4.4,0,0,0,226.84,58Z"/><path class="cls-21" d="M215.07,60.67c1.82.22,4.43.21,6-.87a1.39,1.39,0,0,0,.31-2.08,27.81,27.81,0,0,1-7.35,0c-6.74-.68-20.48-11.45-20.48-11.45l3,4.15a64.31,64.31,0,0,0,12.05,8.19A20.48,20.48,0,0,0,215.07,60.67Z"/><path class="cls-12" d="M164.77,35.22c2.6-5,6.66-9.5,12-11.46s11.9-.88,15.52,3.45c.22.26.46.55.79.57a1.29,1.29,0,0,0,.83-.39,10.25,10.25,0,0,1,7.21-1.95,17.45,17.45,0,0,1,7.17,2.45,27.56,27.56,0,0,1,13.32,19.72c-3.5-7.55-9.9-14.32-18.08-15.78-.6-.1-1.32-.14-1.69.35a1.71,1.71,0,0,0-.07,1.47,29.6,29.6,0,0,0,5.74,11.21,53.26,53.26,0,0,1,4.26,5.24c-2,.14-3.71-1.47-5.1-3L196.33,36a14.87,14.87,0,0,0-4.1-3.45,5,5,0,0,0-5.12.13,5.05,5.05,0,0,0-1.74,4.5A14.87,14.87,0,0,0,186.91,42l3.66,8.1c-6.46-3.24-11.77-8.38-16.51-13.83a3.43,3.43,0,0,0-2.34-1.52,2.44,2.44,0,0,0-1.68.82c-1.87,1.87-1.72,5-.68,7.43s2.8,4.5,3.89,6.91c-2.63.36-5.25-.84-7.4-2.4s-4-3.53-6.21-5a3.24,3.24,0,0,0-2.35-.74,2.35,2.35,0,0,0-1.63,1.77,7,7,0,0,0,0,2.51l1.17,10.55q-1.85-4.89-3.68-9.8c-1.46-3.87-1.46-7.16,2-9.82a10.89,10.89,0,0,1,4.68-2.08C160.22,34.81,164.93,34.92,164.77,35.22Z"/><path class="cls-4" d="M167.55,121.11l-12.13-10a19.7,19.7,0,0,1-4.85-5.13A16.21,16.21,0,0,1,149,101a50.47,50.47,0,0,1-.79-5.61,3.88,3.88,0,0,0-1-2.16,2.16,2.16,0,0,0-3.25-.33c-1.69,1.2-1.43,3.75-1,5.77a20.6,20.6,0,0,0,1.26,4.23A20.8,20.8,0,0,0,149,109c5.31,5.13,10.7,10.32,17.2,13.82.69.37,1.77.61,2.09-.11S168,121.51,167.55,121.11Z"/><g class="cls-16"><path class="cls-22" d="M150.27,107.75a5.43,5.43,0,0,1-1-1.5,5.22,5.22,0,0,1,.15-3.12c-.2-.69-.36-1.4-.5-2.11a50.47,50.47,0,0,1-.79-5.61,3.88,3.88,0,0,0-1-2.16,2.16,2.16,0,0,0-3.25-.33c-1.69,1.2-1.43,3.75-1,5.77a20.6,20.6,0,0,0,1.26,4.23A20.8,20.8,0,0,0,149,109c5.31,5.13,10.7,10.32,17.2,13.82.69.37,1.77.61,2.09-.11a1,1,0,0,0,.06-.22A59.68,59.68,0,0,1,150.27,107.75Z"/></g><path class="cls-10" d="M168.45,125.39a4.49,4.49,0,0,0,1.84.34A2.33,2.33,0,0,0,172,125a2.39,2.39,0,0,0,.43-2,4.79,4.79,0,0,0-.9-1.84c-1.44-1.93-4.6-3.52-6.53-1.25S166.61,124.7,168.45,125.39Z"/><path class="cls-23" d="M169.68,123.61a8.54,8.54,0,0,1-5.22-2.84c-.61,2,2.38,4,4,4.62a4.49,4.49,0,0,0,1.84.34,2.12,2.12,0,0,0,2.11-2.53A5,5,0,0,1,169.68,123.61Z"/><path class="cls-14" d="M254.52,204.55s13.64,18.79,18.19,23.34,23.94,24.85,23.94,24.85,6.06-1.51,9.7-.91a36.19,36.19,0,0,0,5.15.61,49.51,49.51,0,0,0-3.33-21.82c-4.55-11.22-8.79-13.64-8.79-13.64s-8.49-20.31-15.76-28.79-14.55-11.52-14.55-11.52S253.31,181.22,254.52,204.55Z"/><path class="cls-8" d="M296.65,252.74s6.06-1.51,9.7-.91a36.19,36.19,0,0,0,5.15.61,40.78,40.78,0,0,0,.09-5.89c-6.14-1.69-14.33.13-14.33.13l-18.49-18.79s0-2.42,4.85-7,11.52-4.24,11.52-4.24-3-1.22-9.1.3-10.3,8.79-10.3,8.79l-8.79-9.7a28.67,28.67,0,0,1,2.12-12.43c2-5.19,9.95-12.73,13.86-16.24-7-7.89-13.86-10.73-13.86-10.73s-15.76,4.55-14.55,27.88c0,0,13.64,18.79,18.19,23.34S296.65,252.74,296.65,252.74Z"/><path class="cls-14" d="M326.12,261.23c-3.79-5-8.26-9-14.16-11.06a24.5,24.5,0,0,0-16.12.46A43.35,43.35,0,0,0,282,259.25a17.49,17.49,0,0,0-4.24,4.92,7.1,7.1,0,0,0-.37,6.28,4.51,4.51,0,0,0,5.42,2.4c1.68-.66,2.62-2.42,3.23-4.12s1.05-3.52,2.25-4.86a8.14,8.14,0,0,1,5.29-2.29c2-.21,3.94-.05,5.9-.27,2.4-.25,4.74-1.06,7.16-1.09,3.62-.05,7.2,1.63,10.76,1l-1.1-.66c5.36,2.84,8,5.48,10.34,11.06.45,1.06,1.17,2.37,2.3,2.2s1.45-1.48,1.43-2.55C330.24,266.63,328.9,264.89,326.12,261.23Z"/><path class="cls-12" d="M293.54,261.58c1-.11,2-.12,3-.13l-.22-.14c-1.64-.92-3.68-.43-5.45.21A9.64,9.64,0,0,0,288,263c-2.51,2-2.95,5.88-5.53,7.8a5.39,5.39,0,0,1-4,.92l-.34-.08a4.32,4.32,0,0,0,4.6,1.24c1.68-.66,2.62-2.42,3.23-4.12s1.05-3.52,2.25-4.86A8.14,8.14,0,0,1,293.54,261.58Z"/><g class="cls-16"><path class="cls-24" d="M327.5,271.34c-.54-1-.85-2.15-1.3-3.22a13.75,13.75,0,0,0-6.15-6.67,10.74,10.74,0,0,0-4.45-1.5c-1.11,0-1.36.61-1.18,1.33a10.36,10.36,0,0,0,2.94-.1l-1.1-.66c5.36,2.84,8,5.48,10.34,11.06.45,1.06,1.17,2.37,2.3,2.2a1.24,1.24,0,0,0,.6-.25A5,5,0,0,1,327.5,271.34Z"/></g><path class="cls-14" d="M322.63,267.41a20.18,20.18,0,0,0-2.3-2.93,43,43,0,0,0-6.77-6.45c-1.42-1-3.39-1.9-4.85-.92s-1.37,3.35-.74,5.09l.19-.12,4,3.18c1.9,1.5,3.88,3.1,4.84,5.33s.79,4.45,1,6.71c.14,1.3.69,2.87,2,3.06,1.07.15,2-.77,2.54-1.69A11,11,0,0,0,322.63,267.41Z"/><path class="cls-12" d="M321.73,279.71a2.8,2.8,0,0,1-2.13-2.32,21.79,21.79,0,0,1-.17-3.34,11.3,11.3,0,0,0-2.29-5.8,26.2,26.2,0,0,0-4.44-4.49,51.83,51.83,0,0,0-5.18-4.25,7.28,7.28,0,0,0,.45,2.69l.19-.12,4,3.18c1.9,1.5,3.88,3.1,4.84,5.33s.79,4.45,1,6.71c.14,1.3.69,2.87,2,3.06a2.14,2.14,0,0,0,1.7-.65Z"/><path class="cls-14" d="M306.35,255.64a2.57,2.57,0,0,0-3.47-.3,4.17,4.17,0,0,0-1.48,3.41,12.54,12.54,0,0,0,.82,3.76l6.15,18.5c.27.82.66,1.75,1.49,2a1.79,1.79,0,0,0,1.91-1,4.89,4.89,0,0,0,.43-2.25c.13-8.35-2.36-16.57-5.92-24.13"/><path class="cls-14" d="M301.27,256.15c-1.13-1.5-2.43-3.1-4.28-3.48a1.69,1.69,0,0,0-1.42.23,2.11,2.11,0,0,0-.59,1.42c-.84,5.78-1.17,11.76.4,17.38a6,6,0,0,0,1.06,2.3,2.36,2.36,0,0,0,2.26.88c1.24-.29,1.76-1.74,2-3a44,44,0,0,0,.55-15.52"/><path class="cls-12" d="M309.55,280.47a7.56,7.56,0,0,1-1.43-2.72q-1.89-5.19-3.51-10.48c-.54-1.76-1.06-3.52-1.56-5.3-.25-.9-.7-4.17-1.77-5.78v0l-.07-.1a67.08,67.08,0,0,1-.83,12.42,8.59,8.59,0,0,1-1.46,4.11,3.5,3.5,0,0,1-2.52,1.36l.05.06a2.36,2.36,0,0,0,2.26.88c1.24-.29,1.76-1.74,2-3a44.2,44.2,0,0,0,.95-11.18c.15.61.35,1.21.54,1.8l6.15,18.5c.27.82.66,1.75,1.49,2a1.79,1.79,0,0,0,1.91-1,3,3,0,0,0,.24-.58A2.83,2.83,0,0,1,309.55,280.47Z"/><path class="cls-25" d="M292.85,252.29a26.06,26.06,0,0,0,2.32-1.41A44.05,44.05,0,0,0,282,259.25a17.49,17.49,0,0,0-4.24,4.92,7.25,7.25,0,0,0-.54,5.89,8.82,8.82,0,0,1,.49-2.76,17.67,17.67,0,0,1,3.64-5.69A45,45,0,0,1,292.85,252.29Z"/><path class="cls-25" d="M329,268.43c.23.54.84,3.12,1.17,4a4.12,4.12,0,0,0,.15-1.2c-.09-4.6-1.43-6.34-4.21-10a32.28,32.28,0,0,0-11.41-9.9,55.92,55.92,0,0,1,8.17,7.36C326.05,262.44,326.86,263.25,329,268.43Z"/><path class="cls-25" d="M322.75,278.41a11,11,0,0,0-.12-11,20.18,20.18,0,0,0-2.3-2.93,43,43,0,0,0-6.77-6.45l-.15-.11a31.81,31.81,0,0,0,3.16,3,37.08,37.08,0,0,1,3.14,3.71,17.28,17.28,0,0,1,2.67,4.27c1,2.71.62,5.72.2,8.58A1.21,1.21,0,0,0,322.75,278.41Z"/><path class="cls-25" d="M308.85,261.75c-.38-1.05-.8-2.1-1.23-3.13-.19-.36-.4-.72-.62-1.06a3.56,3.56,0,0,0-1.35-1.32c-.13-.06-.3-.11-.41,0a.42.42,0,0,0-.08.38,5.43,5.43,0,0,0,.65,1.7c2.38,4.68,3.71,9.82,5,14.92.26,1,.52,2.08.71,3.14a21.9,21.9,0,0,1,.21,5.72l0-.08a4.89,4.89,0,0,0,.43-2.25,48.79,48.79,0,0,0-2.64-16A6.66,6.66,0,0,1,308.85,261.75Z"/><path class="cls-25" d="M295.77,271.43a48.18,48.18,0,0,1-.32-5.63c0-.61,0-1.21,0-1.82a65.19,65.19,0,0,1,.08-9,6.09,6.09,0,0,1,.38-2,3.57,3.57,0,0,1,.22-.35,1.25,1.25,0,0,0-.55.25,2.11,2.11,0,0,0-.59,1.42c-.84,5.78-1.17,11.76.4,17.38a7.11,7.11,0,0,0,.71,1.81C296,272.8,295.86,272.09,295.77,271.43Z"/><path class="cls-25" d="M311.55,245.86a49.46,49.46,0,0,0-3.38-15.24c-4.55-11.22-8.79-13.64-8.79-13.64s-8.49-20.31-15.76-28.79c-.53-.62-1.05-1.2-1.58-1.76a101.37,101.37,0,0,1,6.13,10.76,114.64,114.64,0,0,1,7.43,20.63,4.26,4.26,0,0,0,.49,1.3,4.49,4.49,0,0,0,1.23,1.06,31.1,31.1,0,0,1,10.41,13.35A67.72,67.72,0,0,1,311.55,245.86Z"/><path class="cls-10" d="M262.61,154.55c-6.2-8.94-11.78-13.15-14.47-14.82a3,3,0,0,1,.32.27c1.78,1.61,4,42.63,4.49,65.38,2.84,4,6.63,8.77,6.63,8.77s1.61-3.64,9.9-13.54,15.76-10.5,15.76-10.5S271.29,167.07,262.61,154.55Z"/><path class="cls-8" d="M257,197.58a59,59,0,0,0-4.36-4.62c.16,4.46.29,8.68.36,12.42,2.84,4,6.63,8.77,6.63,8.77s.89-2,4.75-7.11C263.05,205.37,259.54,200.83,257,197.58Z"/><path class="cls-9" d="M100.17,400.27a48.6,48.6,0,0,1-2.69,8.86h2.38A47.73,47.73,0,0,0,74.93,348a115.34,115.34,0,0,0-18.57-6.12q-10-2.61-20.12-4.44c-5.61-1-11.38-1.62-16.8-3.48-6-2.07-10.83-6.12-12.49-12.45a23.57,23.57,0,0,1-.2-10.37A68.94,68.94,0,0,1,10,300.71c.17-.46-.49-.67-.74-.32-6.58,9.38-7.59,24.17,2.2,31.79,4.08,3.18,9.19,4.63,14.19,5.62,6.27,1.25,12.59,2.16,18.84,3.52,6.7,1.45,13.38,3.13,19.93,5.16a61.83,61.83,0,0,1,17,7.71,46.11,46.11,0,0,1,18.36,26.58A45.17,45.17,0,0,1,100.17,400.27Z"/><path class="cls-14" d="M17.43,255.59c-1.44,1.34-2.93,2.61-4.38,4a38.61,38.61,0,0,0-7,7.81c-1.81,3-2.78,6.69-1.79,10a1.06,1.06,0,0,0,.3.56c.4.33,1,0,1.38-.32,2.54-2.13,4.36-5,6.35-7.62a64.75,64.75,0,0,1,6.37-7.27A3.66,3.66,0,0,0,19.9,261a3.55,3.55,0,0,0-.1-1.55c-.31-1.47-.66-3-1.87-3.88"/><g class="cls-16"><path class="cls-17" d="M19.8,259.45a8.5,8.5,0,0,0-1.14-3.15,12.14,12.14,0,0,1,.12,1.46A6.68,6.68,0,0,1,17,262.49a22.3,22.3,0,0,1-4.46,3.38,24.44,24.44,0,0,0-5.06,4.3c-1.3,1.47-2.41,3.06-3.56,4.64a10,10,0,0,0,.39,2.59,1.06,1.06,0,0,0,.3.56c.4.33,1,0,1.38-.32,2.54-2.13,4.36-5,6.35-7.62a64.75,64.75,0,0,1,6.37-7.27A3.66,3.66,0,0,0,19.9,261,3.55,3.55,0,0,0,19.8,259.45Z"/></g><path class="cls-9" d="M16.44,265.4s-10.1,5.66-13.2,12.66-4.31,15.76-2.15,18.46,13.6,6.73,26.8,4,22.23-16.3,25.19-21.42,8.08-11.85,8-17.24-5.12-11.58-11.31-12.53-14.55.14-17.38,2.16S16.44,265.4,16.44,265.4Z"/><path class="cls-6" d="M56.58,266.35c-2.82,4.44-8.35,15.08-16.7,22.89s-16.16,8.89-27.07,7.95A24.38,24.38,0,0,1,0,292.59a6.88,6.88,0,0,0,1.07,3.93c2.15,2.69,13.6,6.73,26.8,4s22.23-16.3,25.19-21.42,8.08-11.85,8-17.24a9.38,9.38,0,0,0-.19-1.65C59.62,261.93,58,264.12,56.58,266.35Z"/><path class="cls-10" d="M32.93,274.85a6.47,6.47,0,0,0-2.44-1.16A4.46,4.46,0,0,0,27,274.85a13,13,0,0,0-2.37,3c-2.1,3.24-4.28,6.73-4.24,10.59a2.79,2.79,0,0,0,.57,1.9c.8.85,2.19.59,3.26.17a17.55,17.55,0,0,0,9.32-8.78,7.55,7.55,0,0,0,.87-4.22,3.62,3.62,0,0,0-2.65-3.12"/><path class="cls-10" d="M13.62,271.56a49.78,49.78,0,0,0-4.91,7.15,12.79,12.79,0,0,0-1.84,4.87c-.17,1.6.39,3.49,1.89,4.08a3.8,3.8,0,0,0,2.91-.26c2.5-1.12,4.22-3.46,5.65-5.8a55.23,55.23,0,0,0,2.9-5.42c.52-1.11,1-2.52.23-3.5a2.91,2.91,0,0,0-1.28-.83,7.67,7.67,0,0,0-5.84.19"/><path class="cls-14" d="M112.28,160.61S91.88,176,82.58,185.06s-12.73,15.55-12.73,15.55a43,43,0,0,0-18.38,19c-6.87,13.74-14.35,31.11-14.35,31.11s6.06-.4,10.31,1.42,6.66,3,6.66,3a59.06,59.06,0,0,1,13.14-16c8.48-7.07,16-13.53,18.58-16.77s4.85-9.69,4.85-9.69S108,202.23,116.73,199s11.72-5.26,11.72-5.26,4-12.73-.21-22.22S112.28,160.61,112.28,160.61Z"/><path class="cls-8" d="M128.45,193.74s4-12.73-.21-22.22-16-10.91-16-10.91-2.91,2.19-7,5.41a54.45,54.45,0,0,1,5.43,16.81,99.25,99.25,0,0,1,1,14.55S94.3,208,91.47,207.38a108.59,108.59,0,0,1-10.3-3.53s6,5.56,4.26,11.72C84.48,219,75,228,71,231.88s-7.68,9.69-14.95,10.7c-6.66.93-11.1.79-16.72,3.16-1.35,3.07-2.18,5-2.18,5s6.06-.4,10.31,1.42,6.66,3,6.66,3a59.06,59.06,0,0,1,13.14-16c8.48-7.07,16-13.53,18.58-16.77s4.85-9.69,4.85-9.69S108,202.23,116.73,199,128.45,193.74,128.45,193.74Z"/><path class="cls-14" d="M31.1,254.41a28.94,28.94,0,0,0-20.7,27.18,2.22,2.22,0,0,0,.31,1.42c.57.72,1.73.48,2.5,0a12.16,12.16,0,0,0,3.16-3.31q4.1-5.55,8.32-11c2.38-3.06,4.84-6.16,8.06-8.3,1.13-.75,2.48-1.58,2.61-2.93a2.67,2.67,0,0,0-1.7-2.52,5.83,5.83,0,0,0-3.21-.24"/><path class="cls-14" d="M37.19,255.85c-2.89,1.18-5,3.71-6.72,6.32a45.09,45.09,0,0,0-7.22,21.46c-.09,1.4.11,3.18,1.45,3.64a2.7,2.7,0,0,0,2.37-.57c2.81-1.94,3.79-5.54,5-8.73a39.79,39.79,0,0,1,14.63-18.6c.48-.33,1-.7,1.12-1.27a1.74,1.74,0,0,0-.69-1.56,6.51,6.51,0,0,0-4.49-1.23,21.74,21.74,0,0,0-7.48,1.43"/><path class="cls-14" d="M55.21,261.86a1.05,1.05,0,0,0-.05-.19l-.14.13Z"/><path class="cls-14" d="M58.13,250.54a9.53,9.53,0,0,0-5.81-4.75,20.72,20.72,0,0,0-7.65-.66,51.32,51.32,0,0,0-18,4.52,30.5,30.5,0,0,0-11,7.93,10,10,0,0,0-1.38,2.17c-3.75,6.43.35,4.53.9,4.26,8.43-4.25,6,1.43,8.08,1.62a57.63,57.63,0,0,0,6.83.14c1.75,0,3.51-.17,5.27-.12A17.55,17.55,0,0,1,39,266l.18.06c4.68-1.28,8.55-2.79,14.27-3.08.92-.05,1.48-.69,1.79.13C58.28,260.29,59.87,254.26,58.13,250.54Z"/><path class="cls-14" d="M51.46,261.64A21.83,21.83,0,0,1,55.2,250c.75-1.08,1.07-2.2,1.82-1.12,1.42,2,4.72,5.92,5.74,8.3s2.19,5.27,1.47,7.91a12.55,12.55,0,0,1-2.31,4c-2.54,3.4-5,6.93-6.34,11a25.13,25.13,0,0,1-1.95,5.35c-1,1.63-2.87,2.92-4.73,2.51a4.29,4.29,0,0,1-3-3,9.72,9.72,0,0,1-.13-4.36,27.1,27.1,0,0,1,2.06-7,29.73,29.73,0,0,0,1.74-4.12,28.42,28.42,0,0,0,.62-3.91,28.05,28.05,0,0,1,1.89-7"/><path class="cls-10" d="M46.44,268.21a.43.43,0,0,0,0-.19c-.82-1.84-4.86,2.58-5.25,3.27a4.9,4.9,0,0,0-.71,2.12,1.56,1.56,0,0,0,.57,1.4,1.33,1.33,0,0,0,1.27,0,3.44,3.44,0,0,0,1-.82c.84-.91,1.67-2.32,2.26-3.1a5.31,5.31,0,0,0,.89-2.52A1,1,0,0,0,46.44,268.21Z"/><path class="cls-12" d="M50.23,265.56a28.42,28.42,0,0,1-.62,3.91l-.09.31c2.73-3.73,3.23-7.58,2.75-8.15s-6.76-.4-9.49,1-6.67,3.23-9.09,8.39-3.24,7.07-4.85,11.21c-1.24,3.17-3.83,4.09-5.26,3.94a1.91,1.91,0,0,0,1.12,1.09,2.7,2.7,0,0,0,2.37-.57c2.81-1.94,3.79-5.54,5-8.73a39.75,39.75,0,0,1,7.15-11.92h0c3.86-1.05,7.17-2.27,11.43-2.82C50.48,264,50.33,264.78,50.23,265.56Z"/><path class="cls-12" d="M10.71,283c.57.72,1.73.48,2.5,0a12.16,12.16,0,0,0,3.16-3.31q4.1-5.55,8.32-11c.76-1,1.52-2,2.32-2.91h1.32c1.11-1.79-.5-1.54-1-1.64s-4.14,3.23-6.36,6.36-4.35,7.07-7.07,9.9a4.72,4.72,0,0,1-3.48,1.72A1.65,1.65,0,0,0,10.71,283Z"/><path class="cls-12" d="M64.23,265.11a7.55,7.55,0,0,0,.07-3.41c0,.21-.07.42-.1.64-.81,5-3,4.54-6.37,9s-3.43,10.91-6.46,13.44a3.64,3.64,0,0,1-5.6-.47c0,.23.1.46.17.69a4.29,4.29,0,0,0,3,3c1.86.41,3.73-.88,4.73-2.51a25.13,25.13,0,0,0,1.95-5.35c1.32-4,3.8-7.56,6.34-11A12.55,12.55,0,0,0,64.23,265.11Z"/><path class="cls-26" d="M35.15,256.74l.83-.3a10.41,10.41,0,0,1,1.21-.59Z"/><path class="cls-25" d="M23.84,282.88a43.47,43.47,0,0,1,6.28-18.11,28.26,28.26,0,0,1,4.9-6.2,20.11,20.11,0,0,1,4.13-2.93,22.63,22.63,0,0,0-3.17.8,17.57,17.57,0,0,0-5.51,5.73,45.09,45.09,0,0,0-7.22,21.46,5.22,5.22,0,0,0,.45,2.79A26.26,26.26,0,0,1,23.84,282.88Z"/><path class="cls-25" d="M22.55,259.67a24.94,24.94,0,0,1,5.58-4.06c.3-.18.6-.35.91-.5A28.85,28.85,0,0,0,11,276.3,59.21,59.21,0,0,1,22.55,259.67Z"/><path class="cls-25" d="M3.89,274.38a30.46,30.46,0,0,1,7.3-11.4c7-7,13.47-11.72,17.51-13.34,2.84-1.13,6.55-2.67,8.5-3.48a51.66,51.66,0,0,0-10.58,3.49,33.22,33.22,0,0,0-9.17,5.94h0c-1.44,1.34-2.93,2.61-4.38,4a38.61,38.61,0,0,0-7,7.81A14.43,14.43,0,0,0,3.89,274.38Z"/><path class="cls-25" d="M82.58,185.06c-9.29,9.09-12.73,15.55-12.73,15.55a43,43,0,0,0-18.38,19c-3.06,6.12-6.25,13-8.83,18.67.85-1.25,1.57-2.8,2-3.53,2.57-4.19,4.87-8.53,7.44-12.72,3.76-6.14,8.22-12.08,14.26-16a27.63,27.63,0,0,0,2.9-2,19.11,19.11,0,0,0,2.49-2.82,314.24,314.24,0,0,1,24.51-28.05C91.25,177.24,86.11,181.6,82.58,185.06Z"/><path class="cls-10" d="M140.57,185.06s-7.07-42.23-3.84-44.05c0,0,.51-.3,1.48-.8a69.52,69.52,0,0,0-12.39,7.47c-7.68,5.59-22.9,18.59-22.9,18.59a153.12,153.12,0,0,1,8.76,15.55c3,6.67,7.27,19.2,7.27,19.2a116.1,116.1,0,0,1,15-5.46c4.08-1.08,6.66-1.59,8.09-1.82C141.17,188.36,140.57,185.06,140.57,185.06Z"/><path class="cls-8" d="M140.58,185.13a69.72,69.72,0,0,0-7.49,1.74,114.22,114.22,0,0,0-16.9,6.35c1.57,4.29,2.76,7.8,2.76,7.8a116.1,116.1,0,0,1,15-5.46c4.08-1.08,6.66-1.59,8.09-1.82C141.24,188.83,140.68,185.66,140.58,185.13Z"/><path class="cls-8" d="M244.83,237.8c1.42,2.16.57,5.29-1.06,7.27s-3.89,3.21-5.79,4.88c2.56-.18,6.07.53,6.12,3.3a3.27,3.27,0,0,1-1.75,2.83h7.11a297.31,297.31,0,0,0,3.45-30.58c.76-13.34-2.23-82.46-4.45-84.64l-.38-.35a9.44,9.44,0,0,0-.31,1.77c-.56,5.86,1.18,12.91,1.46,18.86a324.11,324.11,0,0,1-.38,37.79c-.32,4.77-.78,9.62-2.45,14-3.56,9.41-12,15.42-19.89,20.86l12.55,1.42C241.19,235.51,243.59,235.91,244.83,237.8Z"/><path class="cls-8" d="M145,224.63c1,10,0,22.11-1,31.45h14.77a7,7,0,0,0,2.55-1.16,35.51,35.51,0,0,1-9.33-9.4,5.86,5.86,0,0,1-1.35-4.11c.41-2.41,3.15-3.26,5.39-3.62l16-2.59c-6-1.33-12.2-2.72-17.5-6.12a7,7,0,0,1-3-3.15,9,9,0,0,1-.35-3.55q.15-3.44.31-6.87a35.14,35.14,0,0,0,0-6.24,37.31,37.31,0,0,0-2.12-7.69,204,204,0,0,1-9.43-39.72q-.69-5.13-1.12-10.29c-.15-1.86.41-8.81-.49-10.5-1,.55-1.52.88-1.52.88-3.23,2,3.84,47.68,3.84,47.68S143.2,205.38,145,224.63Z"/></g></g></g></svg>