<svg xmlns="http://www.w3.org/2000/svg" xmlns:xlink="http://www.w3.org/1999/xlink" viewBox="0 0 109.94 170.51"><defs><style>.cls-1,.cls-14,.cls-17,.cls-4,.cls-9{fill:none;}.cls-2{fill:#353535;}.cls-3{fill:#969190;}.cls-4{stroke:#b5b0b0;stroke-width:0.82px;}.cls-14,.cls-4,.cls-9{stroke-miterlimit:10;}.cls-5{fill:#3c3c3b;}.cls-6{fill:#7e462b;}.cls-7{fill:#a56646;}.cls-8{clip-path:url(#clip-path);}.cls-9{stroke:#7e462b;stroke-width:0.79px;}.cls-10{fill:#bababa;}.cls-11{fill:#e6bda0;}.cls-12{fill:#fcc34e;}.cls-13{fill:#cf9580;}.cls-14{stroke:#f59f2e;stroke-width:0.72px;}.cls-15{fill:#f59f2e;}.cls-16{fill:#1f2326;}.cls-17{stroke:#cf9580;stroke-linecap:round;stroke-linejoin:round;stroke-width:0.56px;}</style><clipPath id="clip-path"><rect class="cls-1" x="46.57" y="92.49" width="56.81" height="37.78" rx="6.53"/></clipPath></defs><g id="Camada_2" data-name="Camada 2"><g id="OBJECTS"><path class="cls-2" d="M38.51,22.08l-15.66.48s-16.06-.72-14.62,28L8.14,79.13S15.49,88.24,34.67,83Z"/><path class="cls-2" d="M8.83,72.42h0a6.61,6.61,0,0,1-6.59-6.6V57.44a6.61,6.61,0,0,1,6.59-6.6h0a6.62,6.62,0,0,1,6.59,6.6v8.38A6.62,6.62,0,0,1,8.83,72.42Z"/><path class="cls-3" d="M49.68,18c.83,2.3,2.58,8.39-.48,12.22a1.36,1.36,0,0,1-1.1.48L12,29.93a1.4,1.4,0,0,1-1.14-.62c-1.19-1.78-4.06-7.24,1-12.46a1.43,1.43,0,0,1,1-.42l35.5.65A1.42,1.42,0,0,1,49.68,18Z"/><path class="cls-4" d="M12.23,16.42s2.5,8-.94,13.5"/><path class="cls-5" d="M36.68,16.87s2.68,4.52.7,13.4L38.93,34l1.84-3.42S43,20.73,40,16.9Z"/><path class="cls-2" d="M18.6,16.52s2.62,4.7.65,13.58l3.6.12s2-9.85-.91-13.67Z"/><path class="cls-6" d="M83.33,93.17H81.12a6.16,6.16,0,1,0-12.31,0h-2.2a8.36,8.36,0,0,1,16.72,0Z"/><rect class="cls-6" x="53.13" y="92.49" width="56.81" height="37.78" rx="6.53"/><rect class="cls-7" x="46.57" y="92.49" width="56.81" height="37.78" rx="6.53"/><g class="cls-8"><path class="cls-9" d="M57.08,94.35a8.16,8.16,0,1,1-8.16-8.16A8.16,8.16,0,0,1,57.08,94.35Z"/><circle class="cls-9" cx="100.74" cy="94.35" r="8.16"/><path class="cls-9" d="M57.08,128.92a8.16,8.16,0,1,1-8.16-8.16A8.16,8.16,0,0,1,57.08,128.92Z"/><circle class="cls-9" cx="100.74" cy="128.92" r="8.16" transform="translate(-42.69 207.65) rotate(-80.76)"/></g><rect class="cls-6" x="62.89" y="106.1" width="24.59" height="7.61" transform="translate(150.37 219.81) rotate(180)"/><path class="cls-10" d="M14.65,153.61l2.89,6.63L21,163.55a4.94,4.94,0,0,1,.95,5.85l-.47.91L.18,156.7,5.77,148Z"/><polyline class="cls-2" points="0 156.79 21.45 170.51 22.66 168.61 1.21 154.9 0 156.79"/><polygon class="cls-11" points="5.77 147.96 11.66 138.23 20.24 143.59 14.65 153.61 5.77 147.96"/><path class="cls-2" d="M50.28,76.59,40.89,116a21.79,21.79,0,0,1-2.4,6L19.61,151,5.27,143.11l17.56-28.62L33.43,78.6Z"/><path class="cls-10" d="M65.68,157.54l6.65,2.84,4.77.06a4.94,4.94,0,0,1,4.71,3.6l.28,1-24.83,4.68-1.92-10.2Z"/><polyline class="cls-2" points="57.2 169.9 82.22 165.18 81.8 162.97 56.78 167.69 57.2 169.9"/><polygon class="cls-11" points="55.34 159.51 52.96 148.38 62.88 146.41 65.68 157.53 55.34 159.51"/><path class="cls-2" d="M26.57,77.22s-2.91,5.49,1.6,14.26l14,26.73L51.73,157,67,153.31l-7.66-36.52a26.62,26.62,0,0,0-1.7-5.3L44.71,82.08l5.57-5.49Z"/><path class="cls-11" d="M45.24,44.93l9.21,21.89,0,.11a3.18,3.18,0,0,0,.67,1.16L72.87,86.53l4.52-3.83L62,63.19l.71,1.27L55.52,42.57Z"/><path class="cls-12" d="M51.17,33.44l2,.72a5.69,5.69,0,0,1,3.46,3.59l5.17,12.62-13.2,2.25Z"/><path class="cls-11" d="M80.05,85.38a5.63,5.63,0,1,1-5.63-5.63A5.63,5.63,0,0,1,80.05,85.38Z"/><polygon class="cls-13" points="12.64 53.83 20.94 43.03 30.15 46.92 21.48 56.87 12.64 53.83"/><path class="cls-12" d="M39.78,29.92l-12,2.45a5.67,5.67,0,0,0-3.48,2.26L14.7,44.2l12.2,7.67L23.24,78.31s4.14,8.38,29.39-1.72c0,0-2.18-17.19-.72-32.84l-.74-10.31Z"/><line class="cls-14" x1="28.43" y1="48.87" x2="30.67" y2="46.23"/><line class="cls-14" x1="51.45" y1="52.09" x2="51.91" y2="44.6"/><path d="M42.27,50S43.8,63.5,22.76,66.79v1.3S45.92,64.86,44.62,50Z"/><path class="cls-11" d="M48.59,47A5.63,5.63,0,1,1,43,41.36,5.63,5.63,0,0,1,48.59,47Z"/><path class="cls-11" d="M40.83,46.92l-25,4.59c-4.07,1.06-5.11,5.33-4.76,7.27h0A3.79,3.79,0,0,0,16,61.73l26.36-9.11Z"/><path d="M26.69,32.35s11.43,4.44,13.94,11.93L42.9,43s-.66-6.19-11.5-11.48a1.62,1.62,0,0,0-1-.1Z"/><path class="cls-15" d="M36.3,29.14s-2.39,1.26-1.2,3.21,2.95,3.34,6.38,3.53,7.11-4.08,3.86-6S36.3,29.14,36.3,29.14Z"/><path class="cls-11" d="M36.58,29.64l0-10.84,9.12,0-.05,10.84a4.56,4.56,0,0,1-4.58,4.54h0A4.55,4.55,0,0,1,36.58,29.64Z"/><path class="cls-13" d="M36.3,19.48s1,10.9,9.38,10.72l0-5.45Z"/><path class="cls-13" d="M54.82,17.1a2.91,2.91,0,1,1-3.16-2.63A2.91,2.91,0,0,1,54.82,17.1Z"/><path class="cls-16" d="M52.52,8.2s4.25,4.61-1.6,7.81l-1.3-.43s-3-5.1-.48-8.38Z"/><path class="cls-11" d="M45.32,28.21l-.32,0a8.63,8.63,0,0,1-9.37-7.8l-.88-9.69a2.23,2.23,0,0,1,2-2.42l11.29-1a4,4,0,0,1,4.33,3.6l.73,8A8.61,8.61,0,0,1,45.32,28.21Z"/><path class="cls-16" d="M44.89,16.23a.71.71,0,1,1-1.41,0,.71.71,0,0,1,1.41,0Z"/><path class="cls-16" d="M50.87,15.67a.7.7,0,1,1-.71-.69A.69.69,0,0,1,50.87,15.67Z"/><path class="cls-17" d="M48.17,16.3l.44,2.89s0,1.07-1.57.79"/><path class="cls-17" d="M44.87,21.71s3.07,1.51,5.09-.49"/><path class="cls-16" d="M42.12,14.36h.14l3.15-.4a.64.64,0,1,0-.16-1.28l-3.16.41a.64.64,0,0,0,0,1.28Z"/><path class="cls-16" d="M49.33,13.57h.13l1.93-.25a.64.64,0,0,0,.55-.72.65.65,0,0,0-.72-.56l-1.93.25a.64.64,0,0,0,0,1.28Z"/><path class="cls-16" d="M34.52,8.27c-.08-1.24-.84-7,5.7-7.44,2.51-.15,5.41.73,7.11,1.13A4.89,4.89,0,1,1,52.08,9.7a9.56,9.56,0,0,1-1.27.38,48.6,48.6,0,0,1-12.38.46,7.23,7.23,0,0,1-2.69,7.32l-1.18-.09S25.9,11.61,34.52,8.27Z"/><path class="cls-11" d="M37.66,18.33A2.91,2.91,0,1,1,34.5,15.7,2.91,2.91,0,0,1,37.66,18.33Z"/></g></g></svg>