<svg xmlns="http://www.w3.org/2000/svg" viewBox="0 0 263.44 266.92"><defs><style>.cls-1{isolation:isolate;}.cls-2{fill:#e5b7ac;}.cls-3{fill:#aa3045;}.cls-4{fill:#e3a99a;}.cls-5{fill:#fcc34e;}.cls-6{fill:#f59f2e;}.cls-7{fill:#fff;}.cls-8,.cls-9{fill:#ca7e86;}.cls-8{opacity:0.5;}.cls-10{fill:#434244;}.cls-11{fill:#c16774;}.cls-12{fill:#353535;}.cls-13{fill:#1e1e1e;}.cls-14{fill:#238f8b;}.cls-15{fill:#e6e7e8;}.cls-16{fill:#919191;opacity:0.2;mix-blend-mode:multiply;}.cls-17{fill:none;stroke:#c1c1c1;stroke-miterlimit:10;stroke-width:0.79px;}</style></defs><g class="cls-1"><g id="Camada_2" data-name="Camada 2"><g id="OBJECTS"><path class="cls-2" d="M69.79,51.28,49,60.58,14.65,87.86l6,8.06S54.25,78.54,60.93,71.09c0,0,28.43-11.14,28.14-11.13S87.84,45.12,69.79,51.28Z"/><path class="cls-2" d="M75.25,132.08s-2.55-15.22.86-27.52A52.8,52.8,0,0,1,86.44,84.69s35.75-.72,36.36-.82-.28,33.41-.28,33.41Z"/><path class="cls-3" d="M161.21,78.06s4.61-3.77,4.35-8.37-2.87-11.77-2.87-11.77l-9.84-2.36,2,20.36Z"/><path class="cls-4" d="M155.52,71.58,176.42,75V61.42l-18.8-4.8S150.67,65.93,155.52,71.58Z"/><path class="cls-5" d="M161.2,78.05c-.36-.13-7.46-2.62-13.92-4.39h0c-4.82-1.32-9.29-2.25-10.35-1.49a4.94,4.94,0,0,0-1,1.31C133.45,77.6,128.4,90,125.33,97.8c-.77,1.94-1.41,3.58-1.86,4.74-.12.32-.23.59-.31.82l-.4,1c-.32-.22-7.12,5.51-7.46,5.24-13.85-11.21-39.18-5.08-39.18-5.08a63.15,63.15,0,0,0-1.49,8.4l-9.37-9.1-.06-.24c-1.25-5.05-2.05-7,9.74-17.1a7.77,7.77,0,0,0,1.33-1.43C80.84,79,76,68.87,76,68.87a6.27,6.27,0,0,0-1.52.09c-3.32.54-8.37,3.16-11,4.6l-.07,0-1.58.91s-7.41.25-12.07-8.31c-2.35-4.31.38-9.71.38-9.71,10.45-1.8,27.75-13.14,36-16.29,6.59-2.5,15.4-1.77,22.25-.53a85.25,85.25,0,0,1,10.73,2.66c1.75.09,7.78,2.1,14.84,4.65,12.72,4.61,28.72,11,28.72,11C152.81,62.17,160.93,77.53,161.2,78.05Z"/><path class="cls-6" d="M147.27,73.65c-4.82-1.32-9.29-2.25-10.35-1.49a4.94,4.94,0,0,0-1,1.31l6.49-12.42C142.36,61.52,141.48,69.27,147.27,73.65Z"/><path class="cls-6" d="M87.88,58.24C76.82,61.91,63.43,73.59,63.43,73.59l.07,0c2.62-1.45,7.74-4.1,11-4.61a4.57,4.57,0,0,1,.61-.07h.14a4,4,0,0,1,.69,0s4.85,10.15.28,16.22c5-3.51,10.57.3,14.72,2.13C81.1,80,77.39,67.66,77.38,67.63Z"/><path class="cls-6" d="M115.3,109.64c-13.85-11.21-39.18-5.08-39.18-5.08a63.15,63.15,0,0,0-1.49,8.4l-9.37-9.1-.06-.24c1.06-1.94,1.45-6.41,6.36-6.56C94.7,96.33,115.64,109.91,115.3,109.64Z"/><path class="cls-7" d="M134.18,49.18a24.58,24.58,0,0,1,.48,5.8c0,.42-.09.84-.16,1.26C134,59.34,120,72.74,120,72.74S104.2,47,107.52,41.62a11.35,11.35,0,0,0,.87-2,85.25,85.25,0,0,1,10.73,2.66c1.75.09,7.78,2.1,14.84,4.65l.09,1,.12,1.23v0Z"/><path class="cls-2" d="M131.67,37.37l-.12,1.86-.25,4.06.11,1.09.29,2.78.12,1.25.11,1v0h0a19.82,19.82,0,0,1,.39,4.7c0,.34-.07.68-.13,1-.44,2.5-11.8,13.38-11.8,13.38S107.6,47.64,110.29,43.3a13.57,13.57,0,0,0,1.19-3.15c.74-2.63,1.28-5.68,1.28-5.68a.25.25,0,0,1,.34-.16l.88.5,8.54,4.88,0,0a.24.24,0,0,0,.15,0l8.73-2.48C131.56,37.22,131.67,37.27,131.67,37.37Z"/><path class="cls-8" d="M131.7,47.16l-.07,1.13.19.12.11,1v0h0a19.82,19.82,0,0,1,.39,4.7c0,.34-.07.68-.13,1a3.93,3.93,0,0,1-2,1.13c-4.88,1.26-14.62-1.22-18.7-16.15,0-.06,1.9,1.4,1.93,1.33l.89-1.67.87-1.67a.2.2,0,0,1,.31-.06l7.36,6.61,0,0,1.89,1.72a.21.21,0,0,0,.21,0l6.43-2.09.46-.15Z"/><path class="cls-2" d="M125,9.83h0s-11.94-1-15.81,13.7c0,0-2.18,9.46,2.9,17.49l0,0c.45.46,9.39,12.61,19.78,11.85,7.71-1,10.35-11.7,10-23.73C141,18.16,132.67,9.6,125,9.83Z"/><path class="cls-2" d="M112.17,36.33l.82,5.14a.22.22,0,0,1-.11.23c-4.23,2.18-8.57-1.62-9.82-5.11-.63-1.78-.46-3.47.94-4.27,2.94-1.66,5.79,1,7.21,2.71a14.48,14.48,0,0,1,.93,1.22A.26.26,0,0,1,112.17,36.33Z"/><path class="cls-9" d="M105.88,35.22a6.44,6.44,0,0,1,5.52,2.11.26.26,0,0,1,0,.37.28.28,0,0,1-.13.07.29.29,0,0,1-.25-.09,6.81,6.81,0,0,0-2-1.49.21.21,0,0,0-.25.05c-.8.91,0,2.52,0,2.54a.28.28,0,0,1-.12.36l-.08,0a.26.26,0,0,1-.28-.14,3.33,3.33,0,0,1-.12-2.87.2.2,0,0,0-.12-.31,4.69,4.69,0,0,0-1.92-.11l-.09,0a.27.27,0,0,1-.31-.22A.28.28,0,0,1,105.88,35.22Z"/><path class="cls-9" d="M122,37.08c0,.25-.63.47-1.42.49s-1.42-.19-1.43-.44.63-.48,1.42-.5S122,36.82,122,37.08Z"/><path class="cls-9" d="M122.39,38.57c-.07-.25-.75-.26-1.5,0s-1.29.62-1.22.87.75.25,1.5,0S122.47,38.81,122.39,38.57Z"/><path class="cls-9" d="M139.7,35.29c0-.26.63-.48,1.41-.49s1.43.18,1.44.44-.63.47-1.42.49S139.7,35.55,139.7,35.29Z"/><path class="cls-9" d="M139.49,34c.07.24.74.26,1.49,0s1.3-.62,1.22-.86-.74-.26-1.49,0S139.41,33.7,139.49,34Z"/><path class="cls-10" d="M127.71,34c.31,1.9.13,3.51-.39,3.59s-1.2-1.38-1.5-3.29-.13-3.5.4-3.59S127.41,32.06,127.71,34Z"/><path class="cls-10" d="M138.88,32c.29,1.78.15,3.29-.32,3.37s-1.07-1.32-1.36-3.1-.14-3.3.32-3.38S138.6,30.18,138.88,32Z"/><path class="cls-9" d="M133.68,40.29l.1,0c.39-.1,1.27-.58,1-3a20.59,20.59,0,0,0-1.48-6.06.26.26,0,0,0-.36-.12.26.26,0,0,0-.12.35,20.49,20.49,0,0,1,1.43,5.89c.19,1.62-.18,2.3-.59,2.41-.6.15-1.69-.74-2.36-2.44a.27.27,0,0,0-.34-.15.26.26,0,0,0-.15.35C131.5,39.31,132.7,40.45,133.68,40.29Z"/><path class="cls-10" d="M115.33,21.91c.88,4.32.56,8-2.21,10.58-.23.21,1.62,6.48,1.62,6.48l-1.32.33s-2.87-5.14-2.94-5.2c-.49-.46-2.52-2.29-3.94-2.27a.19.19,0,0,1-.16-.06c-.36-.43-2.11-2.65-1.2-5C106.19,24.2,114.6,19.79,115.33,21.91Z"/><path class="cls-10" d="M115.33,21.91s16.4-7.64,23.06-3.69c0,0,2.61-9.86-1.86-14.82C132.79-.73,129.38.06,129.38.06l2.23,4.21S124.73-.5,119.4,1.09s-10.05,5.68-12.58,3.39c0,0,1.2,3.73,7.25,2.84,0,0-10.43,1.83-11.72,7.5-1.33,5.84-4.23,7.44-4.23,7.44,2.37.12,4.28-.17,5.21-1.34-.92,4.08.27,7.65,3,10.85Z"/><path class="cls-10" d="M120.71,27.69s3-3.7,7.58-.45a.87.87,0,0,1,0,1.16.72.72,0,0,1-1.05,0A6.84,6.84,0,0,0,120.71,27.69Z"/><path class="cls-10" d="M139.87,24.3s-2.92-2.5-5,2.06c0,0-.2.78.28,1.11s.68-.38.68-.38S137.17,23.93,139.87,24.3Z"/><path class="cls-11" d="M135.61,46.5a6.72,6.72,0,0,1-.37,1.5c-.52,1.34-1.42,2.22-2.31,2.09-1.19-.16-1.92-2-1.62-4.18,0,0,0-.06,0-.09a6.76,6.76,0,0,1,.35-1.36h0c.52-1.37,1.43-2.25,2.32-2.13a1.87,1.87,0,0,1,1.37,1.36A5.81,5.81,0,0,1,135.61,46.5Z"/><path class="cls-7" d="M135.36,43.68c-1.24-.81-2.77.06-3.69.77.52-1.37,1.43-2.25,2.32-2.13A1.87,1.87,0,0,1,135.36,43.68Z"/><path class="cls-9" d="M135.24,48c-.52,1.34-1.42,2.22-2.31,2.09-1.19-.16-1.92-2-1.62-4.18,0,0,0-.06,0-.09l.1,0A3.49,3.49,0,0,1,135.24,48Z"/><path class="cls-2" d="M244.46,91.25l-6.4,5.81-7.95,7.22c-12.13-1.93-33.87,5.25-44.07,7.27a29,29,0,0,1-5.45.52c-9.28.13-19.42-2.94-19.42-2.94l-37.85,26.46c-16.24,2-9.82-34.51-9.82-34.51s34.86-10.3,46.59-13.47c3.2-.86,10.89-1,20.4-.71,19.37.57,46.29,2.79,58.06,3.83Z"/><path class="cls-5" d="M238.55,90.72l-.49,6.34-1.53,1.39-.9.81L233,101.69l-2.85,2.59c-12.13-1.93-33.87,5.26-44.07,7.27a29.88,29.88,0,0,1-5.44.52,3.4,3.4,0,0,0,.07-.34A48,48,0,0,0,181.6,99l0-1c-.08-1.58-.19-3.12-.32-4.6l-.09-1c-.2-2.07-.45-4-.67-5.57C199.86,87.47,226.78,89.69,238.55,90.72Z"/><path class="cls-6" d="M233,101.69l-2.85,2.59c-12.13-1.93-33.87,5.26-44.07,7.27a29.88,29.88,0,0,1-5.44.52,3.4,3.4,0,0,0,.07-.34c4.92-1.24,22.08-5.61,27.61-7.5,6.48-2.24,24.36-5.22,26-10.16C234.93,92,234.13,96.15,233,101.69Z"/><path class="cls-7" d="M236.15,93.29l-.21.94c-16.49-3.62-46-1.53-54.69-.8l-.09-1C189.86,91.75,219.52,89.64,236.15,93.29Z"/><path class="cls-2" d="M148.12,202.06c-.11.66,1.59,7.26-.5,13s-12.78,8.71-12.78,8.71c-9.28,1.2-19.83,3-29.7,4.85-19,3.6-35.45,7.39-35.45,7.39-6.17-.95-9.21-13.87-9.21-13.87s7.79-1,15.29-2.45c7.11-1.34,13.5-7.2,25.27-11.4.66-.24,1.32-.46,2-.69,12.74-4.14,21.37-2.1,21.79-2l-13.12-11.32C109.34,187,129,157.66,129,157.66S148.23,201.4,148.12,202.06Z"/><path class="cls-5" d="M105.14,228.58c-19,3.6-35.45,7.39-35.45,7.39-6.17-.95-9.21-13.87-9.21-13.87s7.79-1,15.29-2.45c7.11-1.34,13.5-7.2,25.27-11.4A157,157,0,0,0,105.14,228.58Z"/><path class="cls-7" d="M103.69,223c-12.89,1.17-29.22,5.34-39.57,8.27-3.32.94-6,1.75-7.82,2.3.1.31.2.61.29.92,1.83-.56,4.63-1.4,8.06-2.37,10.38-2.93,26.55-7,39.26-8.18Z"/><path class="cls-12" d="M134.11,169.32l-2.47-5.64s-4.47,0-4.87,6.37a17.71,17.71,0,0,0,0,1.93c.47,8.3-12.81,23.74-12.81,23.74-6.77-3-21.82-26.79-21.82-26.79-14.26-5.88-16.26-25.53-16.26-25.53,9.88-10.73,23.82-12.12,34.1-9.94,7.11,1.49,12.48,4.69,13.57,7.68a33,33,0,0,0,5.32,8.76c2.86,3.57,5.83,6.5,6.84,8.19a2.65,2.65,0,0,1,.23.48C137.15,161.83,134.11,169.32,134.11,169.32Z"/><path class="cls-13" d="M134.11,169.32l-2.47-5.64s-4.47,0-4.87,6.37c0,0-1.6-9.28,1.56-11.69,2.24-1.71,5.75-.59,7.61.21C137.15,161.83,134.11,169.32,134.11,169.32Z"/><path class="cls-12" d="M47.68,246.88a26.54,26.54,0,0,1,.47-3.37c.06-.32.13-.65.2-1,2.25-9.48,2.33-8.5.71-13.07-2.66-7.47.35-8.43.35-8.43s14.23-1.59,14.65.55c.55,2.8.43,6.11,1.52,9.33a7.19,7.19,0,0,0,5.35,4.9,8.47,8.47,0,0,1-4.91,4.8,4,4,0,0,0-1.53,1.54C62.33,245.46,60,253,60.62,257a5.54,5.54,0,0,1,.07.57c.8,7.53-5.52,9.33-5.52,9.33C49.7,265.17,47,255.55,47.68,246.88Z"/><rect class="cls-14" x="46.75" y="223.8" width="2.48" height="2.48" rx="1.15" transform="translate(276.12 194.98) rotate(94.53)"/><rect class="cls-14" x="47.82" y="229.46" width="2.48" height="2.48" rx="1.15" transform="translate(282.93 200.12) rotate(94.56)"/><rect class="cls-14" x="46.6" y="242.25" width="2.48" height="2.48" rx="1.15" transform="matrix(-0.08, 1, -1, -0.08, 294.36, 215.16)"/><rect class="cls-14" x="46.22" y="247.04" width="2.48" height="2.48" rx="1.15" transform="translate(298.73 220.71) rotate(94.56)"/><rect class="cls-14" x="46.34" y="251.95" width="2.48" height="2.48" rx="1.15" transform="translate(303.75 225.88) rotate(94.56)"/><rect class="cls-14" x="46.98" y="256.75" width="2.48" height="2.48" rx="1.15" transform="translate(309.22 230.28) rotate(94.53)"/><path class="cls-6" d="M50.68,242.19c2.25-9.47,2.33-8.5.71-13.05-2.1-5.88-.69-7.73,0-8.25l-2,.15s-3,1-.34,8.44c1.62,4.55,1.54,3.58-.71,13.05s.41,22.34,6.83,24.38a11.89,11.89,0,0,0,1.49-.7C50.87,263.36,48.52,251.25,50.68,242.19Z"/><rect class="cls-6" x="52.45" y="238.2" width="2.97" height="9.78" transform="translate(-173.18 141.02) rotate(-53.29)"/><path class="cls-6" d="M53.75,251.39l-6.07-4.51a26.54,26.54,0,0,1,.47-3.37l7.37,5.5Z"/><path class="cls-6" d="M60.69,257.59a9.61,9.61,0,0,1-1.48-9.37c1.25-3.8,3.52-5.39,5.28-6.06C62.33,245.46,60,253,60.62,257A5.54,5.54,0,0,1,60.69,257.59Z"/><path class="cls-13" d="M128.87,149.9c-3.45-1.46-13.59,1.26-13.59,1.26A35.46,35.46,0,0,1,84,147.89L110,133.46c7.11,1.49,12.48,4.69,13.57,7.68A33,33,0,0,0,128.87,149.9Z"/><path class="cls-12" d="M130.78,94.88s-6.36,36.88,0,45.17c0,0-14.4,4.89-18.88,7.32s-30.23,12.09-33.95,2.57C70.17,130.07,79,104,130.78,94.88Z"/><path class="cls-2" d="M165.94,59.28l10.88.37s7.63,2.33,7.85,9.09c.16,4.92-3.75,6-5.82,6.49a4.5,4.5,0,0,1-3.3-.61l-10.89-7.44Z"/><path class="cls-2" d="M152,67.11,149.53,70a1,1,0,0,0-.09,1.17l1.21,2,4,1.15s1.83-.86.37-3.24A22.21,22.21,0,0,0,152,67.11Z"/><path class="cls-2" d="M151.67,61.36l-.36,8,2.59,2.35a2.71,2.71,0,0,0,1.81.35,1.43,1.43,0,0,0,1-.91,2.1,2.1,0,0,0,2.22.68c1.6-.29,1.38-1.22,1.38-1.22a1.71,1.71,0,0,0,1.48.76,1.36,1.36,0,0,0,1.13-1s0,2.39,1,2.34,1.38-.33,1.51-1.78.34-3.92.34-3.92,3.52.08,4.24-2.75-2-5-4.09-5A34.59,34.59,0,0,1,162,58.9a1.94,1.94,0,0,0-1.8-.73,2.79,2.79,0,0,0-1.59.58,3.1,3.1,0,0,0-2.12-.53c-1,.26-1.67,1.85-1.67,1.85S152.31,59.79,151.67,61.36Z"/><path class="cls-2" d="M21,92s.71,4.16-.56,6.49-2.36,7.27-3.77,8-2.45-1.33-.7-5.76A15.49,15.49,0,0,0,13.2,102c-.82.62-5.44,6-6.8,6.56s-1.48-.41-.28-2.37,4.55-6.1,4.52-6.2a49.51,49.51,0,0,0-4.77,4.46c-1,1.17-3.15,3.26-4,3.34s-.54-1.36.53-2.78,5.19-6.28,5.48-6.67-6,4.41-6.58,4.79-2.09.19-.83-1.61S6.6,96.15,6.6,96.15A31,31,0,0,1,2,98c-.75,0-1.8-.15-1-1.09s5.21-3.55,5.49-3.76,4.53-4.9,8-5.18C15.84,87.12,20.4,90.79,21,92Z"/><path class="cls-12" d="M256.89,92.43a26.49,26.49,0,0,1-2.14,2.64c-.22.25-.45.49-.68.73-6.82,7-6.38,6.08-7.34,10.83-1.58,7.77-4.65,7-4.65,7s-12.46-7.28-11.72-9.33c1-2.68,2.24-4.16,3-7.48a7.21,7.21,0,0,0-2-7A8.47,8.47,0,0,1,238,88.33a3.92,3.92,0,0,0,2.11-.54c3.55-1.71,9.41-7,11-10.72.08-.19.15-.36.23-.53,3.21-6.86,9.55-5.14,9.55-5.14C264.6,75.72,262,85.38,256.89,92.43Z"/><rect class="cls-14" x="244.11" y="109.73" width="2.48" height="2.48" rx="1.15" transform="translate(12.26 245.81) rotate(-54.38)"/><rect class="cls-14" x="246.12" y="104.34" width="2.48" height="2.48" rx="1.15" transform="translate(17.52 245.25) rotate(-54.4)"/><rect class="cls-14" x="253.76" y="94.01" width="2.48" height="2.48" rx="1.15" transform="translate(29.12 247.15) rotate(-54.4)"/><rect class="cls-14" x="256.56" y="90.1" width="2.48" height="2.48" rx="1.15" transform="translate(33.46 247.8) rotate(-54.4)"/><rect class="cls-14" x="258.99" y="85.84" width="2.48" height="2.48" rx="1.15" transform="translate(37.83 247.83) rotate(-54.36)"/><rect class="cls-14" x="260.92" y="81.39" width="2.48" height="2.48" rx="1.15" transform="translate(42.24 247.53) rotate(-54.36)"/><path class="cls-6" d="M251.9,94.9c-6.81,6.95-6.38,6.08-7.34,10.81-1.24,6.12-3.43,6.78-4.3,6.87l1.82,1.1s3.07.72,4.65-7.06c1-4.73.53-3.86,7.34-10.81s11.18-19.34,6.74-24.41a13.48,13.48,0,0,0-1.64-.17C262.67,76.67,258.43,88.25,251.9,94.9Z"/><rect class="cls-6" x="248.09" y="87.56" width="2.97" height="9.78" transform="translate(-16.43 101.23) rotate(-22.22)"/><path class="cls-6" d="M254,85.43l2.87,7a26.49,26.49,0,0,1-2.14,2.64l-3.48-8.51Z"/><path class="cls-6" d="M251.27,76.54a9.56,9.56,0,0,1-3.57,8.79c-3,2.61-5.79,2.8-7.64,2.46,3.55-1.71,9.41-7,11-10.72C251.12,76.88,251.19,76.71,251.27,76.54Z"/><path class="cls-15" d="M261.13,48.91a22.19,22.19,0,0,1-.66,4.87A22.66,22.66,0,0,1,257.25,61a22.58,22.58,0,0,1-19.54,9.86c-.43,0-.85,0-1.28-.09a23.29,23.29,0,0,1-3.27-.56,22.9,22.9,0,0,1-4.3-1.55,22.52,22.52,0,0,1-12.11-25.76,23.33,23.33,0,0,1,1.7-4.62A22.58,22.58,0,0,1,239,25.81a22.68,22.68,0,0,1,5.06.67,22,22,0,0,1,4.76,1.78,22.52,22.52,0,0,1,12.31,20.65Z"/><path class="cls-16" d="M260.47,53.79a22.53,22.53,0,0,1-42.06,4.52,22.53,22.53,0,0,0,35.21-26.77A22.54,22.54,0,0,1,260.47,53.79Z"/><path class="cls-17" d="M225,33.4s18,1.37,33.42,8.5"/><line class="cls-17" x1="221.04" y1="38.41" x2="223.47" y2="46.67"/><line class="cls-17" x1="236.46" y1="40.94" x2="230.66" y2="48.09"/><line class="cls-17" x1="243.38" y1="42.66" x2="245.98" y2="52.92"/><line class="cls-17" x1="259.83" y1="48.08" x2="252.17" y2="54.47"/><polyline class="cls-17" points="239 25.81 239.5 28.64 239.7 29.81"/><polyline class="cls-17" points="248.82 28.26 246.94 30.5 246.18 31.42"/><polyline class="cls-17" points="216.21 50.76 218 51.2 232.83 54.9 240.47 56.81 255.31 60.5 257.25 60.99"/><polyline class="cls-17" points="219.03 59.47 220.09 58.6 221.01 57.85"/><path class="cls-17" d="M230,68.57c.17-.26-2.62-9.34-2.62-9.34l.32,1.28"/><line class="cls-17" x1="243.42" y1="63.21" x2="236.35" y2="70.85"/><polyline class="cls-17" points="250.38 67.54 250.21 66.11 250.06 64.85"/><polygon class="cls-10" points="247.17 30.56 243.93 29.75 242.66 29.43 239.43 28.63 234.07 34.43 236.13 41.57 239.43 42.39 240.7 42.71 244.01 43.53 249.18 38.2 247.17 30.56"/><path class="cls-10" d="M237.71,70.85c-.43,0-.85,0-1.28-.09a23.29,23.29,0,0,1-3.27-.56,22.9,22.9,0,0,1-4.3-1.55l.81-.88.24.06,3,.75,1.27.31,3.23.81Z"/><path class="cls-10" d="M226,33.52l-4.89,5-.28.3-2.35-.58a22.41,22.41,0,0,1,6.67-8l.84,3.19Z"/><path class="cls-10" d="M261.13,48.91l-1.54-.39-.06-.19-2-6.83,0-.11,1.79-1.94A22.46,22.46,0,0,1,261.13,48.91Z"/><polygon class="cls-10" points="230.9 47.54 227.66 46.73 226.39 46.42 223.16 45.61 217.8 51.42 219.86 58.55 223.16 59.37 224.43 59.69 227.74 60.51 232.91 55.18 230.9 47.54"/><polygon class="cls-10" points="253.38 53.14 250.14 52.34 248.87 52.02 245.63 51.21 240.27 57.02 242.34 64.15 245.64 64.97 246.91 65.29 250.21 66.11 255.38 60.79 253.38 53.14"/></g></g></g></svg>