<svg xmlns="http://www.w3.org/2000/svg" xmlns:xlink="http://www.w3.org/1999/xlink" viewBox="0 0 750 406.31"><defs><style>.cls-1{fill:#ffef7b;}.cls-2{fill:#f6df14;}.cls-3{fill:#353535;}.cls-4{fill:#1e1e1d;}.cls-5{fill:#f18b6c;}.cls-6{fill:#ff00e7;}.cls-7{fill:#fff;}.cls-8{fill:url(#linear-gradient);}.cls-9{fill:#000626;}.cls-10{fill:#cd785c;}.cls-11{fill:#fdfdfd;}.cls-12{fill:#df8264;}.cls-13{fill:#8a3031;}.cls-14{fill:#5a2227;}.cls-15{fill:#621b1a;}.cls-16{fill:#601b1b;}.cls-17{fill:#30130e;}</style><linearGradient id="linear-gradient" x1="369.88" y1="80.01" x2="380.01" y2="259.61" gradientTransform="matrix(-1, 0, 0, 1, 750, 0)" gradientUnits="userSpaceOnUse"><stop offset="0" stop-color="#ff0098"/><stop offset="0.02" stop-color="#f50096"/><stop offset="0.11" stop-color="#c7008b"/><stop offset="0.21" stop-color="#9d0081"/><stop offset="0.31" stop-color="#7b0078"/><stop offset="0.41" stop-color="#5e0072"/><stop offset="0.53" stop-color="#48006d"/><stop offset="0.65" stop-color="#390069"/><stop offset="0.79" stop-color="#300067"/><stop offset="1" stop-color="#2d0066"/></linearGradient></defs><g id="Camada_2" data-name="Camada 2"><g id="OBJECTS"><path class="cls-1" d="M375,312.31c142.93,0,273.8-24.49,375-65.08V406.31H0V247.23C101.2,287.82,232.07,312.31,375,312.31Z"/><path class="cls-2" d="M689.44,268.48c21.16-6.47,41.4-13.57,60.56-21.25v2.66c-16.48,7.44-33.78,14.38-51.76,20.81C695.32,269.91,692.38,269.18,689.44,268.48Z"/><path class="cls-2" d="M61.31,268.72c-2.7.76-5.36,1.62-8,2.55Q25.5,261.39,0,249.89v-2.66Q29.09,258.89,61.31,268.72Z"/><path class="cls-3" d="M586.69,327q13.44-3,26.36-6.17a2.37,2.37,0,0,1,2.73,1.64q1.89,5.78,3.86,11.51a2,2,0,0,1-1.37,2.68q-13.44,3.51-27.44,6.73a2.34,2.34,0,0,1-2.77-1.7q-1.53-6-3-12A2.18,2.18,0,0,1,586.69,327Zm149.82,27.84q6.82-2.87,13.49-5.79V332.19q-11.38,5-23.24,9.8a1.61,1.61,0,0,0-.71,2.57q3.48,4.76,7.05,9.44A3,3,0,0,0,736.51,354.87Zm3.79-23.22q-3.69-4.57-7.3-9.22a2.92,2.92,0,0,0-3.2-.95q-11.88,4.84-24.32,9.51a1.65,1.65,0,0,0-.77,2.57q3.21,4.94,6.5,9.83a2.87,2.87,0,0,0,3.26,1q12.91-5,25.26-10.25A1.53,1.53,0,0,0,740.3,331.65Zm-121.66-9.88c1.29,3.83,2.61,7.66,4,11.46a2.44,2.44,0,0,0,2.85,1.56q13.29-3.59,26-7.42a1.83,1.83,0,0,0,1.09-2.62q-2.46-5.44-4.83-10.94a2.48,2.48,0,0,0-2.8-1.49q-12.24,3.51-25,6.8A2,2,0,0,0,618.64,321.77ZM708,344.61q-3.25-4.94-6.42-9.91a2.78,2.78,0,0,0-3.15-1.12q-12.59,4.59-25.73,9a1.81,1.81,0,0,0-1.06,2.64q2.76,5.26,5.6,10.49a2.76,2.76,0,0,0,3.21,1.2q13.63-4.71,26.71-9.66A1.67,1.67,0,0,0,708,344.61Zm42,8.66V352A1.48,1.48,0,0,0,750,353.27Zm0-59.48q-7.71,3.36-15.68,6.66c-1,.39-1.12,1.47-.37,2.41q3.66,4.58,7.4,9.1a2.93,2.93,0,0,0,3.19.9q2.75-1.17,5.46-2.36Zm-69.42,9.78q2.88,5.16,5.84,10.28a2.63,2.63,0,0,0,3,1.24q11.93-4.15,23.32-8.5a1.53,1.53,0,0,0,.54-2.47q-3.36-4.81-6.65-9.68a2.72,2.72,0,0,0-2.93-1.19q-10.92,4-22.36,7.8A1.66,1.66,0,0,0,680.58,303.57Zm28.45-10q3.33,4.84,6.73,9.62a2.77,2.77,0,0,0,3,1.09q11.26-4.38,22-8.92c.94-.4,1.06-1.46.28-2.37q-3.8-4.47-7.51-9a2.86,2.86,0,0,0-3-1q-10.29,4.14-21.08,8.17C708.57,291.46,708.35,292.55,709,293.54ZM650.46,313q2.41,5.48,4.91,10.9a2.54,2.54,0,0,0,2.92,1.4q12.6-3.9,24.67-8a1.68,1.68,0,0,0,.81-2.56q-2.91-5.13-5.75-10.33a2.6,2.6,0,0,0-2.87-1.34q-11.56,3.78-23.67,7.34A1.82,1.82,0,0,0,650.46,313Zm23.47,43.79q-2.79-5.25-5.51-10.55a2.67,2.67,0,0,0-3.09-1.29q-13.29,4.31-27.16,8.33a2,2,0,0,0-1.34,2.7q2.28,5.56,4.65,11.09a2.64,2.64,0,0,0,3.15,1.37q14.37-4.33,28.18-9A1.84,1.84,0,0,0,673.93,356.8Zm-93,33.55q1.62,6,3.34,11.87a2.6,2.6,0,0,0,3.19,1.56q16.2-4,31.81-8.33a2.16,2.16,0,0,0,1.65-2.79q-2.18-5.66-4.24-11.37a2.6,2.6,0,0,0-3.13-1.48q-15.09,4.05-30.75,7.75A2.33,2.33,0,0,0,580.89,390.35Zm20.8-47q-13.87,3.38-28.3,6.44a2.31,2.31,0,0,0-1.78,2.74q1.33,6.07,2.76,12.12a2.39,2.39,0,0,0,2.88,1.72q15-3.34,29.38-7a2.12,2.12,0,0,0,1.56-2.73q-1.87-5.81-3.66-11.65A2.42,2.42,0,0,0,601.69,343.37ZM497,406.31h40.37c-.38-2.16-.79-4.3-1.16-6.46a2.46,2.46,0,0,0-3-1.81q-16.58,3.1-33.73,5.8A2.85,2.85,0,0,0,497,406.31ZM305,373.43a4,4,0,0,0-3.78,2.59q-2.16,7.2-4.22,14.39c-.42,1.47.62,2.69,2.32,2.72q28.08.5,55-.17a3.62,3.62,0,0,0,3.43-2.69q1.32-7,2.75-14.08a2.12,2.12,0,0,0-2.31-2.56Q332.21,374.08,305,373.43Zm-1.28-5.62a2.07,2.07,0,0,0,2.14,2.75q39,1,75.58-.32a3.48,3.48,0,0,0,3.22-2.69c.8-4.67,1.64-9.33,2.51-14A2.05,2.05,0,0,0,385,351q-35.32,1-73-.2a4,4,0,0,0-3.73,2.58Q306,360.62,303.76,367.81ZM674.25,325q2.78,5.24,5.65,10.43a2.68,2.68,0,0,0,3.08,1.23q12.84-4.42,25.11-9.06a1.61,1.61,0,0,0,.71-2.54q-3.27-4.9-6.46-9.85a2.74,2.74,0,0,0-3-1.16q-11.8,4.28-24.14,8.36A1.74,1.74,0,0,0,674.25,325ZM705,314.21q3.24,4.92,6.55,9.78a2.78,2.78,0,0,0,3.14,1.07q12.14-4.69,23.73-9.57a1.47,1.47,0,0,0,.44-2.45q-3.7-4.56-7.33-9.17a2.88,2.88,0,0,0-3.09-1q-11.13,4.5-22.79,8.83A1.59,1.59,0,0,0,705,314.21Zm-61.43,32.72q-2.35-5.52-4.63-11.09a2.5,2.5,0,0,0-2.91-1.47q-13.17,3.7-26.89,7.17a2.1,2.1,0,0,0-1.49,2.7q1.83,5.82,3.75,11.6a2.47,2.47,0,0,0,3,1.55q14.25-3.74,27.94-7.78A1.94,1.94,0,0,0,643.52,346.93ZM746.6,331.22l3.4-1.49v-16.8q-6.71,2.94-13.58,5.82a1.5,1.5,0,0,0-.5,2.47q3.65,4.61,7.38,9.15A3,3,0,0,0,746.6,331.22ZM583.29,345.13a2.22,2.22,0,0,0,1.67-2.72q-1.49-6-2.88-12a2.29,2.29,0,0,0-2.65-1.78q-13.59,2.87-27.74,5.45a2.4,2.4,0,0,0-1.88,2.72q.91,6.25,1.94,12.48a2.28,2.28,0,0,0,2.7,1.86Q569.15,348.28,583.29,345.13ZM641.81,335q2.31,5.55,4.71,11a2.56,2.56,0,0,0,3,1.39q13.53-4.1,26.51-8.46a1.76,1.76,0,0,0,1-2.62q-2.82-5.22-5.57-10.49a2.61,2.61,0,0,0-3-1.32q-12.48,4-25.5,7.81A1.91,1.91,0,0,0,641.81,335ZM638,368.13q-2.33-5.55-4.56-11.15a2.57,2.57,0,0,0-3-1.46q-14,3.94-28.61,7.6a2.17,2.17,0,0,0-1.63,2.74q1.78,5.85,3.68,11.66a2.54,2.54,0,0,0,3.08,1.54q15.12-3.94,29.66-8.2A2,2,0,0,0,638,368.13ZM560.31,387.7q-1.34-6.1-2.57-12.24a2.41,2.41,0,0,0-2.89-1.78q-15.48,3.12-31.54,5.86a2.64,2.64,0,0,0-2.25,2.78q.78,6.35,1.64,12.66a2.4,2.4,0,0,0,2.94,1.88q16.62-3,32.65-6.37A2.44,2.44,0,0,0,560.31,387.7Zm-77.37,18.61h9.9a2.58,2.58,0,0,0-2.6-1.06ZM388.32,397c-.4,3.12-.75,6.23-1.12,9.35h42.33c.17-4.11.36-8.21.59-12.33a2.25,2.25,0,0,0-2.64-2.27q-17.7,1.52-36,2.53A3.42,3.42,0,0,0,388.32,397Zm139.43-38.5q-15.29,2.54-31.13,4.71a2.77,2.77,0,0,0-2.39,2.76q.28,6.54.67,13a2.28,2.28,0,0,0,2.73,2q16.42-2.38,32.28-5.18a2.57,2.57,0,0,0,2.16-2.78q-.87-6.3-1.64-12.64A2.26,2.26,0,0,0,527.75,358.46Zm-53.81-10.83q-.13,6.67-.18,13.32a2.18,2.18,0,0,0,2.53,2.17Q492.42,361.23,508,359a2.68,2.68,0,0,0,2.27-2.76q-.45-6.46-.8-13a2.16,2.16,0,0,0-2.48-2.08q-15,2.05-30.52,3.74A2.88,2.88,0,0,0,473.94,347.63Zm38.82-4.86q.39,6.48.89,12.92a2.22,2.22,0,0,0,2.62,2q15.4-2.38,30.25-5.12a2.42,2.42,0,0,0,2-2.74q-1-6.24-1.85-12.52a2.23,2.23,0,0,0-2.57-1.94Q529.79,337.88,515,340A2.64,2.64,0,0,0,512.76,342.77Zm-148.39,49.9Q383,392.07,401,391a3.33,3.33,0,0,0,3.11-2.73q.76-6.89,1.62-13.79a2.14,2.14,0,0,0-2.41-2.41q-17.43.94-35.41,1.4a3.58,3.58,0,0,0-3.34,2.68q-1.38,7-2.66,14.06A2.17,2.17,0,0,0,364.37,392.67Zm-69.63,5.92c-.72,2.58-1.39,5.15-2.09,7.72h90c.38-3,.75-6.07,1.16-9.11a2.21,2.21,0,0,0-2.54-2.43q-40,1.89-82.69,1.22A4,4,0,0,0,294.74,398.59Zm246.5,7.72h35.67l1.77-.42a2.35,2.35,0,0,0,2-2.81q-1.67-5.94-3.25-11.92a2.53,2.53,0,0,0-3.07-1.64q-15.82,3.6-32.24,6.82a2.55,2.55,0,0,0-2.18,2.8C540.33,401.54,540.79,403.92,541.24,406.31ZM750,274.81q-6.86,3-13.94,5.89c-.88.37-1,1.41-.22,2.33q3.75,4.5,7.58,8.93a2.94,2.94,0,0,0,3.09.93l3.49-1.52Zm0,93.66V357.8c-.81-1-1.63-1.93-2.43-2.91a3.13,3.13,0,0,0-3.45-.8,1004.76,1004.76,0,0,1-156.71,52.22H648.8A1000.25,1000.25,0,0,0,750,368.47Zm-261.92-4.16q-16,2.06-32.56,3.71a3,3,0,0,0-2.7,2.75q-.26,6.72-.41,13.42a2.23,2.23,0,0,0,2.64,2.19q17.16-1.85,33.73-4.13a2.79,2.79,0,0,0,2.48-2.77q-.35-6.53-.58-13.07A2.22,2.22,0,0,0,488.08,364.31Zm242.09-9.1q-3.52-4.72-7-9.5a2.94,2.94,0,0,0-3.3-1q-12.89,5.1-26.35,10a1.76,1.76,0,0,0-1,2.65c2,3.39,4.09,6.75,6.18,10.11a2.9,2.9,0,0,0,3.35,1q13.95-5.22,27.31-10.7A1.63,1.63,0,0,0,730.17,355.21ZM446.6,368.87q-16.71,1.53-34,2.61a3.28,3.28,0,0,0-3,2.72q-.81,6.89-1.52,13.76a2.19,2.19,0,0,0,2.55,2.35q17.88-1.24,35.19-3a3.07,3.07,0,0,0,2.79-2.76q.19-6.72.5-13.45A2.18,2.18,0,0,0,446.6,368.87Zm120.62,19.7q15.87-3.49,31.15-7.34a2.2,2.2,0,0,0,1.71-2.76q-1.83-5.85-3.58-11.72a2.48,2.48,0,0,0-3-1.62q-14.74,3.56-30.07,6.78a2.39,2.39,0,0,0-1.94,2.77q1.29,6.1,2.67,12.18A2.48,2.48,0,0,0,567.22,388.57Zm92-7.43q-2.62-5.37-5.18-10.79a2.7,2.7,0,0,0-3.19-1.31q-14.36,4.44-29.27,8.58a2.11,2.11,0,0,0-1.57,2.75q2.1,5.69,4.31,11.33a2.69,2.69,0,0,0,3.26,1.39q15.44-4.44,30.29-9.21A2,2,0,0,0,659.2,381.14Zm36.43-12.53q-3.09-5.06-6.1-10.16a2.84,2.84,0,0,0-3.25-1.14q-13.6,4.8-27.8,9.32a1.94,1.94,0,0,0-1.28,2.71q2.59,5.4,5.27,10.74a2.78,2.78,0,0,0,3.3,1.22q14.7-4.86,28.8-10A1.8,1.8,0,0,0,695.63,368.61Zm-157.27,5.68q15.71-2.88,30.83-6.14a2.34,2.34,0,0,0,1.86-2.76q-1.38-6.06-2.67-12.16a2.33,2.33,0,0,0-2.76-1.79q-14.58,3-29.71,5.62a2.54,2.54,0,0,0-2.09,2.76q.82,6.31,1.73,12.6A2.32,2.32,0,0,0,538.36,374.29Zm-105-23.07q-.69,6.86-1.29,13.68a2.14,2.14,0,0,0,2.44,2.32q16.83-1.35,33.1-3.12a2.93,2.93,0,0,0,2.58-2.75q.09-6.66.28-13.35a2.12,2.12,0,0,0-2.39-2.23q-15.68,1.58-31.91,2.74A3.15,3.15,0,0,0,433.36,351.22Zm-5,13.95q.65-6.84,1.38-13.7a2.07,2.07,0,0,0-2.29-2.37q-16.37,1-33.3,1.64a3.44,3.44,0,0,0-3.13,2.68q-1.26,7-2.41,14a2.1,2.1,0,0,0,2.33,2.47q17.55-.75,34.52-2A3.18,3.18,0,0,0,428.34,365.17Zm53.79,38.64q17.37-2.44,34.16-5.31a2.66,2.66,0,0,0,2.33-2.8q-.82-6.34-1.53-12.71a2.34,2.34,0,0,0-2.81-1.95q-16.21,2.63-33,4.85a2.86,2.86,0,0,0-2.56,2.78q.23,6.56.56,13.1A2.36,2.36,0,0,0,482.13,403.81Zm-47.67-10.22c-.2,4.25-.37,8.48-.51,12.72h29.22q4.62-.57,9.19-1.18a2.91,2.91,0,0,0,2.65-2.79q-.28-6.55-.46-13.14a2.3,2.3,0,0,0-2.73-2.11q-16.95,2.1-34.48,3.74A3.14,3.14,0,0,0,434.46,393.59Z"/><path class="cls-2" d="M502.51,305.65A1208.61,1208.61,0,0,1,375,312.31a1208.61,1208.61,0,0,1-127.51-6.66q2.13-8.43,4.22-17.66c16.64-73.47,12-81.31,3-119s3-50,36.31-75.11S321,76.47,325.17,48.38s19.7-35.74,43.34-26.9c19.19,7.17,49.76,3,56.32,26.9,8.41,30.59.78,20.31,34.1,45.46S504.2,131.23,495.24,169s-13.59,45.57,3.05,119Q500.38,297.21,502.51,305.65Z"/><path class="cls-2" d="M424.83,48.38c4.19,28.08.78,20.31,34.1,45.45,27.22,20.54,40.17,32.48,39.12,56.72C497.1,129.67,484.14,118,458.93,99,425.61,73.86,429,81.63,424.83,53.55s-51-26.12-76.23-26.12C373.84,27.43,420.65,20.3,424.83,48.38Z"/><path class="cls-2" d="M291.07,93.83c33.32-25.14,29.91-17.37,34.1-45.45S349.76,7.46,375,7.46c-25.24,0-45.65,18-49.83,46.09s-.78,20.31-34.1,45.45c-25.21,19-38.17,30.67-39.12,51.55C250.9,126.31,263.85,114.37,291.07,93.83Z"/><path class="cls-3" d="M327,105.2c-3.67-3.15-50.12,17-52,26.4-1.69,8.63.2,27.9,6.06,30.63s36.84-10.7,41.3-13.69S330.65,108.35,327,105.2Z"/><path class="cls-3" d="M427.63,148.54c4.46,3,35.43,16.42,41.3,13.69s7.75-22,6.06-30.63c-1.85-9.41-48.3-29.55-52-26.4S423.18,145.54,427.63,148.54Z"/><path class="cls-4" d="M463.42,309.13q-29.34,2.14-59.6,2.85h0q-14.31.33-28.81.33-12.94,0-25.76-.26-30.37-.65-59.9-2.71c.22-.64.44-1.28.67-1.93q1-2.79,2-5.75l.54-1.61c.4-1.2.8-2.42,1.21-3.64l.75-2.3c.12-.39.25-.77.37-1.15.25-.77.5-1.54.74-2.32s.49-1.56.74-2.34c.37-1.17.73-2.33,1.08-3.5s.63-2.08.94-3.12c.16-.57.33-1.13.49-1.68.65-2.23,1.28-4.44,1.86-6.61l0-.13c.29-1,.56-2.08.82-3.09l.06-.25q.79-3.06,1.44-5.94c0-.15.06-.3.1-.45.16-.69.3-1.36.44-2,.21-1,.41-2,.58-2.93.11-.63.23-1.25.33-1.86s.2-1.21.28-1.79q.33-2.19.48-4.11c1.89-23.59-4.5-65.88-3-71.86s24.72-17.88,35.54-20.42,66.33-2.54,77.15,0S449,173,450.53,179s-4.85,48.27-3,71.86q.15,1.92.48,4.11c0,.29.09.59.13.88s.12.74.19,1.11c.51,3,1.2,6.28,2,9.76.08.35.17.71.26,1.07.62,2.52,1.31,5.13,2.05,7.79.19.68.38,1.37.58,2.06l.21.74L454,280c.58,2,1.18,4,1.79,6l.72,2.33c.25.78.49,1.56.74,2.34s.49,1.55.74,2.32c.12.38.25.76.37,1.15l.75,2.3c.41,1.22.81,2.44,1.21,3.64l.54,1.61q1,3,2,5.75Z"/><path class="cls-4" d="M349.24,312.05q-30.37-.65-59.9-2.71c.22-.63.44-1.28.67-1.93q1-2.79,2-5.75l.54-1.61c.4-1.2.8-2.42,1.21-3.64l.75-2.3c.12-.39.25-.77.37-1.15.25-.77.5-1.54.74-2.32s.49-1.56.74-2.34c.37-1.17.73-2.33,1.08-3.5s.63-2.08.94-3.12c.16-.57.33-1.13.49-1.68.65-2.23,1.27-4.44,1.86-6.61l0-.13c.29-1,.56-2.08.82-3.09l.06-.25q.78-3.06,1.44-5.94c0-.15.06-.3.1-.45.16-.69.3-1.36.44-2,.2-1,.4-2,.58-2.93.11-.63.23-1.25.33-1.86s.2-1.21.28-1.79L320.46,244c-5.27,39.57-10.68,45.86-6.73,53.91C315.43,301.38,331.51,306.9,349.24,312.05Z"/><path class="cls-4" d="M462.82,307.41l.6,1.72q-29.34,2.14-59.6,2.85c17.65-5.13,33.59-10.62,35.28-14.07,3.95-8.05-1.46-14.34-6.73-53.91l15.68,10.92c0,.29.09.59.13.88s.12.74.19,1.11c.51,3,1.2,6.28,2,9.76.08.36.17.72.26,1.07.62,2.52,1.31,5.13,2.05,7.79.19.69.38,1.37.58,2.06l.21.74L454,280c.58,2,1.18,4,1.79,6l.72,2.33c.25.78.49,1.56.74,2.34s.49,1.55.74,2.32c.12.38.25.76.37,1.15l.75,2.3c.41,1.22.81,2.44,1.21,3.64.19.54.37,1.08.54,1.61Q461.85,304.62,462.82,307.41Z"/><path class="cls-5" d="M337,76.31a15.69,15.69,0,0,0-16-2c-8,3.54-6.75,13.44-2,19.18A15.36,15.36,0,0,0,330.43,99a42.26,42.26,0,0,0,10.71-1.1Z"/><path class="cls-6" d="M324,97.42l.13.06Z"/><path class="cls-7" d="M319,93.49a14.38,14.38,0,0,0,3.57,3.13l-.09-.07a15.17,15.17,0,0,1-5.18-9.69,11.33,11.33,0,0,1,4.11-10,13.2,13.2,0,0,1,6.48-2.41,34.32,34.32,0,0,1,6-.07,15.26,15.26,0,0,0-12.88-.1C313,77.85,314.25,87.75,319,93.49Z"/><path class="cls-5" d="M324,97.42l.13.06Z"/><path class="cls-5" d="M319,93.49a14.38,14.38,0,0,0,3.57,3.13l-.09-.07a15.17,15.17,0,0,1-5.18-9.69,11.33,11.33,0,0,1,4.11-10,13.2,13.2,0,0,1,6.48-2.41,34.32,34.32,0,0,1,6-.07,15.26,15.26,0,0,0-12.88-.1C313,77.85,314.25,87.75,319,93.49Z"/><path class="cls-5" d="M423,97.42l-.12.06Z"/><path class="cls-5" d="M411.1,76.31a15.69,15.69,0,0,1,16-2c8,3.54,6.75,13.44,2,19.18A15.35,15.35,0,0,1,417.67,99,42.26,42.26,0,0,1,407,97.87Z"/><path class="cls-5" d="M429.11,93.49a14.38,14.38,0,0,1-3.57,3.13l.09-.07a15.13,15.13,0,0,0,5.18-9.69,11.33,11.33,0,0,0-4.11-10,13.16,13.16,0,0,0-6.47-2.41,34.35,34.35,0,0,0-6-.07,15.23,15.23,0,0,1,12.87-.1C435.08,77.85,433.85,87.75,429.11,93.49Z"/><path class="cls-8" d="M376.41,120c60.43,0,79,19.15,65.26,36.54-10,12.59-46.35,18-60,28.47a8.6,8.6,0,0,1-10.47,0c-13.67-10.47-50-15.88-60-28.47C297.37,139.15,316,120,376.41,120Z"/><path class="cls-3" d="M376.41,120c60.43,0,79,19.15,65.26,36.54-10,12.59-46.35,18-60,28.47a8.6,8.6,0,0,1-10.47,0c-13.67-10.47-50-15.88-60-28.47C297.37,139.15,316,120,376.41,120Z"/><path class="cls-2" d="M437.65,155.67c12.68-16.88-5.32-33.47-60.56-33.61v-2.18c59.88.14,78.32,19.37,64.58,36.82-6.95,8.82-26.63,14.15-42.57,20.12C413.83,170.37,431.45,163.92,437.65,155.67Z"/><path class="cls-2" d="M375.75,119.75V122c-55.24.14-73.25,16.86-60.57,33.88,6.2,8.31,23.82,14.81,38.55,21.31-16-6-35.62-11.39-42.57-20.28C297.42,139.27,315.86,119.9,375.75,119.75Z"/><ellipse class="cls-4" cx="376.41" cy="141.52" rx="20.84" ry="8.26"/><path class="cls-5" d="M376.59,147.16h0A11.39,11.39,0,0,0,388,135.78V115.65H365.2v20.13A11.39,11.39,0,0,0,376.59,147.16Z"/><path class="cls-5" d="M337.39,40.93l37.21-5.25,37.21,5.25s1.51,30.66.76,47.28c-.76,17-5.46,38.34-38,38.34s-37.21-21.35-38-38.34C335.88,71.59,337.39,40.93,337.39,40.93Z"/><path class="cls-5" d="M348,50.42c-.51,7.29-5.4,13.55-8.32,20-3.7,8.19-2.7,17.31-.33,25.79,3.46,12.44,12.4,24,24.79,27.62,10,2.94,21.24.35,29.61-5.89s13.93-15.81,16.29-26,1.66-20.88-.91-31c0-4.11-4.38-6-7.24-8l-11.79-8.5a31.76,31.76,0,0,1-42.07,4A16,16,0,0,1,348,50.42Z"/><path class="cls-9" d="M346.66,61l19.25,8.68S366.37,56.24,346.66,61Z"/><path class="cls-9" d="M403.81,57.78l-20.6,4.68S385.43,49.18,403.81,57.78Z"/><path class="cls-10" d="M374.85,97.06a1,1,0,0,1-.49-.13c-3.6-2-2.19-7.77-1.34-11.21.13-.53.25-1,.34-1.42a51.71,51.71,0,0,0,.85-17.73,1,1,0,1,1,2-.27,53.66,53.66,0,0,1-.88,18.41c-.09.42-.22.93-.36,1.49-.71,2.88-1.9,7.71.38,9a1,1,0,0,1,.38,1.36A1,1,0,0,1,374.85,97.06Z"/><path class="cls-11" d="M388,95.77c-5.9,5.68-15,8.88-22.18,8.25,0,0,4.55,8.59,15.58,5.12C392,105.8,388,95.77,388,95.77Z"/><path class="cls-4" d="M303.48,176.86c-7.65,12.62-44.27,72-53.85,78.9s-71.66-15.22-109.87-6.7-57.16,79.78,25.11,88.27,111.38-8,126.94-24.56S321.18,250.4,322,232.68,303.48,176.86,303.48,176.86Z"/><path class="cls-4" d="M449.35,176.86c7.65,12.62,44.27,72,53.85,78.9s71.66-15.22,109.87-6.7,57.16,79.78-25.11,88.27-111.38-8-126.94-24.56-29.37-62.37-30.14-80.09S449.35,176.86,449.35,176.86Z"/><path class="cls-4" d="M594.1,256.35c-11.9,1.19-24,4.68-33.06,12.47a38.94,38.94,0,0,0-13.68,29.49c.15,11.19,6,22.28,15.5,28.21,12,7.5,27.44,6.18,41.22,3,10.06-2.35,20.06-5.64,28.61-11.43s15.58-14.35,17.85-24.43C658.18,259.7,618.12,254,594.1,256.35Z"/><path class="cls-5" d="M644.71,314.34c-2.62-4.59-5.75-8.81-10.13-11.82-8.8-6-21.1-6.14-31.35-6.21-10.77-.06-21.85.22-32.11,3.84-8.89,3.13-15.47,9.07-20.63,16.85-2.36,3.57-4.42,7.33-6.5,11.07-7.12-5.09-12.34-13.14-12.17-21.82.64-33,48.69-40.45,73.38-43.28,12.84-1.48,25.42.72,35.9,11.06,9.26,9.13,12.89,24.3,6.72,35.75A28.2,28.2,0,0,1,644.71,314.34Z"/><path class="cls-5" d="M624.5,264.78c30.31,5.61,43,15,51.18,22.2s31.19,37.27,17.29,48.33S653.08,308.5,650.06,304s-42.39-17-42.39-17Z"/><path class="cls-5" d="M604.05,269.23c27.84,10.56,46.44,24.37,47.83,29.34s11.34,37.43-3.42,43-20.6-9.16-24.74-27.22l-3.1-11.84-32.26-20.23Z"/><path class="cls-5" d="M620.62,302.51c4.74,14.84,12,58.32-4.36,63.6S595,332.57,590.18,317.54s-16.59-16.43-24.49.1S540,366,520.23,362.74s-1.87-27.42,4.86-42S530.92,286.23,550,278,612.85,278.17,620.62,302.51Z"/><path class="cls-5" d="M611.19,262.53c28.39-2.53,64.35,5.8,78.33,10.46s21.61,12.9,17,23.28-49.82.66-49.82.66Z"/><path class="cls-12" d="M689.2,313.42c1.95,3.74,3.3,8.08,2.25,12.16s-5.18,7.58-9.3,6.67c-2.86-.63-4.93-3.05-6.67-5.4-3.89-5.27-18.81-24.72-9.28-30.08C674.29,292.23,686.12,307.54,689.2,313.42Z"/><path class="cls-12" d="M697.72,285.17c1.45,1.32,2.73,3.22,2.31,5.14-.48,2.13-2.86,3.31-5,3.4-3,.13-5.9-1.22-8.48-2.78-3.49-2.1-6.91-7.85-1.42-10.11C688.78,279.31,695.14,282.82,697.72,285.17Z"/><path class="cls-12" d="M646.11,301.84c1.66,2,2.26,4.58,2.68,7.11a81.35,81.35,0,0,1,.72,21.48c-.22,2.18-.65,4.58-2.37,5.94a5.65,5.65,0,0,1-6,.17A12.64,12.64,0,0,1,636.7,332a35.32,35.32,0,0,1-5.35-20.53,16.42,16.42,0,0,1,1.64-6.94C635.38,300,642.32,297.4,646.11,301.84Z"/><path class="cls-12" d="M614.47,311.38c2.29,2.41,3.34,5.73,4.13,9a86.1,86.1,0,0,1,2.4,21.87c-.09,4.27-1.08,9.37-5,10.94a7.3,7.3,0,0,1-6.42-.84,13.42,13.42,0,0,1-4.4-5c-4.17-7.52-3.94-16.61-3.59-25.2C601.81,315.39,606,302.49,614.47,311.38Z"/><path class="cls-12" d="M540.18,328.57a34.44,34.44,0,0,1-8.63,20.34,11.32,11.32,0,0,1-4.58,3.42,5,5,0,0,1-5.32-1.14c-1.2-1.42-1.19-3.48-.94-5.32.92-6.87,4.23-13.17,7.48-19.3C532.19,319,540.94,318,540.18,328.57Z"/><path class="cls-4" d="M158.73,256.35c11.9,1.19,24,4.68,33.06,12.47a38.94,38.94,0,0,1,13.68,29.49c-.15,11.19-6,22.28-15.5,28.21-12,7.5-27.44,6.18-41.22,3-10.06-2.35-20.06-5.64-28.61-11.43s-15.58-14.35-17.85-24.43C94.65,259.7,134.71,254,158.73,256.35Z"/><path class="cls-2" d="M206.6,378.54c-31.36,11.42-66,12.32-98.72,6-9.95-1.93-20-4.61-28.39-10.31S64.58,359.25,64.4,349.11c-.06-3.69,1.33-8.09,4.9-9s6.62,2,9.21,4.43c13.85,13.14,32.24,21,51.13,23.78s38.26.79,56.76-3.94c7.4-1.9,20.37-7.21,27.3-1.63C221.35,368.91,212.77,376.29,206.6,378.54Z"/><path class="cls-4" d="M168.19,294.7c51.81,16,53.16,56.89,49.55,67.89S155.56,392.15,104,377.35s-46.32-64.12-3.75-74.94S164.92,293.68,168.19,294.7Z"/><path class="cls-3" d="M171.47,322.91c-4.24,2.17-5.37,7.56-6.41,12.21a88.87,88.87,0,0,1-7.9,21.72c-2.15,4.16-4.79,8.3-8.81,10.71s-9.72,2.55-13-.81c-3.08-3.17-3.06-8.11-3.71-12.49s-3.22-9.43-7.65-9.48c-3.52,0-6.14,3.16-9.38,4.52-5.41,2.26-11.86-1.09-15-6s-3.9-11-4.53-16.82a46.3,46.3,0,0,1-21.39,11.69c-2.37.56-5,.91-7.15-.21-5-2.55-3.81-9.94-1.44-15a85.39,85.39,0,0,1,123.1-35.74c14,8.92,32.87,26.42,31.74,44.63-1,16.55-15.3,27.36-26.84,11.26C188.5,336.73,183.4,316.81,171.47,322.91Z"/><path class="cls-5" d="M108.12,314.34c2.62-4.59,5.75-8.81,10.13-11.82,8.8-6,21.1-6.14,31.35-6.21,10.77-.06,21.85.22,32.11,3.84,8.89,3.13,15.47,9.07,20.63,16.85,2.36,3.57,4.42,7.33,6.5,11.07C216,323,221.18,314.93,221,306.25c-.64-33-48.69-40.45-73.38-43.28-12.84-1.48-25.42.72-35.9,11.06-9.26,9.13-12.89,24.3-6.72,35.75A28.2,28.2,0,0,0,108.12,314.34Z"/><path class="cls-5" d="M128.33,264.78c-30.31,5.61-43,15-51.18,22.2S46,324.25,59.86,335.31,99.75,308.5,102.77,304s42.39-17,42.39-17Z"/><path class="cls-5" d="M148.78,269.23c-27.84,10.56-46.45,24.37-47.83,29.34s-11.34,37.43,3.42,43,20.6-9.16,24.74-27.22l3.1-11.84,32.26-20.23Z"/><path class="cls-5" d="M132.21,302.51c-4.74,14.84-12,58.32,4.36,63.6s21.29-33.54,26.08-48.57,16.59-16.43,24.49.1,25.68,48.35,45.46,45.1,1.87-27.42-4.86-42-5.83-34.55-24.93-42.75S140,278.17,132.21,302.51Z"/><path class="cls-5" d="M141.64,262.53C113.25,260,77.29,268.33,63.31,273s-21.61,12.9-17,23.28,49.82.66,49.82.66Z"/><path class="cls-12" d="M63.63,313.42c-2,3.74-3.3,8.08-2.25,12.16s5.18,7.58,9.3,6.67c2.86-.63,4.93-3.05,6.67-5.4,3.89-5.27,18.81-24.72,9.28-30.08C78.54,292.23,66.71,307.54,63.63,313.42Z"/><path class="cls-12" d="M55.11,285.17c-1.45,1.32-2.73,3.22-2.31,5.14.48,2.13,2.86,3.31,5,3.4,3,.13,5.9-1.22,8.48-2.78,3.49-2.1,6.91-7.85,1.42-10.11C64.05,279.31,57.69,282.82,55.11,285.17Z"/><path class="cls-12" d="M106.72,301.84c-1.66,2-2.26,4.58-2.68,7.11a81.35,81.35,0,0,0-.72,21.48c.22,2.18.65,4.58,2.37,5.94a5.65,5.65,0,0,0,6,.17,12.64,12.64,0,0,0,4.39-4.59,35.32,35.32,0,0,0,5.35-20.53,16.42,16.42,0,0,0-1.64-6.94C117.45,300,110.51,297.4,106.72,301.84Z"/><path class="cls-12" d="M138.36,311.38c-2.3,2.41-3.34,5.73-4.13,9a86.1,86.1,0,0,0-2.4,21.87c.09,4.27,1.08,9.37,5,10.94a7.3,7.3,0,0,0,6.42-.84,13.42,13.42,0,0,0,4.4-5c4.17-7.52,3.94-16.61,3.59-25.2C151,315.39,146.85,302.49,138.36,311.38Z"/><path class="cls-12" d="M212.65,328.57a34.44,34.44,0,0,0,8.63,20.34,11.32,11.32,0,0,0,4.58,3.42,5,5,0,0,0,5.32-1.14c1.2-1.42,1.19-3.48.94-5.32-.92-6.87-4.23-13.17-7.48-19.3C220.64,319,211.89,318,212.65,328.57Z"/><path class="cls-2" d="M485.65,274.22c1.29-12.32,13-18.35,13-18.35s-38.52-52.29-45.29-66-9.53-17.8-22.5-25.25c7.84,3.83,15.52,8.58,18.46,12.2h0l0,0a6.48,6.48,0,0,1,1,1.7c9.49,15.54,43.6,70.54,52.8,77.16,9.59,6.91,71.66-15.22,109.87-6.7A38.79,38.79,0,0,1,630,257.77c-31-16.21-77.8-3.91-107.47.48C488.88,263.23,485.65,274.22,485.65,274.22Z"/><path class="cls-2" d="M267.18,274.22c-1.29-12.32-13-18.35-13-18.35s38.52-52.29,45.29-66,9.53-17.8,22.5-25.25c-7.84,3.83-15.52,8.58-18.46,12.2h0l0,0a6.48,6.48,0,0,0-1,1.7c-9.49,15.54-43.6,70.54-52.8,77.16-9.59,6.91-71.66-15.22-109.87-6.7a38.79,38.79,0,0,0-16.88,8.71c31-16.21,77.8-3.91,107.47.48C264,263.23,267.18,274.22,267.18,274.22Z"/><path class="cls-3" d="M440.76,181.63a69.17,69.17,0,0,0-8.91,38.71C427.9,207.12,431.8,192.13,440.76,181.63Z"/><path class="cls-3" d="M312.07,181.63A69.17,69.17,0,0,1,321,220.34C324.93,207.12,321,192.13,312.07,181.63Z"/><path class="cls-12" d="M573,268.72A219.45,219.45,0,0,1,605.2,263q3-.35,6-.4l-.06,0c28.39-2.53,64.35,5.8,78.33,10.46,12.64,4.2,20.07,11.34,18,20.33A19.19,19.19,0,0,0,701.15,282c-5.19-4.53-12-6.61-18.66-8.41-18.25-5-36.94-8.75-55.88-9.58-8.88-.39-18-.44-26.77.84Z"/><path class="cls-12" d="M179.8,268.72A219.45,219.45,0,0,0,147.63,263q-3-.35-6-.4l.06,0C113.25,260,77.29,268.33,63.31,273c-12.64,4.2-20.07,11.34-18,20.33A19.19,19.19,0,0,1,51.68,282c5.19-4.53,12-6.61,18.66-8.41,18.25-5,36.94-8.75,55.88-9.58,8.88-.39,18-.44,26.77.84Z"/><path class="cls-13" d="M404.26,18.37a4.21,4.21,0,0,0-3.19,1.52l7.33,3.54A11.34,11.34,0,0,1,412.69,27a55.68,55.68,0,0,1,7,9.05,15.56,15.56,0,0,1-.74,8.3,7.47,7.47,0,0,1-5.88,5c-1,.2-2.22.38-2.94-.58s.2-1.73.62-2.53.93-1.3,1.46-2.28c-3.37,3.2-7.19,3.87-11.09,2-6.49-3-10.55-8.21-12.68-15.12-.85,1.67-.14,3.42-.82,4.94-3.83,5.4-9.47,7.57-15.67,8.07-3.6.29-7.45,1.25-10.92-.91.12-1.73,1.41-.77,2.2-1-15.21-4.3-18.3-4.12-25.73,1.55.68,0,1.12-.51,1.69-.64s1.49-.49,1.94.22c.56.88-.16,1.59-.76,2.1a48.91,48.91,0,0,0-6.4,6.55,20.09,20.09,0,0,0-4.49,9.83c-.21,1.34-.08,2.92-1.78,3.54-4.51-10.1-4-19.87,2.23-36.84l-7,5.93c.63-6.54,3.91-11.36,7.62-16,8.15-6.9,8.15-6.9,26.73-10.81-3.6-1.66-7.39-1-11-2,11.68-9.68,32.86-6,42.07,7.07.72,1,1,2.5,2.52,2.85.35-.06.85.08.84.33-.13,2.7,1.24.28,1.8.55.46,1.79,1.48.49,2.1.26a11.39,11.39,0,0,1,9.22.12c.44.2,1.39.19,1,1C405.58,18.05,404.79,18.14,404.26,18.37Z"/><path class="cls-14" d="M393.5,16.27c-1.1.68-.07,2.4-1.44,3-2-.78.39-2.94-1.2-3.84-.73-3.58-2.79-6.53-4.73-9.71C391.3,6.72,393.82,10.44,393.5,16.27Z"/><path class="cls-15" d="M360.91,42.49c-13.64.11-23.42,9.57-24,23.31-.13,3.06.09,6.13.07,9.19,0,1,.61,2.41-.56,2.89-1.35.56-2-1-2.74-1.74-2.19-2.19-3.56-4.93-5-7.62-.32-1.12-.65-2.25-1-3.37,1.1-1.43.66-3.18,1-4.77,1.46-6.41,5.5-11,10.35-15.12.62-.52,1.41-.85,1.84-2-2.2.18-3.69,1.81-5.81,2.6,3.12-7.69,17.89-11.2,29-3.73Z"/><path class="cls-16" d="M420.42,66.64c-2.32,3.4-4.2,7.24-8.83,9.14.42-3.63,1-6.72,1.11-9.84.36-7.15-2.61-12.45-9-15.82a52.89,52.89,0,0,1-11.48-7.5c-2.22-2-5.89-3-6.06-5.7.19-2.35.33-6.37,2.82-8.88a21.13,21.13,0,0,0,7.77,14.19c2.67,2.27,5.53,4,9.42,3.81,3.52-.12,5.15-2.17,7.07-5.47a10.53,10.53,0,0,1-2.9,7.64c5.22,1,8.37-2.16,8.82-8.47.09-1.25-.47-2.6.54-3.72C426.73,46.06,425.72,56.3,420.42,66.64Z"/><path class="cls-17" d="M345.54,85c.37-7.77,4.32-12.26,10.09-12.8s10,3.21,11.84,11.28C364.14,79.76,361,77,356.41,77,351.45,76.94,348.64,80.2,345.54,85Z"/><path class="cls-17" d="M383.14,81.52c.65-7.75,4.76-12.1,10.55-12.44s9.89,3.57,11.42,11.69c-3.19-3.79-6.25-6.64-10.82-6.84C389.33,73.72,386.41,76.87,383.14,81.52Z"/></g></g></svg>