<svg width="343" height="366" viewBox="0 0 343 366" fill="none" xmlns="http://www.w3.org/2000/svg">
<path d="M228.876 241.551C227.139 240.5 225.5 239.527 224.209 239.059C223.659 238.848 223.382 238.977 223.111 239.233C221.63 240.649 220.876 246.032 221.743 253.343C227.877 253.011 253.056 251.487 270.769 248.005C289.078 244.407 310.034 227.96 313.406 217.875C304.279 221.868 290.853 225.285 271.222 226.002C261.973 227.536 253.687 236.163 248.254 242.528C242.249 249.569 234.52 244.932 228.876 241.551Z" fill="#FDB016"/>
<path d="M171.388 209.633C167.508 211.845 148.235 221.775 109.686 225.071C101.825 225.743 94.2797 226.05 87.1567 226.05C82.0086 226.05 77.0829 225.886 72.407 225.588C74.8646 227.967 79.6391 231.493 87.8262 233.695C90.0319 234.288 92.0236 234.782 93.8411 235.227C103.508 237.611 108.834 238.924 111.025 247.837C111.548 249.957 111.942 252.284 112.327 254.534C113.239 259.9 114.182 265.45 116.646 266.879C117.485 267.369 118.574 267.356 119.966 266.843C123.414 265.582 124.281 260.988 124.661 256.226C124.662 256.213 124.662 256.2 124.661 256.186C124.662 256.18 124.662 256.174 124.661 256.167C124.743 255.146 124.801 254.118 124.871 253.114C125.15 248.194 125.393 243.945 128.088 242.444C130.783 240.944 133.754 240.956 136.088 242.444C138.5 243.983 141.24 247.673 140.611 256.525C140.579 256.97 140.533 257.445 140.474 257.95C140.055 261.499 139.031 266.436 137.857 272.043C134.615 287.529 129.716 310.934 136.724 317.174C140.602 320.624 144.244 319.836 146.615 318.569C152.257 315.555 157.401 306.107 155.822 294.533C155.527 292.377 155.227 290.225 154.922 288.075C153.4 277.269 151.942 266.871 151.795 257.794V257.771C151.724 253.248 151.971 249.047 152.712 245.302C154.574 235.894 161.787 229.169 167.403 228.33C170.606 227.851 173.294 229.185 174.786 231.981C175.626 233.559 176.379 235.093 177.095 236.575C179.731 241.963 181.441 245.229 183.504 244.548C184.107 244.348 184.99 243.945 186.012 243.476C190.056 241.629 196.168 238.838 200.361 241.404C202.739 242.862 204.042 245.784 204.233 250.088C204.376 253.32 204.288 256.873 204.191 260.635C203.891 272.574 203.562 286.016 211.39 288.929C214.514 288.639 217.704 288.301 220.96 287.916C221.12 287.78 221.273 287.635 221.417 287.483C224.519 284.017 224.53 276.323 221.447 266.37C220.333 262.756 219.497 259.062 218.947 255.32C218.921 255.219 218.904 255.115 218.899 255.009C218.899 255.009 218.899 254.993 218.899 254.984C217.783 247.053 218.183 239.752 221.01 237.054C222.167 235.948 223.663 235.65 225.229 236.213C226.794 236.776 228.551 237.835 230.415 238.945C236.963 242.867 241.909 245.281 245.945 240.553C250.021 235.778 255.647 229.803 262.225 226.128C260.712 226.128 259.177 226.1 257.597 226.063C207.323 224.835 176.442 211.904 171.388 209.633Z" fill="#FDB016"/>
<path d="M158.305 290.419C163.208 290.646 182.231 291.301 206.437 289.349C200.605 283.698 200.903 271.542 201.19 260.545C201.19 260.125 201.209 259.704 201.22 259.284H154.855C155.13 267.806 156.498 277.544 157.919 287.642C158.047 288.565 158.175 289.494 158.305 290.419Z" fill="#99031E"/>
<path d="M201.224 250.209C201.081 246.973 200.263 244.878 198.794 243.976C195.975 242.251 190.743 244.64 187.282 246.221C186.18 246.723 185.23 247.158 184.474 247.41C179.817 248.974 177.299 243.837 174.4 237.894C173.687 236.436 172.948 234.929 172.129 233.397C171.24 231.726 169.806 231.026 167.861 231.314C163.243 232.004 157.241 238.02 155.688 245.876C155.071 248.999 154.819 252.492 154.817 256.251H201.278C201.304 254.129 201.308 252.094 201.224 250.209Z" fill="#FDB016"/>
<path d="M99.2895 205.041H100.322C143.136 205.041 165.414 194.688 169.903 185.916C169.939 185.827 169.985 185.742 170.039 185.662C170.192 185.335 170.324 184.998 170.434 184.653C162.352 184.922 156.078 188.226 149.961 191.441C144.527 194.31 138.905 197.269 132.231 197.967C120.478 199.188 113.523 193.27 107.384 188.047C104.576 185.66 101.928 183.405 98.9894 181.915C92.347 178.553 84.1116 180.799 74.573 183.409C71.087 184.363 67.4814 185.349 63.794 186.089C53.0255 188.249 47.4723 177.994 43.0168 169.758C41.2728 166.536 39.6253 163.493 37.9295 161.654C37.8582 161.578 37.7763 161.511 37.7008 161.444C34.2106 163.024 20.4913 169.682 17.3538 178.025C16.4282 180.494 16.5374 182.833 17.6917 185.17C24.3572 198.719 49.5249 204.849 99.2895 205.041Z" fill="#FB1A03"/>
<path d="M46.7211 137.402C47.0716 137.499 82.3572 147.069 132.6 151.499C178.873 155.576 247.656 155.999 312.67 134.897C317.484 131.551 321.524 128.14 324.842 124.648C324.842 124.635 324.859 124.62 324.869 124.608C324.88 124.595 324.909 124.572 324.928 124.553C331.757 117.305 335.39 109.697 335.923 101.535C336.929 86.1933 326.588 68.5738 305.188 49.1743C273.323 20.2988 225.707 4.71997 173.603 4.71997C154.37 4.75006 135.193 6.79266 116.384 10.8145C47.038 25.5653 4.44676 75.8515 6.70917 102.642C8.92751 128.945 46.2615 137.301 46.6392 137.383L46.7211 137.402Z" fill="#F9A331"/>
<path d="M93.1256 238.17C91.2934 237.718 89.2765 237.22 87.0393 236.621C74.7535 233.317 69.513 227.246 68.0817 225.272C54.8598 224.156 43.9171 221.922 36.1162 219.134C38.6221 226.313 50.8554 246.834 109.26 254.574C108.91 252.521 108.545 250.424 108.085 248.551C106.341 241.427 102.742 240.54 93.1256 238.17Z" fill="#FDB016"/>
<g opacity="0.25">
<path d="M201.224 242.131C201.081 238.895 200.263 236.799 198.794 235.898C195.975 234.17 190.743 236.562 187.282 238.142C186.18 238.645 185.23 239.08 184.474 239.332C179.817 240.895 177.299 235.759 174.4 229.816C173.687 228.357 172.948 226.851 172.129 225.317C171.24 223.648 169.806 222.948 167.861 223.236C163.243 223.925 157.241 229.94 155.688 237.798C155.071 240.921 154.819 244.413 154.817 248.173H201.278C201.304 246.051 201.308 244.016 201.224 242.131Z" fill="#6C164E"/>
</g>
<g opacity="0.25">
<path d="M93.1255 238.17C91.2933 237.718 83.7715 233.756 81.5448 233.157C69.2589 229.856 71.2401 225.146 69.8088 223.173C56.5869 222.057 47.063 219.867 39.2621 217.078C41.7679 224.257 50.8658 238.756 109.271 246.5C108.92 244.447 108.641 246.221 108.171 244.346C106.417 237.218 102.742 240.54 93.1255 238.17Z" fill="#6C164E"/>
</g>
<path d="M134.462 244.989C133.06 244.096 131.272 244.13 129.557 245.082C128.319 245.771 128.088 249.932 127.891 253.278C127.857 253.839 127.824 254.417 127.786 254.999L137.604 256.09C137.965 250.541 136.825 246.498 134.462 244.989Z" fill="#FDB016"/>
<path d="M271.352 250.979C253.692 254.45 228.784 255.991 222.171 256.352C222.693 259.434 223.421 262.477 224.35 265.46C227.317 275.035 227.554 282.67 225.107 287.39C240.675 285.358 257.287 282.136 273.065 277.107C322.92 261.188 320.693 252.328 319.22 246.464C319.127 246.103 319.039 245.748 318.959 245.399C318.414 243.005 318.54 239.792 318.655 236.39C318.865 230.362 319.117 223.629 315.977 219.617C311.276 231.529 289.466 247.419 271.352 250.979Z" fill="#99031E"/>
<path d="M262.462 209.277C254.048 209.277 245.068 208.884 235.655 208.067C195.306 204.568 178.489 198.042 172.812 195.17V206.953C178.132 209.324 208.439 221.832 257.685 223.038C286.786 223.755 304.325 219.129 314.77 213.926L314.819 213.903C320.275 211.171 323.801 208.294 326.019 205.94C326.152 205.801 326.263 205.684 326.353 205.593C326.754 204.362 326.714 199.135 326.437 193.354C318.882 203.431 294.896 209.277 262.462 209.277Z" fill="#FB1A03"/>
<path d="M307.11 160.473C303.962 161.793 301.981 166.147 299.75 171.098C297.533 176.006 295.023 181.566 290.725 185C283.934 190.441 273.306 186.868 263.937 183.718C259.572 182.247 255.448 180.866 252.136 180.503C246.591 179.891 242.167 183.193 236.57 187.369C232.278 190.571 227.416 194.201 220.991 196.826C218.03 198.032 215.447 198.536 213.069 198.536C208.009 198.536 203.889 196.252 199.081 193.585C193.998 190.767 188.239 187.575 179.353 185.563C177.434 185.125 175.483 184.844 173.519 184.723C173.347 185.415 173.105 186.089 172.797 186.732V191.715C175.861 193.503 191.301 201.172 235.903 205.051C290.085 209.754 322.579 199.907 325.658 188.256C328.989 175.629 307.75 161.084 307.536 160.935C307.362 160.814 307.217 160.656 307.11 160.473Z" fill="#FB1A03"/>
<path d="M326.044 127.724C322.739 131.062 318.808 134.319 314.201 137.505C314.081 137.588 313.949 137.654 313.809 137.698C268.871 152.327 222.16 156.732 182.209 156.734C163.86 156.734 146.951 155.805 132.26 154.511C82.5459 150.123 47.3694 140.718 45.9549 140.336C44.6956 140.058 30.7938 136.885 19.253 128.382C15.5865 131.45 2.61231 143.23 7.91995 152.161C11.3324 157.903 18.5016 157.398 25.4316 156.915C31.3394 156.495 36.9178 156.108 40.133 159.596C42.0848 161.715 43.8205 164.918 45.6589 168.312C49.8564 176.054 54.5953 184.838 63.1895 183.115C66.7741 182.398 70.3251 181.434 73.7628 180.484C83.4819 177.825 92.6637 175.312 100.345 179.21C103.6 180.86 106.383 183.229 109.33 185.725C115.284 190.792 121.433 196.033 131.905 194.941C137.992 194.31 143.121 191.61 148.54 188.758C155.466 185.105 162.601 181.364 172.255 181.602C172.289 181.602 172.32 181.602 172.356 181.602H172.39C174.966 181.686 177.528 182.021 180.039 182.602C189.341 184.704 195.57 188.157 200.561 190.929C207.417 194.73 211.946 197.233 219.869 194.012C225.936 191.54 230.635 188.033 234.782 184.939C240.658 180.547 245.744 176.758 252.487 177.491C256.122 177.891 260.395 179.326 264.917 180.854C273.56 183.76 283.353 187.049 288.843 182.644C292.564 179.664 294.814 174.679 296.99 169.858C299.947 163.308 302.742 157.119 309.026 157.039C311.565 157.007 314.441 157.423 317.486 157.88C327.497 159.351 334.775 159.798 337.281 152.348C340.498 142.769 329.558 131.137 326.044 127.724Z" fill="#76C91B"/>
<path d="M43.4595 277.484C59.6091 285.56 87.7423 295.654 130.363 298.178C130.548 295.979 130.818 293.708 131.15 291.398C58.8347 288.517 22.9719 253.78 22.6151 253.435C22.4248 253.247 22.2876 253.012 22.2176 252.754C22.1475 252.495 22.1471 252.223 22.2164 251.964C22.2164 251.933 22.6361 250.359 23.0831 248.392C19.5153 249.48 15.1962 251.405 14.2035 253.574C14.1363 253.721 14.0856 253.874 14.0524 254.032C14.0524 254.051 14.0524 254.072 14.0377 254.093C13.957 254.622 14.0647 255.162 14.342 255.619C15.723 258.21 24.036 267.768 43.4595 277.484Z" fill="#F9A331"/>
<path d="M27.7843 211.463C29.3227 212.776 31.5263 214.048 34.3029 215.246C34.4929 215.288 34.6736 215.365 34.836 215.473C42.469 218.638 54.27 221.193 68.982 222.358C69.036 222.358 69.09 222.363 69.1436 222.37C80.932 223.293 94.5715 223.328 109.439 222.059C146.811 218.865 165.991 209.172 169.791 207.058V190.988C161.655 199.505 140.456 208.073 100.379 208.073H99.2811C53.8608 207.897 28.8861 202.905 18.4807 191.603C20.0568 198.387 22.9426 207.329 27.7843 211.463Z" fill="#FB1A03"/>
<path d="M27.1401 242.703C26.9302 245.456 25.8473 249.959 25.3688 251.863C30.3847 256.399 65.4835 285.852 131.612 288.388C132.537 282.683 133.757 276.845 134.896 271.408C135.893 266.637 136.785 262.371 137.268 259.101L127.534 258.019C126.984 263.063 125.616 267.982 121.015 269.676C118.761 270.517 116.782 270.445 115.139 269.489C111.974 267.654 110.776 262.989 109.819 257.699C41.5582 248.892 33.5286 223.099 32.5967 217.738C31.0863 217.091 29.6234 216.339 28.2188 215.485C25.4716 217.881 20.7495 223.099 22.3424 227.029L23.163 229.026C25.5304 234.776 27.3982 239.315 27.1401 242.703Z" fill="#99031E"/>
<path d="M272.578 292.466C238.251 300.769 207.463 302.685 186.373 302.685C172.341 302.685 162.605 301.845 158.97 301.46C158.196 310.163 154.064 318.012 148.038 321.23C146.371 322.146 144.504 322.634 142.603 322.65C139.836 322.65 137.117 321.562 134.714 319.424C130.837 315.974 129.792 309.24 130.163 301.202C50.8679 296.5 16.7849 265.647 11.8781 257.416C8.37326 263.264 1.6259 278.068 6.63133 299.434C14.9653 335.014 50.0201 353.734 116.954 358.347C200.647 364.116 258.453 358.711 293.691 341.814C328.882 324.939 332.118 305.006 332.391 287.647C332.538 278.209 331.249 268.476 330.131 261.919C326.275 270.004 313.45 282.578 272.578 292.466Z" fill="#F9A331"/>
<path d="M273.984 279.993C256.901 285.457 238.862 288.784 222.192 290.801C219.718 292.583 216.379 293.096 212.204 292.285C211.785 292.205 211.396 292.104 211.014 291.991C195.78 293.386 182.291 293.735 172.589 293.735C166.022 293.735 161.195 293.575 158.738 293.47C158.767 293.68 158.798 293.89 158.828 294.101C159.019 295.533 159.116 296.976 159.115 298.421C167.51 299.308 214.714 303.339 271.866 289.513C322.897 277.168 328.225 261.014 328.643 256.357C329.029 252.057 326.657 248.173 322.076 245.403C322.103 245.508 322.126 245.613 322.154 245.716C324.011 253.103 326.546 263.21 273.984 279.993Z" fill="#F9A331"/>
<g opacity="0.25">
<path d="M47.4281 114.676C47.4281 114.676 45.3462 112.297 46.4837 110.603C47.6212 108.909 59.5608 109.399 59.3005 110.767C59.0403 112.135 58.3582 113.6 56.8933 114.024C55.4284 114.449 53.2185 115.001 52.2762 115.001C51.3338 115.001 47.4281 114.676 47.4281 114.676Z" fill="#650000"/>
</g>
<g opacity="0.25">
<path d="M58.2282 75.5509C58.2667 75.1813 58.404 74.829 58.6256 74.5309C58.8472 74.2328 59.1449 74.0001 59.4874 73.8571C60.5368 73.401 72.6358 72.2536 72.065 73.9831C71.4941 75.7127 69.387 77.9299 66.2893 78.388C64.3279 78.6612 62.3424 78.7162 60.3689 78.5519C60.3689 78.5519 58.3184 77.7365 58.1883 77.3456C58.0582 76.9548 58.2282 75.5509 58.2282 75.5509Z" fill="#650000"/>
</g>
<g opacity="0.25">
<path d="M101.478 106.629C101.187 106.654 99.7217 106.093 99.5265 105.847C99.3313 105.601 99.0921 104.626 99.1362 104.136C99.1802 103.647 101.187 99.8365 106.213 98.6723C111.239 97.508 112.068 98.3697 111.508 100.28C110.948 102.19 107.237 106.141 101.478 106.629Z" fill="#650000"/>
</g>
<g opacity="0.25">
<path d="M69.9391 46.8857C69.9391 46.6902 73.0871 44.5403 76.2499 44.7022C79.4127 44.864 83.9731 45.2444 82.8231 47.3733C81.673 49.5021 74.8941 51.837 71.3389 50.3701C67.7837 48.9032 69.9391 46.8857 69.9391 46.8857Z" fill="#650000"/>
</g>
<g opacity="0.25">
<path d="M120.304 53.0979C120.304 53.0979 128.187 52.9214 126.85 47.3901C125.513 41.8588 117.956 44.7631 116.436 46.7701C114.917 48.7771 115.12 51.2674 116.459 51.8538C117.798 52.4401 120.304 53.0979 120.304 53.0979Z" fill="#650000"/>
</g>
<g opacity="0.25">
<path d="M147.594 81.4647C147.594 81.4647 158.792 82.1982 158.622 77.4087C158.452 72.6192 143.106 74.4392 141.581 75.6917C140.055 76.9443 138.151 80.83 147.594 81.4647Z" fill="#650000"/>
</g>
<g opacity="0.25">
<path d="M194.795 72.5982C194.47 72.5982 188.224 73.8255 188.778 75.4543C189.332 77.083 194.082 79.4619 198.961 79.4935C203.841 79.525 206.964 78.1148 205.663 76.2802C204.361 74.4455 201.058 72.6571 194.795 72.5982Z" fill="#650000"/>
</g>
<g opacity="0.25">
<path d="M143.559 29.9134C143.652 29.6276 144.632 28.3162 147.268 27.4693C149.904 26.6224 156.043 27.131 155.497 29.0329C154.951 30.9348 152.607 32.7148 148.244 32.7148C143.881 32.7148 143.201 31.0209 143.559 29.9134Z" fill="#650000"/>
</g>
<g opacity="0.25">
<path d="M187.74 28.9783C187.769 28.7997 189.419 26.5174 192.999 26.1748C196.58 25.8323 198.403 27.3538 199.104 28.3772C199.805 29.4007 200.303 32.2021 197.188 34.0136C194.074 35.8252 186.797 34.4465 187.74 28.9783Z" fill="#6C164E"/>
</g>
<g opacity="0.25">
<path d="M224.4 43.5946C224.4 43.5946 227.632 42.3337 230.664 45.7907C233.697 49.2478 228.475 50.9984 226.303 50.3385C224.131 49.6786 222.863 49.5084 222.278 48.4807C221.692 47.4531 221.594 47.6254 221.472 46.7469C221.35 45.8685 221.682 45.3053 221.715 45.135C221.749 44.9648 222.765 43.5715 224.4 43.5946Z" fill="#650000"/>
</g>
<g opacity="0.25">
<path d="M262.852 45.5827C262.852 45.5827 270.532 45.6478 272.548 47.1126C274.565 48.5774 275.736 50.4751 271.377 51.5763C267.018 52.6775 261.723 51.673 261.681 48.8065C261.639 45.9399 262.852 45.5827 262.852 45.5827Z" fill="#650000"/>
</g>
<g opacity="0.25">
<path d="M283.787 72.222C283.787 72.222 289.244 73.9663 289.37 75.9229C289.496 77.8794 287.968 79.3085 284.681 79.8192C281.395 80.3299 277.411 79.7372 275.946 77.6693C274.482 75.6014 275.134 75.3408 277.313 74.4119C279.491 73.483 280.763 73.0438 281.09 72.9954C281.418 72.9471 283.787 72.222 283.787 72.222Z" fill="#650000"/>
</g>
<g opacity="0.25">
<path d="M239.041 97.7854C239.041 97.7854 243.068 94.1329 246.751 99.1241C250.435 104.115 243.261 108.51 240.113 106.269C236.965 104.029 236.43 99.6138 239.041 97.7854Z" fill="#650000"/>
</g>
<g opacity="0.25">
<path d="M200.197 119.553C200.197 119.383 201.368 115.651 204.088 116.044C206.808 116.437 207.516 120.079 207.541 121.142C207.566 122.206 208.17 123.635 206.418 125.345C204.666 127.056 203.881 128.374 202.85 127.63C201.82 126.886 201.801 127.031 201.381 126.468C201.08 126.052 200.814 125.611 200.588 125.15C200.588 125.15 200.137 122.437 200.147 121.825C200.158 121.214 200.197 119.553 200.197 119.553Z" fill="#650000"/>
</g>
<g opacity="0.25">
<path d="M287.42 109.59C287.609 109.31 292.157 108.047 295.962 109.634C299.767 111.221 301.087 113.007 297.792 114.276C294.497 115.546 289.888 114.619 288.228 113.837C286.568 113.055 286.864 110.424 287.42 109.59Z" fill="#650000"/>
</g>
<g opacity="0.25">
<path d="M142.194 116.912C142.194 116.912 144.68 114.236 147.186 117.998C149.692 121.76 147.642 126.974 145.039 127.365C142.437 127.756 141.753 127.413 141.167 125.377C140.582 123.34 140.118 120.556 140.16 120.278C140.202 120.001 142.194 116.912 142.194 116.912Z" fill="#650000"/>
</g>
<g opacity="0.4">
<path d="M256.016 50.2635C256.782 47.7393 253.707 44.5688 249.149 43.182C244.591 41.7953 240.275 42.7174 239.509 45.2417C238.743 47.7659 241.818 50.9364 246.376 52.3231C250.934 53.7099 255.25 52.7878 256.016 50.2635Z" fill="white"/>
</g>
<g opacity="0.25">
<path d="M122.325 288.893C122.325 288.893 122.925 314.023 132.579 319.634C142.233 325.246 149.845 318.405 149.845 318.405C149.845 318.405 132.865 324.661 132.084 310.718C131.303 296.774 133.448 288.893 133.448 288.893H122.325Z" fill="#6C164E"/>
</g>
<g opacity="0.25">
<path d="M214.024 166.08C211.22 166.109 204.58 167.774 206.443 169.207C208.307 170.64 226.171 170.901 223.369 168.686C220.568 166.471 214.656 166.074 214.024 166.08Z" fill="#6C164E"/>
</g>
<g opacity="0.25">
<path d="M36.1265 223.875C36.1265 223.875 31.161 227.225 32.8211 231.722C34.4811 236.219 36.9198 243.449 36.7247 246.967C36.5295 250.485 33.9837 259.576 33.9837 259.576C33.9837 259.576 52.5426 270.99 62.6857 275.994C72.8288 280.997 80.3736 282.397 80.2519 281.271C80.1302 280.144 70.4929 272.183 71.3702 268.079C72.2474 263.975 94.6952 267.198 106.114 269.34C117.533 271.481 135.589 276.481 135.589 276.481L138.126 258.597L127.781 257.054C127.781 257.054 126.216 258.105 125.922 258.693C125.628 259.282 121.433 267.196 121.433 267.196C121.433 267.196 118.409 267.881 117.235 267.587C116.062 267.293 114.211 265.925 114.211 265.925L110.404 257.054C110.404 257.054 94.3594 254.785 94.1328 254.198C93.9061 253.612 71.3702 248.404 71.3702 248.404L49.8017 238.859L36.1265 223.875Z" fill="#650000"/>
</g>
<g opacity="0.25">
<path d="M154.809 269.737C155.596 269.605 187.314 268.476 202.149 269.737V257.054L154.809 257.767L154.089 269.746" fill="#6C164E"/>
</g>
<g opacity="0.25">
<path d="M222.177 263.397C222.177 263.397 237.674 261.926 253.484 259.282C269.293 256.638 280.217 248.404 280.217 248.404C280.217 248.404 254.949 252.248 246.749 252.933C238.549 253.618 221.376 254.883 221.376 254.883L222.177 263.397Z" fill="#6C164E"/>
</g>
<g opacity="0.4">
<path d="M121.731 230.06C120.625 230.9 118.283 236.867 122.707 236.526C127.131 236.186 130.839 231.037 128.302 230.19C125.765 229.343 121.731 230.06 121.731 230.06Z" fill="white"/>
</g>
<g opacity="0.4">
<path d="M182.824 231.251C183.418 232.437 185.817 236.467 189.591 235.608C193.364 234.748 194.277 230.841 191.933 230.32C189.588 229.799 180.482 226.58 182.824 231.251Z" fill="white"/>
</g>
<g opacity="0.4">
<path d="M180.646 308.994C179.439 307.506 247.238 309.993 288.618 292.243C288.618 292.243 292.132 301.996 264.999 309.223C237.867 316.451 188.434 318.609 180.646 308.994Z" fill="white"/>
</g>
<g opacity="0.25">
<path d="M313.887 128.14C333.602 107.228 328.068 98.4327 328.068 98.4327C298.724 132.442 231.317 128.14 133.985 111.773C36.6535 95.4064 71.3914 35.8861 71.3914 35.8861C71.3914 35.8861 27.0226 66.117 18.7683 86.4433C10.6358 106.473 21.4967 123.641 21.8136 124.139C33.3901 133.281 48.442 136.658 48.6771 136.711C48.7047 136.715 48.732 136.722 48.7589 136.729C49.0968 136.822 81.5659 145.625 128.531 150.253L131.54 150.541C132.571 150.638 133.595 150.734 134.638 150.827C175.897 154.462 235.049 155.179 293.466 140.319C302.025 137.08 309.23 133.081 313.887 128.14Z" fill="#650000"/>
</g>
<g opacity="0.4">
<path d="M65.0174 31.6073C65.0174 31.6073 135.209 2.8706 207.016 14.2316C206.615 20.1748 218.282 28.4613 234.119 33.236C248.342 37.5253 261.322 37.5947 265.954 33.8161C314.684 57.9084 330.645 83.3519 335.671 95.0681C333.854 81.3008 323.631 65.8964 305.171 49.1638C273.323 20.2988 225.707 4.71997 173.603 4.71997C154.37 4.75006 135.192 6.79266 116.383 10.8145C98.3046 14.6272 80.9153 21.1893 64.8202 30.2728C64.7357 30.4935 64.7095 30.7322 64.744 30.966C64.7786 31.1998 64.8728 31.4206 65.0174 31.6073Z" fill="white"/>
</g>
<g opacity="0.25">
<path d="M21.4797 245.731C21.2001 245.75 20.93 245.841 20.6948 245.994C20.9656 245.899 21.2258 245.813 21.4797 245.731Z" fill="#6C164E"/>
</g>
<g opacity="0.25">
<path d="M40.5341 275.972C41.6672 273.423 42.9801 270.957 44.4629 268.594C30.0426 260.608 22.7727 253.593 22.6132 253.435C22.4228 253.247 22.2857 253.012 22.2156 252.754C22.1456 252.495 22.1452 252.223 22.2144 251.964C22.2144 251.933 22.6342 250.359 23.0812 248.392C19.5134 249.48 15.1942 251.405 14.2015 253.574C14.1343 253.721 14.0836 253.874 14.0504 254.032C14.0504 254.051 14.0504 254.072 14.0358 254.093C13.9551 254.622 14.0628 255.162 14.3401 255.619C15.6518 258.071 23.2008 266.795 40.5341 275.972Z" fill="#6C164E"/>
</g>
<g opacity="0.25">
<path d="M324.273 294.3C324.273 294.3 320.89 302.379 289.399 319.634C257.908 336.89 195.188 343.294 124.919 337.821C54.6498 332.349 37.2116 303.421 37.2116 290.709C37.2116 286.312 38.1791 282.227 39.4258 278.753C22.8082 270.019 14.1678 261.255 11.8781 257.416C8.37326 263.264 1.6259 278.068 6.63133 299.434C14.9653 335.014 50.0201 353.734 116.954 358.347C200.647 364.116 258.453 358.711 293.691 341.814C298.428 339.571 302.998 336.99 307.366 334.091C328.557 315.461 324.273 294.3 324.273 294.3Z" fill="#650000"/>
</g>
<g opacity="0.25">
<path d="M124.268 166.731C145.933 174.551 176.774 163.409 209.176 162.627C241.578 161.845 265.002 149.791 265.002 149.791H264.932C236.083 154.916 207.763 156.726 182.212 156.726C163.863 156.726 146.953 155.797 132.262 154.502C82.5481 150.114 47.3716 140.71 45.9571 140.327C44.8805 140.094 34.7584 137.78 24.6741 131.921C22.2543 133.791 17.0767 138.243 14.3694 143.959C11.6243 149.755 12.0377 154.187 12.5225 156.07C16.1596 157.552 20.8481 157.232 25.438 156.911C31.3459 156.49 36.9242 156.104 40.1395 159.592C42.0913 161.711 43.8269 164.913 45.6654 168.307C49.8628 176.05 54.6017 184.834 63.1959 183.111C66.7805 182.394 70.3315 181.43 73.7692 180.48L74.7367 180.217C75.721 179.952 102.597 158.913 124.268 166.731Z" fill="#6C164E"/>
</g>
<g opacity="0.25">
<path d="M129.5 151.213L126.493 150.926L129.5 151.213Z" fill="#6C164E"/>
</g>
<g opacity="0.25">
<path d="M129.5 151.213L126.493 150.926L129.5 151.213Z" fill="#6C164E"/>
</g>
<g opacity="0.25">
<path d="M24.1997 182.697C23.78 188.863 27.545 193.673 33.327 197.366C40.6725 200.178 50.4776 202.18 62.9755 203.435C63.4078 200.543 63.8989 193.097 68.961 190.987C74.9486 188.493 90.435 185.79 97.7133 186.555C101.64 186.976 104.679 187.255 106.656 187.434C104.112 185.278 101.665 183.275 98.9809 181.913C92.3385 178.55 84.1032 180.797 74.5645 183.407C71.0786 184.361 67.473 185.347 63.7856 186.087C53.0171 188.247 47.4639 177.991 43.0083 169.755C42.5089 168.835 42.0198 167.931 41.5392 167.063C40.173 164.907 38.9746 163.001 38.7731 162.682L38.7354 162.629C38.4688 162.465 24.8419 173.305 24.1997 182.697Z" fill="#6C164E"/>
</g>
<g opacity="0.25">
<path d="M39.2621 217.078C46.7272 219.487 56.864 221.393 68.982 222.351C69.036 222.352 69.09 222.356 69.1436 222.364C80.932 223.286 94.5715 223.322 109.439 222.053C146.811 218.858 165.991 209.166 169.791 207.052V205.532C163.789 206.804 132.986 213.254 121.731 214.222C109.237 215.296 77.9099 216.568 71.4689 213.592C66.9798 211.543 66.2369 208.475 66.1991 206.793C47.4975 205.198 34.2987 202.071 25.694 197.179C27.8598 206.047 33.3815 213.027 39.2621 217.078Z" fill="#6C164E"/>
</g>
<g opacity="0.25">
<path d="M118.9 260.747C116.459 261.724 117.143 251.462 116.459 245.729C115.775 239.996 108.946 234.654 109.271 231.251C109.54 228.441 115.926 225.237 118.14 224.205C115.431 224.526 112.625 224.818 109.693 225.071C101.831 225.743 94.2862 226.05 87.1632 226.05C82.0151 226.05 77.0894 225.886 72.4135 225.588C74.871 227.967 79.6456 231.493 87.8327 233.695C90.0384 234.288 92.0301 234.782 93.8476 235.227C103.514 237.611 108.841 238.924 111.032 247.837C111.554 249.957 111.949 252.284 112.333 254.534C113.246 259.9 114.188 265.45 116.652 266.879C117.492 267.369 118.581 267.356 119.972 266.843C122.256 266.003 123.404 263.704 124.031 260.866C124.063 260.724 124.107 260.501 124.168 260.198C124.404 258.884 124.571 257.558 124.667 256.226C124.668 256.213 124.668 256.2 124.667 256.186C124.668 256.18 124.668 256.174 124.667 256.167C124.694 255.821 124.711 255.48 124.734 255.135C122.726 257.5 120.226 260.215 118.9 260.747Z" fill="#6C164E"/>
</g>
<g opacity="0.25">
<path d="M146.615 318.556C150.934 316.245 154.951 310.163 155.892 302.246C152.848 309.257 147.287 313.025 142.128 308.994C136.97 304.963 142.81 273.745 142.519 269.065C142.227 264.384 141.152 255.381 141.152 255.381L140.68 255.114C140.665 255.568 140.644 256.031 140.611 256.516C140.579 256.962 140.533 257.437 140.474 257.941C140.055 261.491 139.031 266.427 137.857 272.034C134.615 287.521 129.717 310.926 136.724 317.165C139.543 319.672 142.233 319.937 144.405 319.412C145.068 319.208 145.719 318.968 146.355 318.693C146.441 318.645 146.531 318.596 146.615 318.556Z" fill="#6C164E"/>
</g>
<g opacity="0.25">
<path d="M134.462 244.989C133.06 244.096 131.272 244.13 129.557 245.082C128.541 245.647 128.199 248.545 128.004 251.414L137.658 253.549C137.564 249.316 136.447 246.256 134.462 244.989Z" fill="#6C164E"/>
</g>
<g opacity="0.25">
<path d="M170.01 217.875C177.355 216.9 183.861 224.587 207.81 226.802C231.758 229.017 246.067 229.929 246.067 229.929C246.067 229.929 245.807 235.089 238.512 235.116C231.217 235.143 222.635 229.408 217.82 232.405C213.006 235.402 213.917 248.617 214.828 256.344C215.739 264.071 221.594 277.7 215.739 281.634C211.869 284.236 208.238 283.977 206.21 283.505C207.314 286.085 208.96 288.01 211.394 288.916C214.519 288.626 217.709 288.288 220.964 287.903C221.124 287.767 221.277 287.622 221.422 287.47C224.524 284.005 224.534 276.311 221.451 266.358C220.337 262.744 219.502 259.05 218.952 255.308C218.925 255.206 218.909 255.102 218.903 254.997C218.903 254.997 218.903 254.98 218.903 254.972C217.787 247.04 218.188 239.74 221.015 237.041C222.171 235.936 223.667 235.637 225.233 236.2C226.799 236.764 228.555 237.823 230.419 238.933C236.967 242.854 241.914 245.269 245.95 240.54C250.025 235.765 255.652 229.791 262.229 226.115C260.716 226.115 259.182 226.088 257.602 226.05C207.316 224.816 176.434 211.885 171.38 209.614C169.038 210.95 161.076 215.097 146.666 218.898H146.641C146.641 218.898 162.662 218.85 170.01 217.875Z" fill="#6C164E"/>
</g>
<g opacity="0.25">
<path d="M247.238 245.412C247.238 245.412 271.963 240.561 281.202 235.114C288.627 230.736 292.012 225.77 292.652 223.847C286.49 224.93 279.403 225.701 271.226 225.999C261.977 227.534 253.692 236.161 248.258 242.526C247.603 243.306 246.848 243.997 246.015 244.581C246.482 244.759 246.901 245.043 247.238 245.412Z" fill="#6C164E"/>
</g>
<g opacity="0.25">
<path d="M169.903 185.925C169.939 185.836 169.985 185.75 170.039 185.671C170.192 185.343 170.324 185.006 170.434 184.662C162.352 184.931 156.078 188.234 149.961 191.45C144.527 194.31 138.905 197.269 132.231 197.967C129.521 198.267 126.781 198.154 124.105 197.633C126.743 198.751 132.627 201.086 137.457 201.836C156.404 198.078 166.964 191.662 169.903 185.925Z" fill="#6C164E"/>
</g>
<g opacity="0.25">
<path d="M311.457 191.946C300.524 201.132 248.995 201.327 245.677 194.487C242.359 187.646 259.82 182.785 259.169 182.153C256.605 181.356 254.218 180.73 252.147 180.503C246.602 179.891 242.178 183.193 236.581 187.369C232.289 190.571 227.426 194.201 221.002 196.826C218.041 198.032 215.457 198.536 213.08 198.536C208.02 198.536 203.9 196.252 199.092 193.585C194.009 190.767 188.25 187.575 179.364 185.563C177.445 185.125 175.494 184.844 173.529 184.723C173.358 185.415 173.116 186.089 172.807 186.732V191.715C175.871 193.503 191.312 201.172 235.913 205.051C248.382 206.133 259.686 206.438 269.764 206.133C282.998 205.003 297.758 203.162 299.328 202.916C299.439 202.891 299.555 202.87 299.666 202.847C304.488 201.658 309.239 200.199 313.897 198.475C320.666 195.533 324.685 191.988 325.669 188.256C326.144 186.348 326.136 184.352 325.644 182.449C323.648 177.161 319.847 172.073 319.78 171.985C319.784 171.996 322.378 182.766 311.457 191.946Z" fill="#6C164E"/>
</g>
<g opacity="0.25">
<path d="M226.979 207.228C196.372 203.979 181.311 198.994 174.749 196.09C173.699 195.735 173.007 195.424 172.812 195.176V206.959C178.132 209.33 208.439 221.838 257.685 223.045C262.586 223.164 267.151 223.131 271.415 222.971C281.086 222.4 287.726 221.593 287.726 221.593C287.726 221.593 256.875 219.251 246.327 217.881C237.204 216.687 231.775 209.5 226.979 207.228Z" fill="#6C164E"/>
</g>
<g opacity="0.25">
<path d="M172.812 195.17C173.007 195.418 173.693 195.729 174.749 196.084C173.995 195.75 173.353 195.445 172.812 195.17Z" fill="#6C164E"/>
</g>
<g opacity="0.25">
<path d="M172.812 195.17C173.007 195.418 173.693 195.729 174.749 196.084C173.995 195.75 173.353 195.445 172.812 195.17Z" fill="#6C164E"/>
</g>
<g opacity="0.4">
<path d="M304.363 152.92C295.385 155.005 294.604 171.161 284.585 176.766C274.565 182.371 261.289 171.554 251.922 171.977C242.556 172.399 228.238 184.975 217.959 189.495C207.679 194.016 195.188 183.672 183.475 178.336C171.762 173 153.673 179.112 148.324 181.718C142.974 184.323 141.574 181.066 135.589 178.721C129.603 176.375 127.651 185.496 122.707 186.555C117.762 187.615 106.062 183.004 106.062 183.004C107.155 183.876 108.238 184.796 109.342 185.736C115.032 190.569 120.906 195.56 130.55 195.046C134.355 194.047 139.02 192.763 143.352 191.408C145.079 190.584 146.798 189.689 148.546 188.768C155.472 185.116 162.608 181.375 172.262 181.612C172.295 181.612 172.327 181.612 172.362 181.612H172.396C174.97 181.693 177.53 182.025 180.039 182.602C189.341 184.704 195.57 188.157 200.561 190.929L202.126 191.792C206.743 193.474 212.276 195.077 215.751 194.617C217.818 194.344 220.729 193.39 223.798 192.175C228.035 189.96 231.575 187.329 234.778 184.939C240.654 180.547 245.74 176.758 252.483 177.491C256.118 177.891 260.391 179.326 264.913 180.854C265.709 181.123 266.517 181.392 267.327 181.659C269.971 182.365 272.63 183.151 275.22 183.943C280.536 185.149 285.504 185.332 288.849 182.644C292.57 179.664 294.82 174.679 296.996 169.858C299.953 163.308 302.749 157.119 309.032 157.039C311.572 157.007 314.447 157.423 317.492 157.88C324.208 158.861 329.698 159.378 333.34 157.36C326.135 157.251 312.218 151.102 304.363 152.92Z" fill="white"/>
</g>
<g opacity="0.25">
<path d="M202.122 191.792C208.139 195.083 212.561 196.987 219.86 194.012C221.241 193.448 222.545 192.828 223.793 192.175C220.725 193.39 217.814 194.344 215.747 194.617C212.272 195.077 206.748 193.484 202.122 191.792Z" fill="#6C164E"/>
</g>
<g opacity="0.4">
<path d="M202.122 191.792C208.139 195.083 212.561 196.987 219.86 194.012C221.241 193.448 222.545 192.828 223.793 192.175C220.725 193.39 217.814 194.344 215.747 194.617C212.272 195.077 206.748 193.484 202.122 191.792Z" fill="white"/>
</g>
<g opacity="0.25">
<path d="M131.918 194.951C136.046 194.531 139.728 193.137 143.358 191.408C139.02 192.763 134.355 194.047 130.556 195.046C131.001 195.025 131.45 194.999 131.918 194.951Z" fill="#6C164E"/>
</g>
<g opacity="0.4">
<path d="M131.918 194.951C136.046 194.531 139.728 193.137 143.358 191.408C139.02 192.763 134.355 194.047 130.556 195.046C131.001 195.025 131.45 194.999 131.918 194.951Z" fill="white"/>
</g>
<g opacity="0.4">
<path d="M149.837 241.786C149.57 242.324 145.868 258.076 146.649 266.936C147.43 275.796 149.772 288.567 148.601 293.258C147.43 297.948 146.259 304.119 149.837 303.9C151.743 303.784 154.282 303.249 155.957 301.622C156.188 299.258 156.143 296.875 155.822 294.521C155.527 292.365 155.227 290.212 154.922 288.063C153.4 277.256 151.942 266.858 151.795 257.781V257.758C151.724 253.236 151.971 249.035 152.712 245.29C153.255 242.57 154.259 239.963 155.682 237.583C154.078 237.833 151.373 238.714 149.837 241.786Z" fill="white"/>
</g>
<g opacity="0.4">
<path d="M213.014 273.972C217.048 271.496 212.542 252.811 209.892 251.786C207.461 250.846 204.645 261.573 204.089 268.586C204.101 270.197 204.145 271.786 204.24 273.329C205.482 278.009 208.983 276.447 213.014 273.972Z" fill="white"/>
</g>
<path d="M182.203 158.527C163.798 158.527 146.829 157.594 132.111 156.295C82.7055 151.943 47.5689 142.624 45.5394 142.078C42.8825 141.492 4.40472 132.495 1.90935 103.048C0.618642 87.7505 11.8803 66.9661 31.2913 48.8023C53.4411 28.0893 83.3015 12.9266 115.385 6.10699C150.895 -1.44181 187.406 -2.00293 220.977 4.48249C255.956 11.239 286.188 25.454 308.403 45.5911C331.266 66.3146 341.833 84.7138 340.712 101.839C339.81 115.586 331.478 127.735 315.219 138.978C314.956 139.16 314.668 139.301 314.363 139.398C269.218 154.101 222.31 158.525 182.203 158.527ZM173.626 6.51469C154.508 6.54809 135.446 8.58153 116.751 12.5819C85.8326 19.1493 57.0844 33.732 35.8077 53.6338C17.8344 70.4463 7.3681 89.1691 8.49091 102.491C10.6043 127.516 46.6518 135.55 47.0148 135.63C47.0736 135.643 47.1345 135.658 47.1932 135.674C47.5437 135.771 82.737 145.312 132.835 149.721C178.862 153.771 247.238 154.193 311.855 133.262C326.08 123.324 333.363 112.9 334.116 101.406C335.084 86.6346 324.941 69.5048 303.964 50.494C272.45 21.9233 225.283 6.51469 173.626 6.51469Z" fill="#650000"/>
<path d="M213.075 200.325C207.564 200.325 203.121 197.862 198.225 195.146C193.247 192.387 187.605 189.262 178.973 187.306C166.881 184.574 159.067 188.678 150.794 193.034C145.209 195.977 139.434 199.015 132.418 199.747C119.911 201.046 112.637 194.867 106.226 189.411C103.497 187.1 100.929 184.903 98.1814 183.51C92.156 180.454 84.2271 182.623 75.0473 185.135C71.5299 186.097 67.8949 187.091 64.1466 187.844C52.0854 190.256 45.9319 178.901 41.4386 170.611C39.7596 167.492 38.152 164.544 36.6116 162.869C34.9641 161.082 30.2986 161.41 25.7843 161.725C18.1807 162.259 8.73019 162.921 3.79822 154.631C-4.50847 140.659 16.3905 124.471 17.2824 123.79C17.625 123.506 18.0213 123.294 18.4477 123.167C18.8741 123.04 19.3217 123 19.7637 123.051C20.2057 123.101 20.6329 123.24 21.0199 123.46C21.4068 123.68 21.7454 123.976 22.0154 124.33C22.2853 124.684 22.4811 125.089 22.591 125.521C22.7008 125.952 22.7225 126.402 22.6546 126.842C22.5868 127.282 22.4308 127.704 22.1962 128.082C21.9615 128.461 21.6529 128.788 21.2889 129.044C21.1168 129.174 4.24944 142.456 9.47523 151.243C12.1259 155.702 17.4692 155.673 25.3247 155.124C31.3921 154.704 37.6672 154.259 41.4659 158.38C43.5646 160.66 45.3569 163.959 47.2478 167.454C52.121 176.449 56.0981 182.712 62.8559 181.356C66.3797 180.65 69.9013 179.675 73.3096 178.752C83.3708 175.999 92.8717 173.4 101.17 177.609C104.614 179.355 107.609 181.905 110.505 184.368C116.434 189.411 122.016 194.178 131.738 193.167C137.49 192.568 142.46 189.949 147.724 187.179C156.274 182.678 165.961 177.575 180.434 180.852C189.985 183.014 196.33 186.526 201.421 189.359C208.28 193.16 212.055 195.254 219.185 192.349C225.038 189.964 229.64 186.53 233.701 183.5C239.634 179.074 245.244 174.883 252.672 175.707C256.498 176.127 260.857 177.598 265.474 179.145C273.682 181.902 282.983 185.03 287.72 181.234C291.105 178.521 293.267 173.736 295.355 169.11C298.413 162.337 301.576 155.332 308.997 155.24C311.675 155.198 314.621 155.633 317.74 156.081C327.459 157.499 333.506 157.915 335.579 151.749C338.408 143.343 328.036 131.812 323.801 128.079C323.143 127.501 322.741 126.684 322.684 125.809C322.628 124.934 322.92 124.072 323.498 123.413C324.076 122.754 324.891 122.352 325.765 122.295C326.639 122.238 327.5 122.531 328.158 123.109C328.916 123.775 346.65 139.558 341.84 153.861C337.852 165.704 325.68 163.926 316.785 162.625C313.937 162.205 311.259 161.822 309.085 161.847C306.08 161.887 304.166 165.649 301.37 171.836C299.074 176.926 296.468 182.695 291.844 186.4C284.289 192.448 273.178 188.712 263.371 185.418C259.098 183.983 255.064 182.627 251.946 182.285C247.093 181.76 243.131 184.71 237.643 188.8C233.265 192.066 228.304 195.769 221.667 198.467C218.471 199.785 215.657 200.325 213.075 200.325Z" fill="#650000"/>
<path d="M100.36 209.866H99.2706C46.7462 209.656 21.0538 202.914 13.3641 187.303C11.6138 183.75 11.4396 180.055 12.8415 176.321C17.0809 165.035 34.6681 157.457 36.6598 156.629C37.4644 156.315 38.3598 156.33 39.154 156.669C39.9483 157.008 40.5783 157.645 40.9092 158.444C41.2401 159.243 41.2455 160.139 40.9243 160.942C40.6032 161.745 39.9809 162.389 39.1908 162.738C34.5107 164.689 21.7589 171.355 19.0201 178.653C18.2688 180.66 18.3527 182.48 19.2887 184.378C25.6247 197.242 50.2993 203.061 99.2958 203.252H100.362C150.75 203.252 168.585 189.327 168.973 182.92C168.999 182.486 169.11 182.062 169.3 181.672C169.49 181.281 169.755 180.932 170.079 180.644C170.404 180.356 170.782 180.135 171.192 179.994C171.602 179.852 172.035 179.793 172.468 179.819C172.901 179.845 173.325 179.956 173.714 180.146C174.104 180.336 174.453 180.602 174.741 180.927C175.028 181.252 175.249 181.63 175.39 182.041C175.532 182.451 175.591 182.885 175.565 183.319C174.793 196.151 150.916 209.864 100.36 209.866Z" fill="#650000"/>
<path d="M86.7624 227.864C55.6805 227.864 32.8066 222.091 24.6594 215.132C14.9361 206.827 12.2288 184.45 12.1196 183.504C12.0384 182.643 12.297 181.785 12.8401 181.112C13.3832 180.44 14.1676 180.007 15.0253 179.907C15.8829 179.807 16.7457 180.047 17.4289 180.576C18.112 181.105 18.5612 181.88 18.6802 182.737C19.3539 188.485 22.5125 204.603 28.945 210.099C36.4731 216.53 66.3755 223.932 109.284 220.266C143.854 217.312 162.719 208.727 167.997 205.976V186.503C168.019 185.64 168.376 184.82 168.993 184.218C169.61 183.615 170.438 183.278 171.299 183.278C172.161 183.278 172.989 183.615 173.606 184.218C174.223 184.82 174.58 185.64 174.602 186.503V207.924C174.602 208.484 174.46 209.035 174.19 209.525C173.919 210.015 173.529 210.428 173.055 210.725C172.251 211.232 152.83 223.181 109.844 226.857C101.758 227.546 94.0323 227.864 86.7624 227.864Z" fill="#650000"/>
<path d="M262.8 211.091C254.258 211.091 245.125 210.688 235.502 209.853C183.37 205.322 169.869 195.607 169.321 195.197C168.617 194.675 168.149 193.895 168.019 193.028C167.889 192.161 168.109 191.278 168.63 190.572C169.151 189.867 169.93 189.398 170.796 189.268C171.662 189.139 172.544 189.359 173.248 189.88C173.529 190.073 186.814 198.99 236.071 203.265C287.346 207.712 321.016 198.891 323.942 187.795C326.441 178.326 312.233 166.269 306.55 162.423C305.824 161.932 305.322 161.173 305.156 160.312C304.989 159.451 305.171 158.559 305.661 157.832C306.151 157.105 306.909 156.603 307.769 156.436C308.629 156.27 309.52 156.451 310.245 156.942C311.24 157.615 334.523 173.584 330.328 189.485C326.739 203.13 300.682 211.091 262.8 211.091Z" fill="#650000"/>
<path d="M263.318 227.931C261.43 227.931 259.514 227.908 257.566 227.859C202.307 226.504 171.147 211.532 169.84 210.896C169.44 210.711 169.081 210.448 168.784 210.123C168.487 209.798 168.258 209.416 168.11 209.001C167.963 208.585 167.9 208.145 167.924 207.705C167.949 207.264 168.062 206.834 168.255 206.438C168.449 206.042 168.719 205.689 169.051 205.399C169.383 205.109 169.769 204.888 170.187 204.75C170.605 204.612 171.046 204.559 171.485 204.594C171.924 204.629 172.351 204.752 172.742 204.954C173.191 205.165 204.158 219.934 257.721 221.248C289.636 222.028 314.049 216.009 324.699 204.725C325.071 202.3 324.767 193.818 324.236 186.805C324.192 185.944 324.486 185.099 325.056 184.451C325.626 183.804 326.426 183.405 327.285 183.339C328.144 183.274 328.995 183.548 329.656 184.102C330.316 184.656 330.735 185.447 330.821 186.305C332.368 206.722 330.889 208.014 329.699 209.05C329.699 209.05 329.619 209.143 329.516 209.261C318.107 221.363 294.719 227.931 263.318 227.931ZM325.363 204.061L325.306 204.112L325.363 204.061Z" fill="#650000"/>
<path d="M142.582 324.46C139.4 324.46 136.286 323.213 133.524 320.763C124.43 312.668 129.263 289.586 133.144 271.038C134.449 264.805 135.574 259.423 135.809 256.161C136.325 248.896 134.172 246.931 133.501 246.494C132.422 245.807 131.192 246.25 130.585 246.557C130.01 247.522 129.811 251.029 129.677 253.372C129.307 259.847 128.802 268.714 121.632 271.353C118.856 272.375 116.369 272.267 114.239 271.034C109.821 268.474 108.736 262.085 107.586 255.325C107.218 253.16 106.836 250.911 106.358 248.974C104.912 243.106 102.736 242.379 92.6974 239.903C90.8568 239.449 88.8274 238.947 86.586 238.346C71.4018 234.263 66.325 225.89 66.1151 225.527C65.714 224.777 65.6167 223.901 65.8437 223.081C66.0706 222.261 66.6042 221.561 67.3336 221.124C68.0631 220.688 68.9322 220.55 69.7606 220.739C70.5889 220.928 71.3128 221.429 71.7816 222.139C71.8845 222.299 76.0189 228.654 88.2922 231.949C90.4833 232.539 92.4707 233.029 94.2714 233.473C104.274 235.94 110.312 237.428 112.763 247.383C113.3 249.566 113.701 251.924 114.092 254.207C114.814 258.464 115.806 264.294 117.542 265.303C117.978 265.557 118.763 265.351 119.347 265.137C122.447 263.996 122.782 258.147 123.076 252.988C123.387 247.538 123.655 242.831 127.213 240.853C130.472 239.04 134.139 239.061 137.043 240.908C139.866 242.711 143.083 246.897 142.389 256.619C142.124 260.326 140.955 265.912 139.604 272.381C136.638 286.55 131.675 310.259 137.906 315.808C140.399 318.027 143.043 318.416 145.767 316.961C150.947 314.196 155.457 305.132 154.043 294.752C153.749 292.596 153.445 290.442 153.142 288.296C150.834 271.942 148.664 256.495 150.951 244.928C152.989 234.631 160.782 227.485 167.137 226.533C171.07 225.949 174.52 227.66 176.371 231.11C177.229 232.718 177.987 234.263 178.719 235.761C179.979 238.355 181.89 242.24 182.959 242.818C183.53 242.625 184.382 242.234 185.286 241.822C189.675 239.817 196.309 236.778 201.312 239.851C204.229 241.639 205.82 245.048 206.038 249.985C206.185 253.278 206.095 256.863 205.998 260.658C205.637 275.033 205.931 286.14 213.134 287.539C216.431 288.17 218.777 287.75 220.108 286.262C222.702 283.364 222.568 275.937 219.76 266.877C216.064 254.946 214.891 240.418 219.799 235.732C221.451 234.156 223.661 233.71 225.865 234.513C227.588 235.143 229.42 236.238 231.359 237.4C238.327 241.576 241.71 242.776 244.608 239.382C250.55 232.422 259.702 222.967 270.544 221.212C271.398 221.097 272.263 221.32 272.955 221.834C273.646 222.349 274.11 223.113 274.247 223.965C274.384 224.816 274.183 225.688 273.687 226.394C273.192 227.099 272.44 227.583 271.594 227.742C262.897 229.148 254.89 237.512 249.624 243.68C242.633 251.876 233.45 246.364 227.963 243.075C226.524 242.213 225.158 241.393 224.081 240.923C222.903 243.264 222.28 252.704 226.064 264.918C229.716 276.7 229.347 285.848 225.015 290.675C222.958 292.974 219.008 295.422 211.862 294.037C198.611 291.461 199.043 274.283 199.39 260.497C199.482 256.821 199.57 253.351 199.434 250.283C199.32 247.761 198.762 246.053 197.857 245.498C195.845 244.268 190.562 246.685 188.021 247.845C186.875 248.368 185.884 248.822 185.039 249.106C178.889 251.157 175.785 244.815 172.782 238.68C172.075 237.236 171.344 235.738 170.541 234.238C170.092 233.397 169.491 232.874 168.112 233.082C164.71 233.59 158.949 238.56 157.434 246.221C155.365 256.689 157.464 271.597 159.686 287.382C159.991 289.537 160.293 291.698 160.591 293.865C162.27 306.117 157.338 318.289 148.88 322.806C146.949 323.87 144.785 324.438 142.582 324.46Z" fill="#650000"/>
<path d="M111.116 259.65C110.975 259.65 110.835 259.641 110.696 259.624C33.4299 249.957 30.7582 218.24 30.6806 216.895C30.631 216.02 30.931 215.16 31.5145 214.505C32.098 213.851 32.9172 213.455 33.7919 213.406C34.6666 213.356 35.5252 213.657 36.1788 214.241C36.8323 214.825 37.2273 215.646 37.2768 216.521C37.2978 216.748 40.4858 244.174 111.517 253.061C112.348 253.169 113.107 253.588 113.64 254.235C114.174 254.882 114.442 255.708 114.39 256.545C114.339 257.382 113.972 258.169 113.363 258.745C112.754 259.322 111.949 259.645 111.112 259.65H111.116Z" fill="#650000"/>
<path d="M202.758 261.075H153.308C152.868 261.086 152.429 261.008 152.019 260.847C151.608 260.686 151.234 260.444 150.919 260.136C150.603 259.828 150.352 259.46 150.181 259.053C150.01 258.646 149.922 258.209 149.922 257.768C149.922 257.326 150.01 256.889 150.181 256.483C150.352 256.076 150.603 255.708 150.919 255.399C151.234 255.091 151.608 254.849 152.019 254.688C152.429 254.527 152.868 254.45 153.308 254.461H202.758C203.199 254.45 203.637 254.527 204.048 254.688C204.458 254.849 204.832 255.091 205.148 255.399C205.463 255.708 205.714 256.076 205.885 256.483C206.056 256.889 206.145 257.326 206.145 257.768C206.145 258.209 206.056 258.646 205.885 259.053C205.714 259.46 205.463 259.828 205.148 260.136C204.832 260.444 204.458 260.686 204.048 260.847C203.637 261.008 203.199 261.086 202.758 261.075Z" fill="#650000"/>
<path d="M138.976 261.075C138.853 261.075 138.729 261.068 138.607 261.053L125.805 259.631C124.949 259.516 124.172 259.07 123.641 258.39C123.109 257.709 122.865 256.846 122.96 255.987C123.055 255.128 123.482 254.341 124.15 253.793C124.818 253.246 125.673 252.981 126.533 253.057L139.335 254.48C140.172 254.575 140.942 254.987 141.486 255.631C142.03 256.276 142.308 257.104 142.262 257.947C142.216 258.789 141.85 259.583 141.239 260.164C140.628 260.746 139.819 261.071 138.976 261.075Z" fill="#650000"/>
<path d="M220.421 258.235C219.56 258.231 218.735 257.892 218.121 257.288C217.507 256.684 217.153 255.865 217.133 255.003C217.113 254.142 217.43 253.307 218.016 252.676C218.602 252.044 219.41 251.667 220.27 251.624C220.568 251.611 250.357 250.191 270.429 246.246C290.656 242.27 312.084 223.257 312.103 215.294C312.105 214.418 312.454 213.58 313.074 212.961C313.693 212.343 314.532 211.996 315.406 211.997C316.282 211.999 317.121 212.349 317.739 212.971C318.357 213.592 318.703 214.434 318.701 215.311C318.672 228.225 293.191 248.516 271.69 252.738C251.137 256.777 221.808 258.172 220.57 258.231L220.421 258.235Z" fill="#650000"/>
<path d="M132.911 293.27H132.802C58.627 290.856 22.8461 256.18 21.356 254.709C20.943 254.3 20.6451 253.789 20.4926 253.228C20.34 252.666 20.3381 252.075 20.4871 251.512C20.9363 249.816 22.1451 244.861 22.3382 242.335C22.5103 240.095 20.6592 235.61 18.7158 230.871L17.8889 228.853C14.4408 220.392 24.8714 211.938 26.0739 210.99C26.415 210.712 26.808 210.506 27.2299 210.382C27.6518 210.259 28.0941 210.221 28.5308 210.27C28.9676 210.32 29.39 210.457 29.7734 210.672C30.1568 210.887 30.4934 211.177 30.7635 211.524C31.0336 211.872 31.2318 212.269 31.3464 212.694C31.4611 213.119 31.4899 213.563 31.4311 213.999C31.3724 214.435 31.2273 214.855 31.0044 215.235C30.7814 215.614 30.4851 215.945 30.1328 216.208C27.7025 218.119 22.7768 223.324 24.0067 226.342L24.8252 228.343C27.2807 234.307 29.2199 239.021 28.9261 242.831C28.7393 245.273 27.9145 248.972 27.3688 251.237C34.4813 257.393 69.4081 284.591 133.018 286.659C133.893 286.673 134.728 287.034 135.337 287.664C135.946 288.294 136.281 289.14 136.267 290.017C136.253 290.894 135.892 291.729 135.263 292.339C134.634 292.949 133.789 293.284 132.913 293.27H132.911Z" fill="#650000"/>
<path d="M172.551 295.525C162.897 295.525 156.97 295.181 156.777 295.168C155.916 295.096 155.117 294.688 154.552 294.032C153.988 293.377 153.702 292.526 153.757 291.662C153.812 290.798 154.203 289.99 154.846 289.411C155.489 288.833 156.333 288.53 157.197 288.567C157.816 288.603 219.894 292.205 272.53 275.399C320.785 259.992 318.724 251.798 317.494 246.902C317.4 246.528 317.308 246.16 317.226 245.798C316.628 243.176 316.747 239.847 316.875 236.325C317.11 229.894 317.375 222.608 313.396 219.535C313.042 219.274 312.743 218.945 312.518 218.566C312.293 218.188 312.145 217.769 312.084 217.332C312.023 216.896 312.049 216.452 312.161 216.027C312.274 215.601 312.47 215.202 312.738 214.853C313.007 214.504 313.342 214.212 313.725 213.995C314.107 213.778 314.529 213.639 314.966 213.587C315.403 213.535 315.845 213.571 316.268 213.693C316.691 213.815 317.085 214.02 317.427 214.296C324.099 219.447 323.755 228.938 323.476 236.572C323.365 239.649 323.266 242.558 323.665 244.334C323.736 244.649 323.818 244.964 323.9 245.296C326.527 255.756 324.628 265.715 274.536 281.71C236.973 293.691 194.827 295.525 172.551 295.525Z" fill="#650000"/>
<path d="M131.782 303.089H131.599C87.3164 300.67 58.0541 290.177 41.3064 281.8C22.8377 272.566 12.5289 262.453 10.0965 257.91C8.97995 255.808 8.88761 253.629 9.82783 251.575C12.382 246 22.3781 243.518 24.3551 243.077C25.2031 242.904 26.0849 243.071 26.8109 243.543C27.537 244.015 28.0492 244.753 28.2376 245.598C28.4259 246.444 28.2753 247.33 27.8181 248.066C27.3609 248.802 26.6337 249.328 25.7927 249.533C21.6981 250.453 16.5983 252.651 15.8301 254.335C15.7903 254.423 15.7609 254.488 15.9204 254.787C16.9886 256.783 24.926 266.213 44.253 275.884C60.4424 283.981 88.7981 294.128 131.952 296.479C132.807 296.532 133.608 296.915 134.186 297.547C134.764 298.18 135.075 299.012 135.052 299.869C135.029 300.727 134.674 301.541 134.063 302.142C133.452 302.743 132.632 303.082 131.775 303.089H131.782Z" fill="#650000"/>
<path d="M186.359 304.472C168.381 304.472 157.396 303.091 157.159 303.062C156.304 302.933 155.533 302.474 155.012 301.782C154.491 301.09 154.261 300.222 154.373 299.363C154.485 298.503 154.929 297.723 155.61 297.188C156.291 296.653 157.154 296.407 158.013 296.503C158.517 296.568 209.012 302.881 271.447 287.779C311.077 278.192 326.055 265.181 326.853 256.203C327.39 250.199 321.396 246.868 318.781 245.714C318.376 245.544 318.01 245.295 317.702 244.981C317.395 244.667 317.153 244.295 316.991 243.887C316.829 243.479 316.75 243.042 316.758 242.603C316.766 242.163 316.862 241.73 317.039 241.328C317.217 240.926 317.472 240.563 317.791 240.261C318.11 239.959 318.486 239.724 318.896 239.569C319.307 239.414 319.744 239.343 320.183 239.359C320.621 239.375 321.052 239.479 321.451 239.664C329.591 243.266 334.068 249.669 333.43 256.794C332.104 271.599 310.073 285.236 272.987 294.201C238.522 302.547 207.575 304.472 186.359 304.472Z" fill="#650000"/>
<path d="M176.297 365.39C158.054 365.39 138.163 364.646 116.625 363.158C78.9277 360.558 51.2625 353.465 32.0467 341.474C15.8866 331.386 6.0353 317.995 1.94492 300.538C-5.15922 270.212 9.43731 252.282 10.0627 251.531C10.6307 250.885 11.4283 250.485 12.2857 250.419C13.1432 250.352 13.9928 250.623 14.6538 251.174C15.3148 251.725 15.735 252.512 15.8249 253.369C15.9148 254.225 15.6674 255.083 15.1353 255.76C14.598 256.413 2.05825 272.061 8.37326 299.022C12.046 314.692 20.9298 326.74 35.5369 335.856C53.5606 347.104 80.9949 354.069 117.076 356.555C199.295 362.229 258.453 356.721 292.918 340.194C327.193 323.758 330.326 305.207 330.601 287.615C330.851 271.536 326.88 254.583 326.838 254.41C326.738 253.988 326.722 253.55 326.791 253.121C326.86 252.692 327.012 252.281 327.24 251.911C327.467 251.541 327.766 251.22 328.117 250.965C328.469 250.711 328.867 250.528 329.289 250.428C329.711 250.328 330.149 250.312 330.577 250.381C331.005 250.45 331.416 250.603 331.785 250.831C332.155 251.058 332.475 251.357 332.73 251.709C332.984 252.061 333.166 252.46 333.266 252.883C333.436 253.608 337.464 270.819 337.203 287.716C336.912 306.519 333.445 328.091 295.771 346.156C268.949 359.024 229.569 365.39 176.297 365.39Z" fill="#650000"/>
<path d="M58.2935 109.025C61.5675 109.577 60.644 113.461 58.6607 114.951C55.0698 118.452 42.5846 119.169 44.8093 111.685C45.2304 110.648 45.9052 109.733 46.7715 109.025C46.5428 110.075 46.3518 111.086 46.3875 112C46.4022 114.493 48.7254 114.207 50.5723 114.23C52.7906 114.119 55.2713 113.793 57.1434 112.847C58.7342 112.061 59.9284 110.634 58.2872 109.025H58.2935Z" fill="#650000"/>
<path d="M59.1746 72.4427C57.8734 77.7555 59.7245 77.9173 64.3794 77.5516C66.8706 77.3793 73.7523 75.904 70.6903 72.4427C73.9684 72.9912 73.045 76.8833 71.0617 78.3733C67.8843 81.0192 62.1023 81.8598 58.587 79.7646C55.7495 77.9677 56.9353 74.1366 59.1746 72.4427Z" fill="#650000"/>
<path d="M70.6253 44.5529C69.3262 49.8657 71.1752 50.017 75.8301 49.6618C78.3213 49.4895 85.203 48.0142 82.143 44.5529C85.4191 45.1035 84.4978 48.9935 82.5124 50.4835C79.335 53.1315 73.553 53.97 70.0377 51.8769C67.2002 50.0779 68.386 46.2489 70.6253 44.5529Z" fill="#650000"/>
<path d="M144.151 26.8368C143.492 31.1576 143.746 32.511 148.748 31.9499C151.283 31.7565 157.012 30.1887 154.498 26.8368C157.407 27.3579 156.807 31.1029 155.094 32.6118C152.336 35.5162 144.976 36.7477 142.472 33.0637C141.19 30.9621 142.472 28.2553 144.151 26.8368Z" fill="#650000"/>
<path d="M288.612 107.999C287.004 112.061 286.95 113.442 291.949 114.012C294.467 114.394 300.396 114.15 298.696 110.319C301.414 111.483 300 114.997 297.985 116.084C294.644 118.288 287.202 117.843 285.602 113.692C284.822 111.368 286.683 109.008 288.622 107.999H288.612Z" fill="#650000"/>
<path d="M263.457 44.5529C261.849 48.6173 261.792 49.996 266.794 50.5676C269.312 50.9501 275.243 50.7063 273.541 46.8751C276.269 48.0373 274.844 51.5532 272.83 52.6397C269.488 54.8443 262.046 54.3987 260.447 50.2481C259.664 47.9238 261.526 45.5638 263.465 44.5529H263.457Z" fill="#650000"/>
<path d="M98.6806 101.549C99.4991 106.957 101.268 106.4 105.436 104.281C107.672 103.174 113.474 99.183 109.327 97.1529C112.568 96.4089 113.195 100.36 111.926 102.493C109.995 106.152 104.968 109.134 100.922 108.539C97.6124 107.959 97.2535 103.964 98.6806 101.545V101.549Z" fill="#650000"/>
<path d="M127.164 48.4324C126.793 53.2786 120.281 55.4411 116.329 52.8457C112.717 50.7315 112.78 45.9274 116.027 43.561C120.211 40.1775 127.25 42.9179 127.164 48.424V48.4324ZM126.835 48.4324C126.665 43.933 116.698 44.5992 116.22 48.4324C116.331 53.4657 126.795 53.8292 126.835 48.4324Z" fill="#650000"/>
<path d="M199.767 30.2623C199.396 35.1106 192.884 37.271 188.932 34.6756C185.328 32.5741 185.391 27.7636 188.644 25.3951C192.829 22.0116 199.868 24.7647 199.782 30.2581L199.767 30.2623ZM199.438 30.2623C199.268 25.7629 189.301 26.4291 188.823 30.2623C188.934 35.3061 199.398 35.6591 199.438 30.2623Z" fill="#650000"/>
<path d="M158.786 77.7681C158.551 79.773 156.467 80.6493 154.872 81.4017C150.911 83.375 139.723 83.5705 138.965 77.7681C139.305 73.2287 145.824 71.8837 149.459 72.0581C152.5 72.1716 158.446 74.269 158.79 77.7681H158.786ZM158.456 77.7681C157.852 73.7751 147.469 75.4816 144.634 76.028C143.207 76.3621 140.25 77.4276 142.399 78.9513C145.155 81.3638 157.745 82.6374 158.456 77.7681Z" fill="#650000"/>
<path d="M289.565 76.2865C288.589 82.4377 273.546 83.0997 272.926 76.2865C273.182 71.9846 278.289 70.4021 281.823 70.5744C284.91 70.7741 289.29 72.8315 289.565 76.2865ZM289.233 76.2865C288.566 73.1131 284.196 73.8256 281.823 73.8823C279.89 74.0735 277.835 74.2774 276.263 75.3324C275.924 75.5558 275.677 75.8948 275.569 76.2865C276.121 80.3005 289.116 81.078 289.233 76.2865Z" fill="#650000"/>
<path d="M197.444 72.5667C200.496 73.1804 204.11 73.2308 206.456 75.5972C208.71 78.4784 204.469 80.5043 202.11 80.8216C197.788 81.6833 186.134 81.3323 186.195 75.1243C187.444 70.3244 194.004 72.2221 197.444 72.5667ZM197.408 72.8946C194.857 72.7285 192.319 73.3767 190.16 74.746C189.914 74.9041 189.696 75.1031 189.517 75.3345C189.393 75.5089 189.438 75.5762 189.48 75.4732C192.539 78.056 197.618 79.071 201.782 78.697C206.561 78.1422 206.462 76.3642 202.443 74.2312C200.867 73.4611 199.156 73.007 197.406 72.8946H197.408Z" fill="#650000"/>
<path d="M226.188 43.292C227.974 43.6492 229.978 44.0527 231.252 45.5554C232.931 47.4888 231.414 50.2671 229.326 51.1266C225.531 52.9381 218.412 51.5595 218.788 46.2594C219.393 42.7098 223.588 42.754 226.188 43.292ZM226.152 43.6219C224.383 43.5063 222.039 44.7652 222.073 46.6103C222.478 48.0541 224.043 48.9221 225.556 49.2394C227.196 49.5462 229.815 49.2394 230.335 47.4888C230.755 45.507 228.132 43.5904 226.152 43.6219Z" fill="#650000"/>
<path d="M242.711 96.3606C247.958 97.094 250.325 103.191 246.201 106.952C241.874 110.924 234.111 107.163 235.118 101.15C235.603 97.529 239.597 95.7595 242.711 96.3606ZM242.675 96.6905C237.523 96.4803 236.849 105.032 241.691 105.95C247.633 106.841 248.795 97.2936 242.675 96.6905Z" fill="#650000"/>
<path d="M144.481 115.865C151.039 117.471 150.049 129.735 143.012 129.735C139.19 129.406 137.249 124.946 137.889 121.596C138.334 118.534 141.341 115.476 144.483 115.869L144.481 115.865ZM144.447 116.195C141.57 116.195 141.192 119.818 141.171 121.943C141.171 123.752 141.415 126.547 143.289 127.1C147.73 127.367 149.396 116.769 144.447 116.195Z" fill="#650000"/>
<path d="M203.998 115.865C210.557 117.471 209.564 129.735 202.529 129.735C198.709 129.408 196.766 124.946 197.408 121.596C197.853 118.534 200.859 115.476 204.002 115.869L203.998 115.865ZM203.963 116.195C201.085 116.195 200.707 119.818 200.686 121.943C200.686 123.752 200.932 126.547 202.804 127.1C207.245 127.367 208.911 116.769 203.963 116.195Z" fill="#650000"/>
</svg>
