<svg xmlns="http://www.w3.org/2000/svg" viewBox="0 0 37.82 33.87"><defs><style>.cls-1{font-size:6.86px;font-family:Montserrat-Regular, Montserrat;}.cls-1,.cls-5{fill:#f6df19;}.cls-2{letter-spacing:-0.01em;}.cls-3{letter-spacing:0em;}.cls-4{letter-spacing:-0.01em;}.cls-6{fill:#353535;}</style></defs><g id="Camada_2" data-name="Camada 2"><g id="Camada_1-2" data-name="Camada 1"><text class="cls-1" transform="translate(0 32.08)"><tspan class="cls-2">F</tspan><tspan class="cls-3" x="4.28" y="0">O</tspan><tspan class="cls-4" x="10.03" y="0">O</tspan><tspan x="15.72" y="0">TBALL</tspan></text><circle class="cls-5" cx="18.91" cy="11.31" r="11.31"/><path class="cls-6" d="M24.25,6a7.56,7.56,0,1,0,0,10.67A7.54,7.54,0,0,0,24.25,6Zm-5.2-.7h0Zm4.57,9.81H21.93L21,17a6,6,0,0,1-4.14,0l-.95-1.89H14.21A6.05,6.05,0,0,1,13,12.42l1.4-1.87-.91-1.83A6,6,0,0,1,14.64,7a6.18,6.18,0,0,1,2.43-1.49l1.84,1.23,1.84-1.23A6.11,6.11,0,0,1,23.18,7a6.32,6.32,0,0,1,1.18,1.67l-.92,1.84,1.4,1.87A6,6,0,0,1,23.62,15.08Z"/><path class="cls-6" d="M16.27,10.55l1.13,3h3l1.13-3L18.91,8.67Z"/></g></g></svg>