<svg xmlns="http://www.w3.org/2000/svg" viewBox="0 0 22.61 33.87"><defs><style>.cls-1{font-size:6.86px;font-family:Montserrat-Regular, Montserrat;}.cls-1,.cls-2{fill:#f6df19;}.cls-3{fill:#353535;}</style></defs><g id="Camada_2" data-name="Camada 2"><g id="Camada_1-2" data-name="Camada 1"><text class="cls-1" transform="translate(0.63 32.08)">GAME</text><circle class="cls-2" cx="11.31" cy="11.31" r="11.31"/><path class="cls-3" d="M6.5,17a3.13,3.13,0,0,1-3-4L4.81,8A3.12,3.12,0,0,1,6.27,6.06a3,3,0,0,1,2.35-.31,3.1,3.1,0,0,1,2,1.59H12a3.1,3.1,0,0,1,2-1.59,3,3,0,0,1,2.34.31A3.12,3.12,0,0,1,17.8,8l1.32,5a3.17,3.17,0,0,1-2.2,3.86,3.06,3.06,0,0,1-2.35-.3,3.14,3.14,0,0,1-1.47-1.93l-.1-.5H9.61l-.13.49A3.11,3.11,0,0,1,6.5,17ZM7.81,6.77a2,2,0,0,0-1,.26A2.09,2.09,0,0,0,5.9,8.27l-1.32,5A2,2,0,0,0,6,15.76a1.92,1.92,0,0,0,1.48-.19,2,2,0,0,0,.94-1.24L8.76,13h5.09l.35,1.33a2,2,0,0,0,.94,1.24,2,2,0,0,0,1.48.19A2,2,0,0,0,18,13.27l-1.32-5A2,2,0,0,0,15.77,7a2,2,0,0,0-1.49-.19A2,2,0,0,0,12.94,8.1l-.14.37h-3L9.67,8.1A2,2,0,0,0,8.32,6.84,2.09,2.09,0,0,0,7.81,6.77Z"/><path class="cls-3" d="M7.91,11.3A1.13,1.13,0,1,1,9,10.17,1.13,1.13,0,0,1,7.91,11.3Z"/><circle class="cls-3" cx="14.7" cy="9.04" r="0.57"/><circle class="cls-3" cx="14.7" cy="11.3" r="0.57"/><circle class="cls-3" cx="13.57" cy="10.17" r="0.57"/><circle class="cls-3" cx="15.83" cy="10.17" r="0.57"/></g></g></svg>