<svg xmlns="http://www.w3.org/2000/svg" viewBox="0 0 459.87 436.77"><defs><style>.cls-1{fill:#353535;}.cls-2{fill:#8b3031;}.cls-3{fill:#1e1e1e;}.cls-4{fill:#f4f2f8;}.cls-5{fill:#eb704f;}.cls-6{fill:#e97151;}.cls-7{fill:#d2d0dd;}.cls-8{fill:#d2cfde;}.cls-9{fill:#5a2227;}.cls-10{fill:#fcc34e;}.cls-11{fill:#f18b6c;}.cls-12{fill:#621b1a;}.cls-13{fill:#fdfcfa;}.cls-14{fill:#eb724f;}.cls-15{fill:#611c1b;}.cls-16{fill:#f59f2e;}.cls-17{fill:#eb7050;}.cls-18{fill:#ea724f;}.cls-19{fill:#d2cee0;}.cls-20{fill:#d1cfde;}.cls-21{fill:#ccd0dd;}.cls-22{fill:#ced1de;}.cls-23{fill:#fff;}.cls-24{fill:#d3cfde;}.cls-25{fill:#d3d0df;}.cls-26{fill:#fefdfc;}.cls-27{fill:#30140e;}.cls-28{fill:#32140f;}.cls-29{fill:#6a1e18;}.cls-30{fill:#6a1d18;}.cls-31{fill:#451917;}.cls-32{fill:#4b1d19;}</style></defs><g id="Camada_2" data-name="Camada 2"><g id="Camada_1-2" data-name="Camada 1"><path class="cls-1" d="M98.8,359.8c-1.54-2.51-.29-5.31-.8-7.92,2.17-16.14,11.88-24.07,28.59-24.59,14.41-.46,27.54,3.48,40.31,9.47,2.56,1.19,5,2.67,7.79,3.25,4.57,2.75,9.6,4.68,14,7.77,8.7,5.21,18,9.27,26.62,14.68,5.48,3.44,11.2,6.54,16.75,9.88,2.72,1.64,5.07,1.84,7.82,0,14.07-9.48,28.2-18.88,43.44-26.44,2.2-1.6,4.54-3,6.87-4.38,11.92-6.12,24.33-10.82,37.69-12.63,7.48-1,14.95-.92,22.22,1.45,4.32,1.41,8.44,3.2,10.72,7.56,5.75,7,8.34,14.89,6.24,24-13.06,23.79-34.29,36.86-59.49,43.81a616.72,616.72,0,0,1-85.14,16.78c-7.42.95-14.85,1.93-22.36,1.56a18.55,18.55,0,0,1-3-.16c-4.72-1-9.8-1.59-11.74-7.06s2.37-8.25,5.54-11.24c8.16-7.71,17.86-13.25,24.86-17.38-9.81,6.42-23.29,12.44-36,19.81a12.81,12.81,0,0,1-10.1,1.26c-16-4.19-31.76-9-45-19.37-10.5-8.24-20.52-16.95-25-30.21a.43.43,0,0,0-.38-.16C99,359.53,98.92,359.69,98.8,359.8Z"/><path class="cls-2" d="M271.9,25.94a5.92,5.92,0,0,0-4.5,2.15l10.35,5a16.1,16.1,0,0,1,6.06,5,79.16,79.16,0,0,1,9.85,12.77,21.88,21.88,0,0,1-1,11.72,10.51,10.51,0,0,1-8.3,7.06c-1.48.29-3.14.54-4.16-.81s.29-2.45.87-3.58,1.32-1.83,2.06-3.21c-4.75,4.51-10.15,5.47-15.65,2.88-9.17-4.31-14.89-11.59-17.91-21.36-1.2,2.36-.19,4.83-1.16,7C243,58.17,235,61.23,226.24,61.94c-5.07.41-10.52,1.76-15.42-1.28.17-2.45,2-1.09,3.11-1.35-21.48-6.07-25.84-5.82-36.34,2.18,1-.05,1.59-.71,2.39-.9,1-.21,2.11-.69,2.75.31.79,1.25-.23,2.26-1.08,3a69.33,69.33,0,0,0-9,9.25A28.24,28.24,0,0,0,166.28,87c-.31,1.9-.11,4.13-2.52,5-6.37-14.27-5.63-28,3.16-52L157,48.36c.89-9.25,5.53-16,10.76-22.56,11.51-9.75,11.51-9.75,37.74-15.26-5.08-2.35-10.42-1.48-15.5-2.82,16.49-13.66,46.41-8.48,59.41,10,1,1.45,1.42,3.55,3.56,4,.5-.09,1.2.1,1.19.46-.19,3.81,1.74.39,2.53.77.66,2.53,2.09.7,3,.37a16.15,16.15,0,0,1,13,.17c.62.29,2,.27,1.36,1.42C273.76,25.49,272.65,25.62,271.9,25.94Z"/><path class="cls-3" d="M98.8,359.8c.12-.64.23-1.29.48-2.66,4.81,12.76,13.59,21.73,23.38,29.74a90.77,90.77,0,0,0,28.65,15.67c6.12,2.06,12.48,3.38,18.61,5.42,3.74,1.25,6.69.23,9.89-1.51,13.95-7.61,28-15.08,42.53-21.77l-14,9.25c-7.07,4.67-14,9.51-19.89,15.69-4.16,4.36-3.07,8.94,2.45,11.26,6.92,2.91,14.12,2.19,21.16,1.47a533.52,533.52,0,0,0,55.35-8.73c18.28-3.84,37-6.59,54.17-14.16,18.43-8.13,34.86-19.24,44.26-38.2.81-1.64.79.3,1.15.58-2.5,14.42-12,24-22.69,32.72-1.79,1.47-3.68,2.82-5.52,4.22-.9,2.17-2.93,2.95-4.79,4-4.86,2.7-9.7,5.46-15.11,7-2.36.6-4.76,1.07-7.08,1.83a72,72,0,0,1-7.94,2,13.6,13.6,0,0,1-2.19.4c-3.74,0-5.8,1.67-5.62,5.66.09,2-.63,3.85-1,5.77a14.33,14.33,0,0,1-1.94,4.46c-1.37,2.07-3.07,3.59-5.63,1.92-1.78-1.17-3.93.22-5.61-1.07-14.62-2.24-29.18-5.3-43.88-6.39-8.09-.59-16.42,2.13-24.64,3.37q-16.77,2.52-33.53,5.07c-6.85,1-7.18.76-8.39-5.52-.84-4.24-.59-8.62-1.59-12.84-1-2-2.85-2.65-4.72-3.4a197.57,197.57,0,0,0-28.56-8.69c-1.57-.38-3.38-.19-4.49-1.75-6.77-5-13.84-9.67-19.61-15.92C105.9,377.48,100.34,369.75,98.8,359.8Z"/><path class="cls-4" d="M172.76,426.7c-.12,4.94,2.05,7.19,7.11,6.06-1.76,1.64-4.08,1.3-6.07,1.23-10.2-.36-20.15,2-30.28,2.4-2.58.1-5.19,1.08-7.62-.6-4.53-1.36-8.89-3-12.63-6.09-9.55-7.81-7.77-21.09,3.61-26.92,1.63-.84,3.55-.88,5-2l.23-.17c13,1.2,24.95,6.28,37.13,10.48,1.21.42,2,1.12,1.75,2.56.93,2-.28,2.79-2,2.88-3.29.2-2.75,2.54-2.85,4.63-.11,2.48,1.05,3.58,3.5,3.58A3,3,0,0,1,172.76,426.7Z"/><path class="cls-4" d="M318.86,408.8,334,401.73c2.37-1.22,4.46-.48,6.43.94,5.11,3.68,9,8.44,8.14,14.93s-5.43,11.09-11.45,14c-2,1-4.54.46-6.26,2.2-6.88,2.62-13.64-.45-20.47-.43-6.44,0-12.71-2.91-19.41-.08-2.77,1.17-6.16-1.24-9.1-2.58a10,10,0,0,1,3,.1c5.85,2.1,8.16-.95,9.11-6.1,1.91-3.25,4.83-1.51,7.4-1.51.89.79,1.92,0,2.87.24a7.39,7.39,0,0,0,7.11-.09c1.05.13,2.23-.33,3.1.68,4.46,2.28,6.54,1.34,7-3.35C321.91,416.47,322.07,412.24,318.86,408.8Z"/><path class="cls-5" d="M364,334.66c-11.44-5.28-23.42-9.24-34.89-14.49-8-3.66-14.49-8.36-18.63-16.32-4.36-8.39-9.21-16.52-13.85-24.76.5-4.22,3.37-3.93,6.39-3.36,6,8.92,10,19,16.14,27.81a26.29,26.29,0,0,0,10.46,8.89c18.5,8.86,37.15,17.4,55.72,26.11a26.07,26.07,0,0,1,5.1,3.07c1.51,1.2-.4.88-.76,1.26-6.48-.64-12.05-4.05-18.14-5.89Z"/><path class="cls-6" d="M163,278c-5.84,10.83-12.2,21.35-18.84,31.7-2.21,3.44-5.5,5.7-9.13,7.52-15.21,7.59-31.06,13.61-47,19.41a20.36,20.36,0,0,0-2.21,1.06L66,343.82a1.36,1.36,0,0,1-.47-.14,6.16,6.16,0,0,1-.65-.6c2-.76,4-1.43,5.89-2.3,9.59-4.32,19-9.19,28.78-12.92,10.7-4.07,20.84-9.24,31.2-14,6.19-2.85,10.25-7.59,13.38-13.49,4.42-8.28,9.1-16.42,13.68-24.63C160.29,274.8,162.41,274.71,163,278Z"/><path class="cls-7" d="M131.89,400.73c-3.81,3.2-8.62,5-11.33,9.75-3.92,6.81-3,13.45,3.37,18.2,3.83,2.85,7.76,5.62,12.74,6.13.11,0,.19.17.29.26l-1.06.72a28.67,28.67,0,0,1-18.56-7.17c-6.78-5.84-7.47-13.79-1.18-20.43C120.34,403.78,125.54,400.89,131.89,400.73Z"/><path class="cls-8" d="M330.9,433.8c-2.19-.66-.93-.91.13-1.26,5.22-1.71,9.94-3.74,13.52-8.54,3.19-4.3,4.06-8.5,1.79-12.81-2.54-4.81-5.9-9.32-12.3-9.46l4.79-2.94c.76,3.46,4.41,3,6.54,4.67,11.08,8.64,10.89,18.59-.92,26.17A25.58,25.58,0,0,1,330.9,433.8Z"/><path class="cls-9" d="M256.7,23c-1.55,1-.1,3.39-2,4.2-2.85-1.1.56-4.16-1.69-5.43-1-5-3.94-9.21-6.68-13.7C253.6,9.49,257.16,14.75,256.7,23Z"/><path class="cls-10" d="M332,263.89c-10.11,2.52-19.24,7.62-29.07,10.86-3.2-.6-3.64-3.58-4.67-5.82-2.86-6.19-6.14-12.18-9-18.36-.53-1.16-1-2.51-2.68-3.1-1.44,3.3-1.32,6.77-1.32,10.21a161.19,161.19,0,0,1-5,41,71.61,71.61,0,0,1-12.09,25c-6.43,8.55-14.8,14-25.24,15.59-12.68,1.93-25.26,1.85-36.54-5.78a51,51,0,0,1-15.17-16.31,79,79,0,0,1-9.74-23.41c-2.51-11.36-4.82-22.79-4.87-34.52a78,78,0,0,0-1.54-12.88c-2.5.83-2.91,3-3.74,4.66-3.31,6.71-6.05,13.71-9.85,20.18-.85,1.44-1,3.72-3.52,3.55a270.5,270.5,0,0,1-25.27-9.66c-1.52-.65-2.95-1.54-4.71-1.16-3.36-1.81-3.4-4.43-2.08-7.6,8-19.14,15.82-38.35,26.87-56,5.84-9.32,14.95-14.87,24.62-19.52,3.43-1.65,7.11-2.81,10.52-4.5,4-2,6.9-1.74,8.36,3.06a9.85,9.85,0,0,0,1.66,2.4c1.83.34,2.69,1.84,3.68,3.14,11.15,14.52,42.86,17,55.86-2.18,1.75-2.59,2.64-6.2,6.41-7,4-2.61,6.88,1,10.1,2.12,9.46,3.14,18.48,7.17,26.28,13.63,8.38,6.95,12.32,16.74,17,26,6.26,12.45,11.62,25.32,16.91,38.22C335.7,259.47,335.51,261.89,332,263.89Z"/><path class="cls-11" d="M210.68,60c13.81,2.17,26.78,1.22,37-9.91a2.15,2.15,0,0,1,2,1.21c4.48,8.88,12.75,13.35,20.88,18C282.55,76,286.8,84.79,284.56,98.33a17.58,17.58,0,0,0-.25,6.07c3.14-1.93,4.84-4.48,6.7-6.94,1-1.32,1.21-3.66,3.71-3.35,7.4,11.65,2.9,25.13-10.28,30.18a9.08,9.08,0,0,0-5.31,4.74,62.47,62.47,0,0,1-24.31,25.71c-5.93,3.52-6.45,9-1.26,13.78,1.09,1,2.52,1.66,3,3.23.52,1.85-.58,3.18-1.48,4.55-11.87,18-40,18.22-52.09.29-1.13-1.67-2.9-3.45-.83-5.68,5.11-2,5.29-6.95,6.79-11.12,1.19-1,2.4-.72,3.72-.2,16.1,6.4,16.36,6.4,32.52,1-12.61,3.46-24.91,4-36.29-3.8-12.12-6.84-22.21-15.72-28.34-28.52-.93-2-2.64-2.16-4.51-2.51-14.29-2.72-19.46-21.07-10.87-29,2.43.33,2.75,2.62,3.84,4.17,1.6,2.27,2.72,4.94,5.62,6.49,1.58-1.68.92-3.74,1-5.56.18-6.11-.53-12.29,1.57-18.24,4.49-12.65,12.13-22,26.06-24.65C205.74,58.49,208.46,57.75,210.68,60Z"/><path class="cls-12" d="M210.68,60c-19.26.16-33.07,13.51-33.9,32.92-.19,4.32.13,8.65.09,13,0,1.4.87,3.39-.78,4.08-1.91.79-2.75-1.36-3.87-2.46-3.1-3.09-5-7-7.07-10.76-.46-1.58-.93-3.17-1.39-4.76,1.56-2,.93-4.5,1.44-6.74,2.06-9.05,7.77-15.59,14.61-21.34.88-.75,2-1.21,2.6-2.77-3.1.25-5.21,2.55-8.2,3.67C178.61,54,199.48,49,215.12,59.55Z"/><path class="cls-13" d="M202.13,170.91c1.11,6.28,5.6,10.06,10.52,13.1,15.82,9.79,34,4.59,43.88-12.26,3.9-1.41,6.21.15,7.33,3.93-5.28,8.75-11.36,16.64-21.64,20-13.71,4.49-35.84,2-44.31-13.92-.1-1.15.16-2.5-.36-3.4C194.41,172.92,198.43,172.05,202.13,170.91Z"/><path class="cls-14" d="M208.87,156.79c7.38,2.42,14.67,5.63,22.61,4.89,5.69-.53,11.29-2,17.87-3.23-3.39,4.12-7.58,5.25-11.53,6.24-9.2,2.28-18,1.36-26-4.3-.73-.52-1.89-.42-2.86-.6C208.91,158.79,208.89,157.79,208.87,156.79Z"/><path class="cls-15" d="M294.72,94.11c-3.27,4.8-5.92,10.22-12.47,12.91.6-5.13,1.34-9.5,1.56-13.91.52-10.09-3.68-17.57-12.75-22.33-5.72-3-11.36-6.17-16.2-10.59-3.14-2.87-4.68-6.8-7.15-10.1.28-3.33-1-7,2.58-10.5a29.8,29.8,0,0,0,11,20c3.78,3.19,7.81,5.57,13.31,5.38,5-.17,7.27-3.07,10-7.73.09,5.05-1.76,8-4.11,10.79,7.38,1.36,11.82-3,12.46-12,.13-1.76-.67-3.68.76-5.25C303.63,65,302.21,79.5,294.72,94.11Z"/><path class="cls-16" d="M157.94,274.74c5.17-8.13,8.55-17.16,12.86-25.72,1.11-2.2,2-4.58,4.89-5.72,2,4,1.93,8.51,2,12.59.43,15.16,2.49,30,7.2,44.41,4.65,14.18,12,26.69,25.59,34.16,9.78,5.37,20.56,5.27,31.11,3.75,17.71-2.55,27.49-14.76,34-30.16,4.68-11.08,6.12-22.87,7.48-34.77,1-8.92-.27-17.94,1.76-26.75.18-.77-.16-1.8.79-2.17,1.25-.49,1.71.6,2.24,1.41,4.34,6.68,7.33,14.07,10.82,21.19,1.3,2.66,2.82,5.18,4.19,7.79a4.66,4.66,0,0,0,.16,1c-2,1.35-5.25.35-6.39,3.36a21.15,21.15,0,0,1-5.21-2.35l-1.53,65.86-6.08,4.08c-31.73,14.15-63.74,14.36-96,1.89-3.87-3.08-9.11-3.8-12.67-7.39l-5.94-67.46c-1.54,2.47-2.72,5-6.21,4.3-1.34-1.69-3.37-1.79-5.23-2.29C157.85,275.4,157.89,275.07,157.94,274.74Z"/><path class="cls-3" d="M187.86,348.57c7.72,1.14,15,4.1,22.69,5.39,24.29,4.07,47.9,2.08,70.88-6.91a11.22,11.22,0,0,1,2.42-.37c-9.69,5.68-19.73,10.73-29,17.09-4.9,3.37-10,6.45-14.8,10-2.66,2-4.76,2-7.58.32-12.06-7.18-24-14.55-36.5-21C193.25,351.64,189.86,351.3,187.86,348.57Z"/><path class="cls-17" d="M22.78,337.84A22.34,22.34,0,0,1,35.41,346c.8,1.08,2.05,3.07,0,4.34-1.76,1.11-4.08,2.76-5.85,1.22-2.54-2.19-5.74-4.06-6.64-7.75C23.66,341.82,21.59,339.88,22.78,337.84Z"/><path class="cls-11" d="M157.78,274.25c-8.31-4.63-17.59-6.94-26.19-10.9-1.21-.55-2.6-.73-3.63.57a202.22,202.22,0,0,1-11,26.71,6,6,0,0,1-1.86,2.28A528.39,528.39,0,0,1,68,320.9c-6.48,4.67-13.79,7.92-20.61,12a6.08,6.08,0,0,1-4.79.75c-7.88-2-16.18-1.56-24-4.19-4.2-1.42-8-1-10.66,3.39-1.06,1.74-2.51,3.78-4.85,1-.59-.7-1.77-1.37-2.63-.5A3.21,3.21,0,0,0,0,335.74C1.15,344,2.4,351.38,11.4,356,23,362,35.47,363,45.14,354.27c5.89-5.3,12.33-7.94,19.59-9.71a4.84,4.84,0,0,0,1.27-.74c6.77-3.29,13.91-5.7,20.79-8.78,14.81-6.65,29.89-12.7,44.41-20a29,29,0,0,0,12.63-11.62c5.15-9.08,10.51-18.07,14.49-27.76A1.88,1.88,0,0,0,157.78,274.25ZM23,343.85c-1-.5-2.44-1.7-3.05-1.39-2.25,1.2-3.48.83-4.33-1.56-.29-.79-1.12-.93-2.07-.86-1.12.07-1.21,3.23-2.69,1.07-1.33-1.92-.11-4.26.42-6.21.59-2.15,2.2-.3,3.2,0,2.8.9,5.94.87,8.34,2.91C21.7,339.87,27.54,341.71,23,343.85Z"/><path class="cls-18" d="M435.84,343.89c.44,4.82-3.7,6.44-6.56,8.6-1.49,1.12-3.76-.78-5.36-1.9-1.76-1.22-.37-3,.2-4,2.79-4.76,7.73-6.73,12.46-8.91.09.31.19.63.28.95C438,340.67,435.55,342,435.84,343.89Z"/><path class="cls-11" d="M459,333.58c-1.16-.59-1.9.29-2.53,1a24.52,24.52,0,0,0-1.83,3.1c-4.17-9.58-10.63-8.84-17.93-6.91-6.9,1.83-14.28.71-21.27,2.56a3.75,3.75,0,0,1-2.32-.71c-13.13-7.51-26.49-14.65-39.19-22.91-6.26-2.73-11.58-7.11-17.64-10.16-9.19-4.62-15.7-11.23-18.58-21.38-1.39-4.91-3.77-9.53-5.69-14.29a4.22,4.22,0,0,0-4.25-.21c-8.3,3.48-17.08,5.83-24.82,10.61a2.28,2.28,0,0,0-.48,1.42,247.86,247.86,0,0,0,14.87,27.07,30.46,30.46,0,0,0,12.54,11c18.35,9.09,37,17.44,55.55,26.17,1.54.72,3.62.85,4.34,2.88,4.74,2.58,10.06,3.32,15.16,4.74a10.18,10.18,0,0,1,5.39,3.32c7.93,9.39,22.51,14.12,35.62,6.52,4.27-2.49,10-3.93,11.67-9.49,1.16-3.78,1.52-7.81,2.19-11.74C459.92,335.24,460.07,334.15,459,333.58Zm-10.05,7.83c-5-1.74-8.56,3.06-13.06,2.48-3.34-2.47,1.8-3.29,1-5.26,3.29-2.82,7.64-2.7,11.57-4.48C448.83,336.86,449.35,339.23,448.9,341.41Z"/><path class="cls-19" d="M318.86,408.8c1.06,1.46,4.25.33,4,3.43-.36,4.67,1.36,9.78-1.79,13.83-1.33,1.72-4.4.78-6.61.5-1.79-.22-.32-1.88-.58-2.84-.26-4.19,2.09-8.75-1.79-12.41-.09-.21-.17-.42-.25-.64A17.29,17.29,0,0,1,318.86,408.8Z"/><path class="cls-20" d="M311.86,423.68c-2.7,2.83-5.4,3.18-8.1,0a24.11,24.11,0,0,1,.12-11.11,28.4,28.4,0,0,1,8-1.92l.29.29C314.78,415.26,314.43,419.5,311.86,423.68Z"/><path class="cls-21" d="M172.76,426.7c-.75-.32-1.5-.61-2.24-.95-1.7-.79-4.45,1.82-5.17-.86s-.44-5.84-.25-8.77c.11-1.56,1.58-1.42,2.71-.93,1.75.76,2.84.37,3.19-1.59Q171.89,420.16,172.76,426.7Z"/><path class="cls-22" d="M301.84,423.67c-2.42,1.8-5.5-1.31-7.85,1,.25-1.76.9-3.57.67-5.27-.79-5.88,2.64-6.77,7.22-6.55C304.17,416.49,303.66,420.08,301.84,423.67Z"/><path class="cls-23" d="M301.84,423.67q0-5.4,0-10.78l2-.3c1.49,3.72.84,7.42-.12,11.11C303.12,423.86,302.46,424.8,301.84,423.67Z"/><path class="cls-24" d="M153,426.7c-2.61,3.76-5.86,1.9-9,1-3-4.47-3.65-9.1-1-14s5.77-3,9-1C152.71,417.35,152.28,422.06,153,426.7Z"/><path class="cls-8" d="M154,412.78c2.51-1,4.75.2,7.07.86,1.09.31,1.74.82,1.34,2.08-.88,2.77-.29,5.42.29,8.19.66,3.17-2.89,4.39-7.75,2.8C151.7,422.26,151.47,417.62,154,412.78Z"/><path class="cls-24" d="M142,426.71c0,.16,0,.45-.08.47-2.57.88-6.11-1.15-8.88-4.9-1.95-2.63-1.25-5.19.48-7.3s4.07-4.65,7.5-2.26C141.85,417.34,141.06,422.09,142,426.71Z"/><path class="cls-23" d="M142,426.71c-2.88-4.49-2.48-9.2-1-14,1.14-.6,2-.63,2,1a51.61,51.61,0,0,0,1,14Z"/><path class="cls-23" d="M154,412.78a48.28,48.28,0,0,0,1,13.93h-2c-2.87-4.48-2.47-9.19-1-14C152.64,412.58,153.34,411.62,154,412.78Z"/><path class="cls-25" d="M323.83,426.32c3.3-5.51,1.91-10.79,1.6-16.25,4.55.76,8,2.57,8.39,7.53C334.14,421.53,330.6,424.61,323.83,426.32Z"/><path class="cls-23" d="M311.86,423.68c.45-4.23.92-8.46.28-12.72,4.13.75,3.43,4.28,3.52,6.88a8.49,8.49,0,0,1-1.77,5.88C313.21,423.8,312.52,424.82,311.86,423.68Z"/><path class="cls-26" d="M209.1,130.91c14.32,3.24,28.51,1.53,42.68-1.06A3.94,3.94,0,0,1,249.4,135c-3.6,1.08.38,1.87-.16,2.66-8.31,9.4-28.78,10.22-36.46,1.46-.39-.56,1.88-.64.1-1.75C210.69,136,208.21,134.31,209.1,130.91Z"/><path class="cls-27" d="M194.73,111c-1.25-8.8,2.21-14.69,8.57-16.54s11.93,1.44,15.71,10.1c-4.53-3.4-8.66-5.8-13.8-4.86C199.63,100.77,197.19,105,194.73,111Z"/><path class="cls-28" d="M268.52,108.72c-8.38-12.18-12.66-13.1-23.31-5.53,1.22-6.44,6.91-11,12.84-10.19C264.76,93.86,268.74,99.57,268.52,108.72Z"/><path class="cls-29" d="M270.08,90.43c-6.32-3.17-12.61-5.93-19.75-5.91-1.5,0-2.54-.47-2.45-2.29a3.11,3.11,0,0,1,3.5-3.29C259.88,79,266,83.06,270.08,90.43Z"/><path class="cls-30" d="M190.66,91.46c3.76-7.24,9.44-11.48,17.67-11.85,2.28-.1,4.09.49,4.31,3,.29,3.13-2.3,2.1-3.87,2.31A48.68,48.68,0,0,0,190.66,91.46Z"/><path class="cls-31" d="M249.24,137.68l-3.11-1.39c3.21-1.23,4.56-3.73,5.65-6.44,2.22-2.07,5.19-2.31,8-3.21C257.73,131.74,254.39,135.56,249.24,137.68Z"/><path class="cls-32" d="M209.1,130.91a12.41,12.41,0,0,0,6.62,7.42l-2.94.81c-4.9-2.22-7.52-6.43-10.85-12C205.36,128.52,207.46,129.23,209.1,130.91Z"/></g></g></svg>