<svg xmlns="http://www.w3.org/2000/svg" viewBox="0 0 23.2 33.87"><defs><style>.cls-1{font-size:6.86px;font-family:Montserrat-Regular, Montserrat;}.cls-1,.cls-2{fill:#f6df19;}.cls-3{fill:#353535;}</style></defs><g id="Camada_2" data-name="Camada 2"><g id="Camada_1-2" data-name="Camada 1"><text class="cls-1" transform="translate(0 32.08)">MUSIC</text><circle class="cls-2" cx="11.6" cy="11.31" r="11.31"/><path class="cls-3" d="M11.6,4.14A7.69,7.69,0,0,0,4.06,12v3.5a3,3,0,1,0,3-3,2.93,2.93,0,0,0-1.5.42V12a6.17,6.17,0,0,1,6-6.31,6.18,6.18,0,0,1,6,6.31v.9a3,3,0,1,0-1.51,5.61,3,3,0,0,0,3-3V12A7.7,7.7,0,0,0,11.6,4.14Z"/></g></g></svg>