<svg width="893" height="385" viewBox="0 0 893 385" fill="none" xmlns="http://www.w3.org/2000/svg">
<path d="M0 279.662C0 284.933 3.61823 289.545 8.22324 290.204C38.4848 300.086 70.062 321.169 101.31 325.781C132.23 330.393 154.926 311.287 183.214 300.745C233.211 281.968 261.17 319.522 308.865 327.099C362.809 335.664 406.228 284.604 461.159 299.098C518.064 313.922 550.299 334.346 609.178 314.91C613.783 313.593 617.401 307.004 617.401 300.086C617.401 293.498 613.783 289.545 609.507 290.863C551.286 311.287 518.393 292.839 461.488 279.003C406.557 265.827 363.138 316.228 309.194 307.663C261.828 300.086 233.54 262.532 183.543 281.309C155.255 291.851 132.559 310.957 101.639 306.675C70.7199 302.392 39.1426 280.98 8.8811 271.097C3.61823 270.109 0 274.392 0 279.662Z" fill="#FF6759"/>
<path d="M12.828 289.215C12.828 294.486 16.4462 299.757 21.0512 301.075C49.997 313.263 83.2189 335.664 114.138 335.005C143.742 334.346 167.754 311.287 196.042 303.71C242.75 291.192 276.958 335.005 321.693 336.981C377.282 339.617 415.438 290.863 473.658 311.616C530.892 332.04 563.456 339.617 621.677 320.51C626.282 319.193 629.9 313.263 629.9 306.675C629.9 299.757 626.282 295.145 622.006 296.463C564.114 316.557 531.221 310.298 473.987 291.521C415.767 272.415 377.282 320.181 321.693 317.875C276.958 315.898 242.75 272.086 196.042 284.274C168.083 291.851 143.742 314.91 114.138 315.569C83.2189 316.228 50.326 294.157 21.3802 281.639C16.4462 280.321 12.828 283.945 12.828 289.215Z" fill="#EA1C1C"/>
<path d="M24.3408 298.439C24.3408 303.71 27.959 309.31 32.5641 311.287C62.1677 325.122 93.0871 344.887 125.322 339.946C153.939 335.334 178.28 309.31 207.226 307.004C251.96 303.38 288.471 345.546 332.877 342.911C391.426 339.617 423.003 297.78 484.842 322.816C541.418 345.876 576.285 341.593 633.189 325.122C637.794 324.463 641.413 318.863 641.413 312.275C641.413 305.686 637.794 300.416 633.189 301.075C576.614 318.534 541.418 323.805 484.842 302.392C423.003 279.003 391.097 319.851 332.877 323.146C288.471 325.781 251.631 283.615 207.226 287.239C178.609 289.545 153.939 315.569 125.322 320.181C93.0871 325.781 62.1677 306.016 32.5641 292.18C27.959 290.204 24.3408 293.168 24.3408 298.439Z" fill="#FF6759"/>
<path d="M35.1954 310.627C35.1954 315.898 38.8137 321.828 43.4187 324.134C74.9959 338.958 102.297 354.77 136.177 345.217C164.136 337.31 188.477 313.922 218.08 314.251C262.815 314.58 297.681 356.087 343.731 348.84C369.717 344.887 392.084 322.487 418.069 318.533C446.686 314.251 468.396 324.134 495.368 335.993C549.97 360.04 589.442 344.887 644.044 332.04C648.649 331.71 652.267 327.428 652.267 321.169C652.267 314.91 648.649 309.31 644.044 309.31C589.771 322.157 550.299 338.299 495.697 315.569C468.725 304.368 446.357 294.486 418.069 298.768C392.084 302.721 369.717 325.122 343.731 329.075C297.352 336.322 262.815 295.145 218.08 294.486C188.477 294.156 164.136 317.216 136.177 325.451C102.297 335.004 74.9959 319.851 43.4187 304.698C38.8137 302.721 35.1954 305.357 35.1954 310.627Z" fill="#EA1C1C"/>
<path d="M0.986938 267.144C0.986938 271.097 4.60516 274.721 9.21018 275.38C39.4717 285.921 72.3647 307.992 103.613 311.286C134.861 314.581 158.215 293.498 186.832 283.615C236.501 266.485 267.42 308.322 314.786 312.934C360.836 317.545 398.663 274.391 444.713 279.333C500.96 285.262 537.471 316.887 595.692 300.086C600.297 298.439 603.915 293.168 603.915 288.556C603.915 283.945 600.297 281.639 596.021 283.286C538.129 300.745 500.96 270.109 445.042 264.509C398.992 259.897 361.165 302.721 315.115 298.11C267.749 293.498 236.829 251.661 187.161 268.462C158.544 278.344 134.861 299.427 103.942 296.133C72.3647 293.498 39.4717 271.097 8.88125 260.556C4.60516 259.897 0.986938 263.191 0.986938 267.144Z" fill="#EA1C1C"/>
<path d="M597.665 257.591C572.666 304.698 542.076 295.804 545.036 297.451C548.325 299.098 583.85 310.957 608.848 263.85C633.847 216.743 642.399 194.342 639.439 192.695C636.15 191.048 622.663 210.484 597.665 257.591Z" fill="#E6AC00"/>
<path d="M641.083 194.672C637.794 194.342 617.401 227.614 596.02 268.132C580.56 297.451 543.391 297.121 545.365 297.78C548.325 299.427 584.179 310.957 609.177 264.179C627.926 228.272 642.07 198.295 641.083 194.672Z" fill="#FFE14D"/>
<path d="M604.901 261.544C579.903 308.651 549.312 299.756 552.602 301.404C555.891 303.051 591.415 315.239 616.414 267.803C641.413 220.696 649.965 197.966 647.004 196.319C643.386 195.001 629.9 214.437 604.901 261.544Z" fill="#E6AC00"/>
<path d="M648.32 198.295C645.031 197.966 624.308 231.566 602.928 271.756C587.468 301.074 550.628 300.415 552.273 301.404C555.233 303.051 591.086 314.91 615.756 267.803C634.834 232.225 648.978 201.919 648.32 198.295Z" fill="#FFE14D"/>
<path d="M611.809 265.497C586.81 312.604 556.22 303.38 559.509 305.027C562.798 306.674 597.994 318.863 622.992 271.756C647.991 224.649 656.872 201.919 653.583 200.272C650.623 198.624 636.808 218.39 611.809 265.497Z" fill="#E6AC00"/>
<path d="M655.557 202.248C652.267 201.919 631.545 235.52 610.165 276.038C594.705 305.027 557.865 304.698 559.509 305.357C562.47 307.004 597.994 318.863 622.993 271.756C642.071 236.178 656.215 205.872 655.557 202.248Z" fill="#FFE14D"/>
<path d="M619.045 269.45C594.047 316.557 563.785 307.333 566.746 308.98C570.035 310.627 605.23 323.145 630.229 275.709C655.228 228.602 664.109 205.542 660.819 203.895C657.859 202.577 644.044 222.343 619.045 269.45Z" fill="#E6AC00"/>
<path d="M662.793 205.872C659.504 205.542 638.781 239.472 617.401 279.662C601.941 308.651 565.101 307.992 566.746 308.98C569.706 310.627 605.23 322.816 630.229 275.709C648.978 240.131 663.451 209.495 662.793 205.872Z" fill="#FFE14D"/>
<path d="M625.953 273.403C600.954 320.839 570.693 311.286 573.653 312.933C576.942 314.58 612.138 327.098 637.136 279.662C662.135 232.225 671.016 209.495 668.056 207.848C664.767 206.201 650.952 226.296 625.953 273.403Z" fill="#E6AC00"/>
<path d="M669.701 209.825C666.411 209.495 645.689 243.426 624.308 283.944C608.849 312.933 572.008 312.275 573.653 313.263C576.613 314.91 612.138 327.099 637.136 279.991C656.214 244.085 670.358 213.449 669.701 209.825Z" fill="#FFE14D"/>
<path d="M633.189 277.356C608.191 324.793 577.929 314.91 580.889 316.557C584.179 318.204 619.045 331.052 644.373 283.615C669.371 236.179 678.253 213.449 675.292 211.802C672.003 210.154 658.188 230.249 633.189 277.356Z" fill="#E6AC00"/>
<path d="M676.937 213.449C673.647 213.119 652.596 247.379 631.544 287.568C616.085 316.557 579.574 315.569 581.218 316.557C584.179 318.204 619.703 330.722 644.702 283.615C663.122 248.038 677.595 217.402 676.937 213.449Z" fill="#FFE14D"/>
<path d="M640.097 281.309C615.098 328.746 584.837 318.863 588.126 320.51C591.415 322.157 626.282 335.005 651.281 287.568C676.279 240.131 685.489 217.072 682.2 215.425C679.24 213.778 665.096 234.202 640.097 281.309Z" fill="#E6AC00"/>
<path d="M684.173 217.402C680.884 217.072 659.833 251.332 638.452 291.521C622.993 320.51 586.481 319.522 588.126 320.51C591.086 322.157 626.282 334.675 651.281 287.568C670.358 251.991 684.831 221.025 684.173 217.402Z" fill="#FFE14D"/>
<path d="M647.333 285.262C622.005 332.698 592.073 322.486 595.362 324.134C598.651 325.781 633.518 338.957 658.517 291.521C683.515 244.084 692.725 221.025 689.436 219.378C686.476 217.731 672.332 238.155 647.333 285.262Z" fill="#E6AC00"/>
<path d="M691.409 221.025C688.12 220.695 667.069 255.285 645.688 295.474C630.229 324.463 593.717 323.475 595.362 324.133C598.322 325.781 633.518 338.628 658.516 291.521C677.265 255.943 692.067 224.978 691.409 221.025Z" fill="#FFE14D"/>
<path d="M654.241 289.215C629.242 336.652 599.309 326.44 602.27 328.087C605.559 329.734 640.426 342.911 665.424 295.474C690.423 248.038 699.633 224.649 696.672 223.002C693.383 221.355 679.239 242.108 654.241 289.215Z" fill="#E6AC00"/>
<path d="M698.317 224.978C695.028 224.649 673.648 259.238 652.596 299.427C637.136 328.416 600.625 327.098 602.27 328.087C605.23 329.734 640.426 342.581 665.424 295.474C684.502 259.897 698.975 228.602 698.317 224.978Z" fill="#FFE14D"/>
<path d="M661.477 293.168C636.479 340.605 606.546 330.063 609.506 331.71C612.796 333.357 647.333 346.534 672.661 299.427C697.66 251.99 706.87 228.602 703.909 226.955C700.62 225.307 686.476 246.061 661.477 293.168Z" fill="#E6AC00"/>
<path d="M705.554 228.931C702.265 228.602 680.884 263.52 659.833 303.709C644.373 332.698 608.191 331.381 609.835 332.04C613.125 333.687 647.991 346.864 672.99 299.756C691.41 263.85 706.212 232.555 705.554 228.931Z" fill="#FFE14D"/>
<path d="M668.385 297.121C643.386 344.558 613.453 334.016 616.743 335.664C620.032 337.311 654.57 350.817 679.568 303.38C704.567 255.944 714.106 232.226 710.817 230.578C707.856 228.931 693.383 249.685 668.385 297.121Z" fill="#E6AC00"/>
<path d="M712.79 232.555C709.501 232.225 688.12 267.473 666.74 307.333C651.28 336.322 615.098 334.675 616.742 335.663C619.703 337.311 654.569 350.487 679.568 303.38C698.646 267.803 713.448 236.508 712.79 232.555Z" fill="#FFE14D"/>
<path d="M606.217 254.956C581.876 301.074 550.628 298.769 553.588 300.416C556.549 302.063 592.731 307.004 617.072 260.885C641.413 214.766 647.662 196.978 644.702 195.331C641.412 194.013 630.558 208.837 606.217 254.956Z" fill="#E6AC00"/>
<path d="M646.347 197.307C643.057 196.978 625.953 224.319 604.244 265.168C588.455 294.815 559.509 299.098 553.26 300.416C556.549 302.063 592.402 307.004 616.743 260.885C635.163 225.967 647.004 200.601 646.347 197.307Z" fill="#FFE14D"/>
<path d="M612.796 258.579C588.455 304.698 557.207 302.392 560.167 304.039C563.127 305.686 598.981 310.957 623.65 264.838C647.991 218.719 654.57 200.93 651.281 199.283C648.32 197.636 637.137 212.46 612.796 258.579Z" fill="#E6AC00"/>
<path d="M653.254 200.93C649.965 200.601 632.86 227.943 611.151 268.791C595.362 298.439 566.417 302.721 560.496 304.039C563.785 305.686 599.638 310.627 623.979 264.838C642.07 229.919 653.912 204.225 653.254 200.93Z" fill="#FFE14D"/>
<path d="M619.703 262.532C595.362 308.651 564.114 306.016 567.075 307.663C570.035 309.31 605.888 314.581 630.558 268.462C654.899 222.343 661.477 204.225 658.517 202.907C655.228 201.26 644.044 216.413 619.703 262.532Z" fill="#E6AC00"/>
<path d="M660.161 204.554C656.872 204.225 639.768 231.896 618.058 272.744C602.27 302.392 573.324 306.674 567.403 307.992C570.693 309.639 606.217 314.91 630.558 268.791C648.978 233.543 660.819 207.848 660.161 204.554Z" fill="#FFE14D"/>
<path d="M626.611 266.156C602.27 312.275 571.022 309.639 573.982 311.287C576.942 312.934 612.796 318.534 637.136 272.086C661.477 225.967 668.056 207.849 665.095 206.201C662.135 204.884 650.952 220.037 626.611 266.156Z" fill="#E6AC00"/>
<path d="M667.069 208.178C663.78 207.849 646.675 235.52 624.966 276.368C609.177 306.016 579.903 310.298 574.311 311.287C577.6 312.934 613.124 318.204 637.465 272.086C655.885 237.496 667.727 211.472 667.069 208.178Z" fill="#FFE14D"/>
<path d="M633.189 270.109C608.849 316.228 577.6 313.592 580.89 315.239C583.85 316.886 619.703 322.487 644.044 276.368C668.385 230.249 674.963 212.131 672.003 210.484C669.043 208.507 657.859 223.99 633.189 270.109Z" fill="#E6AC00"/>
<path d="M673.976 211.801C670.687 211.472 653.254 239.473 631.545 280.321C615.756 309.969 586.481 314.251 580.889 315.239C584.179 316.887 619.703 322.157 644.044 276.368C662.464 241.12 674.634 215.096 673.976 211.801Z" fill="#FFE14D"/>
<path d="M640.097 273.732C615.756 319.851 584.837 316.887 587.797 318.534C590.757 320.181 626.611 326.11 650.951 279.662C675.621 233.543 681.871 215.096 678.91 213.449C675.95 212.131 664.438 227.614 640.097 273.732Z" fill="#E6AC00"/>
<path d="M680.555 215.425C677.266 215.096 659.833 243.097 638.123 283.945C622.335 313.593 593.06 317.875 587.468 318.863C590.757 320.51 626.282 326.11 650.622 279.992C669.371 245.073 681.542 218.719 680.555 215.425Z" fill="#FFE14D"/>
<path d="M647.004 277.686C622.335 323.804 591.744 320.84 594.705 322.487C597.665 324.134 633.189 330.063 657.859 283.615C682.529 237.167 689.107 219.049 685.818 217.402C682.858 215.754 671.345 231.237 647.004 277.686Z" fill="#E6AC00"/>
<path d="M687.463 219.049C684.173 218.719 666.74 246.72 645.031 287.568C629.242 317.216 599.967 321.498 594.376 322.157C597.665 323.804 633.189 329.404 657.53 283.286C676.279 248.696 688.449 222.343 687.463 219.049Z" fill="#FFE14D"/>
<path d="M653.583 281.309C628.913 327.428 598.322 324.463 601.283 326.11C604.243 327.757 639.768 333.687 664.437 287.568C689.107 241.12 695.686 222.672 692.725 221.025C689.765 219.378 678.252 235.19 653.583 281.309Z" fill="#E6AC00"/>
<path d="M694.37 222.672C691.081 222.343 673.647 250.673 651.938 291.521C636.149 321.169 606.875 325.122 601.283 326.11C604.572 327.757 639.768 333.687 664.437 287.568C683.186 252.32 695.357 225.967 694.37 222.672Z" fill="#FFE14D"/>
<path d="M660.49 285.262C635.82 331.711 605.23 328.087 608.19 329.734C611.151 331.381 646.675 337.64 671.345 291.192C696.015 244.744 702.593 226.296 699.633 224.649C696.672 223.002 685.16 238.814 660.49 285.262Z" fill="#E6AC00"/>
<path d="M701.277 226.296C697.988 225.967 680.226 254.297 658.846 295.145C643.057 324.793 613.782 328.746 608.519 329.734C611.48 331.381 647.004 337.311 671.674 291.192C689.765 256.274 701.935 229.92 701.277 226.296Z" fill="#FFE14D"/>
<path d="M667.398 288.886C642.728 335.334 612.138 331.711 615.098 333.358C618.059 335.005 653.583 341.264 678.253 294.816C702.922 248.367 709.501 229.59 706.541 228.273C703.58 226.626 691.739 242.767 667.398 288.886Z" fill="#E6AC00"/>
<path d="M708.185 229.92C704.896 229.59 687.134 258.25 665.425 299.098C649.636 328.746 620.361 332.699 615.098 333.358C618.059 335.005 653.583 341.264 678.253 294.815C696.673 259.897 708.843 233.543 708.185 229.92Z" fill="#FFE14D"/>
<path d="M718.053 234.532C718.711 233.214 718.382 231.237 716.737 230.579L636.478 187.754C635.163 187.095 633.189 187.425 632.531 189.072L604.572 241.449C603.914 242.767 604.243 244.744 605.888 245.402L686.147 288.227C687.462 288.886 689.436 288.557 690.094 286.909L718.053 234.532Z" fill="#7B9599"/>
<path d="M633.847 192.695L701.936 235.19C703.251 235.849 703.909 237.826 703.251 239.143L682.2 286.251L605.559 245.732C604.243 245.073 603.586 243.097 604.243 241.779L629.571 194.013C630.558 192.695 632.202 192.036 633.847 192.695Z" fill="#B8C9CC"/>
<path d="M673.319 277.686C672.99 278.674 658.188 271.756 640.426 262.203C622.664 252.65 608.52 244.414 609.177 243.426C609.506 242.438 624.308 249.356 642.07 258.909C659.833 268.462 673.648 277.027 673.319 277.686Z" fill="white"/>
<path d="M689.107 278.674C688.12 280.98 671.345 270.438 649.964 259.238C628.584 248.038 610.822 240.132 611.809 237.826C612.795 235.52 629.571 246.061 650.951 257.262C672.332 268.462 690.423 276.697 689.107 278.674Z" fill="#7B9599"/>
<path d="M658.517 249.026C658.188 249.356 648.978 244.744 637.794 238.814C626.611 232.885 617.729 227.614 617.729 227.284C618.058 226.955 627.268 231.567 638.452 237.496C649.636 243.426 658.517 248.697 658.517 249.026Z" fill="white"/>
<path d="M696.673 264.838C695.686 267.144 678.91 256.603 657.53 245.403C636.15 234.202 618.387 226.296 619.374 223.99C620.361 221.684 637.136 232.226 658.517 243.426C679.897 254.626 697.659 262.533 696.673 264.838Z" fill="#7B9599"/>
<path d="M692.068 242.438C691.739 243.426 676.937 236.508 659.175 226.955C641.413 217.402 627.597 209.166 627.926 208.178C628.255 207.19 643.057 214.108 660.819 223.661C678.582 233.214 692.397 241.449 692.068 242.438Z" fill="white"/>
<path d="M609.835 241.779C608.849 243.755 607.533 244.743 606.546 244.414C605.888 244.085 605.888 242.108 606.875 240.132C607.862 238.155 609.177 237.167 610.164 237.496C611.151 238.155 610.822 240.132 609.835 241.779Z" fill="white"/>
<path d="M615.098 231.896C613.782 234.532 612.138 236.179 611.151 235.849C610.493 235.52 610.822 232.884 612.138 230.578C613.453 227.943 615.098 226.296 616.085 226.955C617.072 226.955 616.414 229.261 615.098 231.896Z" fill="white"/>
<path d="M622.006 219.049C620.69 221.684 619.045 223.331 618.058 223.002C617.401 222.672 617.729 220.037 619.045 217.731C620.361 215.096 622.006 213.449 622.992 213.778C623.65 214.437 623.321 216.743 622.006 219.049Z" fill="white"/>
<path d="M629.242 205.543C628.255 207.19 626.939 208.507 625.953 207.849C625.295 207.519 625.295 205.543 626.282 203.895C627.268 202.248 628.584 200.931 629.571 201.59C630.229 201.919 630.229 203.895 629.242 205.543Z" fill="white"/>
<path d="M633.518 197.307C632.86 198.954 631.545 199.613 630.558 199.284C629.9 198.954 629.9 197.307 630.558 195.66C631.216 194.013 632.531 193.354 633.518 193.684C634.176 194.342 634.176 195.989 633.518 197.307Z" fill="white"/>
<path d="M707.856 243.426C706.869 245.732 690.094 235.19 668.714 223.661C647.333 212.46 629.571 204.554 630.558 202.248C631.544 199.942 648.32 210.484 669.7 221.684C691.41 233.214 709.172 241.12 707.856 243.426Z" fill="#7B9599"/>
<path d="M717.395 230.908C717.395 230.908 723.974 218.39 726.276 214.437C731.539 204.225 710.487 185.448 715.75 175.236C729.894 148.882 789.431 59.6094 789.431 59.6094C800.943 37.8676 784.168 6.24329 784.168 6.24329C784.168 6.24329 748.643 9.86691 737.131 31.6086C737.131 31.6086 697.001 131.094 682.857 157.447C677.595 167.659 649.964 160.412 644.702 170.624C642.399 174.906 635.82 187.095 635.82 187.095L717.395 230.908ZM774.958 46.4326C773.642 48.7385 771.668 50.3856 769.695 51.3739C769.037 51.0444 768.708 51.0444 768.05 50.715C762.787 47.7502 760.814 41.1618 763.445 35.8911C764.761 33.5852 766.734 31.9381 768.708 30.9498C769.366 31.2792 769.695 31.2792 770.353 31.6086C775.615 34.5734 777.918 41.1618 774.958 46.4326Z" fill="#B3A78F"/>
<path d="M712.132 225.308C712.132 225.308 717.066 216.413 719.039 212.46C723.973 202.907 704.238 185.777 709.5 176.224C722.329 151.847 782.523 59.9387 782.523 59.9387C793.048 39.8441 776.273 13.161 776.273 13.161C776.273 13.161 746.998 16.7846 735.157 35.891C727.592 54.9974 695.027 134.388 682.528 157.777C681.541 159.753 679.568 161.071 677.265 162.059C670.029 168.647 647.991 163.706 643.386 172.6C640.754 177.542 636.478 185.448 636.478 185.448L712.132 225.308ZM774.957 46.4325C773.642 48.7384 771.668 50.3855 769.695 51.3738C769.037 51.0443 768.708 51.0443 768.05 50.7149C762.787 47.7501 760.813 41.1617 763.445 35.891C764.761 33.5851 766.734 31.938 768.708 30.9497C769.366 31.2791 769.695 31.2791 770.352 31.6085C775.615 34.5733 777.918 41.1617 774.957 46.4325Z" fill="#E6D7B8"/>
<path d="M763.445 35.891C760.485 41.1617 762.787 47.7501 768.05 50.7149C768.708 51.0443 769.366 51.3737 770.024 51.7032C767.064 53.0208 763.445 53.0208 760.485 51.3737C754.893 48.409 752.92 41.8205 755.88 36.2204C758.511 31.2791 764.432 28.9732 769.366 30.9497C767.063 31.6085 764.761 33.2556 763.445 35.891Z" fill="#B3A78F"/>
<path d="M742.065 34.244C742.065 34.244 701.935 133.729 687.791 160.083C682.528 170.295 654.898 163.047 649.635 173.259C647.333 177.542 640.754 189.73 640.754 189.73L635.82 187.095C635.82 187.095 642.399 174.577 644.702 170.624C649.964 160.412 677.594 167.659 682.857 157.447C697.001 130.764 737.131 31.6087 737.131 31.6087C748.643 9.86691 784.168 6.24329 784.168 6.24329C784.168 6.24329 784.826 7.23155 785.812 9.20807C776.602 10.8552 751.275 16.7847 742.065 34.244Z" fill="#F3E7CF"/>
<path d="M561.154 294.157C564.443 293.168 568.061 291.521 571.68 289.545H569.048C566.417 291.521 563.785 293.168 561.154 294.157Z" fill="#9C0C1C"/>
<path d="M548.654 298.768C549.641 299.098 550.957 299.098 552.272 299.427C550.957 299.427 549.97 299.098 548.654 298.768Z" fill="#9C0C1C"/>
<path d="M545.694 297.451C544.707 297.451 544.707 297.451 545.036 297.78C545.036 297.451 545.365 297.451 545.694 297.451Z" fill="#9C0C1C"/>
<path d="M545.694 297.451C545.036 297.451 545.036 297.78 545.036 297.78C545.365 298.11 546.681 298.439 548.655 299.098C549.641 299.427 550.957 299.427 552.273 299.757C553.917 299.098 563.127 298.11 573.982 289.874C572.995 289.874 572.337 289.545 571.68 289.545C568.061 291.521 564.443 293.168 561.154 294.157C553.917 296.463 547.997 297.121 545.694 297.451Z" fill="#EA1C1C"/>
<path d="M551.944 300.745C551.286 300.745 550.957 300.745 551.286 301.074C551.286 300.745 551.615 300.745 551.944 300.745Z" fill="#9C0C1C"/>
<path d="M554.246 302.063C555.233 302.392 556.877 302.721 558.522 303.051C556.548 302.721 555.233 302.392 554.246 302.063Z" fill="#9C0C1C"/>
<path d="M558.193 302.721C559.18 302.392 562.798 301.733 568.39 299.427C561.811 301.074 556.877 300.745 553.917 300.086C552.93 300.086 552.272 300.416 551.615 300.416C550.957 300.416 550.957 300.416 550.957 300.745C551.286 301.074 552.273 301.404 553.588 301.733C555.233 302.392 556.549 302.721 558.193 302.721Z" fill="#EA1C1C"/>
<path d="M557.535 304.368C557.535 304.368 557.535 304.368 558.193 304.039C557.535 304.039 557.206 304.039 557.535 304.368C558.193 304.698 560.496 305.686 564.114 306.016C560.496 305.686 558.193 304.698 557.535 304.368Z" fill="#9C0C1C"/>
<path d="M557.536 304.369C558.193 304.698 560.496 305.686 564.114 306.016C564.772 305.686 568.719 305.357 574.311 302.722C568.39 304.039 563.127 304.039 560.496 303.71C559.509 303.71 558.522 304.039 558.193 304.039C557.536 304.039 557.536 304.369 557.536 304.369Z" fill="#EA1C1C"/>
<path d="M563.785 307.663C563.785 307.663 563.785 307.663 564.443 307.333C563.785 307.333 563.456 307.333 563.785 307.663C564.443 307.992 566.746 308.981 570.035 309.31C566.746 308.651 564.443 307.992 563.785 307.663Z" fill="#9C0C1C"/>
<path d="M563.785 307.663C564.443 307.992 566.745 308.98 570.035 309.31C570.035 308.98 574.311 308.651 580.56 306.016C574.969 307.333 570.035 307.333 567.074 307.004C565.758 307.333 564.772 307.333 564.443 307.333C563.785 307.333 563.785 307.663 563.785 307.663Z" fill="#EA1C1C"/>
<path d="M570.692 310.627C570.035 310.627 569.706 310.627 570.035 310.957C570.035 310.957 570.035 310.627 570.692 310.627Z" fill="#9C0C1C"/>
<path d="M572.008 311.616C572.995 311.945 574.64 312.275 576.284 312.604C574.311 312.275 572.995 311.945 572.008 311.616Z" fill="#9C0C1C"/>
<path d="M575.956 312.604C575.627 312.275 579.903 311.945 586.152 309.31C580.89 310.628 576.285 310.628 573.324 310.298C572.008 310.628 571.022 310.628 570.364 310.628C570.035 310.628 569.706 310.628 569.706 310.957C570.035 310.957 570.693 311.286 571.351 311.616C572.995 311.945 574.311 312.275 575.956 312.604Z" fill="#EA1C1C"/>
<path d="M582.205 315.898C579.245 315.239 576.942 314.581 576.284 314.251C576.284 314.251 576.285 314.251 576.613 313.922C575.956 313.922 575.627 313.922 575.956 314.251C576.942 314.581 578.916 315.239 582.205 315.898Z" fill="#9C0C1C"/>
<path d="M576.285 314.251C576.942 314.581 578.916 315.24 582.205 315.898C581.218 315.24 585.495 315.569 592.402 312.604C587.468 313.593 583.192 313.922 580.232 313.593C578.587 313.922 577.6 313.922 576.942 313.922C576.285 314.251 576.285 314.251 576.285 314.251Z" fill="#EA1C1C"/>
<path d="M584.508 318.204C585.495 318.534 586.81 318.863 588.455 319.192C586.81 318.863 585.495 318.534 584.508 318.204Z" fill="#9C0C1C"/>
<path d="M582.863 317.216C582.205 317.216 581.876 317.216 582.205 317.545C582.534 317.545 582.534 317.545 582.863 317.216Z" fill="#9C0C1C"/>
<path d="M588.455 319.192C588.126 319.192 588.126 319.192 588.455 319.192C588.126 319.192 588.126 319.192 588.455 319.192C588.126 319.192 588.126 319.192 588.455 319.192C587.139 318.534 591.415 318.534 598.323 315.898C593.718 316.886 589.771 317.216 586.81 316.886C585.166 317.216 583.85 317.216 583.192 317.216C582.863 317.216 582.534 317.216 582.863 317.545C583.192 317.875 583.85 317.875 584.837 318.204C585.495 318.534 586.81 318.863 588.455 319.192Z" fill="#EA1C1C"/>
<path d="M594.705 322.487C591.415 321.828 589.442 321.169 588.784 320.839C588.784 320.839 588.784 320.839 589.113 320.51C588.455 320.51 588.126 320.51 588.784 320.839C589.442 321.169 591.744 322.157 594.705 322.487C595.034 322.816 594.705 322.816 594.705 322.487Z" fill="#9C0C1C"/>
<path d="M588.784 320.84C589.442 321.169 591.744 322.157 594.704 322.487C594.376 322.487 594.047 322.157 594.047 322.157C593.06 321.498 597.336 321.828 604.243 318.863C599.967 319.851 596.349 319.851 593.389 319.851C591.415 320.181 589.771 320.181 589.113 320.51C588.784 320.84 588.455 320.84 588.784 320.84Z" fill="#EA1C1C"/>
<path d="M606.875 326.769H606.546H606.217C604.572 326.769 603.257 326.44 602.27 326.44C600.625 326.11 598.98 325.781 597.665 325.451C599.638 325.781 602.928 326.44 606.875 326.769Z" fill="#9C0C1C"/>
<path d="M595.362 323.804C594.704 323.804 594.375 323.804 595.033 323.804C594.704 324.134 595.033 324.134 595.362 323.804Z" fill="#9C0C1C"/>
<path d="M601.941 326.11C600.954 325.781 600.296 325.781 599.967 325.452C598.981 324.793 603.257 325.122 610.164 322.157C606.217 323.146 602.928 323.146 600.296 323.146C597.994 323.475 596.349 323.475 595.691 323.804C595.362 323.804 595.033 323.804 595.362 324.134C595.691 324.463 596.678 324.793 597.994 325.122C598.652 325.452 600.296 325.781 601.941 326.11Z" fill="#EA1C1C"/>
<path d="M602.927 328.087C604.901 328.746 608.519 329.734 612.795 329.734C612.795 329.734 612.795 329.734 613.124 329.734C608.519 329.734 605.23 329.075 602.927 328.087Z" fill="#9C0C1C"/>
<path d="M613.124 330.063C613.453 330.063 613.782 330.063 613.782 330.063C609.506 330.063 606.546 329.404 605.888 329.075C604.901 328.416 609.177 328.746 616.085 325.781C612.467 326.44 609.506 326.769 606.875 326.769C606.875 326.769 606.875 326.769 606.546 326.769C603.914 327.098 602.27 327.428 601.283 327.428C600.954 327.428 600.625 327.428 600.954 327.757C601.283 327.757 601.941 328.087 602.928 328.416C605.23 329.075 608.519 329.734 613.124 330.063Z" fill="#EA1C1C"/>
<path d="M608.519 331.381C612.138 332.699 623.65 335.993 636.478 330.064C623.65 335.664 612.138 332.699 608.519 331.381Z" fill="#9C0C1C"/>
<path d="M607.859 331.048C607.534 330.724 607.534 330.724 607.859 331.048C607.534 330.724 607.534 330.724 607.859 331.048Z" fill="#9C0C1C"/>
<path d="M613.782 329.734C613.453 329.734 613.125 329.734 613.125 329.734C613.125 329.734 613.125 329.734 612.796 329.734C610.164 330.063 608.52 330.063 607.862 330.393C607.533 330.393 607.204 330.393 607.533 330.722C607.533 330.722 607.533 330.722 607.862 330.722C607.862 330.722 608.191 330.722 608.191 331.051H608.52C612.138 332.369 623.65 335.663 636.479 329.734C635.821 328.087 634.176 326.44 631.874 325.451C624.966 328.745 618.387 329.734 613.782 329.734Z" fill="#EA1C1C"/>
<path d="M552.602 299.427C552.273 299.427 552.273 299.757 552.273 299.757C555.562 299.098 566.417 297.451 577.271 290.204C575.956 289.874 574.969 289.874 573.982 289.545C563.127 297.78 554.246 298.768 552.602 299.427Z" fill="#9C0C1C"/>
<path d="M568.39 299.757C568.719 299.757 568.719 299.757 568.39 299.757C559.838 301.733 553.588 300.745 552.273 300.086C552.602 300.086 553.259 300.416 553.917 300.416C556.878 301.074 562.141 301.074 568.39 299.757Z" fill="#9C0C1C"/>
<path d="M552.273 300.086C553.588 300.745 560.167 301.733 568.719 299.757C572.666 298.11 577.271 295.474 582.205 291.521C580.561 291.192 578.916 290.533 577.6 290.204C566.417 297.451 555.562 299.098 552.273 300.086Z" fill="#EA1C1C"/>
<path d="M574.64 303.051C574.64 302.721 574.64 302.721 574.64 303.051C568.061 304.698 562.798 304.369 560.167 303.71C560.496 303.71 560.496 303.71 560.825 303.71C563.456 304.039 568.39 304.369 574.64 303.051Z" fill="#9C0C1C"/>
<path d="M568.719 299.427C568.719 299.757 568.719 299.757 568.719 299.427C563.127 301.733 559.18 302.392 558.193 302.721C557.864 302.721 557.864 303.051 558.193 303.051C561.482 302.392 573.324 300.415 584.836 292.18C583.85 291.851 582.863 291.521 581.876 291.192C577.271 295.474 572.666 298.109 568.719 299.427Z" fill="#9C0C1C"/>
<path d="M558.193 303.051C558.193 303.051 558.522 303.38 558.851 303.38H559.18H559.509C562.14 304.039 567.403 304.369 574.311 302.721C578.258 301.074 583.192 298.439 588.784 293.827C587.468 293.168 586.152 292.839 584.836 292.18C573.653 300.416 561.811 302.392 558.193 303.051Z" fill="#EA1C1C"/>
<path d="M580.561 306.016C573.324 307.663 567.732 307.004 565.43 306.674C565.759 306.674 566.417 307.004 567.404 307.004C570.035 307.333 574.64 307.333 580.561 306.016Z" fill="#9C0C1C"/>
<path d="M574.64 302.721C568.719 305.357 564.772 305.686 564.114 306.016C564.114 306.016 564.114 306.016 564.114 306.345C567.403 305.686 579.574 303.71 591.086 295.474C590.428 295.145 589.442 294.486 588.784 294.156C583.521 298.439 578.587 301.074 574.64 302.721Z" fill="#9C0C1C"/>
<path d="M564.443 306.345C564.772 306.345 564.772 306.675 565.101 306.675H565.43C567.732 307.333 573.324 307.663 580.889 306.016C584.837 304.369 589.113 302.063 594.047 298.11C593.718 297.121 593.06 296.133 591.744 295.474C579.574 303.71 567.732 305.686 564.443 306.345Z" fill="#EA1C1C"/>
<path d="M580.56 306.016C574.311 308.651 570.035 308.981 570.035 309.31C570.035 309.31 570.035 309.31 570.035 309.64C570.364 309.969 571.679 310.298 573.324 310.298C576.284 310.628 580.889 310.628 586.152 309.31C577.6 311.287 571.021 310.298 570.035 309.64C573.324 308.981 584.836 307.334 596.349 299.428C595.362 299.098 594.704 299.098 593.718 298.769C593.718 298.439 593.718 298.439 593.718 298.11C588.784 302.063 584.508 304.369 580.56 306.016Z" fill="#9C0C1C"/>
<path d="M570.364 309.639C571.679 310.298 577.929 311.286 586.481 309.31C590.428 307.663 595.362 305.027 600.625 300.745C599.309 300.086 597.665 299.757 596.349 299.427C584.836 307.004 573.324 308.98 570.364 309.639Z" fill="#EA1C1C"/>
<path d="M592.402 312.604C583.85 314.581 577.6 313.263 576.285 312.604C576.942 312.934 578.258 313.263 580.232 313.263C583.192 313.922 587.139 313.922 592.402 312.604Z" fill="#9C0C1C"/>
<path d="M586.481 309.31C579.903 311.945 575.627 312.275 575.955 312.604C579.245 311.945 591.415 310.298 602.928 301.733C602.27 301.404 601.283 300.745 600.296 300.416C595.362 305.028 590.428 307.663 586.481 309.31Z" fill="#9C0C1C"/>
<path d="M576.285 312.933C577.6 313.592 583.85 314.581 592.402 312.604C596.349 310.957 601.283 308.322 606.546 304.039L606.217 303.71C605.559 303.051 604.572 302.392 603.586 301.733C591.415 310.298 579.574 312.275 576.285 312.933Z" fill="#EA1C1C"/>
<path d="M598.323 315.898C590.757 317.545 584.508 316.886 582.534 316.228C583.192 316.557 584.836 316.886 586.81 316.886C589.77 317.216 593.718 316.886 598.323 315.898Z" fill="#9C0C1C"/>
<path d="M592.402 312.604C585.495 315.569 580.89 315.239 582.205 315.898C585.495 315.239 597.007 313.592 608.52 305.686C607.862 305.027 607.204 304.368 606.546 304.039C601.283 308.322 596.349 310.957 592.402 312.604Z" fill="#9C0C1C"/>
<path d="M582.205 315.898C582.205 316.227 582.534 316.227 582.205 315.898C582.534 315.898 582.534 315.898 582.534 316.227C584.508 316.886 590.428 317.875 598.323 315.898C601.941 314.58 605.888 312.274 610.493 308.98C610.164 307.663 609.506 306.674 608.519 305.686C597.007 313.592 585.494 315.569 582.205 315.898Z" fill="#EA1C1C"/>
<path d="M604.243 319.193C597.336 320.84 591.744 320.181 589.113 319.522C590.099 319.851 591.415 319.851 593.389 320.181C596.02 320.181 599.967 320.181 604.243 319.193Z" fill="#9C0C1C"/>
<path d="M598.323 315.898C591.086 318.863 586.81 318.534 588.126 319.192C591.086 318.863 600.625 317.216 611.151 311.286C611.151 310.628 610.822 309.639 610.822 308.98C606.217 312.275 601.941 314.251 598.323 315.898Z" fill="#9C0C1C"/>
<path d="M588.126 319.192C588.455 319.192 588.455 319.192 588.126 319.192C588.455 319.522 588.784 319.522 588.784 319.522C588.784 319.522 588.784 319.522 589.113 319.522C591.415 320.181 597.007 320.84 604.243 319.192C607.861 317.875 611.809 315.569 616.414 312.275C615.098 311.945 613.782 311.616 612.467 311.616H611.151V311.286C600.625 317.216 591.086 318.863 588.126 319.192Z" fill="#EA1C1C"/>
<path d="M604.243 319.193C597.007 322.157 592.731 321.828 594.046 322.487C594.046 322.487 594.375 322.487 594.704 322.816C594.704 322.816 594.704 322.816 595.033 322.816C596.02 323.146 597.994 323.475 600.296 323.475C602.928 323.475 606.546 323.475 610.164 322.487C610.164 322.487 610.164 322.487 610.493 322.487C601.941 324.463 595.362 323.146 594.375 322.487C597.336 322.157 607.861 320.51 619.045 313.592C618.387 313.263 617.729 312.604 616.743 312.275C611.809 315.569 607.861 317.546 604.243 319.193Z" fill="#9C0C1C"/>
<path d="M594.047 322.487C595.362 323.145 601.612 324.463 610.164 322.487C613.454 321.169 617.072 319.192 621.348 316.228C620.69 315.239 619.703 314.251 618.716 313.592C607.533 320.51 597.007 321.828 594.047 322.487Z" fill="#EA1C1C"/>
<path d="M610.164 322.487C602.928 325.451 598.652 325.122 599.967 325.781C600.296 326.11 600.954 326.11 601.941 326.44C602.928 326.769 604.243 326.769 605.888 326.769H606.217H606.546C609.177 326.769 612.138 326.44 615.756 325.781C607.204 327.757 600.954 326.44 599.638 325.781C602.27 325.451 611.809 324.134 621.677 318.204C621.348 317.545 621.019 316.887 620.69 316.228C617.401 319.192 613.453 321.169 610.164 322.487Z" fill="#9C0C1C"/>
<path d="M599.967 325.452C601.283 326.111 607.533 327.428 616.085 325.452C618.058 324.793 620.032 323.805 622.335 322.487C622.335 321.828 622.663 321.169 622.663 320.51C622.663 319.522 622.335 318.863 622.335 317.875C612.138 323.805 602.599 325.122 599.967 325.452Z" fill="#EA1C1C"/>
<path d="M616.085 325.781C609.177 328.416 604.901 328.416 605.888 329.075C606.546 329.404 609.506 330.063 613.782 330.063C618.387 330.063 624.966 329.075 631.873 325.781C618.716 332.04 607.533 329.734 605.888 329.075C607.862 328.746 614.44 327.757 622.006 324.792H621.677C622.006 324.134 622.334 323.475 622.334 323.145C620.032 323.804 618.058 324.792 616.085 325.781Z" fill="#9C0C1C"/>
<path d="M631.874 325.452C630.229 324.793 628.584 324.463 626.611 324.463H622.335C614.769 327.757 608.191 328.746 606.217 328.746C607.533 329.734 618.716 331.711 631.874 325.452Z" fill="#EA1C1C"/>
</svg>
