<svg xmlns="http://www.w3.org/2000/svg" viewBox="0 0 29.96 33.87"><defs><style>.cls-1{font-size:6.86px;font-family:Montserrat-Regular, Montserrat;}.cls-1,.cls-3{fill:#f6df19;}.cls-2{letter-spacing:-0.01em;}.cls-4{fill:#353535;}</style></defs><g id="Camada_2" data-name="Camada 2"><g id="Camada_1-2" data-name="Camada 1"><text class="cls-1" transform="translate(0 32.08)"><tspan class="cls-2">P</tspan><tspan x="4.86" y="0">H</tspan><tspan class="cls-2" x="10.43" y="0">OT</tspan><tspan x="19.99" y="0">OS</tspan></text><circle class="cls-3" cx="14.98" cy="11.31" r="11.31"/><path class="cls-4" d="M21.2,6.85H18.8l-.57-1.61a.59.59,0,0,0-.54-.37H12.27a.58.58,0,0,0-.54.37l-.57,1.61H8.76A1.41,1.41,0,0,0,7.34,8.26v8.07a1.41,1.41,0,0,0,1.42,1.41H21.2a1.42,1.42,0,0,0,1.42-1.41V8.26A1.42,1.42,0,0,0,21.2,6.85ZM15,14.91a2.83,2.83,0,1,1,2.83-2.83A2.83,2.83,0,0,1,15,14.91Zm-1.7-2.83A1.7,1.7,0,1,0,15,10.39,1.7,1.7,0,0,0,13.28,12.08Z"/></g></g></svg>