<svg xmlns="http://www.w3.org/2000/svg" viewBox="0 0 375.52 269.61"><defs><style>.cls-1{fill:#3594aa;}.cls-2{fill:#91f9f6;}.cls-3{fill:#fff;opacity:0.3;}.cls-4{fill:#f98cf9;}.cls-5{fill:#f7bdf9;}.cls-6{fill:#f7ad19;}.cls-7{fill:#f7d08b;}.cls-8{fill:#fcdfb1;}</style></defs><g id="Camada_2" data-name="Camada 2"><g id="_800X800" data-name="800X800"><rect class="cls-1" y="111.43" width="47.74" height="158.17"/><rect class="cls-2" x="4.75" y="120.09" width="10.25" height="10.25"/><rect class="cls-2" x="18.75" y="120.09" width="10.25" height="10.25"/><rect class="cls-2" x="32.75" y="120.09" width="10.25" height="10.25"/><rect class="cls-2" x="4.75" y="137.09" width="10.25" height="10.25"/><rect class="cls-2" x="18.75" y="137.09" width="10.25" height="10.25"/><rect class="cls-2" x="32.75" y="137.09" width="10.25" height="10.25"/><rect class="cls-2" x="4.75" y="154.09" width="10.25" height="10.25"/><rect class="cls-2" x="18.75" y="154.09" width="10.25" height="10.25"/><rect class="cls-2" x="32.75" y="154.09" width="10.25" height="10.25"/><rect class="cls-2" x="4.75" y="171.09" width="10.25" height="10.25"/><rect class="cls-2" x="18.75" y="171.09" width="10.25" height="10.25"/><rect class="cls-2" x="32.75" y="171.09" width="10.25" height="10.25"/><rect class="cls-2" x="4.75" y="188.09" width="10.25" height="10.25"/><rect class="cls-2" x="18.75" y="188.09" width="10.25" height="10.25"/><rect class="cls-2" x="32.75" y="188.09" width="10.25" height="10.25"/><rect class="cls-2" x="4.75" y="205.09" width="10.25" height="10.25"/><rect class="cls-2" x="18.75" y="205.09" width="10.25" height="10.25"/><rect class="cls-2" x="32.75" y="205.09" width="10.25" height="10.25"/><rect class="cls-2" x="4.75" y="222.09" width="10.25" height="10.25"/><rect class="cls-2" x="18.75" y="222.09" width="10.25" height="10.25"/><rect class="cls-2" x="32.75" y="222.09" width="10.25" height="10.25"/><rect class="cls-2" x="4.75" y="239.09" width="10.25" height="10.25"/><rect class="cls-2" x="18.75" y="239.09" width="10.25" height="10.25"/><rect class="cls-2" x="32.75" y="239.09" width="10.25" height="10.25"/><rect class="cls-3" y="111.43" width="23.87" height="158.17"/><polygon class="cls-4" points="91.05 269.6 37.15 269.6 37.15 50.84 91.05 82.84 91.05 269.6"/><rect class="cls-5" x="43.72" y="85.59" width="10.77" height="6.25"/><rect class="cls-5" x="58.72" y="85.59" width="10.77" height="6.25"/><rect class="cls-5" x="73.72" y="85.59" width="10.77" height="6.25"/><rect class="cls-5" x="43.72" y="95.59" width="10.77" height="6.25"/><rect class="cls-5" x="58.72" y="95.59" width="10.77" height="6.25"/><rect class="cls-5" x="73.72" y="95.59" width="10.77" height="6.25"/><rect class="cls-5" x="43.72" y="105.59" width="10.77" height="6.25"/><rect class="cls-5" x="58.72" y="105.59" width="10.77" height="6.25"/><rect class="cls-5" x="73.72" y="105.59" width="10.77" height="6.25"/><rect class="cls-5" x="43.72" y="115.59" width="10.77" height="6.25"/><rect class="cls-5" x="58.72" y="115.59" width="10.77" height="6.25"/><rect class="cls-5" x="73.72" y="115.59" width="10.77" height="6.25"/><rect class="cls-5" x="43.72" y="125.59" width="10.77" height="6.25"/><rect class="cls-5" x="58.72" y="125.59" width="10.77" height="6.25"/><rect class="cls-5" x="73.72" y="125.59" width="10.77" height="6.25"/><rect class="cls-5" x="43.72" y="135.59" width="10.77" height="6.25"/><rect class="cls-5" x="58.72" y="135.59" width="10.77" height="6.25"/><rect class="cls-5" x="73.72" y="135.59" width="10.77" height="6.25"/><rect class="cls-5" x="43.72" y="145.59" width="10.77" height="6.25"/><rect class="cls-5" x="58.72" y="145.59" width="10.77" height="6.25"/><rect class="cls-5" x="73.72" y="145.59" width="10.77" height="6.25"/><rect class="cls-5" x="43.72" y="155.59" width="10.77" height="6.25"/><rect class="cls-5" x="58.72" y="155.59" width="10.77" height="6.25"/><rect class="cls-5" x="73.72" y="155.59" width="10.77" height="6.25"/><rect class="cls-5" x="43.72" y="165.59" width="10.77" height="6.25"/><rect class="cls-5" x="58.72" y="165.59" width="10.77" height="6.25"/><rect class="cls-5" x="73.72" y="165.59" width="10.77" height="6.25"/><rect class="cls-5" x="43.72" y="175.59" width="10.77" height="6.25"/><rect class="cls-5" x="58.72" y="175.59" width="10.77" height="6.25"/><rect class="cls-5" x="73.72" y="175.59" width="10.77" height="6.25"/><rect class="cls-5" x="43.72" y="185.59" width="10.77" height="6.25"/><rect class="cls-5" x="58.72" y="185.59" width="10.77" height="6.25"/><rect class="cls-5" x="73.72" y="185.59" width="10.77" height="6.25"/><rect class="cls-5" x="43.72" y="195.59" width="10.77" height="6.25"/><rect class="cls-5" x="58.72" y="195.59" width="10.77" height="6.25"/><rect class="cls-5" x="73.72" y="195.59" width="10.77" height="6.25"/><rect class="cls-5" x="43.72" y="205.59" width="10.77" height="6.25"/><rect class="cls-5" x="58.72" y="205.59" width="10.77" height="6.25"/><rect class="cls-5" x="73.72" y="205.59" width="10.77" height="6.25"/><rect class="cls-5" x="43.72" y="215.59" width="10.77" height="6.25"/><rect class="cls-5" x="58.72" y="215.59" width="10.77" height="6.25"/><rect class="cls-5" x="73.72" y="215.59" width="10.77" height="6.25"/><rect class="cls-5" x="43.72" y="225.59" width="10.77" height="6.25"/><rect class="cls-5" x="58.72" y="225.59" width="10.77" height="6.25"/><rect class="cls-5" x="73.72" y="225.59" width="10.77" height="6.25"/><rect class="cls-5" x="43.72" y="235.59" width="10.77" height="6.25"/><rect class="cls-5" x="58.72" y="235.59" width="10.77" height="6.25"/><rect class="cls-5" x="73.72" y="235.59" width="10.77" height="6.25"/><rect class="cls-5" x="43.72" y="245.59" width="10.77" height="6.25"/><rect class="cls-5" x="58.72" y="245.59" width="10.77" height="6.25"/><rect class="cls-5" x="73.72" y="245.59" width="10.77" height="6.25"/><polygon class="cls-3" points="64.1 66.84 37.15 50.84 37.15 269.6 64.1 269.6 64.1 66.84"/><polygon class="cls-6" points="176.38 19.63 176.38 19.63 110.97 19.63 91.05 40.96 91.05 269.57 110.97 269.57 176.38 269.57 176.38 269.57 196.31 269.57 196.31 40.96 176.38 19.63"/><rect class="cls-7" x="134.01" y="36.3" width="19.33" height="215.58"/><rect class="cls-8" x="99.55" y="50.96" width="10.25" height="10.25"/><rect class="cls-8" x="115.55" y="50.96" width="10.25" height="10.25"/><rect class="cls-8" x="99.55" y="70.96" width="10.25" height="10.25"/><rect class="cls-8" x="115.55" y="70.96" width="10.25" height="10.25"/><rect class="cls-8" x="99.55" y="90.96" width="10.25" height="10.25"/><rect class="cls-8" x="115.55" y="90.96" width="10.25" height="10.25"/><rect class="cls-8" x="99.55" y="110.96" width="10.25" height="10.25"/><rect class="cls-8" x="115.55" y="110.96" width="10.25" height="10.25"/><rect class="cls-8" x="99.55" y="130.96" width="10.25" height="10.25"/><rect class="cls-8" x="115.55" y="130.96" width="10.25" height="10.25"/><rect class="cls-8" x="99.55" y="150.96" width="10.25" height="10.25"/><rect class="cls-8" x="115.55" y="150.96" width="10.25" height="10.25"/><rect class="cls-8" x="99.55" y="170.96" width="10.25" height="10.25"/><rect class="cls-8" x="115.55" y="170.96" width="10.25" height="10.25"/><rect class="cls-8" x="99.55" y="190.96" width="10.25" height="10.25"/><rect class="cls-8" x="115.55" y="190.96" width="10.25" height="10.25"/><rect class="cls-8" x="99.55" y="210.96" width="10.25" height="10.25"/><rect class="cls-8" x="115.55" y="210.96" width="10.25" height="10.25"/><rect class="cls-8" x="99.55" y="230.96" width="10.25" height="10.25"/><rect class="cls-8" x="115.55" y="230.96" width="10.25" height="10.25"/><rect class="cls-8" x="161.55" y="50.96" width="10.25" height="10.25"/><rect class="cls-8" x="177.55" y="50.96" width="10.25" height="10.25"/><rect class="cls-8" x="161.55" y="70.96" width="10.25" height="10.25"/><rect class="cls-8" x="177.55" y="70.96" width="10.25" height="10.25"/><rect class="cls-8" x="161.55" y="90.96" width="10.25" height="10.25"/><rect class="cls-8" x="177.55" y="90.96" width="10.25" height="10.25"/><rect class="cls-8" x="161.55" y="110.96" width="10.25" height="10.25"/><rect class="cls-8" x="177.55" y="110.96" width="10.25" height="10.25"/><rect class="cls-8" x="161.55" y="130.96" width="10.25" height="10.25"/><rect class="cls-8" x="177.55" y="130.96" width="10.25" height="10.25"/><rect class="cls-8" x="161.55" y="150.96" width="10.25" height="10.25"/><rect class="cls-8" x="177.55" y="150.96" width="10.25" height="10.25"/><rect class="cls-8" x="161.55" y="170.96" width="10.25" height="10.25"/><rect class="cls-8" x="177.55" y="170.96" width="10.25" height="10.25"/><rect class="cls-8" x="161.55" y="190.96" width="10.25" height="10.25"/><rect class="cls-8" x="177.55" y="190.96" width="10.25" height="10.25"/><rect class="cls-8" x="161.55" y="210.96" width="10.25" height="10.25"/><rect class="cls-8" x="177.55" y="210.96" width="10.25" height="10.25"/><rect class="cls-8" x="161.55" y="230.96" width="10.25" height="10.25"/><rect class="cls-8" x="177.55" y="230.96" width="10.25" height="10.25"/><polygon class="cls-3" points="143.68 19.63 110.97 19.63 91.05 40.96 91.05 269.57 110.97 269.57 143.68 269.57 143.68 19.63"/><polygon class="cls-1" points="249.99 151 249.99 32.69 216.99 0 183.99 32.69 183.99 151 177.49 151 177.49 269.61 256.49 269.61 256.49 151 249.99 151"/><rect class="cls-2" x="189.07" y="37.17" width="5.83" height="12.5"/><rect class="cls-2" x="199.07" y="37.17" width="5.83" height="12.5"/><rect class="cls-2" x="209.07" y="37.17" width="5.83" height="12.5"/><rect class="cls-2" x="219.07" y="37.17" width="5.83" height="12.5"/><rect class="cls-2" x="229.07" y="37.17" width="5.83" height="12.5"/><rect class="cls-2" x="239.07" y="37.17" width="5.83" height="12.5"/><rect class="cls-2" x="189.07" y="57.17" width="5.83" height="12.5"/><rect class="cls-2" x="199.07" y="57.17" width="5.83" height="12.5"/><rect class="cls-2" x="209.07" y="57.17" width="5.83" height="12.5"/><rect class="cls-2" x="219.07" y="57.17" width="5.83" height="12.5"/><rect class="cls-2" x="229.07" y="57.17" width="5.83" height="12.5"/><rect class="cls-2" x="239.07" y="57.17" width="5.83" height="12.5"/><rect class="cls-2" x="189.07" y="77.17" width="5.83" height="12.5"/><rect class="cls-2" x="199.07" y="77.17" width="5.83" height="12.5"/><rect class="cls-2" x="209.07" y="77.17" width="5.83" height="12.5"/><rect class="cls-2" x="219.07" y="77.17" width="5.83" height="12.5"/><rect class="cls-2" x="229.07" y="77.17" width="5.83" height="12.5"/><rect class="cls-2" x="239.07" y="77.17" width="5.83" height="12.5"/><rect class="cls-2" x="189.07" y="97.17" width="5.83" height="12.5"/><rect class="cls-2" x="199.07" y="97.17" width="5.83" height="12.5"/><rect class="cls-2" x="209.07" y="97.17" width="5.83" height="12.5"/><rect class="cls-2" x="219.07" y="97.17" width="5.83" height="12.5"/><rect class="cls-2" x="229.07" y="97.17" width="5.83" height="12.5"/><rect class="cls-2" x="239.07" y="97.17" width="5.83" height="12.5"/><rect class="cls-2" x="189.07" y="117.17" width="5.83" height="12.5"/><rect class="cls-2" x="199.07" y="117.17" width="5.83" height="12.5"/><rect class="cls-2" x="209.07" y="117.17" width="5.83" height="12.5"/><rect class="cls-2" x="219.07" y="117.17" width="5.83" height="12.5"/><rect class="cls-2" x="229.07" y="117.17" width="5.83" height="12.5"/><rect class="cls-2" x="239.07" y="117.17" width="5.83" height="12.5"/><rect class="cls-2" x="189.07" y="137.17" width="5.83" height="12.5"/><rect class="cls-2" x="199.07" y="137.17" width="5.83" height="12.5"/><rect class="cls-2" x="209.07" y="137.17" width="5.83" height="12.5"/><rect class="cls-2" x="219.07" y="137.17" width="5.83" height="12.5"/><rect class="cls-2" x="229.07" y="137.17" width="5.83" height="12.5"/><rect class="cls-2" x="239.07" y="137.17" width="5.83" height="12.5"/><rect class="cls-2" x="189.07" y="157.17" width="5.83" height="12.5"/><rect class="cls-2" x="199.07" y="157.17" width="5.83" height="12.5"/><rect class="cls-2" x="209.07" y="157.17" width="5.83" height="12.5"/><rect class="cls-2" x="219.07" y="157.17" width="5.83" height="12.5"/><rect class="cls-2" x="229.07" y="157.17" width="5.83" height="12.5"/><rect class="cls-2" x="239.07" y="157.17" width="5.83" height="12.5"/><rect class="cls-2" x="189.07" y="177.17" width="5.83" height="12.5"/><rect class="cls-2" x="199.07" y="177.17" width="5.83" height="12.5"/><rect class="cls-2" x="209.07" y="177.17" width="5.83" height="12.5"/><rect class="cls-2" x="219.07" y="177.17" width="5.83" height="12.5"/><rect class="cls-2" x="229.07" y="177.17" width="5.83" height="12.5"/><rect class="cls-2" x="239.07" y="177.17" width="5.83" height="12.5"/><rect class="cls-2" x="189.07" y="197.17" width="5.83" height="12.5"/><rect class="cls-2" x="199.07" y="197.17" width="5.83" height="12.5"/><rect class="cls-2" x="209.07" y="197.17" width="5.83" height="12.5"/><rect class="cls-2" x="219.07" y="197.17" width="5.83" height="12.5"/><rect class="cls-2" x="229.07" y="197.17" width="5.83" height="12.5"/><rect class="cls-2" x="239.07" y="197.17" width="5.83" height="12.5"/><rect class="cls-2" x="189.07" y="217.17" width="5.83" height="12.5"/><rect class="cls-2" x="199.07" y="217.17" width="5.83" height="12.5"/><rect class="cls-2" x="209.07" y="217.17" width="5.83" height="12.5"/><rect class="cls-2" x="219.07" y="217.17" width="5.83" height="12.5"/><rect class="cls-2" x="229.07" y="217.17" width="5.83" height="12.5"/><rect class="cls-2" x="239.07" y="217.17" width="5.83" height="12.5"/><rect class="cls-2" x="189.07" y="237.17" width="5.83" height="12.5"/><rect class="cls-2" x="199.07" y="237.17" width="5.83" height="12.5"/><rect class="cls-2" x="209.07" y="237.17" width="5.83" height="12.5"/><rect class="cls-2" x="219.07" y="237.17" width="5.83" height="12.5"/><rect class="cls-2" x="229.07" y="237.17" width="5.83" height="12.5"/><rect class="cls-2" x="239.07" y="237.17" width="5.83" height="12.5"/><polygon class="cls-3" points="216.99 0 183.99 32.69 183.99 151 177.49 151 177.49 269.61 216.99 269.61 216.99 0"/><polygon class="cls-4" points="323.63 154.33 323.63 62.81 311.09 53.85 290.03 53.85 268.97 53.85 256.44 62.81 256.44 154.33 248.59 154.33 248.59 269.6 331.48 269.6 331.48 154.33 323.63 154.33"/><rect class="cls-5" x="261.2" y="67.77" width="10.67" height="5.5"/><rect class="cls-5" x="275.2" y="67.77" width="10.67" height="5.5"/><rect class="cls-5" x="294.2" y="67.77" width="10.67" height="5.5"/><rect class="cls-5" x="308.2" y="67.77" width="10.67" height="5.5"/><rect class="cls-5" x="261.2" y="77.77" width="10.67" height="5.5"/><rect class="cls-5" x="275.2" y="77.77" width="10.67" height="5.5"/><rect class="cls-5" x="294.2" y="77.77" width="10.67" height="5.5"/><rect class="cls-5" x="308.2" y="77.77" width="10.67" height="5.5"/><rect class="cls-5" x="261.2" y="87.77" width="10.67" height="5.5"/><rect class="cls-5" x="275.2" y="87.77" width="10.67" height="5.5"/><rect class="cls-5" x="294.2" y="87.77" width="10.67" height="5.5"/><rect class="cls-5" x="308.2" y="87.77" width="10.67" height="5.5"/><rect class="cls-5" x="261.2" y="97.77" width="10.67" height="5.5"/><rect class="cls-5" x="275.2" y="97.77" width="10.67" height="5.5"/><rect class="cls-5" x="294.2" y="97.77" width="10.67" height="5.5"/><rect class="cls-5" x="308.2" y="97.77" width="10.67" height="5.5"/><rect class="cls-5" x="261.2" y="107.77" width="10.67" height="5.5"/><rect class="cls-5" x="275.2" y="107.77" width="10.67" height="5.5"/><rect class="cls-5" x="294.2" y="107.77" width="10.67" height="5.5"/><rect class="cls-5" x="308.2" y="107.77" width="10.67" height="5.5"/><rect class="cls-5" x="261.2" y="117.77" width="10.67" height="5.5"/><rect class="cls-5" x="275.2" y="117.77" width="10.67" height="5.5"/><rect class="cls-5" x="294.2" y="117.77" width="10.67" height="5.5"/><rect class="cls-5" x="308.2" y="117.77" width="10.67" height="5.5"/><rect class="cls-5" x="261.2" y="127.77" width="10.67" height="5.5"/><rect class="cls-5" x="275.2" y="127.77" width="10.67" height="5.5"/><rect class="cls-5" x="294.2" y="127.77" width="10.67" height="5.5"/><rect class="cls-5" x="308.2" y="127.77" width="10.67" height="5.5"/><rect class="cls-5" x="261.2" y="137.77" width="10.67" height="5.5"/><rect class="cls-5" x="275.2" y="137.77" width="10.67" height="5.5"/><rect class="cls-5" x="294.2" y="137.77" width="10.67" height="5.5"/><rect class="cls-5" x="308.2" y="137.77" width="10.67" height="5.5"/><rect class="cls-5" x="261.2" y="147.77" width="10.67" height="5.5"/><rect class="cls-5" x="275.2" y="147.77" width="10.67" height="5.5"/><rect class="cls-5" x="294.2" y="147.77" width="10.67" height="5.5"/><rect class="cls-5" x="308.2" y="147.77" width="10.67" height="5.5"/><rect class="cls-5" x="254.2" y="157.77" width="10.67" height="5.5"/><rect class="cls-5" x="268.2" y="157.77" width="10.67" height="5.5"/><rect class="cls-5" x="254.2" y="167.77" width="10.67" height="5.5"/><rect class="cls-5" x="268.2" y="167.77" width="10.67" height="5.5"/><rect class="cls-5" x="254.2" y="177.77" width="10.67" height="5.5"/><rect class="cls-5" x="268.2" y="177.77" width="10.67" height="5.5"/><rect class="cls-5" x="254.2" y="187.77" width="10.67" height="5.5"/><rect class="cls-5" x="268.2" y="187.77" width="10.67" height="5.5"/><rect class="cls-5" x="301.2" y="157.77" width="10.67" height="5.5"/><rect class="cls-5" x="315.2" y="157.77" width="10.67" height="5.5"/><rect class="cls-5" x="301.2" y="167.77" width="10.67" height="5.5"/><rect class="cls-5" x="315.2" y="167.77" width="10.67" height="5.5"/><rect class="cls-5" x="301.2" y="177.77" width="10.67" height="5.5"/><rect class="cls-5" x="315.2" y="177.77" width="10.67" height="5.5"/><rect class="cls-5" x="301.2" y="187.77" width="10.67" height="5.5"/><rect class="cls-5" x="315.2" y="187.77" width="10.67" height="5.5"/><rect class="cls-5" x="254.2" y="197.77" width="10.67" height="5.5"/><rect class="cls-5" x="268.2" y="197.77" width="10.67" height="5.5"/><rect class="cls-5" x="254.2" y="207.77" width="10.67" height="5.5"/><rect class="cls-5" x="268.2" y="207.77" width="10.67" height="5.5"/><rect class="cls-5" x="254.2" y="217.77" width="10.67" height="5.5"/><rect class="cls-5" x="268.2" y="217.77" width="10.67" height="5.5"/><rect class="cls-5" x="301.2" y="197.77" width="10.67" height="5.5"/><rect class="cls-5" x="315.2" y="197.77" width="10.67" height="5.5"/><rect class="cls-5" x="301.2" y="207.77" width="10.67" height="5.5"/><rect class="cls-5" x="315.2" y="207.77" width="10.67" height="5.5"/><rect class="cls-5" x="301.2" y="217.77" width="10.67" height="5.5"/><rect class="cls-5" x="315.2" y="217.77" width="10.67" height="5.5"/><rect class="cls-5" x="254.2" y="227.77" width="10.67" height="5.5"/><rect class="cls-5" x="268.2" y="227.77" width="10.67" height="5.5"/><rect class="cls-5" x="254.2" y="237.77" width="10.67" height="5.5"/><rect class="cls-5" x="268.2" y="237.77" width="10.67" height="5.5"/><rect class="cls-5" x="254.2" y="247.77" width="10.67" height="5.5"/><rect class="cls-5" x="268.2" y="247.77" width="10.67" height="5.5"/><rect class="cls-5" x="301.2" y="227.77" width="10.67" height="5.5"/><rect class="cls-5" x="315.2" y="227.77" width="10.67" height="5.5"/><rect class="cls-5" x="301.2" y="237.77" width="10.67" height="5.5"/><rect class="cls-5" x="315.2" y="237.77" width="10.67" height="5.5"/><rect class="cls-5" x="301.2" y="247.77" width="10.67" height="5.5"/><rect class="cls-5" x="315.2" y="247.77" width="10.67" height="5.5"/><polygon class="cls-3" points="290.03 53.85 268.97 53.85 256.44 62.81 256.44 154.33 248.59 154.33 248.59 269.6 290.03 269.6 290.03 53.85"/><polygon class="cls-6" points="328.19 269.6 375.52 269.6 375.52 77.48 328.19 105.58 328.19 269.6"/><rect class="cls-8" x="358.07" y="108" width="6.96" height="5.49"/><rect class="cls-8" x="348.38" y="108" width="6.96" height="5.49"/><rect class="cls-8" x="338.69" y="108" width="6.96" height="5.49"/><rect class="cls-8" x="358.07" y="116.78" width="6.96" height="5.49"/><rect class="cls-8" x="348.38" y="116.78" width="6.96" height="5.49"/><rect class="cls-8" x="338.69" y="116.78" width="6.96" height="5.49"/><rect class="cls-8" x="358.07" y="125.56" width="6.96" height="5.49"/><rect class="cls-8" x="348.38" y="125.56" width="6.96" height="5.49"/><rect class="cls-8" x="338.69" y="125.56" width="6.96" height="5.49"/><rect class="cls-8" x="358.07" y="134.35" width="6.96" height="5.49"/><rect class="cls-8" x="348.38" y="134.35" width="6.96" height="5.49"/><rect class="cls-8" x="338.69" y="134.35" width="6.96" height="5.49"/><rect class="cls-8" x="358.07" y="143.13" width="6.96" height="5.49"/><rect class="cls-8" x="348.38" y="143.13" width="6.96" height="5.49"/><rect class="cls-8" x="338.69" y="143.13" width="6.96" height="5.49"/><rect class="cls-8" x="358.07" y="151.91" width="6.96" height="5.49"/><rect class="cls-8" x="348.38" y="151.91" width="6.96" height="5.49"/><rect class="cls-8" x="338.69" y="151.91" width="6.96" height="5.49"/><rect class="cls-8" x="358.07" y="160.69" width="6.96" height="5.49"/><rect class="cls-8" x="348.38" y="160.69" width="6.96" height="5.49"/><rect class="cls-8" x="338.69" y="160.69" width="6.96" height="5.49"/><rect class="cls-8" x="358.07" y="169.48" width="6.96" height="5.49"/><rect class="cls-8" x="348.38" y="169.48" width="6.96" height="5.49"/><rect class="cls-8" x="338.69" y="169.48" width="6.96" height="5.49"/><rect class="cls-8" x="358.07" y="178.26" width="6.96" height="5.49"/><rect class="cls-8" x="348.38" y="178.26" width="6.96" height="5.49"/><rect class="cls-8" x="338.69" y="178.26" width="6.96" height="5.49"/><rect class="cls-8" x="358.07" y="187.04" width="6.96" height="5.49"/><rect class="cls-8" x="348.38" y="187.04" width="6.96" height="5.49"/><rect class="cls-8" x="338.69" y="187.04" width="6.96" height="5.49"/><rect class="cls-8" x="358.07" y="195.82" width="6.96" height="5.49"/><rect class="cls-8" x="348.38" y="195.82" width="6.96" height="5.49"/><rect class="cls-8" x="338.69" y="195.82" width="6.96" height="5.49"/><rect class="cls-8" x="358.07" y="204.6" width="6.96" height="5.49"/><rect class="cls-8" x="348.38" y="204.6" width="6.96" height="5.49"/><rect class="cls-8" x="338.69" y="204.6" width="6.96" height="5.49"/><rect class="cls-8" x="358.07" y="213.39" width="6.96" height="5.49"/><rect class="cls-8" x="348.38" y="213.39" width="6.96" height="5.49"/><rect class="cls-8" x="338.69" y="213.39" width="6.96" height="5.49"/><rect class="cls-8" x="358.07" y="222.17" width="6.96" height="5.49"/><rect class="cls-8" x="348.38" y="222.17" width="6.96" height="5.49"/><rect class="cls-8" x="338.69" y="222.17" width="6.96" height="5.49"/><rect class="cls-8" x="358.07" y="230.95" width="6.96" height="5.49"/><rect class="cls-8" x="348.38" y="230.95" width="6.96" height="5.49"/><rect class="cls-8" x="338.69" y="230.95" width="6.96" height="5.49"/><rect class="cls-8" x="358.07" y="239.73" width="6.96" height="5.49"/><rect class="cls-8" x="348.38" y="239.73" width="6.96" height="5.49"/><rect class="cls-8" x="338.69" y="239.73" width="6.96" height="5.49"/><rect class="cls-8" x="358.07" y="248.52" width="6.96" height="5.49"/><rect class="cls-8" x="348.38" y="248.52" width="6.96" height="5.49"/><rect class="cls-8" x="338.69" y="248.52" width="6.96" height="5.49"/><polygon class="cls-3" points="351.86 91.53 328.19 105.58 328.19 269.6 351.86 269.6 351.86 91.53"/></g></g></svg>