<svg xmlns="http://www.w3.org/2000/svg" viewBox="0 0 374.62 274.56"><defs><style>.cls-1{fill:#455a64;}.cls-2{fill:#37474f;}.cls-3{fill:#263238;}.cls-4{fill:#ffc727;}.cls-5,.cls-6{opacity:0.3;}.cls-7,.cls-8{opacity:0.2;}</style></defs><g id="Camada_2" data-name="Camada 2"><g id="Building"><rect class="cls-1" x="275.28" y="71.93" width="66" height="202.64"/><rect class="cls-2" x="291.64" y="51.54" width="49.38" height="20.38"/><rect class="cls-1" x="295.76" y="54.69" width="4.22" height="14.09"/><rect class="cls-1" x="303.14" y="54.69" width="4.22" height="14.09"/><rect class="cls-1" x="310.53" y="54.69" width="4.22" height="14.09"/><rect class="cls-1" x="317.92" y="54.69" width="4.22" height="14.09"/><rect class="cls-1" x="325.31" y="54.69" width="4.22" height="14.09"/><rect class="cls-1" x="332.69" y="54.69" width="4.22" height="14.09"/><rect class="cls-1" x="341.03" y="51.54" width="22.46" height="20.38"/><rect class="cls-2" x="344.18" y="54.69" width="3.59" height="14.09"/><rect class="cls-2" x="350.46" y="54.69" width="3.59" height="14.09"/><rect class="cls-2" x="356.74" y="54.69" width="3.59" height="14.09"/><rect class="cls-2" x="341.03" y="71.93" width="33.59" height="202.64"/><rect class="cls-3" x="301.01" y="41.21" width="1.51" height="10.33"/><rect class="cls-3" x="330.15" y="41.21" width="1.51" height="10.33"/><rect class="cls-4" x="294.32" y="23.15" width="44.04" height="18.06"/><rect class="cls-3" x="288.79" y="85.88" width="12.18" height="18.65"/><rect class="cls-3" x="313.58" y="85.88" width="12.18" height="18.65"/><rect class="cls-3" x="288.79" y="115.28" width="12.18" height="18.65"/><rect class="cls-3" x="313.58" y="115.28" width="12.18" height="18.65"/><rect class="cls-3" x="288.79" y="144.67" width="12.18" height="18.65"/><rect class="cls-3" x="313.58" y="144.67" width="12.18" height="18.65"/><rect class="cls-3" x="288.79" y="174.07" width="12.18" height="18.65"/><rect class="cls-3" x="313.58" y="174.07" width="12.18" height="18.65"/><rect class="cls-3" x="288.79" y="203.46" width="12.18" height="18.65"/><rect class="cls-3" x="313.58" y="203.46" width="12.18" height="18.65"/><rect class="cls-3" x="288.79" y="232.85" width="12.18" height="18.65"/><rect class="cls-3" x="313.58" y="232.85" width="12.18" height="18.65"/><rect class="cls-3" x="347.2" y="85.88" width="7" height="18.65"/><rect class="cls-3" x="361.45" y="85.88" width="7" height="18.65"/><rect class="cls-3" x="347.2" y="115.28" width="7" height="18.65"/><rect class="cls-3" x="361.45" y="115.28" width="7" height="18.65"/><rect class="cls-3" x="347.2" y="144.67" width="7" height="18.65"/><rect class="cls-3" x="361.45" y="144.67" width="7" height="18.65"/><rect class="cls-3" x="347.2" y="174.07" width="7" height="18.65"/><rect class="cls-3" x="361.45" y="174.07" width="7" height="18.65"/><rect class="cls-3" x="347.2" y="203.46" width="7" height="18.65"/><rect class="cls-3" x="361.45" y="203.46" width="7" height="18.65"/><rect class="cls-3" x="347.2" y="232.85" width="7" height="18.65"/><rect class="cls-3" x="361.45" y="232.85" width="7" height="18.65"/><rect class="cls-2" x="131.09" y="14.6" width="35.3" height="259.96"/><rect class="cls-1" x="131.09" y="29.17" width="35.3" height="2.73"/><rect class="cls-3" x="134.73" y="39.93" width="6.5" height="15.2"/><rect class="cls-3" x="134.73" y="59.11" width="6.5" height="15.2"/><rect class="cls-3" x="134.73" y="78.28" width="6.5" height="15.2"/><rect class="cls-3" x="134.73" y="97.45" width="6.5" height="15.2"/><rect class="cls-3" x="134.73" y="116.63" width="6.5" height="15.2"/><rect class="cls-3" x="134.73" y="135.81" width="6.5" height="15.2"/><rect class="cls-3" x="134.73" y="154.97" width="6.5" height="15.2"/><rect class="cls-3" x="134.73" y="174.15" width="6.5" height="15.2"/><rect class="cls-3" x="134.73" y="193.33" width="6.5" height="15.2"/><rect class="cls-3" x="134.73" y="212.5" width="6.5" height="15.2"/><rect class="cls-3" x="134.73" y="231.67" width="6.5" height="15.2"/><rect class="cls-3" x="134.73" y="250.85" width="6.5" height="15.2"/><rect class="cls-3" x="134.73" y="39.93" width="6.5" height="15.2"/><rect class="cls-3" x="134.73" y="59.11" width="6.5" height="15.2"/><rect class="cls-3" x="134.73" y="78.28" width="6.5" height="15.2"/><rect class="cls-3" x="134.73" y="97.45" width="6.5" height="15.2"/><rect class="cls-3" x="134.73" y="116.63" width="6.5" height="15.2"/><rect class="cls-3" x="134.73" y="135.81" width="6.5" height="15.2"/><rect class="cls-3" x="134.73" y="154.97" width="6.5" height="15.2"/><rect class="cls-3" x="134.73" y="174.15" width="6.5" height="15.2"/><rect class="cls-3" x="134.73" y="193.33" width="6.5" height="15.2"/><rect class="cls-3" x="134.73" y="212.5" width="6.5" height="15.2"/><rect class="cls-3" x="134.73" y="231.67" width="6.5" height="15.2"/><rect class="cls-3" x="134.73" y="250.85" width="6.5" height="15.2"/><rect class="cls-3" x="145.49" y="39.93" width="6.5" height="15.2"/><rect class="cls-3" x="145.49" y="59.11" width="6.5" height="15.2"/><rect class="cls-3" x="145.49" y="78.28" width="6.5" height="15.2"/><rect class="cls-3" x="145.49" y="97.45" width="6.5" height="15.2"/><rect class="cls-3" x="145.49" y="116.63" width="6.5" height="15.2"/><rect class="cls-3" x="145.49" y="135.81" width="6.5" height="15.2"/><rect class="cls-3" x="145.49" y="154.97" width="6.5" height="15.2"/><rect class="cls-3" x="145.49" y="174.15" width="6.5" height="15.2"/><rect class="cls-3" x="145.49" y="193.33" width="6.5" height="15.2"/><rect class="cls-3" x="145.49" y="212.5" width="6.5" height="15.2"/><rect class="cls-3" x="145.49" y="231.67" width="6.5" height="15.2"/><rect class="cls-3" x="145.49" y="250.85" width="6.5" height="15.2"/><rect class="cls-3" x="145.49" y="39.93" width="6.5" height="15.2"/><rect class="cls-3" x="145.49" y="59.11" width="6.5" height="15.2"/><rect class="cls-3" x="145.49" y="78.28" width="6.5" height="15.2"/><rect class="cls-3" x="145.49" y="97.45" width="6.5" height="15.2"/><rect class="cls-3" x="145.49" y="116.63" width="6.5" height="15.2"/><rect class="cls-3" x="145.49" y="135.81" width="6.5" height="15.2"/><rect class="cls-3" x="145.49" y="154.97" width="6.5" height="15.2"/><rect class="cls-3" x="145.49" y="174.15" width="6.5" height="15.2"/><rect class="cls-3" x="145.49" y="193.33" width="6.5" height="15.2"/><rect class="cls-3" x="145.49" y="212.5" width="6.5" height="15.2"/><rect class="cls-3" x="145.49" y="231.67" width="6.5" height="15.2"/><rect class="cls-3" x="145.49" y="250.85" width="6.5" height="15.2"/><rect class="cls-3" x="156.25" y="39.93" width="6.5" height="15.2"/><rect class="cls-3" x="156.25" y="59.11" width="6.5" height="15.2"/><rect class="cls-3" x="156.25" y="78.28" width="6.5" height="15.2"/><rect class="cls-3" x="156.25" y="97.45" width="6.5" height="15.2"/><rect class="cls-3" x="156.25" y="116.63" width="6.5" height="15.2"/><rect class="cls-3" x="156.25" y="135.81" width="6.5" height="15.2"/><rect class="cls-3" x="156.25" y="154.97" width="6.5" height="15.2"/><rect class="cls-3" x="156.25" y="174.15" width="6.5" height="15.2"/><rect class="cls-3" x="156.25" y="193.33" width="6.5" height="15.2"/><rect class="cls-3" x="156.25" y="212.5" width="6.5" height="15.2"/><rect class="cls-3" x="156.25" y="231.67" width="6.5" height="15.2"/><rect class="cls-3" x="156.25" y="250.85" width="6.5" height="15.2"/><rect class="cls-3" x="156.25" y="39.93" width="6.5" height="15.2"/><rect class="cls-3" x="156.25" y="59.11" width="6.5" height="15.2"/><rect class="cls-3" x="156.25" y="78.28" width="6.5" height="15.2"/><rect class="cls-3" x="156.25" y="97.45" width="6.5" height="15.2"/><rect class="cls-3" x="156.25" y="116.63" width="6.5" height="15.2"/><rect class="cls-3" x="156.25" y="135.81" width="6.5" height="15.2"/><rect class="cls-3" x="156.25" y="154.97" width="6.5" height="15.2"/><rect class="cls-3" x="156.25" y="174.15" width="6.5" height="15.2"/><rect class="cls-3" x="156.25" y="193.33" width="6.5" height="15.2"/><rect class="cls-3" x="156.25" y="212.5" width="6.5" height="15.2"/><rect class="cls-3" x="156.25" y="231.67" width="6.5" height="15.2"/><rect class="cls-3" x="156.25" y="250.85" width="6.5" height="15.2"/><rect class="cls-1" x="70.74" y="14.6" width="60.35" height="259.96"/><rect class="cls-2" x="70.74" y="29.17" width="60.35" height="2.73"/><rect class="cls-2" x="92.25" width="38.84" height="14.6"/><rect class="cls-3" x="131.09" width="18.25" height="14.6" transform="translate(280.42 14.6) rotate(180)"/><rect class="cls-3" x="77.21" y="39.93" width="10.55" height="15.2"/><rect class="cls-3" x="77.21" y="59.11" width="10.55" height="15.2"/><rect class="cls-3" x="77.21" y="78.28" width="10.55" height="15.2"/><rect class="cls-3" x="77.21" y="97.45" width="10.55" height="15.2"/><rect class="cls-3" x="77.21" y="116.63" width="10.55" height="15.2"/><rect class="cls-3" x="77.21" y="135.81" width="10.55" height="15.2"/><rect class="cls-3" x="77.21" y="154.97" width="10.55" height="15.2"/><rect class="cls-3" x="77.21" y="174.15" width="10.55" height="15.2"/><rect class="cls-3" x="77.21" y="193.33" width="10.55" height="15.2"/><rect class="cls-3" x="77.21" y="212.5" width="10.55" height="15.2"/><rect class="cls-3" x="77.21" y="231.67" width="10.55" height="15.2"/><rect class="cls-3" x="77.21" y="250.85" width="10.55" height="15.2"/><rect class="cls-3" x="77.21" y="39.93" width="10.55" height="15.2"/><rect class="cls-3" x="77.21" y="59.11" width="10.55" height="15.2"/><rect class="cls-3" x="77.21" y="78.28" width="10.55" height="15.2"/><rect class="cls-3" x="77.21" y="97.45" width="10.55" height="15.2"/><rect class="cls-3" x="77.21" y="116.63" width="10.55" height="15.2"/><rect class="cls-3" x="77.21" y="135.81" width="10.55" height="15.2"/><rect class="cls-3" x="77.21" y="154.97" width="10.55" height="15.2"/><rect class="cls-3" x="77.21" y="174.15" width="10.55" height="15.2"/><rect class="cls-3" x="77.21" y="193.33" width="10.55" height="15.2"/><rect class="cls-3" x="77.21" y="212.5" width="10.55" height="15.2"/><rect class="cls-3" x="77.21" y="231.67" width="10.55" height="15.2"/><rect class="cls-3" x="77.21" y="250.85" width="10.55" height="15.2"/><rect class="cls-3" x="94.68" y="39.93" width="10.55" height="15.2"/><rect class="cls-3" x="94.68" y="59.11" width="10.55" height="15.2"/><rect class="cls-3" x="94.68" y="78.28" width="10.55" height="15.2"/><rect class="cls-3" x="94.68" y="97.45" width="10.55" height="15.2"/><rect class="cls-3" x="94.68" y="116.63" width="10.55" height="15.2"/><rect class="cls-3" x="94.68" y="135.81" width="10.55" height="15.2"/><rect class="cls-3" x="94.68" y="154.97" width="10.55" height="15.2"/><rect class="cls-3" x="94.68" y="174.15" width="10.55" height="15.2"/><rect class="cls-3" x="94.68" y="193.33" width="10.55" height="15.2"/><rect class="cls-3" x="94.68" y="212.5" width="10.55" height="15.2"/><rect class="cls-3" x="94.68" y="231.67" width="10.55" height="15.2"/><rect class="cls-3" x="94.68" y="250.85" width="10.55" height="15.2"/><rect class="cls-3" x="94.68" y="39.93" width="10.55" height="15.2"/><rect class="cls-3" x="94.68" y="59.11" width="10.55" height="15.2"/><rect class="cls-3" x="94.68" y="78.28" width="10.55" height="15.2"/><rect class="cls-3" x="94.68" y="97.45" width="10.55" height="15.2"/><rect class="cls-3" x="94.68" y="116.63" width="10.55" height="15.2"/><rect class="cls-3" x="94.68" y="135.81" width="10.55" height="15.2"/><rect class="cls-3" x="94.68" y="154.97" width="10.55" height="15.2"/><rect class="cls-3" x="94.68" y="174.15" width="10.55" height="15.2"/><rect class="cls-3" x="94.68" y="193.33" width="10.55" height="15.2"/><rect class="cls-3" x="94.68" y="212.5" width="10.55" height="15.2"/><rect class="cls-3" x="94.68" y="231.67" width="10.55" height="15.2"/><rect class="cls-3" x="94.68" y="250.85" width="10.55" height="15.2"/><rect class="cls-3" x="112.16" y="39.93" width="10.55" height="15.2"/><rect class="cls-3" x="112.16" y="59.11" width="10.55" height="15.2"/><rect class="cls-3" x="112.16" y="78.28" width="10.55" height="15.2"/><rect class="cls-3" x="112.16" y="97.45" width="10.55" height="15.2"/><rect class="cls-3" x="112.16" y="116.63" width="10.55" height="15.2"/><rect class="cls-3" x="112.16" y="135.81" width="10.55" height="15.2"/><rect class="cls-3" x="112.16" y="154.97" width="10.55" height="15.2"/><rect class="cls-3" x="112.16" y="174.15" width="10.55" height="15.2"/><rect class="cls-3" x="112.16" y="193.33" width="10.55" height="15.2"/><rect class="cls-3" x="112.16" y="212.5" width="10.55" height="15.2"/><rect class="cls-3" x="112.16" y="231.67" width="10.55" height="15.2"/><rect class="cls-3" x="112.16" y="250.85" width="10.55" height="15.2"/><rect class="cls-3" x="112.16" y="39.93" width="10.55" height="15.2"/><rect class="cls-3" x="112.16" y="59.11" width="10.55" height="15.2"/><rect class="cls-3" x="112.16" y="78.28" width="10.55" height="15.2"/><rect class="cls-3" x="112.16" y="97.45" width="10.55" height="15.2"/><rect class="cls-3" x="112.16" y="116.63" width="10.55" height="15.2"/><rect class="cls-3" x="112.16" y="135.81" width="10.55" height="15.2"/><rect class="cls-3" x="112.16" y="154.97" width="10.55" height="15.2"/><rect class="cls-3" x="112.16" y="174.15" width="10.55" height="15.2"/><rect class="cls-3" x="112.16" y="193.33" width="10.55" height="15.2"/><rect class="cls-3" x="112.16" y="212.5" width="10.55" height="15.2"/><rect class="cls-3" x="112.16" y="231.67" width="10.55" height="15.2"/><rect class="cls-3" x="112.16" y="250.85" width="10.55" height="15.2"/><polygon class="cls-4" points="47.84 274.56 0 274.56 0 124.49 47.84 93.48 47.84 274.56"/><polygon class="cls-4" points="41.69 274.56 5.38 274.56 5.38 128.69 41.69 105.16 41.69 274.56"/><polygon class="cls-5" points="41.69 274.56 5.38 274.56 5.38 128.69 41.69 105.16 41.69 274.56"/><g class="cls-6"><rect x="9.54" y="131.21" width="32.15" height="1.16"/><rect x="9.54" y="140.69" width="32.15" height="1.16"/><rect x="9.54" y="150.17" width="32.15" height="1.16"/><rect x="9.54" y="159.65" width="32.15" height="1.16"/><rect x="9.54" y="169.13" width="32.15" height="1.16"/><rect x="9.54" y="178.61" width="32.15" height="1.16"/><rect x="9.54" y="188.09" width="32.15" height="1.16"/><rect x="9.54" y="197.57" width="32.15" height="1.16"/><rect x="9.54" y="207.05" width="32.15" height="1.16"/><rect x="9.54" y="216.53" width="32.15" height="1.16"/><rect x="9.54" y="226.01" width="32.15" height="1.16"/><rect x="9.54" y="235.49" width="32.15" height="1.16"/><rect x="9.54" y="244.97" width="32.15" height="1.16"/><rect x="9.54" y="254.45" width="32.15" height="1.16"/><rect x="9.54" y="263.93" width="32.15" height="1.16"/><rect x="9.54" y="273.41" width="32.15" height="1.16"/><rect x="-51.57" y="196.8" width="154.37" height="1.16" transform="translate(-171.76 223) rotate(-90)"/></g><polygon class="cls-4" points="41.69 105.16 41.69 110.38 9.54 131.21 9.54 274.56 5.39 274.56 5.39 128.68 41.69 105.16"/><polygon class="cls-7" points="41.69 105.16 41.69 110.38 9.54 131.21 9.54 274.56 5.39 274.56 5.39 128.68 41.69 105.16"/><rect class="cls-4" x="47.84" y="93.48" width="42.15" height="181.08"/><rect class="cls-7" x="47.84" y="93.48" width="42.15" height="181.08"/><g class="cls-8"><rect x="51.93" y="105.16" width="33.97" height="4.1"/><rect x="51.93" y="114.44" width="33.97" height="4.1"/><rect x="51.93" y="123.73" width="33.97" height="4.1"/><rect x="51.93" y="133.01" width="33.97" height="4.1"/><rect x="51.93" y="142.3" width="33.97" height="4.1"/><rect x="51.93" y="151.59" width="33.97" height="4.1"/><rect x="51.93" y="160.87" width="33.97" height="4.1"/><rect x="51.93" y="170.16" width="33.97" height="4.1"/><rect x="51.93" y="179.44" width="33.97" height="4.1"/><rect x="51.93" y="188.73" width="33.97" height="4.1"/><rect x="51.93" y="198.02" width="33.97" height="4.1"/><rect x="51.93" y="207.3" width="33.97" height="4.1"/><rect x="51.93" y="216.59" width="33.97" height="4.1"/><rect x="51.93" y="225.87" width="33.97" height="4.1"/><rect x="51.93" y="235.16" width="33.97" height="4.1"/><rect x="51.93" y="244.45" width="33.97" height="4.1"/><rect x="51.93" y="253.73" width="33.97" height="4.1"/><rect x="51.93" y="263.02" width="33.97" height="4.1"/></g><rect class="cls-4" x="226.34" y="82.84" width="37.92" height="191.73"/><rect class="cls-7" x="226.34" y="82.84" width="37.92" height="191.73"/><rect class="cls-4" x="226.34" y="76.55" width="40.19" height="6.28" transform="translate(492.86 159.39) rotate(180)"/><rect class="cls-4" x="226.34" y="66.74" width="34.08" height="9.81" transform="translate(486.75 143.3) rotate(180)"/><rect class="cls-7" x="226.34" y="66.74" width="34.08" height="9.81" transform="translate(486.75 143.3) rotate(180)"/><rect class="cls-4" x="226.34" y="45.11" width="26.07" height="21.64" transform="translate(478.74 111.85) rotate(180)"/><rect class="cls-5" x="226.34" y="45.11" width="26.07" height="21.64" transform="translate(478.74 111.85) rotate(180)"/><g class="cls-6"><rect x="229.97" y="90.1" width="5.14" height="20.17"/></g><g class="cls-6"><rect x="229.97" y="117.58" width="5.14" height="20.17"/></g><g class="cls-6"><rect x="229.97" y="145.05" width="5.14" height="20.17"/></g><g class="cls-6"><rect x="229.97" y="172.52" width="5.14" height="20.17"/></g><g class="cls-6"><rect x="229.97" y="200" width="5.14" height="20.17"/></g><g class="cls-6"><rect x="229.97" y="227.47" width="5.14" height="20.17"/></g><g class="cls-6"><rect x="238.47" y="90.1" width="5.14" height="20.17"/></g><g class="cls-6"><rect x="238.47" y="117.58" width="5.14" height="20.17"/></g><g class="cls-6"><rect x="238.47" y="145.05" width="5.14" height="20.17"/></g><g class="cls-6"><rect x="238.47" y="172.52" width="5.14" height="20.17"/></g><g class="cls-6"><rect x="238.47" y="200" width="5.14" height="20.17"/></g><g class="cls-6"><rect x="238.47" y="227.47" width="5.14" height="20.17"/></g><g class="cls-6"><rect x="246.98" y="90.1" width="5.14" height="20.17"/></g><g class="cls-6"><rect x="246.98" y="117.58" width="5.14" height="20.17"/></g><g class="cls-6"><rect x="246.98" y="145.05" width="5.14" height="20.17"/></g><g class="cls-6"><rect x="246.98" y="172.52" width="5.14" height="20.17"/></g><g class="cls-6"><rect x="246.98" y="200" width="5.14" height="20.17"/></g><g class="cls-6"><rect x="246.98" y="227.47" width="5.14" height="20.17"/></g><g class="cls-6"><rect x="255.48" y="90.1" width="5.14" height="20.17"/></g><g class="cls-6"><rect x="255.48" y="117.58" width="5.14" height="20.17"/></g><g class="cls-6"><rect x="255.48" y="145.05" width="5.14" height="20.17"/></g><g class="cls-6"><rect x="255.48" y="172.52" width="5.14" height="20.17"/></g><g class="cls-6"><rect x="255.48" y="200" width="5.14" height="20.17"/></g><g class="cls-6"><rect x="255.48" y="227.47" width="5.14" height="20.17"/></g><rect class="cls-4" x="148.6" y="82.84" width="77.73" height="191.73"/><rect class="cls-4" x="152.33" y="66.74" width="74.01" height="9.81"/><rect class="cls-4" x="170.65" y="45.11" width="55.69" height="21.64"/><rect class="cls-7" x="170.65" y="45.11" width="55.69" height="21.64"/><rect class="cls-4" x="146.28" y="76.55" width="80.06" height="6.28"/><rect class="cls-7" x="146.28" y="76.55" width="80.06" height="6.28"/><g class="cls-6"><rect x="156.03" y="90.1" width="10.55" height="20.17"/></g><g class="cls-6"><rect x="156.03" y="117.58" width="10.55" height="20.17"/></g><g class="cls-6"><rect x="156.03" y="145.05" width="10.55" height="20.17"/></g><g class="cls-6"><rect x="156.03" y="172.52" width="10.55" height="20.17"/></g><g class="cls-6"><rect x="156.03" y="200" width="10.55" height="20.17"/></g><g class="cls-6"><rect x="156.03" y="227.47" width="10.55" height="20.17"/></g><g class="cls-6"><rect x="173.47" y="90.1" width="10.55" height="20.17"/></g><g class="cls-6"><rect x="173.47" y="117.58" width="10.55" height="20.17"/></g><g class="cls-6"><rect x="173.47" y="145.05" width="10.55" height="20.17"/></g><g class="cls-6"><rect x="173.47" y="172.52" width="10.55" height="20.17"/></g><g class="cls-6"><rect x="173.47" y="200" width="10.55" height="20.17"/></g><g class="cls-6"><rect x="173.47" y="227.47" width="10.55" height="20.17"/></g><g class="cls-6"><rect x="190.91" y="90.1" width="10.55" height="20.17"/></g><g class="cls-6"><rect x="190.91" y="117.58" width="10.55" height="20.17"/></g><g class="cls-6"><rect x="190.91" y="145.05" width="10.55" height="20.17"/></g><g class="cls-6"><rect x="190.91" y="172.52" width="10.55" height="20.17"/></g><g class="cls-6"><rect x="190.91" y="200" width="10.55" height="20.17"/></g><g class="cls-6"><rect x="190.91" y="227.47" width="10.55" height="20.17"/></g><g class="cls-6"><rect x="208.35" y="90.1" width="10.55" height="20.17"/></g><g class="cls-6"><rect x="208.35" y="117.58" width="10.55" height="20.17"/></g><g class="cls-6"><rect x="208.35" y="145.05" width="10.55" height="20.17"/></g><g class="cls-6"><rect x="208.35" y="172.52" width="10.55" height="20.17"/></g><g class="cls-6"><rect x="208.35" y="200" width="10.55" height="20.17"/></g><g class="cls-6"><rect x="208.35" y="227.47" width="10.55" height="20.17"/></g><rect class="cls-5" x="173.47" y="255.56" width="27.99" height="19"/><rect class="cls-4" x="304.14" y="165.23" width="37.92" height="109.33"/><rect class="cls-7" x="304.14" y="165.23" width="37.92" height="109.33"/><rect class="cls-4" x="304.14" y="158.95" width="40.19" height="6.28" transform="translate(648.47 324.19) rotate(180)"/><rect class="cls-4" x="304.14" y="149.14" width="34.08" height="9.81" transform="translate(642.35 308.09) rotate(180)"/><rect class="cls-7" x="304.14" y="149.14" width="34.08" height="9.81" transform="translate(642.35 308.09) rotate(180)"/><g class="cls-6"><rect x="307.77" y="172.5" width="5.14" height="20.17"/></g><g class="cls-6"><rect x="307.77" y="199.97" width="5.14" height="20.17"/></g><g class="cls-6"><rect x="307.77" y="227.45" width="5.14" height="20.17"/></g><g class="cls-6"><rect x="316.28" y="172.5" width="5.14" height="20.17"/></g><g class="cls-6"><rect x="316.28" y="199.97" width="5.14" height="20.17"/></g><g class="cls-6"><rect x="316.28" y="227.45" width="5.14" height="20.17"/></g><g class="cls-6"><rect x="324.78" y="172.5" width="5.14" height="20.17"/></g><g class="cls-6"><rect x="324.78" y="199.97" width="5.14" height="20.17"/></g><g class="cls-6"><rect x="324.78" y="227.45" width="5.14" height="20.17"/></g><g class="cls-6"><rect x="333.28" y="172.5" width="5.14" height="20.17"/></g><g class="cls-6"><rect x="333.28" y="199.97" width="5.14" height="20.17"/></g><g class="cls-6"><rect x="333.28" y="227.45" width="5.14" height="20.17"/></g><rect class="cls-4" x="226.4" y="165.23" width="77.73" height="109.33"/><rect class="cls-4" x="230.13" y="149.14" width="74.01" height="9.81"/><rect class="cls-4" x="224.08" y="158.95" width="80.06" height="6.28"/><rect class="cls-7" x="224.08" y="158.95" width="80.06" height="6.28"/><g class="cls-6"><rect x="233.84" y="172.5" width="10.55" height="20.17"/></g><g class="cls-6"><rect x="233.84" y="199.97" width="10.55" height="20.17"/></g><g class="cls-6"><rect x="233.84" y="227.45" width="10.55" height="20.17"/></g><g class="cls-6"><rect x="251.28" y="172.5" width="10.55" height="20.17"/></g><g class="cls-6"><rect x="251.28" y="199.97" width="10.55" height="20.17"/></g><g class="cls-6"><rect x="251.28" y="227.45" width="10.55" height="20.17"/></g><g class="cls-6"><rect x="268.72" y="172.5" width="10.55" height="20.17"/></g><g class="cls-6"><rect x="268.72" y="199.97" width="10.55" height="20.17"/></g><g class="cls-6"><rect x="268.72" y="227.45" width="10.55" height="20.17"/></g><g class="cls-6"><rect x="286.16" y="172.5" width="10.55" height="20.17"/></g><g class="cls-6"><rect x="286.16" y="199.97" width="10.55" height="20.17"/></g><g class="cls-6"><rect x="286.16" y="227.45" width="10.55" height="20.17"/></g></g></g></svg>